<?xml version="1.0" encoding="utf-8"?>
<!-- Generator: Adobe Illustrator 19.0.0, SVG Export Plug-In . SVG Version: 6.00 Build 0)  -->
<svg version="1.1" id="Layer_1" xmlns="http://www.w3.org/2000/svg" xmlns:xlink="http://www.w3.org/1999/xlink" x="0px" y="0px"
	 viewBox="-436 237 87 87" style="enable-background:new -436 237 87 87;" xml:space="preserve">
<g>
	<path d="M-369,324h-47c-11,0-20-9-20-20v-47c0-11,9-20,20-20h47c11,0,20,9,20,20v47C-349,315-358,324-369,324z"/>
</g>
<polyline style="fill:none;stroke:#FFFFFF;stroke-width:1.5;stroke-linecap:round;stroke-linejoin:round;stroke-miterlimit:10;" points="
	-424,265 -393,304 -361,265 "/>
<path style="fill:none;stroke:#FFFFFF;stroke-width:1.5;stroke-linecap:round;stroke-linejoin:round;stroke-miterlimit:10;" d="
	M-401.2133484,293.6669312C-398.6904907,292.59375-395.9145813,292-393,292c2.9900208,0,5.8340759,0.6248779,8.4087219,1.7511902"/>
<g style="enable-background:new    ;">
	<path style="fill:#FFFFFF;" d="M-394.7270508,273.4423828v1.390625l-3.7441406,8.4238281l-1.4970703-0.6152344l3.5830078-7.8085938
		h-4.4521484v-1.390625H-394.7270508z"/>
	<path style="fill:#FFFFFF;" d="M-392.1801758,282.9628906c-0.5039063-0.2226563-0.8916016-0.5390625-1.1635742-0.9492188
		s-0.4077148-0.8828125-0.4077148-1.4179688c0-0.5341797,0.1806641-1.03125,0.5415039-1.4902344
		c0.3613281-0.4589844,0.840332-0.7998047,1.4375-1.0234375c-0.4814453-0.1689453-0.871582-0.4677734-1.1699219-0.8955078
		c-0.2988281-0.4277344-0.4477539-0.8955078-0.4477539-1.4042969c0-0.4990234,0.1220703-0.9375,0.3676758-1.3164063
		c0.2451172-0.3789063,0.590332-0.6728516,1.0361328-0.8828125c0.4453125-0.2089844,0.9667969-0.3144531,1.5644531-0.3144531
		s1.1210938,0.1054688,1.5703125,0.3144531c0.4511719,0.2099609,0.7988281,0.5039063,1.0429688,0.8828125
		c0.2460938,0.3789063,0.3681641,0.8173828,0.3681641,1.3164063c0,0.5087891-0.1494141,0.9697266-0.4482422,1.3837891
		c-0.2988281,0.4150391-0.6933594,0.7070313-1.1835938,0.8759766c0.5976563,0.1787109,1.0791016,0.4970703,1.4453125,0.9560547
		c0.3652344,0.4589844,0.546875,0.9824219,0.546875,1.5712891c0,0.5439453-0.1376953,1.0205078-0.4140625,1.4306641
		c-0.2753906,0.4101563-0.6660156,0.7285156-1.1699219,0.9560547s-1.0898438,0.3408203-1.7578125,0.3408203
		S-391.6767578,283.1855469-392.1801758,282.9628906z M-389.1386719,281.5517578c0.3125-0.2626953,0.46875-0.6171875,0.46875-1.0625
		c0-0.375-0.1611328-0.7246094-0.4824219-1.0498047c-0.3203125-0.3251953-0.7617188-0.5908203-1.3232422-0.7958984
		c-0.5263672,0.1787109-0.9384766,0.4306641-1.2373047,0.7558594c-0.2983398,0.3251953-0.4472656,0.6845703-0.4472656,1.0761719
		c0,0.4550781,0.1538086,0.8134766,0.4609375,1.0761719c0.3076172,0.2636719,0.7333984,0.3945313,1.2773438,0.3945313
		C-389.8789063,281.9462891-389.4511719,281.8154297-389.1386719,281.5517578z M-389.3730469,276.8525391
		c0.2363281-0.2675781,0.3554688-0.5751953,0.3554688-0.9228516c0-0.4101563-0.125-0.7333984-0.375-0.9697266
		c-0.25-0.2353516-0.5927734-0.3544922-1.0292969-0.3544922c-0.4375,0-0.7773438,0.1162109-1.0234375,0.3476563
		c-0.2441406,0.2324219-0.3671875,0.5527344-0.3671875,0.9628906c0,0.3388672,0.1289063,0.6464844,0.3876953,0.9228516
		s0.6152344,0.4902344,1.0693359,0.6416016C-389.9365234,277.3291016-389.609375,277.1191406-389.3730469,276.8525391z"/>
</g>
<circle style="fill:none;stroke:#FFFFFF;stroke-miterlimit:10;" cx="-381.9559326" cy="275.1409607" r="1.6409683"/>
</svg>
