<?xml version="1.0" encoding="utf-8"?>
<!-- Generator: Adobe Illustrator 19.0.0, SVG Export Plug-In . SVG Version: 6.00 Build 0)  -->
<svg version="1.1" id="Layer_1" xmlns="http://www.w3.org/2000/svg" xmlns:xlink="http://www.w3.org/1999/xlink" x="0px" y="0px"
	 viewBox="-254 377.8900146 87 87" style="enable-background:new -254 377.8900146 87 87;" xml:space="preserve">
<style type="text/css">
	.st0{fill:#FFFFFF;}
	.st1{enable-background:new    ;}
</style>
<g>
	<path class="st0" d="M-189,464.8900146h-43c-12.1502686,0-22-9.849762-22-22v-43c0-12.1502686,9.8497314-22,22-22h43
		c12.1502686,0,22,9.8497314,22,22v43C-167,455.0402527-176.8497314,464.8900146-189,464.8900146z"/>
</g>
<g>
	<g>
		<path d="M-187,379.8900146c9.9252319,0,18,8.0747681,18,18v47c0,9.9252319-8.0747681,18-18,18h-47
			c-9.9252319,0-18-8.0747681-18-18v-47c0-9.9252319,8.0747681-18,18-18H-187 M-187,377.8900146h-47c-11,0-20,9-20,20v47
			c0,11,9,20,20,20h47c11,0,20-9,20-20v-47C-167,386.8900146-176,377.8900146-187,377.8900146L-187,377.8900146z"/>
	</g>
</g>
<g>
	<path d="M-211,445.6403809c-0.0019531,0-0.0039063,0-0.0058594,0c-0.2265625-0.0019531-0.4404297-0.1054688-0.5810547-0.2832031
		l-31-39.0004883c-0.2578125-0.3242188-0.2041016-0.7963867,0.1201172-1.0537109
		c0.3256836-0.2578125,0.796875-0.2041016,1.0537109,0.1201172l30.4223633,38.2739258l31.4106445-38.2827148
		c0.2646484-0.3198242,0.7363281-0.3666992,1.0556641-0.1040039c0.3203125,0.2626953,0.3671875,0.7353516,0.1044922,1.0551758
		l-32.0004883,39.0004883C-210.5625,445.5397949-210.7753906,445.6403809-211,445.6403809z"/>
</g>
<g>
	<path d="M-202.5908203,435.3913574c-0.1005859,0-0.203125-0.0205078-0.3007813-0.0625
		c-5.0595703-2.2119141-10.9501953-2.2402344-16.0283203-0.0810547c-0.3808594,0.1591797-0.8217773-0.015625-0.9833984-0.3964844
		c-0.1621094-0.3818359,0.0151367-0.8222656,0.3964844-0.984375c5.4555664-2.3203125,11.7802734-2.2880859,17.2167969,0.0869141
		c0.3789063,0.1660156,0.5527344,0.6083984,0.3867188,0.9882813
		C-202.0263672,435.2233887-202.3017578,435.3913574-202.5908203,435.3913574z"/>
</g>
<g class="st1">
	<g>
		<path d="M-212.7270508,414.3322754v1.390625l-3.7441406,8.4243164l-1.4970703-0.6152344l3.5830078-7.809082h-4.4521484v-1.390625
			H-212.7270508z"/>
	</g>
	<g>
		<path d="M-210.1801758,423.8532715c-0.5039063-0.2226563-0.8916016-0.5390625-1.1635742-0.9492188
			c-0.2719727-0.4106445-0.4077148-0.8833008-0.4077148-1.418457c0-0.5341797,0.1806641-1.03125,0.5415039-1.4902344
			c0.3613281-0.4589844,0.840332-0.7998047,1.4375-1.0234375c-0.4814453-0.1689453-0.871582-0.4677734-1.1699219-0.8955078
			c-0.2988281-0.4277344-0.4477539-0.8955078-0.4477539-1.4042969c0-0.4990234,0.1220703-0.9375,0.3676758-1.3164063
			c0.2451172-0.3789063,0.590332-0.6728516,1.0361328-0.8828125c0.4453125-0.2089844,0.9667969-0.3144531,1.5644531-0.3144531
			s1.1210938,0.1054688,1.5703125,0.3144531c0.4511719,0.2099609,0.7988281,0.5039063,1.0429688,0.8828125
			c0.2460938,0.3789063,0.3681641,0.8173828,0.3681641,1.3164063c0,0.5087891-0.1494141,0.9697266-0.4482422,1.3837891
			c-0.2988281,0.4150391-0.6933594,0.7070313-1.1835938,0.8759766c0.5976563,0.1787109,1.0791016,0.4970703,1.4453125,0.9560547
			c0.3652344,0.4589844,0.546875,0.9824219,0.546875,1.5712891c0,0.5439453-0.1376953,1.0205078-0.4140625,1.4311523
			c-0.2753906,0.4101563-0.6660156,0.7285156-1.1699219,0.9560547s-1.0898438,0.3408203-1.7578125,0.3408203
			S-209.6767578,424.0759277-210.1801758,423.8532715z M-207.1386719,422.4416504
			c0.3125-0.2626953,0.46875-0.6171875,0.46875-1.0625c0-0.375-0.1611328-0.7246094-0.4824219-1.0498047
			c-0.3203125-0.3251953-0.7617188-0.5908203-1.3232422-0.7958984c-0.5263672,0.1787109-0.9384766,0.4306641-1.2373047,0.7558594
			c-0.2983398,0.3251953-0.4472656,0.6845703-0.4472656,1.0761719c0,0.4550781,0.1538086,0.8134766,0.4609375,1.0761719
			c0.3076172,0.2636719,0.7333984,0.3950195,1.2773438,0.3950195
			C-207.8789063,422.8366699-207.4511719,422.7053223-207.1386719,422.4416504z M-207.3730469,417.7424316
			c0.2363281-0.2675781,0.3554688-0.5751953,0.3554688-0.9228516c0-0.4101563-0.125-0.7333984-0.375-0.9697266
			c-0.25-0.2353516-0.5927734-0.3544922-1.0292969-0.3544922c-0.4375,0-0.7773438,0.1162109-1.0234375,0.3476563
			c-0.2441406,0.2324219-0.3671875,0.5527344-0.3671875,0.9628906c0,0.3388672,0.1289063,0.6464844,0.3876953,0.9228516
			s0.6152344,0.4902344,1.0693359,0.6416016C-207.9365234,418.2189941-207.609375,418.0090332-207.3730469,417.7424316z"/>
	</g>
</g>
<g>
	<path d="M-199.9560547,418.1721191c-1.1806641,0-2.140625-0.9604492-2.140625-2.1411133s0.9599609-2.1411133,2.140625-2.1411133
		s2.140625,0.9604492,2.140625,2.1411133S-198.7753906,418.1721191-199.9560547,418.1721191z M-199.9560547,414.8898926
		c-0.6289063,0-1.140625,0.5117188-1.140625,1.1411133s0.5117188,1.1411133,1.140625,1.1411133
		s1.140625-0.5117188,1.140625-1.1411133S-199.3271484,414.8898926-199.9560547,414.8898926z"/>
</g>
</svg>
