<?xml version="1.0" encoding="utf-8"?>
<!-- Generator: Adobe Illustrator 22.1.0, SVG Export Plug-In . SVG Version: 6.00 Build 0)  -->
<svg version="1.1" id="icon" xmlns="http://www.w3.org/2000/svg" xmlns:xlink="http://www.w3.org/1999/xlink" x="0px" y="0px"
	 viewBox="0 0 87 87" style="enable-background:new 0 0 87 87;" xml:space="preserve">
<g>
	<path d="M67,87H20C9,87,0,78,0,67V20C0,9,9,0,20,0h47c11,0,20,9,20,20v47C87,78,78,87,67,87z"/>
</g>
<g>
	<g>
		<g>
			<path style="fill:none;stroke:#FFFFFF;stroke-width:1.5;stroke-linecap:round;stroke-miterlimit:10;" d="M53.1947365,30.6251011
				c0,8.6221943,6.9680557,15.6131535,15.5649605,15.6131535"/>
			<path style="fill:none;stroke:#FFFFFF;stroke-width:1.5;stroke-linecap:round;stroke-miterlimit:10;" d="M37.639534,46.2382545
				c8.5979004,0,15.5577888-6.9909592,15.5577888-15.6131535"/>
			<path style="fill:none;stroke:#FFFFFF;stroke-width:1.5;stroke-linecap:round;stroke-miterlimit:10;" d="M53.2907257,61.7478523
				c-0.101368-8.6223946-7.1472931-15.5263252-15.7406082-15.4227676"/>
			<path style="fill:none;stroke:#FFFFFF;stroke-width:1.5;stroke-linecap:round;stroke-miterlimit:10;" d="M68.759697,46.2263069
				c-8.5969048,0-15.5649605,6.9933472-15.5649605,15.6107635"/>
		</g>
	</g>
	<g>
		<g>
			<path style="fill:none;stroke:#FFFFFF;stroke-width:1.5;stroke-linecap:round;stroke-miterlimit:10;" d="M30.4842434,19.2858009
				c0,6.7478905,5.453455,12.2194824,12.1815815,12.2194824"/>
			<path style="fill:none;stroke:#FFFFFF;stroke-width:1.5;stroke-linecap:round;stroke-miterlimit:10;" d="M18.3102036,31.5052834
				c6.7291431,0,12.1760769-5.4715919,12.1760769-12.2194824"/>
			<path style="fill:none;stroke:#FFFFFF;stroke-width:1.5;stroke-linecap:round;stroke-miterlimit:10;" d="M30.5594387,43.6434593
				c-0.0792713-6.7480965-5.5936584-12.1514206-12.3191338-12.0703163"/>
			<path style="fill:none;stroke:#FFFFFF;stroke-width:1.5;stroke-linecap:round;stroke-miterlimit:10;" d="M42.6658249,31.4959106
				c-6.7281265,0-12.1815815,5.4732208-12.1815815,12.2174454"/>
		</g>
	</g>
	<g>
		<g>
			<path style="fill:none;stroke:#FFFFFF;stroke-width:1.5;stroke-linecap:round;stroke-miterlimit:10;" d="M36.1612434,50.8699989
				c0,4.6530571,3.7604713,8.426033,8.3998985,8.426033"/>
			<path style="fill:none;stroke:#FFFFFF;stroke-width:1.5;stroke-linecap:round;stroke-miterlimit:10;" d="M27.7665443,59.296032
				c4.6401291,0,8.3961029-3.7729759,8.3961029-8.426033"/>
			<path style="fill:none;stroke:#FFFFFF;stroke-width:1.5;stroke-linecap:round;stroke-miterlimit:10;" d="M36.2130966,67.6660004
				c-0.0546646-4.6531982-3.857151-8.3791008-8.494751-8.3231735"/>
			<path style="fill:none;stroke:#FFFFFF;stroke-width:1.5;stroke-linecap:round;stroke-miterlimit:10;" d="M44.561142,59.2895699
				c-4.6394272,0-8.3998985,3.7741013-8.3998985,8.424633"/>
		</g>
	</g>
</g>
</svg>
