<?xml version="1.0" encoding="utf-8"?>
<!-- Generator: Adobe Illustrator 22.1.0, SVG Export Plug-In . SVG Version: 6.00 Build 0)  -->
<svg version="1.1" id="icon" xmlns="http://www.w3.org/2000/svg" xmlns:xlink="http://www.w3.org/1999/xlink" x="0px" y="0px"
	 viewBox="0 0 87 87" style="enable-background:new 0 0 87 87;" xml:space="preserve">
<g>
	<path d="M67,87H20C9,87,0,78,0,67V20C0,9,9,0,20,0h47c11,0,20,9,20,20v47C87,78,78,87,67,87z"/>
</g>
<g>
	<g>
		<g>
			<polyline style="fill:none;stroke:#FFFFFF;stroke-width:1.5;stroke-miterlimit:10;" points="20.416666,29.2478161 
				20.416666,20.416666 29.2478161,20.416666 			"/>
			<polyline style="fill:none;stroke:#FFFFFF;stroke-width:1.5;stroke-miterlimit:10;" points="57.752182,20.416666 
				66.5833359,20.416666 66.5833359,29.2478161 			"/>
			<polyline style="fill:none;stroke:#FFFFFF;stroke-width:1.5;stroke-miterlimit:10;" points="66.5833359,57.752182 
				66.5833359,66.5833359 57.752182,66.5833359 			"/>
			<polyline style="fill:none;stroke:#FFFFFF;stroke-width:1.5;stroke-miterlimit:10;" points="29.2478161,66.5833359 
				20.416666,66.5833359 20.416666,57.752182 			"/>
		</g>
	</g>
	<g>
		<g>
			<path style="fill:none;stroke:#FFFFFF;stroke-width:1.5;stroke-linecap:round;stroke-linejoin:round;stroke-miterlimit:10;" d="
				M48.3591576,30.5991974C52.8125,32.0625,53.1585999,37.007637,53.1074257,41.3707848c0,0-0.0028343,0.0868645,0.0834389,0.134697
				c1.0457993,0.2505684,1.6112366,1.7148933,1.2629814,3.2706146c-0.3228035,1.4420509-1.3170471,2.442173-2.2935219,2.383255
				c-1.5295944,3.7990303-4.7129898,6.418869-8.4037285,6.418869c-3.6907349,0-6.8741341-2.6198387-8.4037285-6.418869
				c-0.9764748,0.058918-1.9707718-0.9412041-2.2935753-2.383255c-0.3482552-1.5557213,0.2171822-3.0200462,1.2629814-3.2706146
				c0.0274658-0.0065956,0.0553169-0.0024223,0.0828934-0.0072136C33.4636497,31.5471478,38.9583321,27.791666,44.625,27.291666"/>
		</g>
		<path style="fill:none;stroke:#FFFFFF;stroke-width:1.5;stroke-linecap:round;stroke-linejoin:round;stroke-miterlimit:10;" d="
			M28.4397812,58.6589737c0,0,10.282196-0.4353752,10.7126465-6.568676"/>
		<path style="fill:none;stroke:#FFFFFF;stroke-width:1.5;stroke-linecap:round;stroke-linejoin:round;stroke-miterlimit:10;" d="
			M49.3065491,54.7014847c2.6281242,3.6519852,9.7668381,3.9574699,9.7668381,3.9574699"/>
	</g>
</g>
</svg>
