<?xml version="1.0" encoding="utf-8"?>
<!-- Generator: Adobe Illustrator 19.0.0, SVG Export Plug-In . SVG Version: 6.00 Build 0)  -->
<svg version="1.1" id="icon" xmlns="http://www.w3.org/2000/svg" xmlns:xlink="http://www.w3.org/1999/xlink" x="0px" y="0px"
	 viewBox="0 0 87 87" style="enable-background:new 0 0 87 87;" xml:space="preserve">
<style type="text/css">
	.st0{fill:#FFFFFF;}
	.st1{fill:none;stroke:#000000;stroke-width:1.5;stroke-miterlimit:10;}
	.st2{fill:none;stroke:#000000;stroke-width:1.5;stroke-linecap:round;stroke-linejoin:round;stroke-miterlimit:10;}
</style>
<path class="st0" d="M65,87H22C9.8497353,87,0,77.1502609,0,65V22C0,9.8497353,9.8497353,0,22,0h43c12.1502609,0,22,9.8497353,22,22
	v43C87,77.1502609,77.1502609,87,65,87z"/>
<g>
	<g>
		<g>
			<polyline class="st1" points="20.416666,29.2478161 20.416666,20.416666 29.2478161,20.416666 			"/>
			<polyline class="st1" points="57.752182,20.416666 66.5833359,20.416666 66.5833359,29.2478161 			"/>
			<polyline class="st1" points="66.5833359,57.752182 66.5833359,66.5833359 57.752182,66.5833359 			"/>
			<polyline class="st1" points="29.2478161,66.5833359 20.416666,66.5833359 20.416666,57.752182 			"/>
		</g>
	</g>
	<g>
		<g>
			<path class="st2" d="M48.3591576,30.5991974C52.8125,32.0625,53.1585999,37.007637,53.1074257,41.3707848
				c0,0-0.0028343,0.0868645,0.0834389,0.134697c1.0457993,0.2505684,1.6112366,1.7148933,1.2629814,3.2706146
				c-0.3228035,1.4420509-1.3170471,2.442173-2.2935219,2.383255c-1.5295944,3.7990303-4.7129898,6.418869-8.4037285,6.418869
				c-3.6907349,0-6.8741341-2.6198387-8.4037285-6.418869c-0.9764748,0.058918-1.9707718-0.9412041-2.2935753-2.383255
				c-0.3482552-1.5557213,0.2171822-3.0200462,1.2629814-3.2706146c0.0274658-0.0065956,0.0553169-0.0024223,0.0828934-0.0072136
				C33.4636497,31.5471478,38.9583321,27.791666,44.625,27.291666"/>
		</g>
		<path class="st2" d="M28.4397812,58.6589737c0,0,10.282196-0.4353752,10.7126465-6.568676"/>
		<path class="st2" d="M49.3065491,54.7014847c2.6281242,3.6519852,9.7668381,3.9574699,9.7668381,3.9574699"/>
	</g>
</g>
<g>
	<path d="M67,2c9.9252319,0,18,8.0747681,18,18v47c0,9.9252319-8.0747681,18-18,18H20c-9.9252319,0-18-8.0747681-18-18V20
		c0-9.9252319,8.0747681-18,18-18H67 M67,0H20C9,0,0,9,0,20v47c0,11,9,20,20,20h47c11,0,20-9,20-20V20C87,9,78,0,67,0L67,0z"/>
</g>
</svg>
