<?xml version="1.0" encoding="utf-8"?>
<!-- Generator: Adobe Illustrator 21.1.0, SVG Export Plug-In . SVG Version: 6.00 Build 0)  -->
<svg version="1.1" id="Isolation_Mode" xmlns="http://www.w3.org/2000/svg" xmlns:xlink="http://www.w3.org/1999/xlink" x="0px"
	 y="0px" viewBox="0 0 54 54" style="enable-background:new 0 0 54 54;" xml:space="preserve">
<style type="text/css">
	.st0{fill:none;stroke:#525252;stroke-width:1.75;stroke-miterlimit:10;}
</style>
<g>
	<path class="st0" d="M22.5,47H8.9c-0.4,0-0.7-0.3-0.7-0.7V14.4c0-0.4,0.3-0.7,0.7-0.7h28.4c0.4,0,0.7,0.3,0.7,0.7v10"/>
	<path class="st0" d="M45.6,47H20.8c-0.4,0-0.7-0.3-0.7-0.7V29.6c0-0.4,0.3-0.7,0.7-0.7h24.8c0.4,0,0.7,0.3,0.7,0.7v16.6
		C46.3,46.6,46,47,45.6,47z"/>
	<path class="st0" d="M16.5,20v-8c0-3.6,3-6.6,6.6-6.6h0c3.6,0,6.6,3,6.6,6.6v8"/>
	<path class="st0" d="M39,32.5v2.8c0,3.2-2.6,5.8-5.8,5.8h0c-3.2,0-5.8-2.6-5.8-5.8v-2.8"/>
</g>
</svg>
