<?xml version="1.0" encoding="utf-8"?>
<!-- Generator: Adobe Illustrator 21.1.0, SVG Export Plug-In . SVG Version: 6.00 Build 0)  -->
<svg version="1.1" id="Layer_1" xmlns="http://www.w3.org/2000/svg" xmlns:xlink="http://www.w3.org/1999/xlink" x="0px" y="0px"
	 viewBox="0 0 54 54" style="enable-background:new 0 0 54 54;" xml:space="preserve">
<style type="text/css">
	.st0{fill:none;stroke:#525252;stroke-width:1.75;stroke-miterlimit:10;}
</style>
<g>
	<line class="st0" x1="8.2" y1="48.8" x2="47.7" y2="48.8"/>
	<path class="st0" d="M8.9,44.8v-34c0-2.2,1.8-4.1,4.1-4.1h23.3c2.2,0,4.1,1.8,4.1,4.1v34"/>
	<rect x="40.6" y="12.2" class="st0" width="6.1" height="17.7"/>
	<path class="st0" d="M19.4,43.9h-4.6c-0.2,0-0.4-0.2-0.4-0.4V11.7c0-0.2,0.2-0.4,0.4-0.4h4.6c0.2,0,0.4,0.2,0.4,0.4v31.8
		C19.8,43.7,19.6,43.9,19.4,43.9z"/>
	<g>
		<path class="st0" d="M24.5,16v-3.8c0-0.2,0.2-0.4,0.4-0.4h9.7c0.2,0,0.4,0.2,0.4,0.4V16c0,0.2-0.2,0.4-0.4,0.4h-9.7
			C24.7,16.4,24.5,16.2,24.5,16z"/>
		<path class="st0" d="M24.5,25.1v-3.8c0-0.2,0.2-0.4,0.4-0.4h9.7c0.2,0,0.4,0.2,0.4,0.4v3.8c0,0.2-0.2,0.4-0.4,0.4h-9.7
			C24.7,25.5,24.5,25.3,24.5,25.1z"/>
		<path class="st0" d="M24.5,34.1v-3.8c0-0.2,0.2-0.4,0.4-0.4h9.7c0.2,0,0.4,0.2,0.4,0.4v3.8c0,0.2-0.2,0.4-0.4,0.4h-9.7
			C24.7,34.6,24.5,34.4,24.5,34.1z"/>
		<path class="st0" d="M24.5,43.2v-3.8c0-0.2,0.2-0.4,0.4-0.4h9.7c0.2,0,0.4,0.2,0.4,0.4v3.8c0,0.2-0.2,0.4-0.4,0.4h-9.7
			C24.7,43.6,24.5,43.4,24.5,43.2z"/>
	</g>
</g>
</svg>
