<?xml version="1.0" encoding="utf-8"?>
<!-- Generator: Adobe Illustrator 21.1.0, SVG Export Plug-In . SVG Version: 6.00 Build 0)  -->
<svg version="1.1" id="Isolation_Mode" xmlns="http://www.w3.org/2000/svg" xmlns:xlink="http://www.w3.org/1999/xlink" x="0px"
	 y="0px" viewBox="0 0 54 54" style="enable-background:new 0 0 54 54;" xml:space="preserve">
<style type="text/css">
	.st0{fill:#FFFFFF;stroke:#525252;stroke-width:1.75;stroke-miterlimit:10;}
	.st1{fill:none;stroke:#525252;stroke-width:1.75;stroke-miterlimit:10;}
</style>
<g>
	<path class="st0" d="M20.7,44v1.8c0,1.9-1.5,3.4-3.4,3.4h-0.7c-1.9,0-3.4-1.5-3.4-3.4V44"/>
	<path class="st0" d="M41.3,44v1.8c0,1.9-1.5,3.4-3.4,3.4h-0.7c-1.9,0-3.4-1.5-3.4-3.4V44"/>
	<path class="st1" d="M9.5,13.6v-2.9c0-2.5,2.1-4.6,4.6-4.6h25.2c2.5,0,4.6,2.1,4.6,4.6v2.9"/>
	<path class="st1" d="M43.9,17.3v4.2c0,0.4-0.3,0.7-0.7,0.7H10.1c-0.4,0-0.7-0.3-0.7-0.7v-4.2"/>
	<path class="st0" d="M41.9,28h-3.5V15c0-1.9-1.5-3.4-3.4-3.4H18.4c-1.9,0-3.4,1.5-3.4,3.4v13h-3.5c-1.5,0-2.7,1.2-2.7,2.7v13.5
		c0,0.3,0.2,0.5,0.5,0.5h34.9c0.3,0,0.5-0.2,0.5-0.5V30.7C44.6,29.2,43.4,28,41.9,28z"/>
	<g>
		<circle class="st1" cx="15.1" cy="33.7" r="2.2"/>
		<circle class="st1" cx="38.3" cy="33.7" r="2.2"/>
		<line class="st1" x1="20.6" y1="33.7" x2="32.5" y2="33.7"/>
	</g>
	<path class="st0" d="M33.7,26.9h-14c-0.1,0-0.3-0.1-0.3-0.3v-9.4c0-0.1,0.1-0.3,0.3-0.3h14c0.1,0,0.3,0.1,0.3,0.3v9.4
		C33.9,26.8,33.8,26.9,33.7,26.9z"/>
	<line class="st1" x1="9" y1="39.5" x2="44.8" y2="39.5"/>
</g>
</svg>
