<?xml version="1.0" encoding="utf-8"?>
<!-- Generator: Adobe Illustrator 21.1.0, SVG Export Plug-In . SVG Version: 6.00 Build 0)  -->
<svg version="1.1" id="Layer_1" xmlns="http://www.w3.org/2000/svg" xmlns:xlink="http://www.w3.org/1999/xlink" x="0px" y="0px"
	 viewBox="0 0 54 54" style="enable-background:new 0 0 54 54;" xml:space="preserve">
<style type="text/css">
	.st0{fill:none;stroke:#525252;stroke-width:1.75;stroke-miterlimit:10;}
</style>
<g>
	<path class="st0" d="M7.9,48.5v-4.9c0-0.2,0.2-0.4,0.4-0.4h37.9c0.2,0,0.4,0.2,0.4,0.4v4.9c0,0.2-0.2,0.4-0.4,0.4H8.3
		C8.1,48.9,7.9,48.7,7.9,48.5z"/>
	<g>
		<path class="st0" d="M12.7,25.5h4.6c0.2,0,0.4,0.2,0.4,0.4v12.7c0,0.2-0.2,0.4-0.4,0.4h-4.6c-0.2,0-0.4-0.2-0.4-0.4V25.9
			C12.3,25.7,12.5,25.5,12.7,25.5z"/>
		<path class="st0" d="M24.9,25.5h4.6c0.2,0,0.4,0.2,0.4,0.4v12.7c0,0.2-0.2,0.4-0.4,0.4h-4.6c-0.2,0-0.4-0.2-0.4-0.4V25.9
			C24.5,25.7,24.7,25.5,24.9,25.5z"/>
		<path class="st0" d="M37.1,25.5h4.6c0.2,0,0.4,0.2,0.4,0.4v12.7c0,0.2-0.2,0.4-0.4,0.4h-4.6c-0.2,0-0.4-0.2-0.4-0.4V25.9
			C36.7,25.7,36.9,25.5,37.1,25.5z"/>
	</g>
	<line class="st0" x1="7" y1="21.3" x2="47.5" y2="21.3"/>
	<path class="st0" d="M19.6,18.2c0-4.2,3.4-7.6,7.6-7.6s7.6,3.4,7.6,7.6"/>
	<line class="st0" x1="27.2" y1="11" x2="27.2" y2="4.6"/>
</g>
</svg>
