<?xml version="1.0" encoding="utf-8"?>
<!-- Generator: Adobe Illustrator 21.1.0, SVG Export Plug-In . SVG Version: 6.00 Build 0)  -->
<svg version="1.1" id="Layer_1" xmlns="http://www.w3.org/2000/svg" xmlns:xlink="http://www.w3.org/1999/xlink" x="0px" y="0px"
	 viewBox="0 0 54.6 54.6" style="enable-background:new 0 0 54.6 54.6;" xml:space="preserve">
<style type="text/css">
	.st0{fill:none;stroke:#525252;stroke-width:1.75;stroke-miterlimit:10;}
</style>
<g>
	<path class="st0" d="M11.9,49.9H6.7c-0.3,0-0.6-0.3-0.6-0.6v-15c0-0.3,0.3-0.6,0.6-0.6h5.2c0.3,0,0.6,0.3,0.6,0.6v15
		C12.5,49.7,12.3,49.9,11.9,49.9z"/>
	<path class="st0" d="M22.9,49.9h-5.2c-0.3,0-0.6-0.3-0.6-0.6V25.8c0-0.3,0.3-0.6,0.6-0.6h5.2c0.3,0,0.6,0.3,0.6,0.6v23.5
		C23.5,49.7,23.2,49.9,22.9,49.9z"/>
	<path class="st0" d="M33.9,49.9h-5.2c-0.3,0-0.6-0.3-0.6-0.6v-43c0-0.3,0.3-0.6,0.6-0.6h5.2c0.3,0,0.6,0.3,0.6,0.6v43
		C34.5,49.7,34.2,49.9,33.9,49.9z"/>
	<path class="st0" d="M44.9,49.9h-5.2c-0.3,0-0.6-0.3-0.6-0.6v-33c0-0.3,0.3-0.6,0.6-0.6h5.2c0.3,0,0.6,0.3,0.6,0.6v33
		C45.5,49.7,45.2,49.9,44.9,49.9z"/>
	<g>
		<line class="st0" x1="6.5" y1="29.3" x2="23.5" y2="12.3"/>
		<polyline class="st0" points="17.2,12 23.7,12 23.7,18.5 		"/>
	</g>
</g>
</svg>
