<svg id="Layer_1" data-name="Layer 1" xmlns="http://www.w3.org/2000/svg" viewBox="0 0 31.5 53.4"><defs><style>.cls-1,.cls-2{fill:none;stroke:#12100b;stroke-miterlimit:10;}.cls-1{stroke-width:1.5px;}</style></defs><path class="cls-1" d="M.75,31.65v18.2a2.8,2.8,0,0,0,2.8,2.8H28a2.78,2.78,0,0,0,2.8-2.7h0V3.55A2.8,2.8,0,0,0,28,.75H3.55a2.78,2.78,0,0,0-2.8,2.7h0Z" transform="translate(0 0)"/><polygon points="19.05 0.85 15.75 4.15 12.45 0.85 19.05 0.85"/><line class="cls-2" x1="20.65" y1="35.45" x2="29.65" y2="51.55"/><line class="cls-2" x1="1.65" y1="1.55" x2="10.85" y2="18.05"/><path d="M22.45,25.15l.3-2H24l-.7,2Zm1.6,0,.3-2h1.2l-.7,2Z" transform="translate(0 0)"/><path d="M12,30.35a3,3,0,0,1-1.06-.19,2.65,2.65,0,0,1-.83-.52,2.44,2.44,0,0,1-.55-.79,2.66,2.66,0,0,1-.2-1,3.37,3.37,0,0,1,.15-1A3.56,3.56,0,0,1,9.88,26l1.91-3h1.62l-1.66,2.4a1.61,1.61,0,0,1,.44-.06,2.27,2.27,0,0,1,1.65.71,2.3,2.3,0,0,1,.5.8,2.47,2.47,0,0,1,.19,1,2.66,2.66,0,0,1-.2,1,2.3,2.3,0,0,1-.55.79,2.48,2.48,0,0,1-.83.52A2.69,2.69,0,0,1,12,30.35Zm0-1.24a1.25,1.25,0,0,0,.5-.11,1.22,1.22,0,0,0,.41-.27,1.34,1.34,0,0,0,.28-.42,1.25,1.25,0,0,0,.1-.51,1.24,1.24,0,0,0-.1-.5,1.42,1.42,0,0,0-.28-.41,1.62,1.62,0,0,0-.41-.27,1.24,1.24,0,0,0-.5-.1,1.16,1.16,0,0,0-.49.1,1.3,1.3,0,0,0-.67.69,1.3,1.3,0,0,0,0,1,1.68,1.68,0,0,0,.27.42,1.56,1.56,0,0,0,.4.27,1,1,0,0,0,.46.11Z" transform="translate(0 0)"/><path d="M15,29.53a.83.83,0,0,1,.22-.6.91.91,0,0,1,1.21,0,.83.83,0,0,1,.22.6.83.83,0,1,1-1.65,0Z" transform="translate(0 0)"/><path d="M19.62,30.35a3.35,3.35,0,0,1-.89-.12,2.7,2.7,0,0,1-.72-.31,2.16,2.16,0,0,1-.54-.46,2,2,0,0,1-.37-.53l1.27-.73a2,2,0,0,0,.46.62,1.16,1.16,0,0,0,.8.27,1.07,1.07,0,0,0,.43-.09,1.26,1.26,0,0,0,.36-.24.94.94,0,0,0,.25-.37,1.34,1.34,0,0,0-.22-1.34,1.06,1.06,0,0,0-.85-.35,1.15,1.15,0,0,0-.72.21,1.87,1.87,0,0,0-.47.54l-1.22-.63L17.75,23h4.11v1.28h-3l-.27,1.51a2.38,2.38,0,0,1,.51-.24,2.05,2.05,0,0,1,.65-.1,2.68,2.68,0,0,1,.93.16A2.14,2.14,0,0,1,22,26.82a2.76,2.76,0,0,1,.19,1.06,2.47,2.47,0,0,1-.19,1,2.26,2.26,0,0,1-.53.77,2.43,2.43,0,0,1-.8.49A2.89,2.89,0,0,1,19.62,30.35Z" transform="translate(0 0)"/></svg>