<svg id="Layer_1" data-name="Layer 1" xmlns="http://www.w3.org/2000/svg" viewBox="0 0 552 71"><defs><style>.cls-1{fill:#ff0;}.cls-2{fill:#4d4d4d;}</style></defs><title>Icon</title><polygon points="22.07 7.84 55.25 7.84 71.56 36.37 55.09 64.99 21.92 64.99 5.37 36.37 22.07 7.84"/><polygon class="cls-1" points="24.2 11.26 53.39 11.26 67.75 36.36 53.26 61.54 24.07 61.54 9.51 36.36 24.2 11.26"/><path d="M33.12,24l2.44-2.36S30.49,16,24.06,20.48a9.57,9.57,0,0,0-2.93,11.39,9.18,9.18,0,0,0,3.68,4.4,9.93,9.93,0,0,0-4.44,9s0,6.88,8.2,8.49a8.42,8.42,0,0,0,7-2.78L33.2,48.56a5.51,5.51,0,0,1-6.36,1.17s-4.51-2-2.78-7.56a5.75,5.75,0,0,1,4.55-3.53l4.32-.11V34.05H30.15a7.92,7.92,0,0,1-2.89-.49A6.48,6.48,0,0,1,23.61,28a5.61,5.61,0,0,1,3.8-5.41S31.05,21.42,33.12,24Z"/><path d="M39.78,34.46v3.39s1.88-.34,2.36.53l3.46,5.86-3.27,5.45s-.49.94-1.13.94H39.7v3.5h.9A5.28,5.28,0,0,0,45,51.87l2.44-4.25L50,51.72A4.74,4.74,0,0,0,53.35,54h1.92V50.71H54.4s-1.13.19-1.43-.6l-3.46-5.87,3.28-5.6A1.22,1.22,0,0,1,54,37.85l1.2-.08V34.46h-1A4.58,4.58,0,0,0,50,36.76l-2.41,4L45.3,36.91S43.91,34,39.78,34.46Z"/><path class="cls-2" d="M364.23,54.14V40.48l-3.58,3.67h-.15V40.48l-2.18,2.24V22.26h-12v-.8H348v-.64h-1.68V18.1H348V16.82h-1.68V16h0a3.19,3.19,0,0,0-3.19-3.19h0v-2h-10v2h0a3.19,3.19,0,0,0-3.2,3.19v.88h-1.76V18.1h1.76v.78h-3.41V34.56h3.41v1.68h-1a6.18,6.18,0,0,0-6.39,5.94v12H320v1.92h46.21V54.14Zm-17.9-27.38h5.82V44.15h-1.59V40.33H349v3.82h-2.71V39.7H348v-.64h-1.68V37.73H348v-.64h-1.68V31H348V29.73h-1.68v-.84H348v-.64h-1.68ZM357,46.15v4.07h-5.66V46.15ZM338.9,29.73h-1.6v-.84h1.6Zm0,9.33h-1.6V37.73h1.6Zm-1.6.64h1.6v8.53h-1.6Zm7.17,9.8V46.15h5.67v4.07h-5.67ZM337.3,28.25V21.46h1.6v6.79Zm0-7.43V18.1h1.6v2.72ZM338.9,31v6.08h-1.6V31ZM337.3,49.5h1.6v4.64h-1.6Zm18.46-24.69V41.52l-2.34,2.4V25.48h-7.09v-.67ZM342.14,11.75v1h0a3.19,3.19,0,0,0-3.2,3.19v.88h-1.6V16h0a3.19,3.19,0,0,0-3.19-3.19h0v-1Zm-14.4,21.53V20.16h2.13v.66h-1.76v.64h1.76v6.79h-1.76v.64h1.76v.84h-1.76V31h1.76v2.27Z"/><path class="cls-2" d="M544.89,49l-8.36-27.52h.62v-1.9h-5.7v1.9h.62L523.71,49h-1.43V40.41H521V4.72h-1.1V7h-7.66V4.72h-1.1V13.4l-.21.26h.21v5.51l-.21.26h.21v5.7l-.21.26h.21V30.9l-.21.26h.21v5.6l-.21.27h.21v3.38h-3.47V49h-2.28V53.1H509v4.2h1.46V53.1h15.06v4.2h1.46V53.1h15.52v4.2h1.46V53.1H547V49ZM512.24,7.78h3.4L512.24,12Zm3.84.62,3.77,4.53h-7.4Zm-3.84,5.26h3.3l-3.3,4.14Zm3.84.51,3.77,4.53h-7.4Zm-3.84,5.26h3.46l-3.46,4.33Zm3.84.7,3.77,4.53h-7.4Zm-3.84,5.26h3.3l-3.3,4.14Zm3.84.51,3.77,4.53h-7.4Zm-3.84,5.26h3.38l-3.38,4.23Zm3.84.6,3.77,4.54h-7.4Zm-2.6,12.82h-4.17V41.9h4.17Zm-1.24-4.17V37h4l-2.7,3.38Zm4.57-2.88,2.4,2.88H514.5Zm2.93,4.53v2.52h-4.17V41.9h4.17Zm.16-2L517.34,37h2.56Zm0-4.9-3.37-4.05h3.37Zm0-5.86-3.29-4h3.29Zm0-5.77-3.46-4.15h3.46Zm0-6-3.29-4h3.29Zm0-5.77-3.39-4.07h3.39ZM541.31,41l-6.25-3.48L539.5,35Zm-13.47.55,6.47-3.61,6.5,3.61Zm12.46.73-5.94,2.36-6-2.36Zm-6.07-12L538.86,34h-9.13Zm0-1L532,27.5h4.49Zm4.26,5.42-4.18,2.33-4.18-2.33Zm.44-1.61L534.8,29.8l2.49-2.06Zm-5.72-11.67h2.18l1.61,5.3h-5.39Zm-1.94,6.41,2.38,1.93-4,3.31ZM529.1,35l4.46,2.48L527.28,41Zm-4,13.29,1.78-5.86L533.37,45Zm1.59.16,7.71-3.06,7.78,3.06ZM535.36,45l6.41-2.54,1.74,5.75Z"/><path class="cls-2" d="M263.28,28.29l-1.95-2.73V23.18a1.93,1.93,0,0,0-1.27-1.82L257.76,19V16a3.26,3.26,0,0,0-3.25-3.25H239.32A3.26,3.26,0,0,0,236.07,16V50.82a3.26,3.26,0,0,0,3.25,3.25h15.19a3.26,3.26,0,0,0,3.25-3.25V35.71a.86.86,0,0,1,.7.55c.4.75.59,2.39.59,5,0,1.08,0,2,0,2.91,0,3.15-.08,4.88.67,5.64a1.39,1.39,0,0,0,1,.39.83.83,0,0,0,.6-.26c1.16-1.18,1.21-6.86,1.15-13.61,0-.65,0-1.26,0-1.83h.81Zm-1,.31v4.94h-2.43V30.71h1.46V27.24Zm-15.44,9.87a3.74,3.74,0,1,1,3.74-3.74A3.74,3.74,0,0,1,246.86,38.47Zm8.26-13.78a2,2,0,0,1-2,1.95H240.66a2,2,0,0,1-1.95-1.95v-6.5a2,2,0,0,1,1.95-2h12.51a2,2,0,0,1,2,2Zm6.71,11.66c0,4.51.1,12.06-1,13.14-.07.07-.11.07-.13.07a.75.75,0,0,1-.57-.2c-.55-.56-.52-2.39-.48-5.17,0-.87,0-1.84,0-2.92,0-2.8-.2-4.44-.66-5.32a1.51,1.51,0,0,0-1.28-.89V34.5h4.06C261.82,35.08,261.83,35.7,261.83,36.35Z"/><path class="cls-2" d="M244.87,35.61a2,2,0,1,0,4,0c0-1.1-2-3.76-2-3.76S244.87,34.51,244.87,35.61Z"/><path class="cls-2" d="M183,44.47h-1.31V42h-3.86c2.27-1.25,3.86-4.13,3.86-7.49V28.45c0-4.9-2.85-8.86-6.37-8.86h-.3V42h-1.33V41.2H167.2V42h-1.33V19.59H144.71c-3.09,0-5.67,3.07-6.25,7.14V24.88c.58-4.07,3.16-7.14,6.25-7.14h21.16v-.89h-9.35v-2.5h-7.19v2.5h-4.62c-3.09,0-5.67,2.83-6.25,6.58V19.22h-6a4.4,4.4,0,0,0-3.92,2.38L123.12,32a4.38,4.38,0,0,1-2.54,2.16l-.12,0a4.43,4.43,0,0,0-3,4.21v6.1h-1.83v2.11h3.72a4.7,4.7,0,0,0-.12,1.08,4.85,4.85,0,0,0,9.69,0,4.7,4.7,0,0,0-.12-1.08h11a4.7,4.7,0,0,0-.12,1.08,4.85,4.85,0,0,0,9.69,0,4.7,4.7,0,0,0-.13-1.08h21.41a4.7,4.7,0,0,0-.13,1.08,4.85,4.85,0,0,0,9.7,0,4.7,4.7,0,0,0-.13-1.08h3ZM146.25,22S149,25.66,149,27.16a2.72,2.72,0,1,1-5.43,0C143.54,25.66,146.25,22,146.25,22Zm-4.06,20h-3.73V36.12A8,8,0,0,0,142.19,42Zm-17-9.52,4.51-9.35a3.54,3.54,0,0,1,3.19-2h2.71a.88.88,0,0,1,.88.89V32.9a.87.87,0,0,1-.88.88H126a.87.87,0,0,1-.75-.41A.91.91,0,0,1,125.23,32.51Z"/><rect class="cls-2" x="167.2" y="37.5" width="6.52" height="2.82"/><rect class="cls-2" x="167.2" y="16.85" width="6.52" height="0.89"/><rect class="cls-2" x="167.2" y="19.59" width="6.52" height="2.23"/><rect class="cls-2" x="167.2" y="30.1" width="6.52" height="2.82"/><rect class="cls-2" x="167.2" y="33.8" width="6.52" height="2.81"/><rect class="cls-2" x="167.2" y="26.4" width="6.52" height="2.82"/><rect class="cls-2" x="167.2" y="22.7" width="6.52" height="2.82"/><path class="cls-2" d="M181.72,26.6V25c0-4.51-2.85-8.17-6.37-8.17h-.3v.89h.3C178.87,17.74,181.72,21.71,181.72,26.6Z"/><path class="cls-2" d="M435.41,12s-14.83,19.83-14.83,28a14.83,14.83,0,1,0,29.66,0C450.24,31.83,435.41,12,435.41,12Zm9.94,32.29a8.92,8.92,0,0,1-.4,1.39,9,9,0,0,1-.54,1.26,6.09,6.09,0,0,1-.63,1.09,5.36,5.36,0,0,1-.67.91,6.91,6.91,0,0,1-.67.73l-.63.54a6.29,6.29,0,0,1-1,.62l-.36.19-.21-.23.18-.35c.1-.24.31-.53.48-.95a13.38,13.38,0,0,0,.59-1.48c0-.14.1-.28.15-.43l.12-.47a9.38,9.38,0,0,0,.23-1A9.52,9.52,0,0,0,442.2,45c0-.19.05-.38.08-.58s0-.41.05-.61c.07-.82.08-1.7.1-2.62s0-1.88,0-2.87a24,24,0,0,0-.26-3c-.14-1-.34-2-.55-3s-.46-2-.71-2.92c-.51-1.89-1.06-3.64-1.57-5.13-1-3-1.88-4.92-1.88-4.92l.27-.15a49.26,49.26,0,0,1,2.65,4.63,51.67,51.67,0,0,1,4.27,11c.28,1.06.51,2.13.72,3.2q.15.81.24,1.62c.05.54.09,1.07.09,1.61A13.37,13.37,0,0,1,445.35,44.29Z"/></svg>