<svg id="Layer_1" data-name="Layer 1" xmlns="http://www.w3.org/2000/svg" viewBox="0 0 570 122"><defs><style>.cls-1{font-size:17.45px;font-family:Quicksand-SemiBold, Quicksand;font-weight:600;}.cls-1,.cls-5{fill:#666;}.cls-2{font-family:MicrosoftSansSerif, Microsoft Sans Serif;font-weight:400;}.cls-3{letter-spacing:0em;}.cls-4{letter-spacing:0em;}.cls-6{letter-spacing:-0.01em;}.cls-7{letter-spacing:-0.02em;}.cls-8{letter-spacing:0em;}.cls-9{font-size:20.84px;fill:#e6e6e6;font-family:Poppins-Regular, Poppins;}.cls-10{fill:none;stroke:#e6e6e6;stroke-linecap:round;stroke-linejoin:round;stroke-width:1.24px;}</style></defs><title>Tab-Ex® 02_Icon</title><text class="cls-1" transform="translate(8.92 97.9)">4,450 mAh</text><text class="cls-1" transform="translate(343.81 97.9)"><tspan xml:space="preserve"> -20 </tspan><tspan class="cls-2" x="36.71" y="0">ํ</tspan><tspan x="36.71" y="0">C </tspan><tspan class="cls-3" x="52.66" y="0">t</tspan><tspan class="cls-4" x="59.31" y="0">o+55 </tspan><tspan class="cls-2" x="104.63" y="0">ํ</tspan><tspan x="104.63" y="0">C</tspan></text><path class="cls-5" d="M46.55,23.22v6.22H39.39a.71.71,0,0,0-.71.72V69.37a.71.71,0,0,0,.71.72h28a.72.72,0,0,0,.72-.72V30.16a.72.72,0,0,0-.72-.72h-6.7V23.22a.72.72,0,0,0-.71-.72H47.27A.72.72,0,0,0,46.55,23.22Zm20.08,7.65V68.65H40.11V30.87H66.63Zm-7.41-6.93v5.5H48v-5.5Z"/><rect class="cls-5" x="39.61" y="30.25" width="27.74" height="39.07"/><rect class="cls-5" x="47.55" y="23.2" width="12.04" height="8.21"/><path class="cls-5" d="M398.32,19.84V50.48a10.14,10.14,0,1,0,7.45.05l.11-30.22A3.82,3.82,0,0,0,402.23,16h-.42A3.84,3.84,0,0,0,398.32,19.84ZM402,68.62a8.69,8.69,0,0,1-8.69-8.68,8.82,8.82,0,0,1,6.45-8.25l-.06-.1.11.08V19.77a2.31,2.31,0,0,1,2.31-2.32h0a2.32,2.32,0,0,1,2.33,2.32V50a2.33,2.33,0,0,0,1.27,2,9.36,9.36,0,0,1,5,7.9A8.69,8.69,0,0,1,402,68.62Z"/><path class="cls-5" d="M399.28,27.77h5.5l.44,22.76s-.24.86,1.35,1.12c0,0,5,3.1,4.94,9,0,0-1.59,8.13-9.24,8.49,0,0-8.69-.4-9.29-8.49,0,0-1.47-7,6.26-9.28Z"/><text class="cls-1" transform="translate(140.53 97.9)">IP68</text><text class="cls-1" transform="translate(510.73 97.91)">S <tspan class="cls-6" x="15.06" y="0">P</tspan><tspan x="25.37" y="0">en</tspan></text><text class="cls-1" transform="translate(232.1 97.9)">SD ca<tspan class="cls-7" x="47.29" y="0">r</tspan><tspan x="54.2" y="0">d </tspan><tspan x="-17.7" y="17">up </tspan><tspan class="cls-8" x="8.04" y="17">t</tspan><tspan x="14.69" y="17">o 256 GB</tspan></text><path class="cls-5" d="M156.42,66.78a15.86,15.86,0,0,1-15.86-15.86c0-8.75,15.86-33.47,15.86-33.47s15.85,24.72,15.85,33.47A15.85,15.85,0,0,1,156.42,66.78Z"/><text class="cls-9" transform="translate(149.42 56.4)">IP</text><path class="cls-5" d="M283.29,24H264.65a1.67,1.67,0,0,0-1.19.5l-11.58,11.8a1.65,1.65,0,0,0-.48,1.17v26a1.66,1.66,0,0,0,1.66,1.67h30.23A1.66,1.66,0,0,0,285,63.39V25.64A1.66,1.66,0,0,0,283.29,24ZM269.14,35.34h-4.27V26.87h4.27Zm6.39,0h-4.27V26.87h4.27Zm6.39,0h-4.27V26.87h4.27Z"/><path class="cls-5" d="M526.91,61.1l34-33.81L549.2,15.58,515.37,49.26s-10,8.49-6.77,17.11l2.08,2.09S516.85,71.76,526.91,61.1Z"/><line class="cls-10" x1="541.7" y1="23.54" x2="553.12" y2="35.01"/><path class="cls-5" d="M510.45,68.29l-2.06,2a1.61,1.61,0,0,1-2.09-2.1l2.06-2Z"/></svg>