<svg id="Layer_1" data-name="Layer 1" xmlns="http://www.w3.org/2000/svg" viewBox="0 0 648 123"><defs><style>.cls-1,.cls-6{font-size:17.45px;font-family:Quicksand-SemiBold, Quicksand;font-weight:600;}.cls-1,.cls-5,.cls-6{fill:#666;}.cls-2{font-family:MicrosoftSansSerif, Microsoft Sans Serif;font-weight:400;}.cls-3{letter-spacing:0em;}.cls-4{letter-spacing:0em;}.cls-6{letter-spacing:-0.03em;}.cls-7{letter-spacing:-0.05em;}.cls-8{letter-spacing:-0.02em;}.cls-9{letter-spacing:-0.05em;}.cls-10{letter-spacing:-0.02em;}.cls-11{letter-spacing:-0.02em;}.cls-12{letter-spacing:0em;}.cls-13,.cls-14{font-size:20.84px;fill:#e6e6e6;}.cls-13{font-family:Poppins-Regular, Poppins;}.cls-14{font-family:Poppins-Medium, Poppins;font-weight:500;}</style></defs><title>Tab-Ex® Pro D2 – 10.1_Icon</title><text class="cls-1" transform="translate(13.99 94.75)">7400 mAh</text><text class="cls-1" transform="translate(522.3 94.75)"><tspan xml:space="preserve"> -20 </tspan><tspan class="cls-2" x="36.71" y="0">ํ</tspan><tspan x="36.71" y="0">C </tspan><tspan class="cls-3" x="52.66" y="0">t</tspan><tspan class="cls-4" x="59.31" y="0">o+55 </tspan><tspan class="cls-2" x="104.63" y="0">ํ</tspan><tspan x="104.63" y="0">C</tspan></text><path class="cls-5" d="M46.14,20.06v6.22H39a.71.71,0,0,0-.71.72V66.21a.71.71,0,0,0,.71.72h28a.71.71,0,0,0,.71-.72V27a.71.71,0,0,0-.71-.72h-6.7V20.06a.71.71,0,0,0-.71-.71H46.85A.71.71,0,0,0,46.14,20.06Zm20.08,7.66V65.5H39.7V27.72H66.22Zm-7.41-6.94v5.5H47.57v-5.5Z"/><rect class="cls-5" x="39.2" y="27.09" width="27.74" height="39.07"/><rect class="cls-5" x="47.14" y="20.04" width="12.04" height="8.21"/><path class="cls-5" d="M576.81,16.68V47.32a10.15,10.15,0,1,0,7.45.06l.11-30.22a3.82,3.82,0,0,0-3.66-4.35h-.41A3.85,3.85,0,0,0,576.81,16.68Zm3.65,48.78a8.68,8.68,0,0,1-8.68-8.68,8.82,8.82,0,0,1,6.45-8.25l-.07-.1.12.08V16.61a2.32,2.32,0,0,1,2.31-2.32h0a2.32,2.32,0,0,1,2.32,2.32l0,30.24a2.35,2.35,0,0,0,1.27,2,9.34,9.34,0,0,1,4.94,7.89A8.68,8.68,0,0,1,580.46,65.46Z"/><path class="cls-5" d="M577.76,24.62h5.5l.44,22.75s-.23.87,1.36,1.12c0,0,5,3.11,4.94,9,0,0-1.59,8.13-9.25,8.49,0,0-8.68-.4-9.28-8.49,0,0-1.48-7,6.26-9.28Z"/><text class="cls-1" transform="translate(129.43 94.75)">IP68</text><text class="cls-1" transform="translate(199.38 94.75)">1920x1200</text><text class="cls-6" transform="translate(413.38 94.75)">13 MP <tspan class="cls-7" x="47.19" y="0">r</tspan><tspan class="cls-8" x="53.66" y="0">e</tspan><tspan x="63.27" y="0">ar /</tspan><tspan x="6.16" y="17">8 MP f</tspan><tspan class="cls-9" x="55.11" y="17">r</tspan><tspan class="cls-10" x="61.58" y="17">ont</tspan></text><text class="cls-1" transform="translate(305.21 94.75)">SD ca<tspan class="cls-11" x="47.29" y="0">r</tspan><tspan x="54.2" y="0">d </tspan><tspan x="-16.04" y="17">up </tspan><tspan class="cls-12" x="9.69" y="17">t</tspan><tspan x="16.34" y="17">o 512 GB</tspan></text><path class="cls-5" d="M145.32,63.62a15.86,15.86,0,0,1-15.86-15.86c0-8.75,15.86-33.47,15.86-33.47S161.17,39,161.17,47.76A15.86,15.86,0,0,1,145.32,63.62Z"/><text class="cls-13" transform="translate(138.32 53.24)">IP</text><path class="cls-5" d="M254.69,20.6H219.17a2.51,2.51,0,0,0-2.51,2.51V59.64a2.51,2.51,0,0,0,2.51,2.51h35.52a2.52,2.52,0,0,0,2.51-2.51V23.11A2.52,2.52,0,0,0,254.69,20.6Zm.77,39.81H218.39V22.34h37.07Z"/><rect class="cls-5" x="217.42" y="22.04" width="38.63" height="38.63"/><text class="cls-14" transform="translate(221.74 48.12)">HD</text><path class="cls-5" d="M356.39,20.82H337.75a1.68,1.68,0,0,0-1.18.49L325,33.11a1.65,1.65,0,0,0-.48,1.17v26a1.67,1.67,0,0,0,1.67,1.66h30.22a1.66,1.66,0,0,0,1.66-1.66V22.48A1.66,1.66,0,0,0,356.39,20.82ZM342.24,32.18H338V23.72h4.27Zm6.4,0h-4.28V23.72h4.28Zm6.39,0h-4.28V23.72H355Z"/><path class="cls-5" d="M458.45,50a1.18,1.18,0,0,1,.91,1.58l-4.65,8.1s-1.84,2.47-4.16,1.08c0,0-4.16-2.16-7.7-9.4,0,0,0-1.58,2-1.33Z"/><path class="cls-5" d="M455,45.13a1.18,1.18,0,0,1-.82,1.63l-9.32.51s-3.08-.21-3.17-2.9c0,0-.46-4.66,3.68-11.58,0,0,1.32-.88,2.22,1Z"/><path class="cls-5" d="M457.58,39.76a1.17,1.17,0,0,1-1.81.24l-5.7-7.39s-1.57-2.65.6-4.25c0,0,3.58-3,11.63-3.52,0,0,1.47.59.45,2.38Z"/><path class="cls-5" d="M461.87,38.71a1.18,1.18,0,0,1-.91-1.58l4.67-8.08s1.86-2.46,4.17-1.07c0,0,4.15,2.17,7.67,9.43,0,0,0,1.58-2,1.32Z"/><path class="cls-5" d="M465.94,42.62a1.18,1.18,0,0,1,.91-1.58h9.34s3.05.38,3,3.07c0,0,.2,4.68-4.31,11.36,0,0-1.36.81-2.16-1.09Z"/><path class="cls-5" d="M463.46,47.78a1.18,1.18,0,0,1,1.82-.15l5.32,7.67s1.43,2.73-.81,4.22c0,0-3.74,2.84-11.8,2.93,0,0-1.43-.66-.33-2.4Z"/></svg>