<?xml version="1.0" encoding="utf-8"?>
<!-- Generator: Adobe Illustrator 20.1.0, SVG Export Plug-In . SVG Version: 6.00 Build 0)  -->
<svg version="1.1" id="Layer_1" xmlns="http://www.w3.org/2000/svg" xmlns:xlink="http://www.w3.org/1999/xlink" x="0px" y="0px"
	 viewBox="0 0 60 60" style="enable-background:new 0 0 60 60;" xml:space="preserve">
<style type="text/css">
	.st0{fill:#12100B;}
	.st1{fill:none;stroke:#12100B;stroke-width:1.5;stroke-miterlimit:10;}
</style>
<polygon class="st0" points="34.8,25.5 32.4,25.5 32.4,25.5 29.5,25.5 29.5,25.5 27.2,34.1 28.9,34.1 27.5,41.9 33.6,31.2 
	31.4,31.2 "/>
<path class="st1" d="M24.6,12.1h-7.2c-0.6,0-1,0.4-1,1v39c0,0.6,0.4,1,1,1h25.3c0.3,0,0.7,0,1,0v-40c0-0.6-0.4-1-1-1h-7.2"/>
<path class="st1" d="M35.4,12.9V7.1c0-0.2-0.1-0.3-0.3-0.3c0,0,0,0,0,0H24.9c-0.2,0-0.3,0.1-0.3,0.3c0,0,0,0,0,0v5.8"/>
</svg>
