<?xml version="1.0" encoding="utf-8"?>
<!-- Generator: Adobe Illustrator 22.0.1, SVG Export Plug-In . SVG Version: 6.00 Build 0)  -->
<svg version="1.1" id="Layer_1" xmlns="http://www.w3.org/2000/svg" xmlns:xlink="http://www.w3.org/1999/xlink" x="0px" y="0px"
	 viewBox="0 0 87 87" style="enable-background:new 0 0 87 87;" xml:space="preserve">
<style type="text/css">
	.st0{fill:#FFFFFF;}
	.st1{fill:none;stroke:#000000;stroke-miterlimit:10;}
	.st2{fill:none;stroke:#000000;stroke-width:1.5;stroke-linecap:round;stroke-linejoin:round;stroke-miterlimit:10;}
</style>
<path class="st0" d="M0.9,19v49.3c0,0,2.8,18.7,19.2,18.3c16.4-0.3,47.6-0.4,47.6-0.4s9.8-0.7,13.8-7.2c0,0,4.7-4.5,4.6-12.4
	S86,19,86,19S83.7,1.1,67.3,0.9S19,0.9,19,0.9S3.3,2.6,0.9,19z"/>
<g>
	<path d="M67,2c9.9,0,18,8.1,18,18v47c0,9.9-8.1,18-18,18H20c-9.9,0-18-8.1-18-18V20c0-9.9,8.1-18,18-18H67 M67,0H20C9,0,0,9,0,20
		v47c0,11,9,20,20,20h47c11,0,20-9,20-20V20C87,9,78,0,67,0L67,0z"/>
</g>
<g>
	<path d="M36.5,33.4v9.7h-1.6v-8l-2.1,0.7l-0.5-1.3l2.8-1.1H36.5z"/>
	<path d="M44.6,41.7v1.4h-6v-1.4l3.2-3.7c0.4-0.5,0.7-0.9,0.9-1.2s0.2-0.6,0.2-0.8c0-0.4-0.1-0.7-0.4-0.9c-0.3-0.2-0.6-0.3-1.1-0.3
		c-0.4,0-0.7,0.1-1.1,0.2s-0.7,0.3-1.1,0.5l-0.7-1.2c0.4-0.3,0.9-0.5,1.4-0.7c0.6-0.2,1.1-0.3,1.6-0.3c0.6,0,1.1,0.1,1.6,0.3
		c0.5,0.2,0.8,0.5,1,0.9c0.2,0.4,0.4,0.8,0.4,1.4c0,0.5-0.1,0.9-0.3,1.4c-0.2,0.5-0.6,1-1.2,1.6l-2.6,2.9H44.6z"/>
	<path d="M51.3,38.1c0.5,0.5,0.7,1.2,0.7,2c0,0.6-0.1,1.2-0.4,1.7c-0.3,0.5-0.7,0.9-1.2,1.1s-1.1,0.4-1.8,0.4
		c-0.5,0-1.1-0.1-1.6-0.2c-0.5-0.2-1-0.4-1.4-0.6l0.6-1.3c0.4,0.2,0.8,0.4,1.2,0.5s0.8,0.2,1.2,0.2c0.6,0,1-0.2,1.3-0.5
		c0.3-0.3,0.5-0.7,0.5-1.3c0-0.5-0.1-0.9-0.4-1.2c-0.3-0.3-0.7-0.4-1.2-0.4c-0.3,0-0.6,0-0.9,0.1l-0.6-0.8l2.8-2.9h-4.1v-1.4h5.8
		v1.4l-2.2,2.3C50.3,37.2,50.9,37.5,51.3,38.1z"/>
</g>
<circle class="st1" cx="56" cy="35.1" r="1.6"/>
<polyline class="st2" points="9,41 44,60 77,41 "/>
<path class="st2" d="M33,54c3.1-3.8,6.4-6,11-6c4.3,0,8.3,2.1,11.3,5.5"/>
</svg>
