<?xml version="1.0" encoding="utf-8"?>
<!-- Generator: Adobe Illustrator 17.0.0, SVG Export Plug-In . SVG Version: 6.00 Build 0)  -->
<!DOCTYPE svg PUBLIC "-//W3C//DTD SVG 1.1//EN" "http://www.w3.org/Graphics/SVG/1.1/DTD/svg11.dtd">
<svg version="1.1" id="Layer_1" xmlns="http://www.w3.org/2000/svg" xmlns:xlink="http://www.w3.org/1999/xlink" x="0px" y="0px"
	 width="595.28px" height="841.89px" viewBox="0 0 595.28 841.89" enable-background="new 0 0 595.28 841.89" xml:space="preserve">
<g id="Layer_2_1_">
</g>
<g>
	<path fill="none" stroke="#231815" stroke-width="15" stroke-linecap="round" stroke-miterlimit="10" d="M389.973,284.76v301.757
		c0,9.951-8.066,18.017-18.017,18.017H223.324c-9.951,0-18.017-8.066-18.017-18.017V284.75c0-9.951,8.066-18.017,18.017-18.017
		h148.632C371.956,266.733,389.973,265.811,389.973,284.76z"/>
	<g>
		<path fill="#231815" d="M244.883,234.023v14.783h105.513v-14.783c0-4.683-3.8-8.483-8.483-8.483h-88.548
			C248.683,225.54,244.883,229.34,244.883,234.023z"/>
	</g>
	<polygon fill="#231815" points="306.931,430.775 342.344,430.775 244.601,500.458 290.383,433.462 265.561,433.462 308.67,376.144 
		351.28,376.144 	"/>
</g>
</svg>
