<svg id="Layer_1" data-name="Layer 1" xmlns="http://www.w3.org/2000/svg" viewBox="0 0 87 87"><defs><style>.cls-1,.cls-2{fill:none;stroke:#fff;}.cls-1{stroke-linecap:round;stroke-linejoin:round;stroke-width:1.5px;}.cls-2{stroke-miterlimit:10;}.cls-3{fill:#fff;}</style></defs><path d="M67,87H20A20.06,20.06,0,0,1,0,67V20A20.06,20.06,0,0,1,20,0H67A20.06,20.06,0,0,1,87,20V67A20.06,20.06,0,0,1,67,87Z" transform="translate(0 0)"/><polyline class="cls-1" points="12 28 43 67 75 28"/><path class="cls-1" d="M34.8,56.7A20.39,20.39,0,0,1,43,55a19.8,19.8,0,0,1,8.4,1.8" transform="translate(0 0)"/><circle class="cls-2" cx="54" cy="35.1" r="1.6"/><path class="cls-3" d="M36.75,42.73a2.49,2.49,0,0,1-1.12-.91,2.44,2.44,0,0,1-.39-1.37A2.25,2.25,0,0,1,35.76,39a3.19,3.19,0,0,1,1.38-1A2.22,2.22,0,0,1,36,37.17a2.35,2.35,0,0,1-.08-2.62,2.33,2.33,0,0,1,1-.85,3.49,3.49,0,0,1,1.5-.3,3.54,3.54,0,0,1,1.51.3,2.22,2.22,0,0,1,1.36,2.12,2.2,2.2,0,0,1-.43,1.33,2.28,2.28,0,0,1-1.14.84,2.76,2.76,0,0,1,1.39.92,2.4,2.4,0,0,1,.53,1.52,2.35,2.35,0,0,1-.4,1.37,2.59,2.59,0,0,1-1.13.92,4,4,0,0,1-1.69.33A4.21,4.21,0,0,1,36.75,42.73Zm2.93-1.36a1.26,1.26,0,0,0,.45-1,1.42,1.42,0,0,0-.47-1,3.47,3.47,0,0,0-1.27-.77,2.81,2.81,0,0,0-1.19.73,1.49,1.49,0,0,0-.43,1,1.3,1.3,0,0,0,.44,1,1.81,1.81,0,0,0,1.23.38A1.84,1.84,0,0,0,39.68,41.37Zm-.23-4.52a1.29,1.29,0,0,0,.34-.89,1.23,1.23,0,0,0-.36-.93,1.62,1.62,0,0,0-2,0,1.2,1.2,0,0,0-.36.93,1.3,1.3,0,0,0,.38.89,2.36,2.36,0,0,0,1,.61A2.18,2.18,0,0,0,39.45,36.85Z" transform="translate(0 0)"/><path class="cls-3" d="M43.83,41.88A6.51,6.51,0,0,1,43,38.23a6.64,6.64,0,0,1,.8-3.67,2.75,2.75,0,0,1,2.43-1.16,2.81,2.81,0,0,1,2.46,1.16,6.64,6.64,0,0,1,.8,3.67,6.6,6.6,0,0,1-.8,3.65,3.13,3.13,0,0,1-4.88,0Zm3.71-1a6.56,6.56,0,0,0,.4-2.63,6.38,6.38,0,0,0-.41-2.64,1.39,1.39,0,0,0-2.54,0,6.58,6.58,0,0,0-.4,2.64,6.56,6.56,0,0,0,.4,2.63,1.39,1.39,0,0,0,2.55,0Z" transform="translate(0 0)"/></svg>