<svg id="Layer_1" data-name="Layer 1" xmlns="http://www.w3.org/2000/svg" viewBox="0 0 87 87"><defs><style>.cls-1{fill:#fff;}.cls-2,.cls-3{fill:none;stroke:#000;}.cls-2{stroke-linecap:round;stroke-linejoin:round;stroke-width:1.5px;}.cls-3{stroke-miterlimit:10;}</style></defs><path class="cls-1" d="M.9,19V68.3S3.7,87,20.1,86.6s47.6-.4,47.6-.4,9.8-.7,13.8-7.2a17.68,17.68,0,0,0,4.6-12.4C86,58.7,86,19,86,19S83.7,1.1,67.3.9,19,.9,19,.9,3.3,2.6.9,19Z" transform="translate(0 0)"/><path d="M67,2A18.05,18.05,0,0,1,85,20V67A18.05,18.05,0,0,1,67,85H20A18.05,18.05,0,0,1,2,67V20A18.05,18.05,0,0,1,20,2H67m0-2H20A20.06,20.06,0,0,0,0,20V67A20.06,20.06,0,0,0,20,87H67A20.06,20.06,0,0,0,87,67V20A20.06,20.06,0,0,0,67,0Z" transform="translate(0 0)"/><polyline class="cls-2" points="12 28 43 67 75 28"/><path class="cls-2" d="M34.8,56.7A20.39,20.39,0,0,1,43,55a19.8,19.8,0,0,1,8.4,1.8" transform="translate(0 0)"/><circle class="cls-3" cx="54" cy="35.1" r="1.6"/><path d="M36.75,42.73a2.55,2.55,0,0,1-1.12-.91,2.45,2.45,0,0,1-.39-1.37A2.26,2.26,0,0,1,35.76,39a3.2,3.2,0,0,1,1.38-1A2.27,2.27,0,0,1,36,37.17a2.3,2.3,0,0,1,.92-3.47,3.5,3.5,0,0,1,1.5-.3,3.58,3.58,0,0,1,1.51.3,2.22,2.22,0,0,1,1.36,2.12,2.18,2.18,0,0,1-.43,1.33,2.28,2.28,0,0,1-1.14.84,2.8,2.8,0,0,1,1.39.92,2.4,2.4,0,0,1,.53,1.52,2.36,2.36,0,0,1-.4,1.37,2.54,2.54,0,0,1-1.13.92,4.08,4.08,0,0,1-1.69.33A4.17,4.17,0,0,1,36.75,42.73Zm2.93-1.36a1.29,1.29,0,0,0,.45-1,1.43,1.43,0,0,0-.47-1,3.39,3.39,0,0,0-1.27-.77,2.83,2.83,0,0,0-1.19.73,1.5,1.5,0,0,0-.43,1,1.28,1.28,0,0,0,.44,1,2.3,2.3,0,0,0,2.47,0Zm-.23-4.52a1.32,1.32,0,0,0,.34-.89,1.21,1.21,0,0,0-.36-.93,1.62,1.62,0,0,0-2,0,1.19,1.19,0,0,0-.36.93,1.31,1.31,0,0,0,.38.89,2.46,2.46,0,0,0,1,.61A2.21,2.21,0,0,0,39.45,36.85Z" transform="translate(0 0)"/><path d="M43.83,41.88A6.47,6.47,0,0,1,43,38.23a6.7,6.7,0,0,1,.8-3.67,2.76,2.76,0,0,1,2.43-1.16,2.84,2.84,0,0,1,2.46,1.16,6.7,6.7,0,0,1,.8,3.67,6.62,6.62,0,0,1-.8,3.65,3.13,3.13,0,0,1-4.4.48,2.73,2.73,0,0,1-.48-.48Zm3.71-1a6.56,6.56,0,0,0,.4-2.63,6.42,6.42,0,0,0-.41-2.64,1.39,1.39,0,0,0-1.83-.71,1.4,1.4,0,0,0-.71.71,6.58,6.58,0,0,0-.4,2.64,6.56,6.56,0,0,0,.4,2.63,1.39,1.39,0,0,0,1.83.72A1.41,1.41,0,0,0,47.54,40.88Z" transform="translate(0 0)"/></svg>