<svg id="레이어_1" data-name="레이어 1" xmlns="http://www.w3.org/2000/svg" viewBox="0 0 41.5 48.35"><defs><style>.cls-1{fill:none;stroke:#000;stroke-linejoin:round;stroke-width:1.5px;}</style></defs><path class="cls-1" d="M28.6,25.9H16.3c-.2,0-.3-.1-.3-.2V11.9c0-.1.1-.2.3-.2H28.6c.2,0,.3.1.3.2V25.6A.27.27,0,0,1,28.6,25.9Z" transform="translate(-9.25 -5.45)"/><path class="cls-1" d="M50,53.8V8.2a2,2,0,0,0-2-2H12a2,2,0,0,0-2,2V53.8" transform="translate(-9.25 -5.45)"/><circle cx="10.75" cy="10.95" r="1.8"/><circle cx="10.75" cy="15.85" r="1.8"/><circle cx="15.45" cy="15.85" r="1.8"/><circle cx="15.45" cy="10.95" r="1.8"/><path d="M20,28.69a1.81,1.81,0,1,0,1.8,1.81A1.8,1.8,0,0,0,20,28.69Zm0,2.62a.81.81,0,1,1,.8-.81A.81.81,0,0,1,20,31.31Z" transform="translate(-9.25 -5.45)"/></svg>