<?xml version="1.0" encoding="utf-8"?>
<!-- Generator: Adobe Illustrator 23.0.3, SVG Export Plug-In . SVG Version: 6.00 Build 0)  -->
<svg version="1.1" baseProfile="tiny" xmlns="http://www.w3.org/2000/svg" xmlns:xlink="http://www.w3.org/1999/xlink" x="0px"
	 y="0px" viewBox="0 0 87 87" xml:space="preserve">
<g id="레이어_3">
	<path fill="#FFFFFF" d="M87,43.5C87,67.5,67.5,87,43.5,87S0,67.5,0,43.5S19.5,0,43.5,0S87,19.5,87,43.5"/>
	<rect fill="none" width="87" height="87"/>
</g>
<g id="Layer_4">
	<rect fill="none" width="87" height="87"/>
	<g>
		<path fill="none" d="M54.9,33H32.1c-1.8,0-3.2,1.5-3.2,3.2s1.5,3.2,3.2,3.2h22.7c1.8,0,3.2-1.5,3.2-3.2S56.6,33,54.9,33z"/>
		<path fill="none" d="M72.3,34.4c0-3-2.5-5.5-5.5-5.5H20.3c-3,0-5.5,2.5-5.5,5.5v9.3h57.5V34.4z M54.9,41.5H32.1
			c-2.9,0-5.2-2.4-5.2-5.2s2.4-5.2,5.2-5.2h22.7c2.9,0,5.2,2.4,5.2,5.2S57.7,41.5,54.9,41.5z"/>
		<path d="M12.7,74.3c0.6,0.6,1.3,1.3,2,1.9V45.7h-0.6v-2h0.6v-9.3c0-3,2.5-5.5,5.5-5.5h46.5c3,0,5.5,2.5,5.5,5.5v9.3h0.6v2h-0.6
			v30.5c0.7-0.6,1.4-1.2,2-1.9V34.4c0-4.1-3.4-7.5-7.5-7.5H20.3c-4.1,0-7.5,3.4-7.5,7.5V74.3z"/>
		<polygon points="72.9,43.7 72.3,43.7 14.7,43.7 14.1,43.7 14.1,45.7 14.7,45.7 72.3,45.7 72.9,45.7 		"/>
		<path d="M54.9,31H32.1c-2.9,0-5.2,2.4-5.2,5.2s2.4,5.2,5.2,5.2h22.7c2.9,0,5.2-2.4,5.2-5.2S57.7,31,54.9,31z M54.9,39.5H32.1
			c-1.8,0-3.2-1.5-3.2-3.2s1.5-3.2,3.2-3.2h22.7c1.8,0,3.2,1.5,3.2,3.2S56.6,39.5,54.9,39.5z"/>
	</g>
</g>
</svg>
