<?xml version="1.0" encoding="utf-8"?>
<!-- Generator: Adobe Illustrator 23.0.2, SVG Export Plug-In . SVG Version: 6.00 Build 0)  -->
<svg version="1.1" xmlns="http://www.w3.org/2000/svg" xmlns:xlink="http://www.w3.org/1999/xlink" x="0px" y="0px"
	 viewBox="0 0 60 60" style="enable-background:new 0 0 60 60;" xml:space="preserve">
<style type="text/css">
	.st0{fill:#FFFFFF;}
	.st1{clip-path:url(#SVGID_2_);}
	.st2{fill:none;stroke:#000000;stroke-width:1.5;stroke-miterlimit:10;}
	.st3{fill:#FFFFFF;stroke:#000000;stroke-width:1.5;stroke-linecap:round;stroke-linejoin:round;stroke-miterlimit:10;}
</style>
<g id="Layer_3">
	<rect class="st0" width="60" height="60"/>
</g>
<g id="레이어_2">
	<g>
		<defs>
			<rect id="SVGID_1_" x="15.2" y="7.8" width="29.7" height="31.1"/>
		</defs>
		<clipPath id="SVGID_2_">
			<use xlink:href="#SVGID_1_"  style="overflow:visible;"/>
		</clipPath>
		<path class="st1" d="M22,22.5c0,0,0.1,0,0.1,0c0.1,0,0.3-0.1,0.3-0.2c0,0,1.6-4.4,5.9-5.1c3.9-0.7,6,1.7,6.1,1.8
			c0.1,0.2,0.4,0.2,0.5,0c0.1-0.1,0.2-0.4,0-0.5c-0.1-0.1-2.5-2.8-6.8-2.1c-4.7,0.8-6.4,5.4-6.5,5.6C21.7,22.3,21.8,22.5,22,22.5"/>
		<path class="st1" d="M35,29.3c-0.2,0.1-0.2,0.4-0.1,0.5C35,30,35.1,30,35.2,30c0.1,0,0.2,0,0.2-0.1c0.1-0.1,2.2-1.8,1.8-5.9
			c0-0.1-0.1-1.4-0.7-2.9c-0.1-0.2-0.3-0.3-0.5-0.2c-0.2,0.1-0.3,0.3-0.2,0.5c0.5,1.4,0.6,2.6,0.6,2.6C36.9,27.7,35.1,29.3,35,29.3"
			/>
		<path class="st1" d="M31.7,26.9c-0.6,0.2-1.2,0.1-1.6-0.2c-0.3-0.3-0.5-0.7-0.4-1.2c0-0.2-0.1-0.4-0.3-0.4c-0.2,0-0.4,0.1-0.4,0.3
			c-0.1,0.7,0.2,1.4,0.7,1.8c0.6,0.5,1.4,0.6,2.3,0.4c1.4-0.5,1.8-2.4,1.4-4c-0.4-1.7-1.9-3.5-4.8-3c-2.6,0.5-3.8,3.5-3.6,6.1
			c0.2,2.5,1.9,5.1,5.8,5.1c0.1,0,0.1,0,0.2,0c0,0,0.1,0,0.1,0c0.3,0,1,0,1.9-0.4c0.2-0.1,0.3-0.3,0.2-0.5c-0.1-0.2-0.3-0.3-0.5-0.2
			c-1,0.4-1.8,0.3-1.8,0.3c0,0-0.1,0-0.1,0c-3.4,0-4.9-2.3-5.1-4.4c-0.2-2.3,0.8-4.9,3-5.3c2.4-0.5,3.6,0.9,4,2.4
			C33,25.2,32.6,26.6,31.7,26.9"/>
		<path class="st1" d="M28.8,35.2c-8-2-7-9.9-6.9-10.2c0-0.2-0.1-0.4-0.3-0.4c-0.2,0-0.4,0.1-0.4,0.3c0,0.1-1.2,8.9,7.5,11.1
			c0,0,0.1,0,0.1,0c0.2,0,0.3-0.1,0.4-0.3C29.2,35.4,29,35.2,28.8,35.2"/>
		<path class="st1" d="M35.6,33.6c-1.7,1.7-4.5,1.6-4.5,1.6c-0.2,0-0.4,0.2-0.4,0.4c0,0.2,0.2,0.4,0.3,0.4c0,0,0,0,0.1,0
			c0.5,0,3.2-0.1,5-1.8c0.1-0.1,0.2-0.4,0-0.5C36,33.5,35.8,33.5,35.6,33.6"/>
		<path class="st1" d="M35,24.9c-0.2,0-0.4,0.1-0.4,0.4c-0.1,1.6-0.8,2.8-1.9,3.4c-1.1,0.6-2.6,0.6-3.8-0.2
			c-1.3-0.8-1.5-2.2-1.3-3.2c0.2-1,0.9-1.7,1.7-1.8c0.5,0,0.9,0.1,1.2,0.3c0.5,0.5,0.5,1.4,0.5,1.4c0,0.2,0.1,0.4,0.3,0.4
			c0.2,0,0.4-0.2,0.4-0.4c0,0,0-1.2-0.7-1.9c-0.4-0.4-1-0.6-1.7-0.5c-1.1,0.1-2,1-2.3,2.4c-0.3,1.2,0,3,1.6,4
			c0.7,0.5,1.6,0.7,2.5,0.7c0.7,0,1.4-0.2,2.1-0.5c1.4-0.7,2.2-2.2,2.3-4.1C35.4,25.1,35.2,24.9,35,24.9"/>
		<path class="st1" d="M31.3,18.8c-0.2-0.1-0.4,0-0.5,0.2c-0.1,0.2,0,0.4,0.2,0.5c3.1,1,3.4,3.7,3.4,3.8c0,0.2,0.2,0.3,0.4,0.3
			c0,0,0,0,0,0c0.2,0,0.3-0.2,0.3-0.4C35.2,23.1,34.8,19.9,31.3,18.8"/>
		<path class="st1" d="M29.5,14.2c-4.7,0-7.4,3.5-7.5,3.6c-0.1,0.2-0.1,0.4,0.1,0.5c0.2,0.1,0.4,0.1,0.5-0.1c0,0,2.6-3.3,7-3.3
			c5.1,0,8.9,4.1,9.1,9.7c0,0.2,0.2,0.4,0.4,0.4h0c0.2,0,0.4-0.2,0.4-0.4C39.1,18.6,35,14.2,29.5,14.2"/>
		<path class="st1" d="M38.5,27.8c-0.2-0.1-0.4,0-0.5,0.2c-0.7,1.9-1.9,3-2,3c-2.1,1.9-4.3,2.3-5.9,2.2c-0.9,0-2.5-0.4-3.8-1.4
			c-1.7-1.3-2.6-3.3-2.6-6c0-3.8,2.1-5.5,3.8-6.2c0,0,0.5-0.2,1.3-0.4c0.2,0,0.3-0.2,0.3-0.4c0-0.2-0.2-0.3-0.4-0.3
			c-0.9,0.1-1.5,0.4-1.5,0.4c-1.6,0.7-4.2,2.5-4.2,6.9c0,6.2,4.6,8,7.1,8.1c0.1,0,0.2,0,0.3,0c1.7,0,3.9-0.4,6-2.4
			c0.1,0,1.4-1.2,2.2-3.3C38.7,28.1,38.7,27.9,38.5,27.8"/>
		<path class="st1" d="M23.8,14.8c0,0,2.2-1.9,6.2-1.9c3.6,0,6.6,1.6,8.8,4.9c0.1,0.1,0.2,0.2,0.3,0.2c0.1,0,0.1,0,0.2-0.1
			c0.2-0.1,0.2-0.4,0.1-0.5c-2.4-3.5-5.5-5.2-9.4-5.2c-4.3,0-6.6,2-6.7,2.1c-0.1,0.1-0.2,0.4,0,0.5C23.4,14.9,23.6,14.9,23.8,14.8"
			/>
		<path class="st1" d="M25.5,11.7c0,0,2.6-1.3,6.2-0.8c3.5,0.4,5.4,2.3,5.4,2.3c0.1,0.1,0.2,0.1,0.2,0.1c0.1,0,0.2,0,0.3-0.1
			c0.1-0.2,0.1-0.4,0-0.5c-0.1-0.1-2.1-2-5.9-2.5c-3.8-0.5-6.5,0.8-6.6,0.9c-0.2,0.1-0.3,0.3-0.2,0.5C25.1,11.8,25.3,11.8,25.5,11.7
			"/>
	</g>
	<path class="st2" d="M48.8,6.3v36.9c0,1.6-1.3,2.9-3,2.9H14.3c-1.7,0-3-1.3-3-2.9V6.3"/>
</g>
<g id="레이어_3">
	<g>
		<rect x="32.8" y="37.1" class="st0" width="18.6" height="7.1"/>
		<path class="st3" d="M53.1,41.4v3.3c0,6.1-4.8,11.1-10.7,11.1l0,0c-5.9,0-10.7-5-10.7-11.1v-3.3"/>
		<path class="st3" d="M40.4,37V26.1c0-1.4-1.1-2.5-2.5-2.5l0,0c-1.4,0-2.5,1.1-2.5,2.5v15.3"/>
		<path class="st3" d="M40.4,37v-6c0-1.2,0.9-2.1,2.1-2.1l0,0c1.2,0,2.1,0.9,2.1,2.1v7.6"/>
		<path class="st3" d="M44.6,38.7v-5.4c0-1.2,0.9-2.1,2.1-2.1l0,0c1.2,0,2.1,0.9,2.1,2.1v8.2"/>
		<path class="st3" d="M53.1,44.8v-9c0-1.2-0.9-2.1-2.1-2.1l0,0c-1.2,0-2.1,0.9-2.1,2.1v5.6"/>
		<path class="st3" d="M31.7,45.1V40c0-1.4,0.9-3.3,3.2-3.3"/>
	</g>
</g>
</svg>
