<?xml version="1.0" encoding="utf-8"?>
<!-- Generator: Adobe Illustrator 23.0.2, SVG Export Plug-In . SVG Version: 6.00 Build 0)  -->
<svg version="1.1" id="레이어_1" xmlns="http://www.w3.org/2000/svg" xmlns:xlink="http://www.w3.org/1999/xlink" x="0px"
	 y="0px" viewBox="0 0 60 60" style="enable-background:new 0 0 60 60;" xml:space="preserve">
<style type="text/css">
	.st0{fill:#FFFFFF;}
	.st1{fill:none;stroke:#000000;stroke-width:1.5;stroke-linecap:round;stroke-miterlimit:10;}
	.st2{display:none;}
	.st3{display:inline;}
	.st4{fill:none;stroke:#FFFFFF;stroke-width:1.5;stroke-linecap:round;stroke-miterlimit:10;}
</style>
<g id="레이어_2">
	<rect class="st0" width="60" height="60"/>
</g>
<g>
	<path class="st1" d="M39.3,16.9v30.4c0,1-0.8,1.8-1.8,1.8h-15c-1,0-1.8-0.8-1.8-1.8V16.9c0-1,0.8-1.8,1.8-1.8h15
		C37.5,15.1,39.3,15,39.3,16.9z"/>
	<g>
		<path d="M24.7,11.8v1.5h10.6v-1.5c0-0.5-0.4-0.9-0.9-0.9h-8.9C25.1,10.9,24.7,11.3,24.7,11.8z"/>
	</g>
	<polygon points="30.9,31.6 34.5,31.6 24.7,38.6 29.3,31.9 26.8,31.9 31.1,26.1 35.4,26.1 	"/>
</g>
<g id="레이어_3" class="st2">
	<rect class="st3" width="60" height="60"/>
	<g class="st3">
		<path class="st0" d="M21.9,52.6c0,0.5-0.2,0.9-0.5,1.2c-0.3,0.3-0.8,0.4-1.3,0.4h-1.7h-0.5v-5.7h0.9h1.1c0.6,0,1,0.1,1.3,0.4
			c0.3,0.3,0.5,0.7,0.5,1.2c0,0.5-0.2,0.9-0.7,1.1C21.5,51.5,21.9,51.9,21.9,52.6z M18.7,49.4V51h1.1c0.5,0,0.8-0.2,0.8-0.8
			c0-0.5-0.3-0.8-0.9-0.8H18.7z M20.9,52.6c0-0.6-0.3-0.8-0.9-0.8h-1.3v1.7h1.4C20.6,53.4,20.9,53.2,20.9,52.6z"/>
		<path class="st0" d="M25.4,50.3c0.3,0.2,0.4,0.6,0.4,1v3H25v-0.6c-0.3,0.5-0.7,0.7-1.3,0.7c-0.4,0-0.7-0.1-1-0.3
			c-0.2-0.2-0.3-0.5-0.3-0.9c0-0.5,0.2-0.9,0.6-1.1c0.4-0.2,1-0.4,1.9-0.4v-0.2c0-0.4-0.3-0.7-0.9-0.7c-0.3,0-0.7,0.1-1,0.2
			l-0.2-0.7c0.5-0.2,0.9-0.3,1.4-0.3C24.7,49.9,25.1,50,25.4,50.3z M24.9,53.1v-0.9c-0.5,0-0.9,0.1-1.2,0.2s-0.4,0.3-0.4,0.6
			c0,0.4,0.2,0.6,0.6,0.6C24.3,53.6,24.6,53.4,24.9,53.1z"/>
		<path class="st0" d="M27.2,52.9v-2.1h-0.7V50h0.7v-1.2h0.9V50h1.2v0.8h-1.2v2c0,0.2,0.1,0.4,0.2,0.5s0.3,0.2,0.5,0.2
			c0.1,0,0.3,0,0.5-0.1l0.1,0.8c-0.2,0.1-0.5,0.1-0.7,0.1C27.6,54.3,27.2,53.9,27.2,52.9z"/>
		<path class="st0" d="M30.3,52.9v-2.1h-0.7V50h0.7v-1.2h0.9V50h1.2v0.8h-1.2v2c0,0.2,0.1,0.4,0.2,0.5s0.3,0.2,0.5,0.2
			c0.1,0,0.3,0,0.5-0.1l0.1,0.8c-0.2,0.1-0.5,0.1-0.7,0.1C30.7,54.3,30.3,53.9,30.3,52.9z"/>
		<path class="st0" d="M36.4,52.4h-2.7c0.1,0.7,0.5,1.1,1.1,1.1c0.4,0,0.7-0.1,1-0.3l0.3,0.7c-0.2,0.1-0.4,0.2-0.7,0.3
			c-0.3,0.1-0.5,0.1-0.8,0.1c-0.6,0-1.1-0.2-1.5-0.6s-0.5-0.9-0.5-1.6c0-0.7,0.2-1.3,0.5-1.6s0.8-0.6,1.4-0.6c0.6,0,1,0.2,1.3,0.5
			s0.5,0.9,0.5,1.5C36.5,52.1,36.5,52.3,36.4,52.4z M33.8,51.8h1.8c0-0.3-0.1-0.6-0.2-0.8s-0.4-0.3-0.6-0.3
			C34.1,50.7,33.9,51.1,33.8,51.8z"/>
		<path class="st0" d="M39.8,50l-0.2,0.9c-0.2-0.1-0.3-0.1-0.5-0.1c-0.2,0-0.3,0-0.5,0.1s-0.2,0.2-0.3,0.3v3h-0.9V50h0.8v0.6
			c0.3-0.5,0.6-0.7,1.1-0.7C39.5,49.9,39.7,50,39.8,50z"/>
		<path class="st0" d="M43.8,50l-1.3,4.1c-0.2,0.5-0.4,0.8-0.7,1.1c-0.3,0.3-0.8,0.5-1.4,0.7l-0.3-0.8c0.4-0.1,0.7-0.3,0.9-0.4
			c0.2-0.1,0.4-0.3,0.5-0.5L40.1,50H41l1,3.2l0.9-3.2L43.8,50L43.8,50z"/>
	</g>
	<g class="st3">
		<path class="st4" d="M38,8.8c1,0,1.8,0.8,1.8,1.8V41c0,1-0.8,1.8-1.8,1.8H23c-1,0-1.8-0.8-1.8-1.8V10.6c0-1,0.8-1.8,1.8-1.8
			L38,8.8L38,8.8z"/>
		<g>
			<path class="st0" d="M25.2,5.3v1.5h10.6V5.3c0-0.5-0.4-0.9-0.9-0.9H26C25.6,4.4,25.2,4.8,25.2,5.3z"/>
		</g>
		<g>
			<path class="st0" d="M23.2,15.7v23.7c0,0.8,0.6,1.4,1.4,1.4h11.7c0.8,0,1.4-0.6,1.4-1.4V15.7H23.2z M25.6,37l3.3-8.3h-3.1
				l9.4-9.9l-3.1,7.7h3.3L25.6,37z"/>
		</g>
	</g>
</g>
</svg>
