<svg id="레이어_1" data-name="레이어 1" xmlns="http://www.w3.org/2000/svg" viewBox="0 0 88 88"><defs><style>.cls-1{fill:#fff;}.cls-2{isolation:isolate;}.cls-3,.cls-4{fill:none;stroke:#000;stroke-width:2px;}.cls-3{stroke-linecap:round;stroke-linejoin:round;}.cls-4{stroke-miterlimit:10;}</style></defs><title>123_White</title><circle class="cls-1" cx="44" cy="44" r="43"/><path d="M44,2A42,42,0,1,1,2,44,42,42,0,0,1,44,2m0-2A44,44,0,1,0,88,44,44,44,0,0,0,44,0Z"/><g class="cls-2"><path d="M34.67,41.6V32.3H33.3v-2h3.47V41.6Z"/><path d="M38.42,39.66a3.13,3.13,0,0,1,.26-1.29,4.39,4.39,0,0,1,.69-1.06,5.72,5.72,0,0,1,1-.87q.53-.4,1.05-.75l.8-.55a5.77,5.77,0,0,0,.68-.54,2.3,2.3,0,0,0,.47-.54,1.11,1.11,0,0,0,.18-.6,1.28,1.28,0,0,0-.39-.94A1.57,1.57,0,0,0,42,32.13a1.68,1.68,0,0,0-1.21.46,3.45,3.45,0,0,0-.77,1.2l-1.8-.89A4.56,4.56,0,0,1,39.66,31,3.87,3.87,0,0,1,42,30.33a4.55,4.55,0,0,1,1.53.24,3.5,3.5,0,0,1,1.15.66,2.69,2.69,0,0,1,.72,1,3,3,0,0,1,.25,1.22,2.65,2.65,0,0,1-.25,1.18,3.83,3.83,0,0,1-.64,1,6.43,6.43,0,0,1-.91.8c-.33.24-.67.47-1,.7l-.84.57a5.71,5.71,0,0,0-.75.58,3,3,0,0,0-.52.64,1.43,1.43,0,0,0-.2.73h5.07v2H38.42V39.66Z"/><path d="M49.79,41.62a5.29,5.29,0,0,1-2-.36,4.24,4.24,0,0,1-1.63-1.21L48,38.69a2.27,2.27,0,0,0,.8.78,2,2,0,0,0,1,.24,1.76,1.76,0,0,0,1.2-.4,1.36,1.36,0,0,0,.47-1.1,1.38,1.38,0,0,0-.53-1.13,2.15,2.15,0,0,0-1.4-.43H48.36V34.72h1.15a1.94,1.94,0,0,0,1.36-.4,1.24,1.24,0,0,0,.43-1,1.07,1.07,0,0,0-.43-.89,1.86,1.86,0,0,0-1.16-.33,1.82,1.82,0,0,0-1.05.27,2.18,2.18,0,0,0-.66.72l-1.79-.82a3.59,3.59,0,0,1,1.43-1.46,4,4,0,0,1,2-.53,5,5,0,0,1,1.5.21,3.45,3.45,0,0,1,1.16.6,2.87,2.87,0,0,1,.74,1,2.93,2.93,0,0,1,.26,1.24A2.65,2.65,0,0,1,53,34.65a3.13,3.13,0,0,1-.94,1,3.14,3.14,0,0,1,1.09,1,3,3,0,0,1,.39,1.53,3.56,3.56,0,0,1-.25,1.35,2.85,2.85,0,0,1-.72,1.08,3.41,3.41,0,0,1-1.17.72A4.69,4.69,0,0,1,49.79,41.62Z"/><path d="M56.5,35a2.26,2.26,0,0,1-.9-.18,2.37,2.37,0,0,1-.73-.5,2.21,2.21,0,0,1-.5-.73,2.26,2.26,0,0,1-.18-.9,2.32,2.32,0,0,1,.18-.92,2.21,2.21,0,0,1,.5-.73,2.37,2.37,0,0,1,.73-.5,2.26,2.26,0,0,1,.9-.18,2.18,2.18,0,0,1,.89.18,2.54,2.54,0,0,1,.74.5,2.18,2.18,0,0,1,.49.73,2.32,2.32,0,0,1,.18.92,2.26,2.26,0,0,1-.18.9,2.18,2.18,0,0,1-.49.73,2.54,2.54,0,0,1-.74.5A2.18,2.18,0,0,1,56.5,35Zm0-1.43a.77.77,0,0,0,.6-.27.84.84,0,0,0,.25-.61A.85.85,0,0,0,57.1,32a.81.81,0,0,0-1.21,0,.88.88,0,0,0-.24.63.87.87,0,0,0,.24.61A.78.78,0,0,0,56.5,33.54Z"/></g><line class="cls-3" x1="80.63" y1="41.34" x2="44.14" y2="62.67"/><line class="cls-3" x1="6.37" y1="43.68" x2="44.14" y2="62.67"/><path class="cls-4" d="M54.28,56.74a11.53,11.53,0,0,0-20.51.72l10.37,5.21Z"/></svg>