<?xml version="1.0" encoding="utf-8"?>
<!-- Generator: Adobe Illustrator 23.0.3, SVG Export Plug-In . SVG Version: 6.00 Build 0)  -->
<svg version="1.1" baseProfile="tiny" xmlns="http://www.w3.org/2000/svg" xmlns:xlink="http://www.w3.org/1999/xlink" x="0px"
	 y="0px" viewBox="0 0 87 87" xml:space="preserve">
<g id="레이어_3">
	<g>
		<circle cx="43.5" cy="43.5" r="42.5"/>
		<path fill="#FFFFFF" d="M43.5,2C66.4,2,85,20.6,85,43.5S66.4,85,43.5,85S2,66.4,2,43.5S20.6,2,43.5,2 M43.5,0
			C19.5,0,0,19.5,0,43.5S19.5,87,43.5,87S87,67.5,87,43.5S67.5,0,43.5,0L43.5,0z"/>
	</g>
	<rect fill="none" width="87" height="87"/>
</g>
<g id="Layer_3">
	<path fill="none" stroke="#FFFFFF" stroke-width="2" stroke-linecap="round" stroke-linejoin="round" stroke-miterlimit="10" d="
		M14.7,47.6V34.4c0-3.6,2.9-6.5,6.5-6.5h44.5c3.6,0,6.5,2.9,6.5,6.5v13.3"/>
	<path fill="none" stroke="#FFFFFF" stroke-width="2" stroke-miterlimit="10" d="M54.9,40.5H32.1c-2.3,0-4.2-1.9-4.2-4.2v0
		c0-2.3,1.9-4.2,4.2-4.2h22.7c2.3,0,4.2,1.9,4.2,4.2v0C59.1,38.6,57.2,40.5,54.9,40.5z"/>
	<g>
		<path fill="#FFFFFF" d="M74.3,74.3V51.2c0-4.1-3.4-7.5-7.5-7.5H20.3c-4.1,0-7.5,3.4-7.5,7.5v23.1c0.6,0.6,1.3,1.3,2,1.9V51.2
			c0-3,2.5-5.5,5.5-5.5h46.5c3,0,5.5,2.5,5.5,5.5v24.9C72.9,75.5,73.6,74.9,74.3,74.3z"/>
		<path fill="#FFFFFF" d="M70.3,77.8V52.4c0-2.6-2.1-4.8-4.8-4.8h-44c-2.6,0-4.8,2.1-4.8,4.8v25.3c0.7,0.5,1.3,1,2,1.5V52.4
			c0-1.5,1.2-2.8,2.8-2.8h44c1.5,0,2.8,1.2,2.8,2.8v26.8C68.9,78.8,69.6,78.3,70.3,77.8z"/>
	</g>
</g>
</svg>
