<?xml version="1.0" encoding="utf-8"?>
<!-- Generator: Adobe Illustrator 23.0.3, SVG Export Plug-In . SVG Version: 6.00 Build 0)  -->
<svg version="1.1" baseProfile="tiny" id="레이어_3"
	 xmlns="http://www.w3.org/2000/svg" xmlns:xlink="http://www.w3.org/1999/xlink" x="0px" y="0px" viewBox="0 0 87 87"
	 xml:space="preserve">
<g>
	<circle cx="43.5" cy="43.5" r="42.5"/>
	<path fill="#FFFFFF" d="M43.5,2C66.4,2,85,20.6,85,43.5S66.4,85,43.5,85S2,66.4,2,43.5S20.6,2,43.5,2 M43.5,0C19.5,0,0,19.5,0,43.5
		S19.5,87,43.5,87S87,67.5,87,43.5S67.5,0,43.5,0L43.5,0z"/>
</g>
<path fill="none" stroke="#FFFFFF" stroke-width="2" stroke-miterlimit="10" d="M54.9,40.5H32.1c-2.3,0-4.2-1.9-4.2-4.2v0
	c0-2.3,1.9-4.2,4.2-4.2h22.7c2.3,0,4.2,1.9,4.2,4.2v0C59.1,38.6,57.2,40.5,54.9,40.5z"/>
<path fill="#FFFFFF" d="M74.3,74.3V34.4c0-4.1-3.4-7.5-7.5-7.5H20.3c-4.1,0-7.5,3.4-7.5,7.5v39.9c0.6,0.6,1.3,1.3,2,1.9V34.4
	c0-3,2.5-5.5,5.5-5.5h46.5c3,0,5.5,2.5,5.5,5.5v41.7C72.9,75.5,73.6,74.9,74.3,74.3z"/>
<line fill="none" stroke="#FFFFFF" stroke-width="2" stroke-linejoin="round" stroke-miterlimit="10" x1="14.1" y1="44.7" x2="72.9" y2="44.7"/>
</svg>
