<?xml version="1.0" encoding="utf-8"?>
<!-- Generator: Adobe Illustrator 17.0.0, SVG Export Plug-In . SVG Version: 6.00 Build 0)  -->
<!DOCTYPE svg PUBLIC "-//W3C//DTD SVG 1.1//EN" "http://www.w3.org/Graphics/SVG/1.1/DTD/svg11.dtd">
<svg version="1.1" id="Layer_1" xmlns="http://www.w3.org/2000/svg" xmlns:xlink="http://www.w3.org/1999/xlink" x="0px" y="0px"
	 width="595.28px" height="841.89px" viewBox="0 0 595.28 841.89" enable-background="new 0 0 595.28 841.89" xml:space="preserve">
<g id="Layer_2_1_">
</g>
<g>
	<rect x="0" y="123.305" fill="#FFFFFF" width="595.28" height="595.28"/>
	<g>
		<path fill="#FFFFFF" d="M507.972,313.795l-113.103,60.52"/>
		<path d="M394.869,382.252c-2.976,0-4.961-0.992-6.945-3.969c-1.984-3.969-0.992-7.937,2.976-9.921l113.103-60.52
			c3.969-1.984,7.937-0.992,9.921,2.976c1.984,3.969,0.992,7.937-2.976,9.921l-112.111,60.52
			C397.845,382.252,396.853,382.252,394.869,382.252z"/>
	</g>
	<g enable-background="new    ">
		<path d="M250.098,458.741c-3.619,0-6.953-0.596-10-1.788c-3.048-1.19-5.667-2.838-7.858-4.939
			c-2.19-2.101-3.905-4.577-5.143-7.432s-1.857-5.913-1.857-9.175c0-3.198,0.477-6.365,1.429-9.502
			c0.953-3.136,2.253-5.896,3.905-8.28l18.001-28.508h15.239l-15.239,22.764c1.333-0.381,2.698-0.572,4.096-0.572
			c3.048,0,5.905,0.588,8.572,1.762c2.667,1.176,5,2.81,7,4.905c2,2.095,3.572,4.587,4.715,7.477s1.714,6.08,1.714,9.571
			c0,3.493-0.619,6.684-1.857,9.572c-1.238,2.891-2.952,5.382-5.143,7.477c-2.19,2.096-4.795,3.731-7.81,4.905
			C256.844,458.154,253.589,458.741,250.098,458.741z M249.812,447.025c1.65,0,3.206-0.316,4.667-0.952
			c1.46-0.634,2.746-1.508,3.857-2.619c1.11-1.11,1.984-2.412,2.619-3.905c0.634-1.491,0.953-3.096,0.953-4.81
			c0-1.65-0.318-3.222-0.953-4.715c-0.635-1.491-1.509-2.777-2.619-3.857c-1.112-1.079-2.397-1.937-3.857-2.571
			c-1.461-0.634-3.017-0.952-4.667-0.952c-1.652,0-3.19,0.318-4.619,0.952c-1.429,0.635-2.684,1.509-3.762,2.619
			c-1.081,1.111-1.938,2.397-2.572,3.857c-0.635,1.461-0.953,3.048-0.953,4.762c0,1.652,0.317,3.224,0.953,4.715
			c0.634,1.493,1.491,2.795,2.572,3.905c1.079,1.111,2.333,1.985,3.762,2.619C246.621,446.709,248.16,447.025,249.812,447.025z"/>
		<path d="M278.861,451.026c0-2.349,0.698-4.239,2.096-5.668c1.396-1.428,3.301-2.143,5.714-2.143c2.413,0,4.301,0.715,5.667,2.143
			c1.364,1.429,2.047,3.319,2.047,5.668c0,2.285-0.699,4.143-2.095,5.571c-1.397,1.429-3.302,2.144-5.715,2.144
			c-2.414,0-4.302-0.715-5.667-2.144C279.543,455.169,278.861,453.311,278.861,451.026z"/>
		<path d="M330.102,401.499h-30.287v-12.382h43.812v11.239l-24.098,58.29h-13.715L330.102,401.499z"/>
		<path d="M349.626,408.547l3.238-19.43h11.334l-6.667,19.43H349.626z M364.96,408.547l3.238-19.43h11.334l-6.667,19.43H364.96z"/>
	</g>
	<path d="M97.229,528.095c-2.976,0-4.961-0.992-6.945-3.969c-1.984-3.969-0.992-7.937,2.976-9.921l113.103-60.52
		c3.969-1.984,7.937-0.992,9.921,2.976c1.984,3.969,0.992,7.937-2.976,9.921l-112.111,60.52
		C100.205,528.095,99.213,528.095,97.229,528.095z"/>
	<path d="M528.807,584.647H66.473c-18.851,0-34.725-15.874-34.725-34.725V292.96c0-18.851,15.874-34.725,34.725-34.725l0,0h463.326
		c18.851,0,34.725,15.874,34.725,34.725v255.97C564.524,568.773,548.65,583.655,528.807,584.647 M66.473,272.125
		c-10.913,0-19.843,8.929-19.843,19.843V548.93c0,10.913,8.929,19.843,19.843,19.843h463.326c10.913,0,19.843-8.929,19.843-19.843
		V292.96c0-10.913-8.929-19.843-19.843-19.843L66.473,272.125z"/>
	<path fill="none" stroke="#000000" stroke-width="15" stroke-linecap="round" stroke-linejoin="round" d="M509.957,292.96
		L509.957,292.96H88.3c-10.913,0-18.851,8.929-18.851,18.851v39.685v13.89c0,8.929,0.992,13.89,7.937,18.851l4.961,3.969
		l11.906,9.921c11.906,9.921,11.906,28.772,0,38.693l-11.906,9.921l-4.961,3.969c-6.945,4.961-7.937,15.874-7.937,24.803v10.913
		v43.654c0,10.913,8.929,18.851,18.851,18.851l0,0h421.657c10.913,0,19.843-8.929,19.843-19.843V311.81
		C529.799,300.897,520.87,292.96,509.957,292.96z"/>
</g>
</svg>
