<?xml version="1.0" encoding="utf-8"?>
<!-- Generator: Adobe Illustrator 22.1.0, SVG Export Plug-In . SVG Version: 6.00 Build 0)  -->
<svg version="1.1" id="Layer_1" xmlns="http://www.w3.org/2000/svg" xmlns:xlink="http://www.w3.org/1999/xlink" x="0px" y="0px"
	 viewBox="0 0 87 87" style="enable-background:new 0 0 87 87;" xml:space="preserve">
<g>
	<path d="M67,87H20C9,87,0,78,0,67V20C0,9,9,0,20,0h47c11,0,20,9,20,20v47C87,78,78,87,67,87z"/>
</g>
<g>
	<path style="fill:#FFFFFF;" d="M36.5214844,33.4428711v9.6801758h-1.5913086v-8.0356445l-2.112793,0.7353516L32.362793,34.512207
		l2.78125-1.0693359H36.5214844z"/>
	<path style="fill:#FFFFFF;" d="M44.5976563,41.7324219v1.390625h-6.0170898V41.71875l3.2358398-3.7436523
		c0.4179688-0.4897461,0.7089844-0.8754883,0.8691406-1.15625s0.2402344-0.5551758,0.2402344-0.8222656
		c0-0.3920898-0.1328125-0.7021484-0.4003906-0.9291992c-0.2675781-0.2275391-0.6328125-0.3413086-1.0976563-0.3413086
		c-0.3652344,0-0.7392578,0.0625-1.1225586,0.1875s-0.7485352,0.3032227-1.0961914,0.534668l-0.722168-1.2167969
		c0.3920898-0.2851563,0.8691406-0.5166016,1.4306641-0.6953125c0.5615234-0.1782227,1.1098633-0.2670898,1.6450195-0.2670898
		c0.5878906,0,1.1074219,0.1088867,1.5566406,0.3271484c0.4511719,0.21875,0.7988281,0.5239258,1.0429688,0.9160156
		c0.2460938,0.3925781,0.3691406,0.847168,0.3691406,1.3637695c0,0.4638672-0.1171875,0.9228516-0.3476563,1.3774414
		c-0.2324219,0.4545898-0.625,0.9941406-1.1777344,1.6176758l-2.5537109,2.8613281H44.5976563z"/>
	<path style="fill:#FFFFFF;" d="M51.3300781,38.0756836c0.4589844,0.5302734,0.6884766,1.2011719,0.6884766,2.012207
		c0,0.6328125-0.140625,1.1923828-0.4208984,1.6777344c-0.28125,0.4863281-0.6806641,0.8623047-1.1972656,1.1298828
		s-1.1181641,0.4013672-1.8046875,0.4013672c-0.5351563,0-1.0693359-0.078125-1.6044922-0.234375
		c-0.5351563-0.1552734-0.9853516-0.3623047-1.3505859-0.6210938l0.6015625-1.3105469
		c0.3925781,0.2226563,0.7929688,0.3945313,1.203125,0.5146484s0.7939453,0.1806641,1.1503906,0.1806641
		c0.5703125,0,1.0117188-0.1513672,1.3232422-0.4550781c0.3125-0.3027344,0.46875-0.7304688,0.46875-1.2832031
		c0-0.5170898-0.1494141-0.9223633-0.4482422-1.2167969c-0.2988281-0.2939453-0.7109375-0.4414063-1.2373047-0.4414063
		c-0.2763672,0-0.5654297,0.0361328-0.8691406,0.1074219L47.21875,37.7480469l2.7539063-2.9150391h-4.1044922v-1.3901367h5.8427734
		v1.3901367l-2.2333984,2.2998047C50.2539063,37.230957,50.8710938,37.5454102,51.3300781,38.0756836z"/>
</g>
<circle style="fill:none;stroke:#FFFFFF;stroke-miterlimit:10;" cx="56.0440521" cy="35.1409683" r="1.6409692"/>
<polyline style="fill:none;stroke:#FFFFFF;stroke-width:1.5;stroke-linecap:round;stroke-linejoin:round;stroke-miterlimit:10;" points="
	9,41 44,60 77,41 "/>
<path style="fill:none;stroke:#FFFFFF;stroke-width:1.5;stroke-linecap:round;stroke-linejoin:round;stroke-miterlimit:10;" d="
	M33,54c3.0539551-3.7892113,6.4350815-6,11-6c4.3185005,0,8.2609062,2.0838509,11.2595558,5.5169296"/>
</svg>
