<?xml version="1.0" encoding="utf-8"?>
<!-- Generator: Adobe Illustrator 22.1.0, SVG Export Plug-In . SVG Version: 6.00 Build 0)  -->
<svg version="1.1" id="레이어_1" xmlns="http://www.w3.org/2000/svg" xmlns:xlink="http://www.w3.org/1999/xlink" x="0px"
	 y="0px" viewBox="0 0 78.3 56.6" style="enable-background:new 0 0 78.3 56.6;" xml:space="preserve">
<title>Bixby_Vision</title>
<path d="M76.9,23.1L76.9,23.1C66.2,2.2,40.7-6,19.8,4.7C11.7,8.8,5.2,15.5,1.2,23.6c-1.1,2.3-1.4,4.9-0.9,7.4
	c9.4,21.5,34.3,31.3,55.8,22c8.8-3.8,16-10.5,20.5-18.9c0.1-0.2,0.1-0.4,0.3-0.5l0.1-0.2c0.3-0.6,0.6-1.2,0.8-1.8
	C79.3,27.3,76.9,23.1,76.9,23.1z M39.2,47.3c-10.5,0-19-8.5-19-19s8.5-19,19-19s19,8.5,19,19S49.7,47.3,39.2,47.3z"/>
<circle cx="39.2" cy="28.3" r="3.5"/>
</svg>
