<?xml version="1.0" encoding="utf-8"?>
<!-- Generator: Adobe Illustrator 22.1.0, SVG Export Plug-In . SVG Version: 6.00 Build 0)  -->
<svg version="1.1" id="Layer_1" xmlns="http://www.w3.org/2000/svg" xmlns:xlink="http://www.w3.org/1999/xlink" x="0px" y="0px"
	 viewBox="0 0 87 87" style="enable-background:new 0 0 87 87;" xml:space="preserve">
<style type="text/css">
	.st0{display:none;}
	.st1{display:inline;fill:none;}
</style>
<g id="레이어_3" class="st0">
	<rect class="st1" width="87" height="87"/>
</g>
<g id="Layer_3">
	<g>
		<path d="M78,54.3c-2.3-0.9-4.7,0.4-5.5,2.7c-4.1,11.9-15.5,19.9-28,19.9c-16.3,0-29.7-13.3-29.7-29.7s13.3-29.7,29.7-29.7
			c0.1,0,0.1,0,0.3,0v8.4l13.6-12.6L44.8,1v7.8c-0.1,0-0.1,0-0.3,0C23.3,8.8,6.1,26,6.1,47.2s17.2,38.3,38.3,38.3
			c16.3,0,30.8-10.4,36.2-25.7C81.4,57.5,80.1,55,78,54.3z"/>
		<path d="M32,38.8c-1.7-1.7-4.4-1.6-6.1,0.1c-1.7,1.7-1.6,4.4,0.1,6.1l19.3,18.6l31-31.1c1.7-1.7,1.7-4.4,0-6.1s-4.4-1.7-6.1,0
			l-25,25.1L32,38.8z"/>
	</g>
</g>
</svg>
