<?xml version="1.0" encoding="utf-8"?>
<!-- Generator: Adobe Illustrator 24.0.2, SVG Export Plug-In . SVG Version: 6.00 Build 0)  -->
<svg version="1.1" id="Layer_1" xmlns="http://www.w3.org/2000/svg" xmlns:xlink="http://www.w3.org/1999/xlink" x="0px" y="0px"
	 viewBox="0 0 87 87" style="enable-background:new 0 0 87 87;" xml:space="preserve">
<style type="text/css">
	.st0{fill:#FFFFFF;}
	.st1{fill:none;stroke:#000000;stroke-miterlimit:10;}
	.st2{fill:none;stroke:#000000;stroke-width:1.5;stroke-linecap:round;stroke-linejoin:round;stroke-miterlimit:10;}
</style>
<path class="st0" d="M0.9,19v49.3000031c0,0,2.7999997,18.6999969,19.2000008,18.3000031
	C36.5,86.3000031,67.6999969,86.2000046,67.6999969,86.2000046S77.5,85.5000076,81.5,79.0000076
	c0,0,4.6999969-4.5,4.5999985-12.4000015S86,19,86,19S83.6999969,1.1,67.3000031,0.9S19,0.9,19,0.9S3.3,2.5999999,0.9,19z"/>
<g>
	<path d="M67,2c9.9000015,0,18,8.1000004,18,18v47c0,9.9000015-8.0999985,18-18,18H20c-9.8999996,0-18-8.0999985-18-18V20
		c0-9.8999996,8.1000004-18,18-18H67 M67,0H20C9,0,0,9,0,20v47c0,11,9,20,20,20h47c11,0,20-9,20-20V20C87,9,78,0,67,0L67,0z"/>
</g>
<circle class="st1" cx="56" cy="35.0999985" r="1.5999985"/>
<polyline class="st2" points="9,41 44,60 77,41 "/>
<path class="st2" d="M33,54c3.0999985-3.7999992,6.4000015-6,11-6c4.2999992,0,8.2999992,2.0999985,11.2999992,5.5"/>
<g>
	<path d="M37.6210938,33.6015625V43.5h-1.6269531v-8.2167969l-2.1601563,0.7519531l-0.4648438-1.3398438l2.84375-1.09375H37.6210938
		z"/>
	<path d="M43.8964844,33.6015625V43.5h-1.6269531v-8.2167969l-2.1601563,0.7519531l-0.4648438-1.3398438l2.84375-1.09375H43.8964844
		z"/>
	<path d="M50.8896484,37.5117188c0.4697266,0.2646484,0.8339844,0.6381836,1.09375,1.1210938
		c0.2597656,0.4833984,0.3896484,1.0390625,0.3896484,1.6679688c0,0.6748047-0.1455078,1.2670898-0.4375,1.7773438
		c-0.2919922,0.5107422-0.7021484,0.9047852-1.2304688,1.1826172s-1.1435547,0.4169922-1.8457031,0.4169922
		c-0.5283203,0-1.0507813-0.0751953-1.5654297-0.2255859s-0.9414063-0.3486328-1.2783203-0.5947266l0.6015625-1.3261719
		c0.3740234,0.2099609,0.7568359,0.371582,1.1484375,0.4853516c0.3916016,0.1142578,0.7568359,0.1708984,1.09375,0.1708984
		c0.5830078,0,1.0371094-0.1640625,1.3603516-0.4921875s0.4853516-0.7792969,0.4853516-1.3535156
		c0-0.5556641-0.1484375-0.9863281-0.4443359-1.2919922c-0.2958984-0.3051758-0.7128906-0.4580078-1.2509766-0.4580078
		c-0.2548828,0-0.5195313,0.0341797-0.7929688,0.1025391s-0.5283203,0.1665039-0.765625,0.2939453l-0.9980469-0.5332031
		l0.2597656-4.8535156h5.2089844v1.421875h-3.7597656l-0.1777344,2.296875
		c0.4101563-0.1367188,0.8291016-0.2050781,1.2578125-0.2050781C49.8710938,37.1152344,50.4199219,37.2475586,50.8896484,37.5117188
		z"/>
</g>
</svg>
