<?xml version="1.0" encoding="utf-8"?>
<!-- Generator: Adobe Illustrator 24.0.2, SVG Export Plug-In . SVG Version: 6.00 Build 0)  -->
<svg version="1.1" id="Layer_1" xmlns="http://www.w3.org/2000/svg" xmlns:xlink="http://www.w3.org/1999/xlink" x="0px" y="0px"
	 viewBox="0 0 87 87" style="enable-background:new 0 0 87 87;" xml:space="preserve">
<style type="text/css">
	.st0{fill:none;stroke:#FFFFFF;stroke-miterlimit:10;}
	.st1{fill:none;stroke:#FFFFFF;stroke-width:1.5;stroke-linecap:round;stroke-linejoin:round;stroke-miterlimit:10;}
	.st2{fill:#FFFFFF;}
</style>
<g>
	<path d="M67,87H20C9,87,0,78,0,67V20C0,9,9,0,20,0h47c11,0,20,9,20,20v47C87,78,78,87,67,87z"/>
</g>
<circle class="st0" cx="56.0440521" cy="35.1409683" r="1.6409683"/>
<polyline class="st1" points="9,41 44,60 77,41 "/>
<path class="st1" d="M33,54c3.0539551-3.7892113,6.4350815-6,11-6c4.3185005,0,8.2609062,2.0838509,11.2595558,5.5169296"/>
<g>
	<path class="st2" d="M37.6210938,33.6015625V43.5h-1.6269531v-8.2167969l-2.1601563,0.7519531l-0.4648438-1.3398438
		l2.84375-1.09375H37.6210938z"/>
	<path class="st2" d="M43.8964844,33.6015625V43.5h-1.6269531v-8.2167969l-2.1601563,0.7519531l-0.4648438-1.3398438
		l2.84375-1.09375H43.8964844z"/>
	<path class="st2" d="M50.8896484,37.5117188c0.4697266,0.2646484,0.8339844,0.6381836,1.09375,1.1210938
		c0.2597656,0.4833984,0.3896484,1.0390625,0.3896484,1.6679688c0,0.6748047-0.1455078,1.2670898-0.4375,1.7773438
		c-0.2919922,0.5107422-0.7021484,0.9047852-1.2304688,1.1826172s-1.1435547,0.4169922-1.8457031,0.4169922
		c-0.5283203,0-1.0507813-0.0751953-1.5654297-0.2255859s-0.9414063-0.3486328-1.2783203-0.5947266l0.6015625-1.3261719
		c0.3740234,0.2099609,0.7568359,0.371582,1.1484375,0.4853516c0.3916016,0.1142578,0.7568359,0.1708984,1.09375,0.1708984
		c0.5830078,0,1.0371094-0.1640625,1.3603516-0.4921875s0.4853516-0.7792969,0.4853516-1.3535156
		c0-0.5556641-0.1484375-0.9863281-0.4443359-1.2919922c-0.2958984-0.3051758-0.7128906-0.4580078-1.2509766-0.4580078
		c-0.2548828,0-0.5195313,0.0341797-0.7929688,0.1025391s-0.5283203,0.1665039-0.765625,0.2939453l-0.9980469-0.5332031
		l0.2597656-4.8535156h5.2089844v1.421875h-3.7597656l-0.1777344,2.296875
		c0.4101563-0.1367188,0.8291016-0.2050781,1.2578125-0.2050781C49.8710938,37.1152344,50.4199219,37.2475586,50.8896484,37.5117188
		z"/>
</g>
</svg>
