<?xml version="1.0" encoding="utf-8"?>
<!-- Generator: Adobe Illustrator 24.0.2, SVG Export Plug-In . SVG Version: 6.00 Build 0)  -->
<svg version="1.1" id="Layer_1" xmlns="http://www.w3.org/2000/svg" xmlns:xlink="http://www.w3.org/1999/xlink" x="0px" y="0px"
	 viewBox="0 0 87 87" style="enable-background:new 0 0 87 87;" xml:space="preserve">
<style type="text/css">
	.st0{fill:#FFFFFF;}
	.st1{fill:none;stroke:#000000;stroke-width:1.5;stroke-linecap:round;stroke-linejoin:round;stroke-miterlimit:10;}
	.st2{fill:none;stroke:#000000;stroke-miterlimit:10;}
</style>
<path class="st0" d="M0.9,19v49.3000031c0,0,2.7999997,18.6999969,19.2000008,18.3000031
	C36.5,86.3000031,67.6999969,86.2000046,67.6999969,86.2000046S77.5,85.5000076,81.5,79.0000076
	c0,0,4.6999969-4.5,4.5999985-12.4000015S86,19,86,19S83.6999969,1.1,67.3000031,0.9S19,0.9,19,0.9S3.3,2.5999999,0.9,19z"/>
<g>
	<path d="M67,2c9.9000015,0,18,8.1000004,18,18v47c0,9.9000015-8.0999985,18-18,18H20c-9.8999996,0-18-8.0999985-18-18V20
		c0-9.8999996,8.1000004-18,18-18H67 M67,0H20C9,0,0,9,0,20v47c0,11,9,20,20,20h47c11,0,20-9,20-20V20C87,9,78,0,67,0L67,0z"/>
</g>
<polyline class="st1" points="12,28 43,67 75,28 "/>
<path class="st1" d="M34.7999992,56.7000008C37.2999992,55.6000023,40.0999985,55,43,55
	c3,0,5.7999992,0.5999985,8.4000015,1.7999992"/>
<circle class="st2" cx="54" cy="38.0999985" r="1.5999985"/>
<g>
	<path d="M42.8339844,36.7016602v1.421875l-3.828125,8.612793l-1.53125-0.6289063l3.6640625-7.9838867h-4.5527344v-1.421875
		H42.8339844z"/>
	<path d="M49.9707031,36.7016602v1.421875l-3.828125,8.612793l-1.53125-0.6289063l3.6640625-7.9838867h-4.5527344v-1.421875
		H49.9707031z"/>
</g>
</svg>
