<?xml version="1.0" encoding="utf-8"?>
<!-- Generator: Adobe Illustrator 24.0.2, SVG Export Plug-In . SVG Version: 6.00 Build 0)  -->
<svg version="1.1" id="Layer_1" xmlns="http://www.w3.org/2000/svg" xmlns:xlink="http://www.w3.org/1999/xlink" x="0px" y="0px"
	 viewBox="0 0 87 87" style="enable-background:new 0 0 87 87;" xml:space="preserve">
<style type="text/css">
	.st0{fill:none;stroke:#FFFFFF;stroke-width:1.5;stroke-linecap:round;stroke-linejoin:round;stroke-miterlimit:10;}
	.st1{fill:none;stroke:#FFFFFF;stroke-miterlimit:10;}
	.st2{fill:#FFFFFF;}
</style>
<g>
	<path d="M67,87H20C9,87,0,78,0,67V20C0,9,9,0,20,0h47c11,0,20,9,20,20v47C87,78,78,87,67,87z"/>
</g>
<polyline class="st0" points="12,28 43,67 75,28 "/>
<path class="st0" d="M34.7999992,56.7000008C37.2999992,55.6000023,40.0999985,55,43,55
	c3,0,5.7999992,0.5999985,8.4000015,1.7999992"/>
<circle class="st1" cx="54" cy="38.0999985" r="1.5999985"/>
<g>
	<path class="st2" d="M42.8339844,36.7016602v1.421875l-3.828125,8.612793l-1.53125-0.6289063l3.6640625-7.9838867h-4.5527344
		v-1.421875H42.8339844z"/>
	<path class="st2" d="M49.9707031,36.7016602v1.421875l-3.828125,8.612793l-1.53125-0.6289063l3.6640625-7.9838867h-4.5527344
		v-1.421875H49.9707031z"/>
</g>
</svg>
