<?xml version="1.0" encoding="utf-8"?>
<!-- Generator: Adobe Illustrator 23.0.3, SVG Export Plug-In . SVG Version: 6.00 Build 0)  -->
<svg version="1.1" baseProfile="tiny" id="Layer_3" xmlns="http://www.w3.org/2000/svg" xmlns:xlink="http://www.w3.org/1999/xlink"
	 x="0px" y="0px" viewBox="0 0 87 87" xml:space="preserve">
<path fill="none" stroke="#000000" stroke-width="2" stroke-linecap="square" stroke-linejoin="round" stroke-miterlimit="10" d="
	M51.9,25.4h16.8c4.2,0,7.6,3.2,7.6,7.3v14.7"/>
<line fill="none" stroke="#000000" stroke-width="2" stroke-linecap="square" stroke-linejoin="round" stroke-miterlimit="10" x1="37.2" y1="25.4" x2="43.5" y2="25.4"/>
<path fill="none" stroke="#000000" stroke-width="2" stroke-linecap="square" stroke-linejoin="round" stroke-miterlimit="10" d="
	M9.2,47.4V32.7c0-4,3.4-7.3,7.6-7.3h7.8"/>
<path fill="none" stroke="#000000" stroke-width="2" stroke-miterlimit="10" d="M28.8,40.1c-2.3,0-4.2-1.9-4.2-4.2v-1.4
	c0-2.3,1.9-4.2,4.2-4.2h27.9c2.3,0,4.2,1.9,4.2,4.2v1.4c0,2.3-1.9,4.2-4.2,4.2H35.2h-1"/>
<path fill="none" stroke="#000000" stroke-width="2" stroke-linecap="square" stroke-linejoin="round" stroke-miterlimit="10" d="
	M51.9,45.3h18c4.2,0,7.6,2.4,7.6,6.5v35.8"/>
<path fill="none" stroke="#000000" stroke-width="2" stroke-linecap="square" stroke-linejoin="round" stroke-miterlimit="10" d="
	M8,87.6V51.8c0-4.2,3.4-6.5,7.6-6.5h13.3"/>
<path fill="none" stroke="#000000" stroke-width="2" stroke-miterlimit="10" d="M42.7,26.7"/>
<path fill="none" stroke="#000000" stroke-width="2" stroke-linecap="round" stroke-miterlimit="10" d="M21.1,34.4"/>
<path fill="none" stroke="#000000" stroke-width="2" stroke-linecap="round" stroke-miterlimit="10" d="M24.5,35.2"/>
<ellipse fill="none" stroke="#000000" stroke-width="2" stroke-linecap="round" stroke-miterlimit="10" cx="52.8" cy="35.2" rx="2.4" ry="2.4"/>
<polyline fill="none" stroke="#000000" stroke-width="2" stroke-linecap="square" stroke-linejoin="round" points="33.4,26.2 
	30.1,28.3 28.4,25.4 "/>
<path fill="none" stroke="#000000" stroke-width="2" stroke-linecap="round" stroke-linejoin="round" stroke-miterlimit="10" d="
	M31.1,42.5"/>
<path fill="none" stroke="#000000" stroke-width="2" stroke-linecap="round" stroke-linejoin="round" stroke-miterlimit="10" d="
	M31.1,42.5"/>
<path fill="none" stroke="#000000" stroke-width="2" stroke-linecap="square" stroke-linejoin="round" stroke-miterlimit="10" d="
	M47.8,40.4c-1.6,5-4.8,8.4-8.4,8.4c-3.4,0-6.8-2.8-8-7.4c-0.5-1.6-0.8-4.6-0.8-6.8"/>
<path fill="none" stroke="#000000" stroke-width="2" stroke-linecap="square" stroke-linejoin="round" stroke-miterlimit="10" d="
	M30.6,26.7c1.4-6,4.8-10.2,8.9-10.2c4.7,0,8.6,5.7,9.4,13.2"/>
<polyline fill="none" stroke="#000000" stroke-width="2" stroke-linecap="square" stroke-linejoin="round" points="44,42.8 47.5,41 
	48.9,44 "/>
<path fill="none" stroke="#000000" stroke-width="2" stroke-linecap="round" stroke-linejoin="round" stroke-miterlimit="10" d="
	M29.8,34.4"/>
</svg>
