<?xml version="1.0" encoding="utf-8"?>
<!-- Generator: Adobe Illustrator 23.0.3, SVG Export Plug-In . SVG Version: 6.00 Build 0)  -->
<svg version="1.1" baseProfile="tiny" id="Layer_1" xmlns="http://www.w3.org/2000/svg" xmlns:xlink="http://www.w3.org/1999/xlink"
	 x="0px" y="0px" viewBox="0 0 595.3 841.9" xml:space="preserve">
<g id="Layer_2_1_">
</g>
<g>
	<rect y="123.3" display="none" fill="#FFFFFF" width="595.3" height="595.3"/>
	<g>
		<path fill="#FFFFFF" d="M507.9,313.7l-107.1,60.6"/>
	</g>
	<g>
		<path d="M256.1,458.8c-3.6,0-7-0.6-10-1.8c-3-1.2-5.7-2.8-7.9-4.9s-3.9-4.6-5.1-7.4c-1.2-2.9-1.9-5.9-1.9-9.2
			c0-3.2,0.5-6.4,1.4-9.5c1-3.1,2.3-5.9,3.9-8.3l18-28.5h15.2L254.5,412c1.3-0.4,2.7-0.6,4.1-0.6c3,0,5.9,0.6,8.6,1.8
			c2.7,1.2,5,2.8,7,4.9s3.6,4.6,4.7,7.5s1.7,6.1,1.7,9.6s-0.6,6.7-1.9,9.6c-1.2,2.9-3,5.4-5.1,7.5c-2.2,2.1-4.8,3.7-7.8,4.9
			C262.9,458.2,259.6,458.8,256.1,458.8z M255.8,447c1.6,0,3.2-0.3,4.7-1c1.5-0.6,2.7-1.5,3.9-2.6c1.1-1.1,2-2.4,2.6-3.9
			s1-3.1,1-4.8c0-1.6-0.3-3.2-1-4.7c-0.6-1.5-1.5-2.8-2.6-3.9s-2.4-1.9-3.9-2.6c-1.5-0.6-3-1-4.7-1s-3.2,0.3-4.6,1
			c-1.4,0.6-2.7,1.5-3.8,2.6s-1.9,2.4-2.6,3.9c-0.6,1.5-1,3-1,4.8c0,1.7,0.3,3.2,1,4.7c0.6,1.5,1.5,2.8,2.6,3.9s2.3,2,3.8,2.6
			C252.6,446.7,254.2,447,255.8,447z"/>
		<path d="M284.9,451c0-2.3,0.7-4.2,2.1-5.7c1.4-1.4,3.3-2.1,5.7-2.1c2.4,0,4.3,0.7,5.7,2.1c1.4,1.4,2,3.3,2,5.7
			c0,2.3-0.7,4.1-2.1,5.6c-1.4,1.4-3.3,2.1-5.7,2.1c-2.4,0-4.3-0.7-5.7-2.1C285.6,455.2,284.9,453.3,284.9,451z"/>
		<path d="M336.1,401.5h-30.3v-12.4h43.8v11.2l-24.1,58.3h-13.7L336.1,401.5z"/>
		<path d="M355.6,408.5l3.2-19.4h11.3l-6.7,19.4H355.6z M371,408.5l3.2-19.4h11.3l-6.7,19.4H371z"/>
	</g>
	<path d="M446.8,190.1l0.1,462.3c0,18.9-14.4,34.7-31.6,34.7l-234.1,0.1c-17.2,0-31.6-15.9-31.6-34.7l0,0l-0.1-463.3
		c0-18.9,14.4-34.7,31.6-34.7l233.2-0.1C432.3,154.4,445.9,170.3,446.8,190.1 M162.2,652.6c0,10.9,8.1,19.8,18.1,19.8l234.1-0.1
		c9.9,0,18.1-8.9,18.1-19.8l-0.1-463.3c0-10.9-8.1-19.8-18.1-19.8l-233.2,0.1c-9.9,0-18.1,8.9-18.1,19.8L162.2,652.6z"/>
</g>
<path stroke="#000000" stroke-width="15" stroke-linecap="round" stroke-miterlimit="10" d="M253.7,510
	c-26,51.9-46.7,93.2-72.7,145.1"/>
<path stroke="#000000" stroke-width="15" stroke-linecap="round" stroke-miterlimit="10" d="M416.8,184.6
	c-24.4,48.8-48.9,97.5-73.3,146.3"/>
</svg>
