<svg id="레이어_1" data-name="레이어 1" xmlns="http://www.w3.org/2000/svg" viewBox="0 0 88 88"><defs><style>.cls-1,.cls-2{fill:none;stroke:#fff;stroke-width:2px;}.cls-1{stroke-linecap:round;stroke-linejoin:round;}.cls-2{stroke-miterlimit:10;}.cls-3{isolation:isolate;}.cls-4,.cls-5{fill:#fff;}.cls-5{font-size:14.95px;font-family:SamsungSharpSans-Bold, Samsung Sharp Sans;font-weight:700;}</style></defs><title>80_Black</title><circle cx="44" cy="44" r="44"/><line class="cls-1" x1="76.69" y1="28.26" x2="43.5" y2="69.99"/><line class="cls-1" x1="10.31" y1="28.16" x2="43.5" y2="69.99"/><path class="cls-2" d="M51.75,59.51a12.33,12.33,0,0,0-8.25-3,12.62,12.62,0,0,0-8.25,3L43.5,70.18Z"/><g class="cls-3"><path class="cls-4" d="M54.36,39.93a2.11,2.11,0,0,1-.9-.19,2.39,2.39,0,0,1-.74-.49,2.46,2.46,0,0,1-.49-.73,2.34,2.34,0,0,1-.18-.91,2.27,2.27,0,0,1,.18-.91,2.23,2.23,0,0,1,1.23-1.23,2.27,2.27,0,0,1,.9-.19,2.18,2.18,0,0,1,.89.19A2.51,2.51,0,0,1,56,36a2.22,2.22,0,0,1,.49.74,2.27,2.27,0,0,1,.18.91,2.34,2.34,0,0,1-.18.91,2.29,2.29,0,0,1-.49.73,2.51,2.51,0,0,1-.74.49A2,2,0,0,1,54.36,39.93Zm0-1.44a.76.76,0,0,0,.6-.26.84.84,0,0,0,.25-.62A.88.88,0,0,0,55,37a.83.83,0,0,0-1.21,0,.92.92,0,0,0-.24.63.88.88,0,0,0,.24.62A.77.77,0,0,0,54.36,38.49Z"/></g><text class="cls-5" transform="translate(33.9 47.91)">80</text></svg>