<?xml version="1.0" encoding="utf-8"?>
<!-- Generator: Adobe Illustrator 17.0.0, SVG Export Plug-In . SVG Version: 6.00 Build 0)  -->
<!DOCTYPE svg PUBLIC "-//W3C//DTD SVG 1.1//EN" "http://www.w3.org/Graphics/SVG/1.1/DTD/svg11.dtd">
<svg version="1.1" id="레이어_1" xmlns="http://www.w3.org/2000/svg" xmlns:xlink="http://www.w3.org/1999/xlink" x="0px"
	 y="0px" width="595.28px" height="841.89px" viewBox="0 0 595.28 841.89" enable-background="new 0 0 595.28 841.89"
	 xml:space="preserve">
<g id="레이어_3">
	<rect x="0" y="123.305" fill="none" width="595.28" height="595.28"/>
	<path fill="none" stroke="#000000" stroke-width="8" stroke-miterlimit="10" d="M591.175,421.629
		c0,162.163-131.372,293.535-293.535,293.535S3.421,583.792,3.421,421.629S134.793,127.41,296.956,127.41
		S591.175,258.783,591.175,421.629"/>
	<rect x="0" y="123.305" fill="none" width="595.28" height="595.28"/>
</g>
<rect x="0" y="123.305" fill="none" width="595.28" height="595.28"/>
<g id="레이어_4">
	<rect x="0" y="123.305" fill="none" width="595.28" height="595.28"/>
	<g>
		<g enable-background="new    ">
			<path d="M233.344,392.305v-63.393h-9.356v-13.352h23.654v76.744H233.344z"/>
			<path d="M258.889,379.042c0-3.246,0.595-6.181,1.787-8.806c1.191-2.625,2.75-5.025,4.678-7.201
				c1.927-2.175,4.1-4.161,6.518-5.958c2.418-1.795,4.818-3.487,7.201-5.076c1.893-1.312,3.714-2.573,5.467-3.782
				c1.751-1.209,3.293-2.418,4.626-3.627c1.331-1.209,2.4-2.452,3.206-3.73c0.805-1.278,1.209-2.642,1.209-4.092
				c0-2.487-0.894-4.611-2.681-6.372s-4.399-2.643-7.832-2.643c-3.364,0-6.116,1.048-8.252,3.143
				c-2.139,2.094-3.874,4.801-5.204,8.123l-12.3-6.009c2.382-5.417,5.729-9.698,10.04-12.842c4.31-3.143,9.583-4.714,15.822-4.714
				c3.924,0,7.412,0.553,10.46,1.657c3.049,1.105,5.658,2.607,7.832,4.506c2.172,1.899,3.819,4.144,4.94,6.733
				c1.12,2.589,1.683,5.368,1.683,8.336c0,2.97-0.562,5.647-1.683,8.029c-1.121,2.382-2.593,4.557-4.415,6.524
				c-1.823,1.968-3.873,3.782-6.15,5.439c-2.278,1.658-4.573,3.246-6.886,4.764c-1.963,1.312-3.89,2.607-5.782,3.885
				c-1.892,1.278-3.574,2.607-5.046,3.987c-1.472,1.381-2.665,2.832-3.575,4.352c-0.912,1.519-1.367,3.177-1.367,4.97h34.587v13.667
				h-48.885V379.042z"/>
			<path d="M336.369,392.41c-4.907,0-9.409-0.823-13.51-2.47c-4.1-1.646-7.798-4.397-11.091-8.251l12.405-9.253
				c1.611,2.455,3.433,4.224,5.467,5.309c2.032,1.087,4.239,1.63,6.623,1.63c3.293,0,6.009-0.894,8.147-2.681
				c2.137-1.787,3.206-4.292,3.206-7.517c0-3.223-1.209-5.798-3.627-7.727c-2.418-1.927-5.59-2.891-9.514-2.891h-7.885v-13.141
				h7.885c4.205,0,7.288-0.917,9.251-2.751c1.962-1.834,2.943-3.986,2.943-6.454c0-2.53-0.981-4.555-2.943-6.073
				c-1.963-1.518-4.591-2.279-7.885-2.279c-3.014,0-5.414,0.615-7.201,1.843s-3.277,2.878-4.468,4.946l-12.195-5.618
				c2.242-4.241,5.483-7.564,9.725-9.969c4.239-2.405,8.884-3.607,13.93-3.607c3.714,0,7.112,0.483,10.197,1.449
				c3.083,0.966,5.712,2.333,7.885,4.097c2.172,1.764,3.854,3.913,5.046,6.442c1.191,2.531,1.788,5.361,1.788,8.493
				c0,3.331-0.772,6.311-2.313,8.94c-1.542,2.632-3.68,4.879-6.413,6.743c3.154,1.823,5.625,4.205,7.412,7.149
				c1.787,2.943,2.681,6.413,2.681,10.408c0,3.295-0.562,6.36-1.682,9.199c-1.122,2.838-2.752,5.292-4.889,7.359
				c-2.139,2.068-4.802,3.698-7.99,4.889C344.164,391.815,340.502,392.41,336.369,392.41z"/>
			<path d="M382.099,347.099c-2.174,0-4.224-0.42-6.15-1.261c-1.929-0.841-3.592-1.961-4.993-3.364
				c-1.403-1.401-2.523-3.065-3.364-4.994c-0.841-1.927-1.262-3.977-1.262-6.15c0-2.243,0.421-4.327,1.262-6.255
				c0.841-1.927,1.961-3.591,3.364-4.994c1.401-1.401,3.064-2.523,4.993-3.364c1.927-0.841,3.977-1.261,6.15-1.261
				c2.172,0,4.205,0.42,6.098,1.261c1.892,0.841,3.556,1.963,4.993,3.364c1.436,1.403,2.558,3.067,3.364,4.994
				c0.805,1.928,1.209,4.013,1.209,6.255c0,2.173-0.404,4.223-1.209,6.15c-0.807,1.928-1.929,3.592-3.364,4.994
				c-1.438,1.403-3.102,2.523-4.993,3.364C386.304,346.679,384.271,347.099,382.099,347.099z M382.099,337.322
				c1.611,0,2.978-0.595,4.1-1.787c1.12-1.191,1.683-2.592,1.683-4.205c0-1.682-0.562-3.118-1.683-4.311
				c-1.122-1.191-2.488-1.787-4.1-1.787c-1.683,0-3.067,0.596-4.152,1.787c-1.088,1.192-1.63,2.628-1.63,4.311
				c0,1.613,0.542,3.014,1.63,4.205C379.032,336.728,380.416,337.322,382.099,337.322z"/>
		</g>
	</g>
	<g>
		<g>
			
				<line fill="none" stroke="#000000" stroke-width="15" stroke-linecap="round" stroke-linejoin="round" stroke-miterlimit="10" x1="546.552" y1="390.487" x2="297.843" y2="535.879"/>
		</g>
		<g>
			
				<line fill="none" stroke="#000000" stroke-width="15" stroke-linecap="round" stroke-linejoin="round" stroke-miterlimit="10" x1="40.451" y1="406.481" x2="297.843" y2="535.879"/>
		</g>
	</g>
	<g>
		<path fill="none" stroke="#000000" stroke-width="15" stroke-miterlimit="10" d="M366.957,495.476
			c-13.465-24.044-39.15-40.319-68.666-40.319c-31.461,0-58.531,18.509-71.122,45.192l70.674,35.53L366.957,495.476z"/>
	</g>
</g>
</svg>
