<?xml version="1.0" encoding="utf-8"?>
<!-- Generator: Adobe Illustrator 22.1.0, SVG Export Plug-In . SVG Version: 6.00 Build 0)  -->
<svg version="1.1" id="Layer_1" xmlns="http://www.w3.org/2000/svg" xmlns:xlink="http://www.w3.org/1999/xlink" x="0px" y="0px"
	 viewBox="0 0 87 87" style="enable-background:new 0 0 87 87;" xml:space="preserve">
<g>
	<path d="M67,87H20C9,87,0,78,0,67V20C0,9,9,0,20,0h47c11,0,20,9,20,20v47C87,78,78,87,67,87z"/>
</g>
<polyline style="fill:none;stroke:#FFFFFF;stroke-width:1.5;stroke-linecap:round;stroke-linejoin:round;stroke-miterlimit:10;" points="
	12,28 43,67 75,28 "/>
<path style="fill:none;stroke:#FFFFFF;stroke-width:1.5;stroke-linecap:round;stroke-linejoin:round;stroke-miterlimit:10;" d="
	M34.7866402,56.6669159C37.3095055,55.5937614,40.0854111,55,43,55c2.9900169,0,5.8340797,0.6248894,8.4087219,1.7511978"/>
<g>
	<path style="fill:#FFFFFF;" d="M37.1748047,45.9628906c-0.5039063-0.2226563-0.8916016-0.5390625-1.1635742-0.9492188
		s-0.4077148-0.8828125-0.4077148-1.4174805c0-0.5351563,0.1806641-1.0317383,0.5415039-1.4912109
		c0.3613281-0.4589844,0.840332-0.7998047,1.4375-1.0224609c-0.4814453-0.1694336-0.871582-0.4682617-1.1699219-0.8959961
		c-0.2988281-0.4277344-0.4477539-0.8959961-0.4477539-1.4038086c0-0.4995117,0.1220703-0.9384766,0.3676758-1.3173828
		c0.2451172-0.378418,0.590332-0.6728516,1.0361328-0.8823242c0.4453125-0.2094727,0.9667969-0.3139648,1.5644531-0.3139648
		c0.597168,0,1.1206055,0.1044922,1.5708008,0.3139648s0.7978516,0.5039063,1.0429688,0.8823242
		c0.2451172,0.3789063,0.3676758,0.8178711,0.3676758,1.3173828c0,0.5078125-0.1494141,0.9692383-0.4477539,1.3837891
		c-0.2988281,0.4145508-0.6933594,0.706543-1.1835938,0.8754883c0.597168,0.1787109,1.0786133,0.4970703,1.4443359,0.9560547
		c0.3652344,0.4594727,0.5478516,0.9829102,0.5478516,1.5712891c0,0.5439453-0.1381836,1.0205078-0.4140625,1.4306641
		c-0.2763672,0.4101563-0.6665039,0.7285156-1.1699219,0.9560547c-0.5039063,0.2275391-1.0898438,0.3408203-1.7583008,0.3408203
		S37.6782227,46.1855469,37.1748047,45.9628906z M40.2163086,44.5517578
		c0.3120117-0.2626953,0.4682617-0.6166992,0.4682617-1.0629883c0-0.3740234-0.1606445-0.7236328-0.4814453-1.0493164
		c-0.3208008-0.3251953-0.762207-0.590332-1.3237305-0.7954102c-0.5258789,0.1782227-0.9379883,0.4301758-1.2368164,0.7553711
		s-0.4477539,0.684082-0.4477539,1.0761719c0,0.4545898,0.1538086,0.8134766,0.4614258,1.0761719
		c0.3071289,0.2636719,0.7329102,0.3945313,1.2768555,0.3945313C39.4765625,44.9462891,39.9042969,44.8154297,40.2163086,44.5517578
		z M39.9824219,39.8520508c0.2363281-0.2670898,0.3544922-0.574707,0.3544922-0.9223633
		c0-0.4101563-0.125-0.7333984-0.3745117-0.9692383c-0.2495117-0.2363281-0.5927734-0.3544922-1.0292969-0.3544922
		c-0.4370117,0-0.777832,0.1157227-1.0229492,0.3476563s-0.3676758,0.5527344-0.3676758,0.9624023
		c0,0.3388672,0.1289063,0.6464844,0.3876953,0.9228516C38.1884766,40.1152344,38.5454102,40.3291016,39,40.4804688
		C39.418457,40.3291016,39.7460938,40.1196289,39.9824219,39.8520508z"/>
	<path style="fill:#FFFFFF;" d="M44.5292969,45.0800781c-0.5576172-0.8105469-0.8364258-2.0766602-0.8364258-3.7973633
		c0-1.7290039,0.2763672-2.9970703,0.8286133-3.8037109c0.5527344-0.8066406,1.3945313-1.2099609,2.5273438-1.2099609
		c1.140625,0,1.9902344,0.4033203,2.546875,1.2099609s0.8359375,2.074707,0.8359375,3.8037109
		c0,1.7207031-0.2792969,2.9868164-0.8359375,3.7973633c-0.5566406,0.8115234-1.4003906,1.2167969-2.5332031,1.2167969
		S45.0859375,45.8916016,44.5292969,45.0800781z M48.3867188,44.0175781
		c0.2753906-0.5751953,0.4140625-1.4868164,0.4140625-2.7348633c0-1.2475586-0.140625-2.1591797-0.421875-2.734375
		c-0.2792969-0.574707-0.7246094-0.8623047-1.3300781-0.8623047c-0.5976563,0-1.0332031,0.2875977-1.3105469,0.8623047
		c-0.2753906,0.5751953-0.4140625,1.4868164-0.4140625,2.734375c0,1.2480469,0.1386719,2.159668,0.4140625,2.7348633
		c0.2773438,0.5742188,0.71875,0.8623047,1.3242188,0.8623047S48.109375,44.5917969,48.3867188,44.0175781z"/>
</g>
<circle style="fill:none;stroke:#FFFFFF;stroke-miterlimit:10;" cx="54.0440521" cy="38.1409683" r="1.6409692"/>
</svg>
