<?xml version="1.0" encoding="utf-8"?>
<!-- Generator: Adobe Illustrator 23.0.1, SVG Export Plug-In . SVG Version: 6.00 Build 0)  -->
<svg version="1.1" id="Layer_1" xmlns="http://www.w3.org/2000/svg" xmlns:xlink="http://www.w3.org/1999/xlink" x="0px" y="0px"
	 viewBox="0 0 87 87" style="enable-background:new 0 0 87 87;" xml:space="preserve">
<style type="text/css">
	.st0{fill:none;stroke:#FFFFFF;stroke-width:1.5;stroke-linecap:round;stroke-linejoin:round;stroke-miterlimit:10;}
	.st1{fill:none;stroke:#FFFFFF;stroke-miterlimit:10;}
	.st2{fill:#FFFFFF;}
</style>
<g>
	<path d="M67,87H20C9,87,0,78,0,67V20C0,9,9,0,20,0h47c11,0,20,9,20,20v47C87,78,78,87,67,87z"/>
</g>
<polyline class="st0" points="12,28 43,67 75,28 "/>
<path class="st0" d="M34.8,56.7c2.5-1.1,5.3-1.7,8.2-1.7c3,0,5.8,0.6,8.4,1.8"/>
<circle class="st1" cx="54" cy="38.1" r="1.6"/>
<g>
	<path class="st2" d="M37.2,46.1c-0.5-0.2-0.9-0.6-1.2-1c-0.3-0.4-0.4-0.9-0.4-1.4s0.2-1.1,0.6-1.5c0.4-0.5,0.9-0.8,1.5-1
		c-0.5-0.2-0.9-0.5-1.2-0.9c-0.3-0.4-0.5-0.9-0.5-1.4c0-0.5,0.1-1,0.4-1.3c0.3-0.4,0.6-0.7,1.1-0.9c0.5-0.2,1-0.3,1.6-0.3
		c0.6,0,1.1,0.1,1.6,0.3c0.5,0.2,0.8,0.5,1.1,0.9c0.3,0.4,0.4,0.8,0.4,1.3c0,0.5-0.2,1-0.5,1.4c-0.3,0.4-0.7,0.7-1.2,0.9
		c0.6,0.2,1.1,0.5,1.5,1c0.4,0.5,0.6,1,0.6,1.6c0,0.6-0.1,1-0.4,1.5c-0.3,0.4-0.7,0.7-1.2,1s-1.1,0.3-1.8,0.3S37.7,46.3,37.2,46.1z
		 M40.3,44.6c0.3-0.3,0.5-0.6,0.5-1.1c0-0.4-0.2-0.7-0.5-1.1c-0.3-0.3-0.8-0.6-1.4-0.8c-0.5,0.2-1,0.4-1.3,0.8
		c-0.3,0.3-0.5,0.7-0.5,1.1c0,0.5,0.2,0.8,0.5,1.1C38,44.9,38.4,45,39,45C39.5,45,40,44.9,40.3,44.6z M40.1,39.8
		c0.2-0.3,0.4-0.6,0.4-0.9c0-0.4-0.1-0.7-0.4-1c-0.3-0.2-0.6-0.4-1.1-0.4c-0.4,0-0.8,0.1-1,0.4c-0.3,0.2-0.4,0.6-0.4,1
		c0,0.3,0.1,0.7,0.4,0.9c0.3,0.3,0.6,0.5,1.1,0.7C39.5,40.3,39.8,40.1,40.1,39.8z"/>
	<path class="st2" d="M47.6,36.3v9.9H46V38l-2.2,0.8l-0.5-1.3l2.8-1.1H47.6z"/>
</g>
</svg>
