<?xml version="1.0" encoding="utf-8"?>
<!-- Generator: Adobe Illustrator 16.0.0, SVG Export Plug-In . SVG Version: 6.00 Build 0)  -->
<!DOCTYPE svg PUBLIC "-//W3C//DTD SVG 1.1//EN" "http://www.w3.org/Graphics/SVG/1.1/DTD/svg11.dtd">
<svg version="1.1" id="Layer_1" xmlns="http://www.w3.org/2000/svg" xmlns:xlink="http://www.w3.org/1999/xlink" x="0px" y="0px"
	 width="300px" height="300px" viewBox="0 0 300 300" enable-background="new 0 0 300 300" xml:space="preserve">
<rect display="none" fill-rule="evenodd" clip-rule="evenodd" fill="#FFFFFF" width="300" height="300"/>
<g display="none">
	<path display="inline" fill-rule="evenodd" clip-rule="evenodd" fill="#8E8E8E" d="M212.76,127.044c0-10.267,0-20.188,0-30.045
		c-2.453,0-4.442,0-6.326,0c1.459,8.327,3.544,16.284,4.113,24.349c1.023,14.461,1.121,28.988,1.648,43.487
		c0.085,2.32-1.018,3.409-3.128,4.156c-16.679,5.9-33.725,10.118-51.367,11.891c-2.47,0.248-4.896,1.474-7.218,2.52
		c-3.7,1.668-7.55,3.879-11.464,1.753c-8.642-4.693-18.29-4.152-27.458-6.089c-10.5-2.216-20.866-5.065-31.293-7.621
		c-2.084-0.51-3.222-1.505-3.408-3.915c-1.556-20.179-3.234-40.362-0.459-60.552c0.68-4.947,2.224-9.775,3.47-15.074
		c-1.362-0.064-3.2-0.15-5.036-0.236c0.964-30.77,25.067-56.554,56.226-60.288c16.383-1.964,32.377-1.087,46.258,8.785
		c15.561,11.067,27.124,25.517,33.284,43.89c0.437,1.307,0.925,2.597,1.391,3.894c0.432-0.079,0.865-0.158,1.297-0.237
		c-0.707-4.287-0.771-8.807-2.233-12.819c-5.91-16.217-14.708-30.684-30.407-38.99c-43.757-23.151-87.595-7.17-105.063,34.952
		c-2.24,5.401-2.455,11.857-2.635,17.854c-0.374,12.438-0.089,24.896-0.089,37.347c0,1.009-0.108,2.017-0.182,3.287
		c-8.486,0.306-14.719-3.377-19.201-9.957c-10.681-15.677-3.253-37.487,12.333-42.171c1.271-0.382,2.286-2.804,2.76-4.467
		c4.133-14.523,11.301-27.257,22.172-37.774c15.725-15.214,34.502-21.254,56.232-18.712c12.071,1.413,23.748,4.054,34.651,9.509
		c18.948,9.48,31.146,24.498,36.411,45.053c0.606,2.365,1.454,3.884,4.047,4.972c10.625,4.462,16.232,15.936,14.672,29.045
		c-1.296,10.879-9.162,19.728-19.354,21.707C216.039,126.811,214.631,126.851,212.76,127.044z M84.335,92.665
		c-1.703,6.841-1.716,27.302,1.857,35.901c9.983,24.026,27.65,40.523,50.225,52.429c4.627,2.44,8.875,1.896,13.218-0.656
		c18.227-10.707,32.899-25.053,44.073-42.969c6.998-11.223,10.219-23.379,8.979-36.678c-0.251-2.687-0.867-3.931-3.827-3.914
		c-7.603,0.045-14.635-2.212-20.696-6.749c-9.063-6.783-19.032-8.316-29.816-5.956c-2.646,0.579-4.225-0.249-5.063-2.767
		c-1.757-5.277-3.389-10.605-5.388-15.791c-0.829-2.15-2.468-3.988-3.739-5.969c-1.346,2.072-3.253,3.977-3.928,6.248
		c-1.879,6.316-3.099,12.827-4.891,19.173c-0.677,2.399-1.687,5.143-3.451,6.713c-4.939,4.4-10.985,6.419-17.628,5.247
		C97.661,95.762,91.145,94.141,84.335,92.665z"/>
	<path display="inline" fill-rule="evenodd" clip-rule="evenodd" fill="#8E8E8E" d="M171.112,186.22
		c11.516,4.599,20.727,10.747,28.604,18.813c0.804,0.823,0.914,3.101,0.408,4.31c-6.061,14.452-12.301,28.829-18.49,43.228
		c-5.288,12.305-3.48,20.539,6.455,29.502c0.154,0.139,0.167,0.435,0.448,1.22c-7.17,0.785-14.183,1.77-21.229,2.286
		c-26.63,1.954-53.193,1.362-79.302-4.602c-9.103-2.08-17.782-6.102-26.536-9.539c-1.186-0.465-2.438-2.742-2.375-4.121
		c1.521-32.558,15.375-58.118,43.371-75.484c2.521-1.563,5.272-2.762,7.94-4.079c0.897-0.443,1.869-0.734,3.459-1.346
		c-4.77,8.312-2.219,15.076,2.988,21.378c7.358,8.903,16.548,15.646,26.117,21.902c0.771,0.504,2.557,0.401,3.317-0.165
		c8.66-6.438,16.877-13.368,23.133-22.306C173.846,200.896,175.822,194.271,171.112,186.22z"/>
	<path display="inline" fill-rule="evenodd" clip-rule="evenodd" fill="#8E8E8E" d="M276.476,187.315
		c7.253,4.265,8.521,8.156,5.284,15.681c-11.305,26.273-22.623,52.541-33.95,78.805c-3.382,7.845-7.657,9.59-15.377,6.275
		c-11.415-4.902-22.81-9.853-34.226-14.753c-7.025-3.015-8.863-7.485-5.826-14.636c4.706-11.077,9.462-22.136,14.222-33.192
		c6.652-15.453,13.323-30.897,19.996-46.342c3.432-7.945,7.696-9.622,15.711-6.193c9.146,3.916,18.287,7.846,27.769,11.916
		c1.01-2.282,1.623-4.632,2.99-6.395c0.833-1.072,2.95-1.903,4.277-1.665c2.018,0.364,2.712,2.149,1.743,4.267
		C278.181,183.071,277.392,185.116,276.476,187.315z M231.175,183.349c-1.147,1.374-2.831,2.709-3.619,4.45
		c-3.733,8.241-7.239,16.585-10.79,24.907c-1.658,3.89-1.178,5.738,2.728,7.468c12.408,5.494,24.881,10.848,37.4,16.083
		c4.015,1.679,5.513,0.842,7.256-3.162c3.354-7.706,6.681-15.422,10.013-23.136c2.69-6.228,2.146-7.626-4.089-10.316
		c-10.918-4.712-21.841-9.416-32.775-14.09C235.646,184.847,233.912,184.326,231.175,183.349z M242.921,234.892
		c-4.387-1.886-8.472-3.644-12.826-5.517c-1.554,3.644-2.932,6.876-4.398,10.315c4.54,1.903,8.621,3.612,12.877,5.395
		C240.135,241.423,241.483,238.263,242.921,234.892z M252.373,251.146c1.239-2.873,2.52-5.28,3.254-7.844
		c0.272-0.95-0.411-2.87-1.223-3.311c-3.01-1.633-6.253-2.834-9.688-4.318c-1.527,3.568-2.882,6.732-4.365,10.201
		C244.359,247.634,248.109,249.277,252.373,251.146z M211.583,272.414c4.454,1.906,8.549,3.657,12.872,5.508
		c1.427-3.35,2.671-6.269,4.03-9.46c-4.436-1.892-8.528-3.637-12.82-5.467C214.262,266.231,213.039,269.053,211.583,272.414z
		 M228.246,228.851c-13.508-6.391-10.537-6.522-15.47,4.491c-0.04,0.089,0.069,0.241,0.247,0.798
		c3.337,1.446,6.947,3.013,10.905,4.728C225.417,235.414,226.776,232.26,228.246,228.851z M224.851,241.545
		c-1.371,3.283-2.53,6.061-3.744,8.968c4.482,1.898,8.486,3.595,12.772,5.407c1.346-3.11,2.542-5.874,3.829-8.853
		C233.264,245.159,229.259,243.439,224.851,241.545z M226.277,278.448c14.16,6.547,11.105,7.146,15.664-3.287
		c0.081-0.185-0.068-0.47-0.154-0.959c-3.636-1.566-7.388-3.183-11.47-4.942C228.919,272.438,227.64,275.351,226.277,278.448z
		 M216.497,261.023c4.388,1.898,8.473,3.666,12.791,5.533c1.31-3.017,2.474-5.694,3.772-8.686c-4.392-1.885-8.493-3.645-12.844-5.51
		C218.97,255.267,217.857,257.856,216.497,261.023z M239.5,247.827c-1.361,3.149-2.523,5.838-3.833,8.864
		c4.08,1.775,7.912,3.441,12.042,5.239c1.321-3.084,2.516-5.867,3.816-8.902C247.45,251.266,243.697,249.643,239.5,247.827z
		 M202.652,257.364c-5.724,11.285-4.135,9.19,4.05,12.944c0.907,0.416,1.883,0.683,3.192,1.148c1.335-3.152,2.596-6.13,3.946-9.317
		C209.866,260.442,206.355,258.944,202.652,257.364z M246.922,263.793c-4.29-1.811-8.119-3.426-12.11-5.11
		c-1.313,3.076-2.448,5.731-3.697,8.656c4.233,1.813,8.052,3.445,12.072,5.166C244.513,269.415,245.61,266.852,246.922,263.793z
		 M211.608,235.842c-1.371,3.239-2.506,5.918-3.78,8.931c3.97,1.673,7.653,3.225,11.486,4.839c1.35-3.138,2.496-5.806,3.785-8.806
		C219.165,239.105,215.563,237.55,211.608,235.842z M207.006,246.656c-1.283,2.965-2.441,5.639-3.73,8.616
		c3.855,1.694,7.479,3.287,11.374,4.997c1.276-2.898,2.452-5.567,3.813-8.655C214.576,249.934,210.968,248.371,207.006,246.656z
		 M246.422,181.143c3.252,5.198,16.143,10.621,21.603,9.085C261.373,185.424,254.743,182.176,246.422,181.143z"/>
	<path display="inline" fill-rule="evenodd" clip-rule="evenodd" fill="#8E8E8E" d="M144.363,228.69
		c-6.311-4.944-12.219-9.572-18.125-14.201c0.156-0.281,0.313-0.562,0.47-0.845c11.31,5.02,22.604,4.133,34.375,0.727
		C155.6,219.067,150.117,223.763,144.363,228.69z"/>
</g>
<g display="none">
	<path display="inline" fill-rule="evenodd" clip-rule="evenodd" fill="#8D8D8D" d="M142.496,213.496c-42.975,0-85.95,0-128.924,0
		c-6.037,0-8.913-3.822-6.998-9.531c4.45-13.257,8.994-26.482,13.494-39.723c0.184-0.541,0.3-1.104,0.473-1.651
		c1.386-4.369,3.38-5.828,7.955-5.828c85.95-0.001,171.899-0.002,257.849-0.002c6.124,0,9.01,3.855,7.069,9.676
		c-3.722,11.154-7.548,22.275-11.337,33.407c-1.084,3.189-2.139,6.39-3.292,9.555c-0.977,2.685-2.991,4.032-5.838,4.088
		c-1.909,0.036-3.819,0.012-5.729,0.012C225.645,213.498,184.07,213.498,142.496,213.496z M38.566,192.604
		c-0.178,0.002-0.357,0.002-0.536,0.004c-0.185-0.633-0.415-1.256-0.546-1.896c-1.094-5.296-2.256-10.578-3.225-15.897
		c-0.953-5.222-0.232-4.827-6.509-4.801c-1.45,0.006-2.052,0.48-1.644,2.111c2.284,9.132,4.467,18.286,6.709,27.427
		c0.832,3.389,0.864,3.382,4.284,3.382c0.955,0,1.911-0.03,2.864,0.004c1.444,0.049,2.142-0.598,2.488-2.036
		c1.354-5.628,2.818-11.229,4.249-16.837c0.363-1.422,0.751-2.837,1.242-4.684c0.382,0.714,0.586,0.961,0.652,1.238
		c1.326,5.636,2.535,11.299,3.975,16.904c1.609,6.258,0.271,5.314,6.486,5.41c0.382,0.005,0.764-0.015,1.146-0.004
		c1.19,0.029,1.863-0.474,2.129-1.701c0.419-1.925,0.991-3.815,1.483-5.727c2.045-7.944,4.1-15.888,6.084-23.848
		c0.105-0.42-0.368-1.407-0.622-1.427c-1.766-0.128-3.551-0.153-5.313-0.002c-0.396,0.033-0.92,0.854-1.043,1.392
		c-1.106,4.834-2.146,9.683-3.186,14.533c-0.457,2.131-0.868,4.273-1.298,6.411c-0.162,0.009-0.325,0.017-0.488,0.025
		c-0.219-0.683-0.486-1.354-0.649-2.05c-1.461-6.255-2.921-12.511-4.335-18.777c-0.269-1.189-0.865-1.769-2.087-1.748
		c-1.592,0.024-3.184,0.026-4.775,0.005c-1.292-0.02-1.888,0.585-2.21,1.854c-1.52,5.979-3.139,11.933-4.708,17.9
		C38.938,190.704,38.77,191.658,38.566,192.604z M201.766,177.965c0.193-0.066,0.389-0.132,0.585-0.198
		c0.291,0.448,0.646,0.868,0.866,1.349c3.292,7.155,6.604,14.301,9.819,21.489c0.823,1.845,2.013,2.556,3.997,2.356
		c1.513-0.152,3.054-0.018,4.581-0.031c2.222-0.021,2.504-0.318,2.504-2.568c-0.003-8.595-0.011-17.19-0.007-25.787
		c0.002-4.806,0.01-4.761-4.744-4.588c-1.71,0.063-2.312,0.725-2.286,2.451c0.099,6.62,0.078,13.242,0.092,19.863
		c0,0.46-0.098,0.919-0.148,1.38c-0.657-0.384-0.903-0.856-1.132-1.335c-3.233-6.836-6.482-13.664-9.679-20.516
		c-0.618-1.322-1.49-1.912-2.968-1.846c-1.969,0.088-3.947,0.083-5.919,0.004c-1.776-0.072-2.45,0.551-2.43,2.441
		c0.093,8.721,0.035,17.443,0.047,26.167c0.005,4.557-0.65,4.352,4.491,4.333c2.246-0.007,2.528-0.296,2.528-2.538
		c0.004-6.239,0.007-12.479-0.016-18.719C201.943,180.438,201.83,179.201,201.766,177.965z M122.133,186.619
		c1.413-1.227,2.887-2.101,3.803-3.376c3.663-5.102,0.253-12.367-6.218-12.911c-5.183-0.436-10.419-0.211-15.63-0.349
		c-1.805-0.049-2.429,0.625-2.409,2.472c0.086,8.396,0.015,16.792,0.055,25.189c0.028,5.908-1.008,5.217,5.435,5.302
		c1.533,0.021,2.195-0.523,2.146-2.117c-0.084-2.732-0.026-5.469-0.035-8.203c-0.007-2.987-0.01-2.979,2.884-2.883
		c0.953,0.033,1.909,0.006,2.863,0.018c2.727,0.029,3.384,0.497,3.868,3.168c0.488,2.686,0.715,5.425,1.273,8.095
		c0.149,0.719,1.013,1.709,1.673,1.818c1.61,0.264,3.293,0.096,4.947,0.083c0.978-0.01,1.357-0.466,1.143-1.476
		c-0.526-2.475-1.107-4.945-1.468-7.447C126.02,190.937,125.716,187.876,122.133,186.619z M152.201,186.691
		c1.53-1.429,3.151-2.466,4.122-3.932c3.321-5.016-0.356-11.989-6.711-12.462c-5.321-0.394-10.685-0.209-16.031-0.284
		c-1.467-0.02-1.745,0.815-1.738,2.109c0.043,8.596,0.007,17.192,0.042,25.789c0.023,5.727-0.946,4.938,5.279,5.033
		c1.727,0.026,2.379-0.688,2.321-2.414c-0.101-2.989-0.013-5.984-0.066-8.978c-0.025-1.372,0.442-1.995,1.91-1.862
		c1.263,0.113,2.545,0.044,3.816,0c2.349-0.08,3.418,0.699,3.801,3.043c0.432,2.636,0.759,5.29,1.113,7.939
		c0.154,1.153,0.47,2.188,1.869,2.231c1.653,0.051,3.318,0.094,4.96-0.057c0.396-0.036,1.077-0.901,1.021-1.298
		c-0.437-3.016-1.06-6.004-1.548-9.012C155.935,189.913,155.143,187.589,152.201,186.691z M174.972,195.816c0,0.018,0,0.034,0,0.051
		c1.336,0,2.701,0.174,4.003-0.041c1.98-0.327,2.701,0.664,3.236,2.318c1.84,5.678,0.812,4.666,6.604,4.788
		c0.128,0.002,0.256-0.004,0.382-0.003c1.488,0.023,1.916-0.577,1.4-2.034c-3.396-9.58-6.772-19.166-10.088-28.774
		c-0.487-1.408-1.212-2.153-2.723-2.116c-1.59,0.036-3.182,0.043-4.772,0.002c-1.339-0.033-2.033,0.557-2.496,1.835
		c-3.519,9.739-7.113,19.45-10.633,29.189c-0.169,0.471,0.119,1.601,0.263,1.613c1.76,0.149,3.578,0.392,5.278,0.069
		c0.715-0.136,1.288-1.501,1.741-2.397c0.454-0.898,0.659-1.918,1.007-2.872c0.407-1.11,1.037-1.795,2.412-1.659
		C172.035,195.927,173.509,195.816,174.972,195.816z M83.046,170.003c-4.996-0.027-4.588-0.139-5.894,3.858
		c-0.158,0.481-0.374,0.946-0.548,1.423c-3.07,8.416-6.125,16.838-9.217,25.245c-0.662,1.802-0.367,2.364,1.5,2.404
		c0.954,0.021,1.916-0.068,2.864,0.018c1.386,0.124,2.144-0.531,2.563-1.764c0.449-1.324,0.964-2.628,1.371-3.963
		c0.333-1.094,0.999-1.491,2.121-1.473c3.117,0.051,6.239-0.053,9.35,0.092c0.684,0.031,1.457,0.73,1.958,1.32
		c0.426,0.499,0.525,1.279,0.754,1.939c1.329,3.829,1.328,3.829,5.445,3.83c3.103,0,3.235-0.253,2.22-3.118
		c-3.035-8.565-6.031-17.145-9.016-25.728C86.861,169.329,87.396,170.099,83.046,170.003z M256.106,170.019
		c-0.935,0.15-1.644,0.097-1.023,1.361c0.333,0.68,4.029,7.838,6.321,11.701c2.706,4.564,4.536,9.144,4.098,14.686
		c-0.441,5.563-0.981,5.155,5.32,5.18c1.512,0.005,2.021-0.676,1.99-2.096c-0.05-2.354,0.105-4.715-0.049-7.058
		c-0.139-2.138,0.495-3.939,1.51-5.767c2.962-5.326,5.812-10.715,8.707-16.076c0.531-0.984,0.486-1.673-0.813-1.919
		c-4.457-0.849-4.894-1.135-6.116,1.181c-1.441,3.29-4.661,9.451-6.318,13.018c-0.473-0.611-0.843-0.941-1.028-1.353
		c-1.564-3.472-3.071-6.969-4.655-10.434c-0.358-0.787-0.793-2.326-1.589-2.749C260.37,169.869,259.643,169.707,256.106,170.019z
		 M244.551,189.464c-0.002,0-0.008,0-0.012,0c0-3.815,0.065-7.633-0.029-11.446c-0.042-1.635,0.425-2.335,2.147-2.225
		c1.899,0.124,3.816,0.088,5.721,0.01c0.567-0.024,1.574-0.39,1.598-0.665c0.118-1.425,0.199-2.932-0.178-4.277
		c-0.134-0.477-1.591-0.816-2.449-0.825c-6.739-0.063-13.481-0.037-20.223-0.03c-3.605,0.004-3.617,0.081-3.613,3.594
		c0.001,1.651,0.667,2.306,2.282,2.25c1.906-0.064,3.815,0.012,5.724-0.048c1.321-0.041,1.811,0.529,1.798,1.823
		c-0.07,6.74-0.107,13.479-0.134,20.219c-0.023,5.593-0.553,5.043,5.36,5.107c1.478,0.015,2.045-0.573,2.025-2.04
		C244.517,197.095,244.551,193.279,244.551,189.464z"/>
	<path display="inline" fill-rule="evenodd" clip-rule="evenodd" fill="#8D8D8D" d="M248.901,149.142
		c-0.997,0.053-1.604,0.113-2.212,0.113c-17.192,0.007-34.384,0.029-51.576-0.041c-1.011-0.004-2.281-0.493-2.988-1.199
		c-9.606-9.603-21.069-15.513-34.552-17.186c-12.139-1.508-23.708,0.602-34.54,6.401c-5.367,2.873-10.137,6.537-14.475,10.811
		c-0.712,0.7-1.984,1.168-3,1.173c-17.764,0.065-35.53,0.041-53.295,0.039c-3.139,0-3.124,0.011-1.87-2.935
		c5.786-13.589,14.021-25.493,24.725-35.657c13.467-12.785,29.161-21.604,47.188-26.202c18.41-4.696,36.855-4.688,55.113,0.439
		c28.196,7.919,49.706,24.725,64.534,49.997c1.862,3.172,3.42,6.525,5.063,9.822C247.665,146.016,248.162,147.389,248.901,149.142z
		 M163.381,112.544c-0.168,0.009-0.335,0.018-0.501,0.026c-0.129-0.398-0.264-0.796-0.385-1.197
		c-1.294-4.255-2.554-8.52-3.895-12.761c-0.459-1.451-5.204-2.658-6.282-1.646c-0.253,0.237-0.422,0.656-0.463,1.011
		c-0.705,6.062-1.39,12.125-2.064,18.19c-0.17,1.534,0.729,1.955,2.081,2.048c1.355,0.093,2.183-0.192,2.308-1.753
		c0.329-4.053,0.746-8.101,1.144-12.148c0.04-0.408,0.186-0.806,0.284-1.208c0.679,0.563,1.029,1.2,1.23,1.882
		c1.053,3.595,2.306,7.154,3.017,10.818c0.552,2.851,2.042,3.71,4.68,3.857c1.608,0.091,2.356-0.207,2.532-1.884
		c0.607-5.818,1.29-11.627,1.956-17.438c0.161-1.404-0.371-2.161-1.839-2.291c-1.445-0.129-2.351,0.292-2.469,1.877
		c-0.112,1.522-0.263,3.042-0.427,4.559C163.996,107.174,163.684,109.859,163.381,112.544z M188.809,111.294
		c0.013-3.849-1.488-6.592-4.4-8.061c-2.035-1.026-4.271-1.647-6.327-2.64c-1.632-0.789-2.436-0.384-3.002,1.258
		c-1.909,5.526-3.843,11.046-5.87,16.529c-0.481,1.302-0.146,1.891,1.047,2.296c2.288,0.777,4.538,1.674,6.852,2.357
		c2.224,0.656,4.295,0.04,6.135-1.291C186.991,119.03,188.349,115.089,188.809,111.294z M222.07,129.952
		c-0.494-1.286-0.709-2.799-1.538-3.81c-1.838-2.239-4.003-4.208-5.998-6.321c-1.008-1.066-1.772-0.829-2.662,0.184
		c-3.983,4.527-8.041,8.994-11.981,13.558c-0.35,0.408-0.361,1.695-0.014,2.021c1.94,1.818,3.94,3.615,6.13,5.111
		c1.141,0.779,2.707,1.265,4.094,1.292C215.33,142.094,221.856,135.326,222.07,129.952z M106.872,121.494
		c1.99,1.302,3.561,2.056,4.776,3.189c1.99,1.858,3.743,1.466,5.747,0.109c1.201-0.816,1.213-1.279-0.014-1.989
		c-2.69-1.56-5.316-3.233-8.035-4.742c-1.127-0.625-1.473-1.4-1.385-2.62c0.201-2.788,0.327-5.583,0.449-8.376
		c0.069-1.57-0.387-1.814-1.754-1.174c-1.982,0.93-2.78,2.38-2.566,4.583c0.139,1.431-0.086,2.897-0.166,4.751
		c-1.623-1.071-2.817-1.686-3.8-2.542c-1.788-1.559-3.521-1.829-5.396-0.24c-0.406,0.344-0.818,0.682-1.228,1.021
		c0.398,0.445,0.719,1.016,1.208,1.313c2.386,1.45,4.864,2.753,7.2,4.275c0.61,0.396,1.164,1.394,1.165,2.115
		c0.001,2.663-0.289,5.326-0.361,7.99c-0.026,0.955,0.258,1.917,0.399,2.875c1.005-0.462,2.174-0.742,2.96-1.447
		c0.542-0.487,0.725-1.556,0.767-2.38C106.941,126.157,106.872,124.102,106.872,121.494z M141.237,96.987
		c-1.521,0.175-4.176,0.489-6.833,0.78c-1.166,0.128-1.938,0.545-1.791,1.916c0.633,5.948,1.253,11.898,1.86,17.849
		c0.138,1.341,0.811,1.914,2.165,1.755c3.223-0.376,6.446-0.766,9.678-1.051c1.5-0.132,1.774-0.987,1.651-2.214
		c-0.132-1.322-0.814-1.923-2.191-1.699c-1.065,0.175-2.148,0.246-3.222,0.375c-4.012,0.479-4.055,0.483-4.121-3.529
		c-0.009-0.481,0.683-1.295,1.172-1.403c1.546-0.341,3.148-0.433,4.731-0.593c1.316-0.133,1.901-0.764,1.789-2.148
		c-0.113-1.395-0.768-1.913-2.118-1.743c-1.515,0.192-3.04,0.309-4.554,0.503c-1.906,0.244-1.741-1.125-1.922-2.322
		c-0.183-1.201-0.227-2.144,1.398-2.258c1.776-0.126,3.538-0.451,5.311-0.608c1.21-0.107,1.656-0.691,1.595-1.872
		C145.745,96.919,145.345,96.688,141.237,96.987z M199.981,130.11c-0.659-0.282-1.215-0.463-1.714-0.744
		c-1.051-0.594-2.073-1.237-3.104-1.865c-3.359-2.048-3.328-2.03-1.236-5.323c0.653-1.03,1.263-1.028,2.175-0.387
		c1.299,0.911,2.66,1.732,3.991,2.595c1.377,0.894,2.052,0.01,2.747-1.015c0.716-1.053,0.439-1.737-0.604-2.319
		c-0.999-0.558-1.953-1.192-2.931-1.784c-2.81-1.704-2.796-1.693-1.009-4.407c0.554-0.841,1.088-1.114,2.023-0.477
		c1.415,0.966,2.977,1.724,4.347,2.742c1.318,0.981,2.095,0.688,2.911-0.606c0.871-1.379,0.228-2.063-0.913-2.729
		c-2.473-1.439-4.924-2.918-7.372-4.4c-2.059-1.248-2.189-1.188-3.446,0.924c-2.925,4.916-5.843,9.834-8.87,14.686
		c-0.796,1.276-0.507,1.922,0.639,2.599c2.788,1.652,5.533,3.374,8.334,5.004c0.495,0.288,1.394,0.571,1.718,0.332
		C198.386,132.404,198.859,131.538,199.981,130.11z M102.367,132.891c-0.677-0.817-1.163-1.688-1.903-2.176
		c-0.359-0.238-1.289,0.092-1.789,0.423c-0.947,0.63-1.756,1.464-2.647,2.182c-3.084,2.488-3.066,2.466-5.46-0.674
		c-0.657-0.863-0.563-1.415,0.29-2.047c1.327-0.986,2.57-2.082,3.877-3.094c1-0.776,1.178-1.483,0.246-2.521
		c-0.897-1-1.636-1.545-2.83-0.44c-1.165,1.079-2.46,2.018-3.629,3.093c-0.885,0.815-1.542,0.68-2.195-0.235
		c-0.295-0.414-0.6-0.828-0.963-1.179c-0.944-0.91-0.684-1.604,0.257-2.329c1.461-1.126,2.855-2.335,4.298-3.485
		c0.994-0.792,0.886-1.589,0.086-2.422c-0.712-0.744-1.357-1.582-2.534-0.587c-2.575,2.176-5.18,4.318-7.807,6.43
		c-0.897,0.721-0.938,1.353-0.216,2.23c3.878,4.715,7.736,9.448,11.573,14.197c0.747,0.925,1.437,1.114,2.396,0.305
		c2.578-2.17,5.195-4.295,7.785-6.452C101.574,133.798,101.877,133.406,102.367,132.891z M126.991,98.744
		c-0.696,0.152-0.948,0.189-1.19,0.263c-3.89,1.188-7.778,2.382-11.668,3.567c-1.382,0.42-1.716,1.16-1.206,2.594
		c0.527,1.483,1.311,1.714,2.61,1.159c0.524-0.224,1.076-0.387,1.609-0.593c1.312-0.504,1.936-0.055,2.323,1.311
		c1.263,4.464,2.683,8.882,3.973,13.338c0.428,1.477,1.223,1.731,2.575,1.25c1.258-0.449,2.504-0.732,1.905-2.576
		c-1.296-3.989-2.524-7.998-3.782-11.998c-0.95-3.021-0.951-3.02,2.138-4.068c0.362-0.123,0.896-0.134,1.053-0.385
		c0.38-0.604,0.871-1.358,0.785-1.978C128.017,99.92,127.342,99.292,126.991,98.744z"/>
	<polygon display="inline" fill-rule="evenodd" clip-rule="evenodd" fill="#8D8D8D" points="156.385,149.154 143.08,149.154 
		149.732,142.404 	"/>
	<path display="inline" fill-rule="evenodd" clip-rule="evenodd" fill="#8D8D8D" d="M113.242,175.723
		c0.827,0,1.655-0.038,2.479,0.006c2.321,0.128,3.714,1.477,3.832,3.669c0.13,2.442-1.292,4.382-3.586,4.59
		c-1.829,0.167-3.69,0.17-5.52,0.023c-0.509-0.041-1.319-0.836-1.366-1.345c-0.169-1.828-0.168-3.688-0.01-5.521
		c0.043-0.507,0.782-1.224,1.325-1.36C111.293,175.558,112.289,175.724,113.242,175.723z"/>
	<path display="inline" fill-rule="evenodd" clip-rule="evenodd" fill="#8D8D8D" d="M138.967,180.024
		c0.08-4.69-0.792-4.298,4.415-4.315c0.888-0.003,1.781-0.033,2.664,0.038c2.087,0.17,3.559,1.669,3.671,3.667
		c0.122,2.164-1.249,4.268-3.26,4.501c-2.068,0.24-4.182,0.195-6.267,0.091c-0.428-0.021-1.046-0.802-1.169-1.329
		C138.823,181.835,138.967,180.913,138.967,180.024z"/>
	<path display="inline" fill-rule="evenodd" clip-rule="evenodd" fill="#8D8D8D" d="M175.384,178.038
		c0.869,2.61,1.696,5.098,2.524,7.584c0.34,1.021,0.665,2.046,1.028,3.058c0.353,0.979,0.042,1.464-1.005,1.464
		c-1.965,0-3.935,0.06-5.894-0.055c-0.367-0.022-1.063-0.866-0.979-1.13c1.118-3.492,2.34-6.948,3.564-10.404
		C174.687,178.374,175.009,178.284,175.384,178.038z"/>
	<path display="inline" fill-rule="evenodd" clip-rule="evenodd" fill="#8D8D8D" d="M86.694,190.018c-3.013,0-5.644,0-8.638,0
		c1.439-4.133,2.796-8.035,4.154-11.936c0.168-0.027,0.337-0.057,0.505-0.085C84.004,181.89,85.293,185.782,86.694,190.018z"/>
	<path display="inline" fill-rule="evenodd" clip-rule="evenodd" fill="#8D8D8D" d="M184.177,111.119
		c-0.108,1.885-0.903,4.258-2.645,6.082c-0.872,0.914-2.307,1.683-3.544,1.777c-3.025,0.232-3.751-0.862-2.805-3.679
		c1.009-2.998,2.04-5.991,3.175-8.943c0.187-0.488,0.976-1.101,1.439-1.065C182.224,105.479,184.238,107.948,184.177,111.119z"/>
	<path display="inline" fill-rule="evenodd" clip-rule="evenodd" fill="#8D8D8D" d="M209.021,137.823
		c-1.387-0.715-2.35-1.468-3.548-2.435c-0.21-0.17-0.027-1.217,0.29-1.59c2.435-2.855,4.93-5.66,7.465-8.425
		c0.282-0.308,1.079-0.519,1.41-0.343c2.349,1.244,3.35,4.31,2.126,6.722C215.24,134.755,213.023,137.021,209.021,137.823z"/>
</g>
<text transform="matrix(1 0 0 1 23.1885 239.0146)" display="none" fill="#8D8D8D" font-family="'Roboto-Bold'" font-size="23.7617" letter-spacing="4">Service Contract</text>
<g display="none">
	<path display="inline" fill-rule="evenodd" clip-rule="evenodd" fill="#8D8D8D" d="M246.086,197.89
		c-1.459-1.36-2.419-2.961-1.564-5.247c2.977-2.685,4.986-5.148,7.076-8.03c1.549-2.141,1.849-2.449,3.206-7.256
		c0.6-2.675,0.667-3.411,0.587-5.011c-0.285-5.8-1.631-11.333-5.487-15.896c-1.462-1.731-3.225-3.226-4.944-4.717
		c-0.994-0.859-1.446-1.731-1.437-3.104c0.065-9.801,0.036-19.601,0.036-29.403c0-0.75,0-1.5,0-2.412
		c-1.083-0.075-1.966-0.188-2.85-0.188c-10.079-0.012-20.16,0.06-30.237-0.031c-7.371-0.066-9.101-5.272-7.524-10.946
		c0.566-2.033,2.408-4.086,5.142-4.103c14.109-0.088,28.217-0.107,42.325-0.23c2.076-0.017,2.619,1.748,3.643,2.801
		c1.76,1.812,3.17,3.974,4.632,6.057c1.024,1.462,1.946,1.412,2.976,0.089c1.909-2.452,3.825-4.9,5.719-7.365
		c0.802-1.044,1.715-1.646,3.142-1.587c3.26,0.137,6.533,0.022,9.792,0.194c4.268,0.227,7.479,3.74,7.481,7.995
		c0.005,10.774,0.003,21.548,0.001,32.323c0,4.865-3.238,8.453-8.09,8.562c-2.256,0.05-2.768,0.838-2.751,2.966
		c0.091,12.65-0.068,25.304,0.105,37.952c0.062,4.506-2.684,7.593-6.274,8.944c-2.9,1.093-7.275-0.447-9.631-3.24
		c-0.248-0.293-0.471-0.608-0.736-0.953c-1.69,1.397-2.657,3.981-7.628,4.144c2.328,0.245,5.868,0.812,7.441,1.333
		c5.175,1.71,8.223,5.381,8.372,10.721c0.259,9.368-0.038,18.752,0.024,28.129c0.026,3.563-5.792,8.559-9.375,8.529
		c-19.462-0.162-38.926-0.101-58.389-0.051c-3.496,0.009-7.944-3.158-8.957-6.664c-0.523-1.812-0.868-3.742-0.889-5.624
		c-0.084-7.992-0.129-15.988,0.048-23.981c0.094-4.314,4.089-9.563,8.541-11.176c2.479-0.899,4.82-0.918,7.255-0.927
		c13.069-0.042,26.138-0.016,39.206-0.026c0.935,0,3.451-0.187,4.387-0.233C250.459,200.227,248.123,199.791,246.086,197.89z"/>
	<path display="inline" fill-rule="evenodd" clip-rule="evenodd" fill="#8D8D8D" d="M145.498,248.915
		c-9.593,0-19.188-0.144-28.775,0.069c-4.014,0.089-9.674-4.424-9.774-9.073c-0.081-3.753-0.07-7.506-0.079-11.259
		c-0.012-5.073,0.027-10.148-0.008-15.223c-0.04-5.29,2.938-8.846,7.028-11.448c1.619-1.033,3.921-1.363,5.916-1.374
		c17.308-0.102,34.617-0.003,51.925-0.096c4.92-0.025,10.923,4.446,11.881,8.768c0.364,1.651,0.799,3.329,0.815,4.998
		c0.085,8.271-0.021,16.546,0.062,24.815c0.05,4.949-4.868,9.89-9.797,9.848C164.962,248.856,155.23,248.915,145.498,248.915z"/>
	<path display="inline" fill-rule="evenodd" clip-rule="evenodd" fill="#8D8D8D" d="M61.105,248.915
		c-9.661,0-19.323,0.011-28.984-0.006c-4.448-0.007-9.167-4.091-9.242-8.522c-0.164-9.863-0.184-19.736,0.083-29.592
		c0.114-4.202,4.034-7.507,7.337-9.126c2.7-1.322,5.478-1.111,8.277-1.113c16.125-0.016,32.25,0.063,48.375-0.046
		c5.154-0.036,11.768,4.189,12.662,9.813c0.341,2.149,0.793,4.312,0.825,6.474c0.105,7.018-0.01,14.039,0.056,21.062
		c0.051,5.424-5.34,11.389-11.036,11.16C80.023,248.64,70.557,248.918,61.105,248.915z"/>
	<path display="inline" fill-rule="evenodd" clip-rule="evenodd" fill="#8D8D8D" d="M25.28,84.602c0,1.008,0,1.827,0,2.645
		c0,24.054,0,48.108,0.001,72.164c0,2.945,0.388,3.323,3.406,3.33c2.736,0.009,5.471,0.002,8.196,0.002
		c-0.601,2.74-1,5.08-1.681,7.334c-0.184,0.608-1.209,1.347-1.866,1.364c-4.098,0.126-8.203,0.108-12.303,0.047
		c-2.727-0.036-4.4-1.799-4.4-4.5c-0.005-28.99-0.003-57.981,0-86.971c0-2.937,1.108-4.14,4.052-4.392
		c0.898-0.076,1.807-0.064,2.709-0.064c37.959-0.003,75.916-0.002,113.874-0.003c3.216,0,3.248-0.003,3.259-3.249
		c0.006-2.529,1.964-5.347,4.883-5.011c2.883,0.333,5.832,0.065,8.751,0.075c2.711,0.011,4.394,1.659,4.467,4.354
		c0.008,0.418,0.048,0.84-0.006,1.25c-0.271,2.071,0.724,2.615,2.665,2.609c19.883-0.049,39.767-0.03,59.649-0.027
		c0.904,0.001,1.813-0.012,2.708,0.081c2.637,0.272,4,1.802,3.948,4.354c-0.045,2.252-1.986,4.305-4.225,4.446
		c-0.623,0.039-1.251,0.007-1.878,0.007c-64.307,0-128.615-0.001-192.921,0.006C27.549,84.457,26.528,84.545,25.28,84.602z"/>
	<path display="inline" fill-rule="evenodd" clip-rule="evenodd" fill="#8D8D8D" d="M167.278,171.945
		c0.353,12.671-10.495,22.302-22.187,22.06c-12.195-0.256-21.747-9.451-21.871-21.933c-0.117-11.749,9.467-22.407,22.916-22.068
		C156.943,150.275,167.73,159.626,167.278,171.945z"/>
	<path display="inline" fill-rule="evenodd" clip-rule="evenodd" fill="#8D8D8D" d="M39.143,171.901
		c-0.727-12.242,10.321-21.965,21.593-21.884c13.477,0.098,22.559,10.34,22.335,22.071c-0.236,12.455-8.792,21.663-22.414,21.886
		C49.833,194.151,38.463,185.168,39.143,171.901z"/>
	<path display="inline" fill-rule="evenodd" clip-rule="evenodd" fill="#8D8D8D" d="M207.969,172.023
		c-0.813-12.735,10.615-21.799,20.891-22.014c13.099-0.275,22.934,9.684,22.824,21.961c-0.115,13.119-9.598,21.738-21.778,22.003
		C218.648,194.216,207.432,185.516,207.969,172.023z"/>
	<path display="inline" fill-rule="evenodd" clip-rule="evenodd" fill="#8D8D8D" d="M259.962,95.517
		c-8.312,0.254-14.486-7.262-14.07-14.63c0.398-7.066,5.746-14.439,16.441-13.575c6.066,0.49,12.987,7.663,12.419,14.151
		C274.055,89.393,269.13,95.646,259.962,95.517z"/>
	<path display="inline" fill-rule="evenodd" clip-rule="evenodd" fill="#8D8D8D" d="M205.488,163.008
		c-0.525,2.521-0.921,4.804-1.526,7.028c-0.157,0.58-0.969,1.4-1.485,1.405c-9.934,0.084-19.869,0.06-29.803,0.063
		c-1.322,0-1.955-0.499-2.069-1.963c-0.171-2.146-0.657-4.269-1.028-6.533C181.504,163.008,193.493,163.008,205.488,163.008z"/>
	<path display="inline" fill-rule="evenodd" clip-rule="evenodd" fill="#8D8D8D" d="M85.225,162.866c12.173,0,23.867,0,35.857,0
		c-0.48,2.68-0.861,5.215-1.448,7.699c-0.099,0.42-1.086,0.894-1.666,0.896c-10.2,0.038-20.402,0.007-30.603-0.016
		c-0.129,0-0.26-0.089-0.496-0.176C86.344,168.591,85.812,165.864,85.225,162.866z"/>
</g>
<g display="none">
	<path display="inline" fill-rule="evenodd" clip-rule="evenodd" d="M46.774,26.264c0.313-1.193,0.584-2.398,0.943-3.578
		C50.303,14.199,58.04,8.734,67.501,8.657c17.994-0.145,35.987-0.274,53.981-0.467c16.74-0.18,33.482-0.496,50.221-0.638
		c12.409-0.104,21.116,8.53,21.239,20.994c0.127,12.685,0.063,25.37,0.2,38.054c0.174,15.992,0.444,31.986,0.729,47.979
		c0.065,3.739-0.732,7.017-3.708,9.575c-1.232,1.061-2.258,0.924-2.865-0.355c-0.59-1.245-1.005-2.697-1.024-4.065
		c-0.224-15.244-0.35-30.49-0.513-45.735c-0.118-11.058-0.246-22.117-0.377-33.175c-0.013-0.923-0.086-1.846-0.138-2.923
		c-44.05,0.5-87.944,0.998-132.112,1.5c0,1.316-0.012,2.484,0.001,3.651c0.349,30.427,0.712,60.853,1.05,91.28
		c0.348,31.427,0.671,62.853,1.004,94.279c0.087,8.248,0.169,16.494,0.25,24.742c0.035,3.48,0.152,3.605,3.585,3.564
		c32.175-0.376,64.351-0.754,96.527-1.129c9.934-0.116,19.867-0.271,29.801-0.306c1.863-0.006,2.402-0.504,2.373-2.438
		c-0.382-25.115-0.665-50.231-0.969-75.346c-0.006-0.418,0.044-0.838,0.084-1.536c2.51,1.228,4.876,2.294,7.126,3.568
		c0.432,0.242,0.561,1.294,0.569,1.975c0.174,12.745,0.302,25.491,0.453,38.236c0.198,16.743,0.452,33.486,0.592,50.229
		c0.063,7.372-2.494,13.579-8.826,17.81c-3.639,2.432-7.747,3.324-12.082,3.361c-18.117,0.151-36.235,0.288-54.353,0.48
		c-16.867,0.18-33.731,0.472-50.6,0.624c-10.029,0.09-18.1-6.359-19.692-16.242c-0.789-4.892-0.542-9.967-0.594-14.96
		c-0.197-18.806-0.296-37.611-0.483-56.417c-0.224-22.43-0.5-44.857-0.754-67.285c-0.251-22.367-0.503-44.732-0.755-67.098
		c-0.125-11.182-0.244-22.364-0.388-33.545c-0.012-1.047-0.183-2.092-0.281-3.137C46.774,31.262,46.774,28.763,46.774,26.264z
		 M122.211,266.968c-4.686,0-9.373-0.017-14.058,0.005c-4.199,0.02-7.372,3.071-7.403,7.068c-0.029,4.1,3.145,7.198,7.45,7.206
		c9.308,0.019,18.618,0.019,27.928,0c4.206-0.009,7.372-3.061,7.401-7.065c0.03-4.097-3.149-7.192-7.449-7.209
		C131.458,266.953,126.834,266.968,122.211,266.968z M121.763,22.532c6.06,0,12.12,0,18.181,0c0.375,0,0.75-0.014,1.126,0.003
		c1.229,0.053,2.394-0.162,2.416-1.66c0.023-1.629-1.214-1.813-2.507-1.756c-0.248,0.011-0.498,0.001-0.749,0.001
		c-12.308,0-24.615,0-36.925,0c-0.437,0-0.874,0.003-1.311,0.001c-1.178-0.001-1.985,0.514-1.958,1.749
		c0.029,1.244,0.891,1.686,2.046,1.662c0.374-0.008,0.75,0,1.125,0C109.392,22.532,115.578,22.532,121.763,22.532z"/>
	<path display="inline" fill-rule="evenodd" clip-rule="evenodd" d="M134.025,220.141c3.593-3.488,7.083-6.868,10.564-10.26
		c5.741-5.598,4.882-4.702,3.443-11.136c-0.462-2.066-0.803-4.162-1.12-6.258c-0.226-1.501-1.029-2.373-2.494-2.625
		c-3.318-0.569-6.647-1.074-9.958-1.682c-1.979-0.363-3.521,0.269-4.884,1.668c-3.922,4.03-7.871,8.034-11.812,12.045
		c-0.297,0.304-0.613,0.589-1.066,1.022c-1.527-4.544-1.558-8.94-0.426-13.357c3.692-14.402,18.398-22.619,32.525-17.98
		c3.152,1.034,5.218,0.399,7.453-1.901c18.413-18.96,36.896-37.853,55.419-56.705c1.792-1.823,2.257-3.584,1.61-6.042
		c-3.971-15.08,4.733-29.008,19.978-32.082c3.585-0.724,7.163-0.469,10.986,0.386c-0.868,1.01-1.589,1.927-2.393,2.765
		c-3.243,3.381-6.439,6.812-9.801,10.074c-1.882,1.828-2.322,3.887-1.883,6.306c0.523,2.882,1.088,5.76,1.574,8.648
		c0.299,1.783,1.288,2.745,3.061,3.03c2.954,0.475,5.898,1.013,8.851,1.509c2.322,0.389,4.228-0.302,5.946-1.971
		c4.208-4.09,8.52-8.072,12.748-12.061c0.941,3.102,1.209,6.8,0.571,10.454c-2.159,12.364-11.569,20.856-24.096,21.416
		c-3.331,0.149-6.767-0.83-10.063-1.655c-2.045-0.511-3.516-0.398-5.041,1.169c-18.925,19.421-37.885,38.81-56.866,58.175
		c-1.582,1.613-1.919,3.29-1.363,5.443c3.105,12.057-1.006,22.828-11.078,29.097c-6.059,3.771-12.667,4.207-19.508,3.005
		C134.737,220.606,134.591,220.466,134.025,220.141z"/>
	<path display="inline" fill-rule="evenodd" clip-rule="evenodd" d="M207.016,171.207c-0.963-1.072-1.789-1.994-2.646-2.95
		c-3.61,1.729-6.602,6.243-11.495,2.189c8.435-8.625,16.789-17.169,25.133-25.701c1.945,1.358,2.569,2.865,1.709,5.013
		c-0.685,1.715-1.63,3.367-2.696,4.879c-1.165,1.65,0.51,2,1.071,2.841c0.542,0.811,1.199,1.173,2.168,0.396
		c1.115-0.894,2.328-1.677,3.549-2.429c1.918-1.181,3.802-1.021,5.559,0.369c0.88,0.697,1.754,1.413,2.557,2.195
		c12.337,12.041,24.666,24.091,36.981,36.153c1.473,1.441,2.856,2.911,2.914,5.231c0.049,1.989-0.752,3.529-2.035,4.854
		c-5.3,5.478-10.577,10.975-15.987,16.341c-3.247,3.219-6.303,3.053-9.81-0.35c-7.352-7.133-14.652-14.318-21.973-21.483
		c-5.044-4.938-10.088-9.876-15.131-14.814c-0.401-0.394-0.802-0.787-1.189-1.194c-3.193-3.363-3.297-5.708-0.418-9.381
		C205.811,172.685,206.364,172.016,207.016,171.207z M256.795,210.674c-1.249-1.311-2.331-2.516-3.484-3.646
		c-11.55-11.323-23.11-22.635-34.667-33.949c-0.491-0.48-0.908-1.177-1.497-1.381c-0.711-0.247-1.566-0.078-2.36-0.089
		c0.023,0.809-0.068,1.644,0.111,2.414c0.097,0.413,0.656,0.722,1.014,1.07c11.964,11.702,23.934,23.4,35.887,35.113
		C253.869,212.235,253.837,212.267,256.795,210.674z M210.931,176.387c-0.537,0.325-1.275,0.612-1.248,0.78
		c0.154,0.982,0.184,2.242,0.803,2.853c12.123,11.965,24.318,23.854,36.509,35.75c0.979,0.957,2.131,2.184,3.481,0.911
		c1.552-1.462-0.314-2.374-1.071-3.123c-12.106-11.979-24.275-23.896-36.45-35.807C212.403,177.213,211.66,176.871,210.931,176.387z
		 M224.453,161.452c0.664,1.194,1.047,2.473,1.88,3.295c11.92,11.758,23.901,23.453,35.866,35.168
		c1.929,1.889,2.242,1.919,4.616,0.241c-0.926-1.024-1.8-2.077-2.765-3.039c-3.008-3-6.046-5.971-9.084-8.941
		c-8.844-8.648-17.696-17.289-26.536-25.941C227.483,161.307,226.49,160.661,224.453,161.452z M220.725,165.327
		c-0.366,0.856-1.007,1.62-0.838,2.104c0.374,1.07,0.988,2.164,1.793,2.957c11.765,11.618,23.573,23.189,35.379,34.764
		c0.488,0.478,0.998,1.124,1.592,1.251c0.67,0.145,1.59-0.023,2.116-0.426c0.269-0.206-0.003-1.251-0.192-1.867
		c-0.116-0.382-0.516-0.694-0.825-0.998c-12.382-12.147-24.764-24.292-37.159-36.423C222.16,166.267,221.614,165.97,220.725,165.327
		z"/>
	<path display="inline" fill-rule="evenodd" clip-rule="evenodd" d="M182.647,129.391c-2.212,2.063-3.942,3.676-5.776,5.386
		c-3.543-3.457-7.253-7.049-10.93-10.674c-6.581-6.488-13.042-13.103-19.773-19.43c-1.826-1.718-4.324-2.938-6.727-3.766
		c-2.593-0.891-4.654-2.061-6.279-4.336c-2.35-3.292-5-6.371-7.653-9.707c2.286-2.149,4.467-4.365,6.855-6.332
		c0.551-0.455,2.049-0.427,2.691,0.004c3.57,2.398,7.062,4.927,10.458,7.568c0.732,0.569,1.252,1.756,1.362,2.717
		c0.384,3.339,1.894,5.956,4.287,8.269c9.427,9.115,18.778,18.307,28.177,27.452C180.32,127.499,181.416,128.337,182.647,129.391z"
		/>
</g>
<g>
	<path fill-rule="evenodd" clip-rule="evenodd" fill="#8D8D8D" d="M151.196,196.991c-2.712,2.452-5.156,4.703-7.645,6.902
		c-5.034,4.447-10.068,8.895-15.155,13.281c-1.364,1.176-1.831,2.247-1.336,4.175c4.215,16.459,8.077,33.01,12.466,49.422
		c2.28,8.529-3.034,16.672-9.203,18.408c-8.628,2.429-16.331-1.682-18.684-10.388c-3.247-12.013-6.133-24.123-9.161-36.193
		c-2.158-8.608-4.183-17.251-6.482-25.819c-1.409-5.254-0.458-9.416,3.845-13.054c7.858-6.644,15.433-13.621,23.222-20.349
		c1.64-1.418,2.105-2.561,1.174-4.661c-5.833-13.154-11.525-26.371-17.277-39.563c-0.075-0.17-0.31-0.27-0.783-0.663
		c-0.573,0.692-1.233,1.331-1.705,2.087c-2.695,4.317-5.336,8.669-8.016,12.997c-3.216,5.195-6.497,6.369-12.367,4.675
		c-13.72-3.959-27.454-7.865-41.193-11.756c-1.443-0.408-2.825-0.624-2.212-2.692c2.362-7.974,4.691-15.957,7.15-24.335
		c5.647,1.6,11.13,3.126,16.598,4.71c4.258,1.234,8.514,2.479,12.733,3.837c1.79,0.576,2.773,0.021,3.722-1.515
		c2.558-4.146,5.084-8.337,7.992-12.234c1.497-2.007,3.516-4.018,5.751-5.015c14.319-6.385,28.865-12.265,43.116-18.794
		c5.802-2.658,10.986-1.013,16.395,0.363c10.172,2.586,20.35,5.153,30.454,7.983c2.741,0.768,5.58,2.015,7.771,3.787
		c11.786,9.541,23.38,19.319,35.054,29c0.415,0.344,0.961,0.529,1.677,0.912c-6.329,7.266-12.203,14.01-18.291,20.998
		c-5.854-4.839-11.507-9.513-17.16-14.186c-5.177-4.279-10.278-8.654-15.577-12.775c-1.549-1.205-3.595-1.911-5.522-2.458
		c-5.695-1.617-11.445-3.04-17.936-4.738c0.47,1.554,0.639,2.432,0.99,3.23c6.665,15.156,13.788,30.131,19.835,45.531
		c2.719,6.925,3.315,14.688,4.825,22.08c0.367,1.801,0.874,3.664,0.744,5.457c-0.472,6.525,3.173,9.336,8.739,11.635
		c14.089,5.82,27.927,12.248,41.904,18.344c5.193,2.265,8.688,5.72,9.97,11.455c1.236,5.532-0.679,9.866-4.582,13.386
		c-4.09,3.686-9.149,4.813-14.229,2.711c-11.186-4.632-22.213-9.652-33.29-14.55c-9.101-4.022-18.154-8.15-27.276-12.121
		c-4.104-1.786-6.644-4.561-7.281-9.122c-0.854-6.112-1.923-12.194-2.935-18.283C151.928,198.507,151.587,197.96,151.196,196.991z"
		/>
	<path fill-rule="evenodd" clip-rule="evenodd" fill="#8D8D8D" d="M294.79,153.641c-1.362,2.529-2.056,4.638-3.398,6.182
		c-14.431,16.601-28.949,33.125-43.479,49.638c-3.885,4.415-7.658,4.729-12.123,0.895c-10.521-9.035-20.989-18.133-31.418-27.274
		c-4.27-3.742-4.438-7.854-0.639-12.192c14.419-16.467,28.854-32.919,43.302-49.36c4.103-4.668,7.856-4.882,12.611-0.755
		c10.145,8.807,20.329,17.57,30.356,26.509C291.889,148.963,293.121,151.379,294.79,153.641z"/>
	<path fill-rule="evenodd" clip-rule="evenodd" fill="#8D8D8D" d="M128.733,65.601c0.13,15.8-12.513,28.604-28.268,28.603
		c-16.882-0.001-29.233-14.151-29.219-24.621c0.026-20.195,11.053-31.744,28.896-32.168
		C117.447,37.003,128.581,50.686,128.733,65.601z"/>
	<path fill-rule="evenodd" clip-rule="evenodd" fill="#8D8D8D" d="M58.581,96.746c-0.573,7.549-5.558,14.345-12.644,16.202
		c-2.183,0.572-3.226,1.597-3.828,3.744c-2.45,8.748-5.076,17.446-7.641,26.163c-0.244,0.829-0.491,1.661-0.785,2.473
		c-1.452,4.012-4.479,5.86-7.923,4.856c-3.668-1.069-5.457-4.333-4.41-8.497c1.001-3.984,2.214-7.917,3.37-11.862
		c1.672-5.708,3.273-11.441,5.12-17.092c0.719-2.198-0.285-3.393-1.565-4.827c-7.415-8.304-4.141-22.219,6.179-26.271
		c0.931-0.366,2.046-0.262,3.077-0.376c0.07,1.123,0.402,2.307,0.158,3.358c-0.609,2.63-1.331,5.256-2.293,7.773
		c-0.78,2.039-0.202,3.024,1.763,3.573c2.707,0.758,5.406,1.543,8.086,2.388c1.882,0.593,2.81-0.059,3.266-1.946
		c0.686-2.836,1.482-5.652,2.383-8.428c0.27-0.833,0.958-1.998,1.609-2.109c0.646-0.11,1.843,0.75,2.177,1.472
		C56.104,90.417,57.3,93.601,58.581,96.746z"/>
</g>
<g display="none">
	<path display="inline" fill-rule="evenodd" clip-rule="evenodd" d="M286.708,133.681c-7.165,17.994-22.96,23.289-39.813,26.769
		c-5.457,1.128-9.866-0.933-11.333-6.819c-1.353-5.428,1.758-9.696,7.694-11.498c5.973-1.812,12.203-3.196,17.735-5.944
		c9.109-4.52,9.517-11.045,1.506-18.773c-0.115,2.286-0.282,4.212-0.297,6.138c-0.081,11.193-0.059,11.226-11.107,14.595
		c-4.888,1.49-9.825,2.815-15.422,4.409c-1.221-8.208-2.48-16.691-3.773-25.377c-2.916,0-5.521,0-9.044,0
		c-1.188,8.465-2.425,17.264-3.655,26.063c-0.249,1.776-0.43,3.563-0.734,5.33c-1.784,10.353-1.799,10.12-12.113,10.382
		c-4.387,0.112-7.363-0.608-7.401-5.953c-10.834,6.622-22.518,6.414-33.504,5.225c-1.629-0.177-3.19-2.138-3.19-2.138l-5.884,4.253
		l-0.844-0.306c0,0,4.272-6.265,4.148-6.874c-0.668-3.245-0.445-4.909,0.028-6.368c0.704-2.172,1.817-4.003,5.285-6.128
		c1.971-1.205,5.313-1.149,8.022-1.106c1.238,0.02,1.59-0.006,1.59-0.006c1.926-1.829,6.83-6.931,6.83-6.931l2.5,1.978
		c0,0-3.598,4.72-4.445,5.434l2.408,0.089c4.42,0.311,6.893-3.08,7.53-7.417c1.004-6.845,0.833-13.862,1.845-20.704
		c0.837-5.655,2.023-11.44,4.27-16.644c1.578-3.656,4.706-5.032,9.111-1.458c10.21,8.281,23.732,8.663,33.565,0.569
		c7.946-6.539,15.953-5.23,23.76-1.705c12.492,5.642,20.092,16.079,24.732,28.775C289.097,127.261,287.847,130.541,286.708,133.681z
		 M227.424,102.48c-5.538-0.892-5.853,3.432-5.594,6.696c0.124,1.55,3.444,4.053,5.204,3.961c2.145-0.112,5.748-2.336,5.913-3.938
		C233.271,106.064,232.994,101.569,227.424,102.48z"/>
	<path display="inline" fill-rule="evenodd" clip-rule="evenodd" d="M16.931,162.008c7.813,0,15.628,0,23.844,0
		c0,3.529,0,6.568,0,10.792c-7.885,0-15.864,0-23.844,0C16.931,169.203,16.931,165.604,16.931,162.008z"/>
	<path display="inline" fill-rule="evenodd" clip-rule="evenodd" d="M40.774,154.797c-23.744-9.065-28.665-28.33-14.98-47.028
		c8.383-11.456,18.923-18.632,34.157-17.668c12.082,0.766,24.251,0.082,36.38,0.197c11.802,0.113,16.909,5.199,17.603,17.192
		c0.426,7.385,0.501,14.814,1.4,22.144c1.051,8.579,3.742,10.676,12.286,10.991c2.467,0.091,4.945-0.113,7.409,0.013
		c5.588,0.284,9.69,4.156,9.824,9.128c0.134,4.933-3.87,9.131-9.427,9.457c-9.967,0.586-19.767,0.087-29.019-6.483
		c0,8.252,0,15.826,0,24.1c11.512,0,22.906-0.031,34.3,0.011c11.273,0.039,16.453,5.197,16.472,16.434
		c0.034,20.217,0.045,40.436-0.006,60.65c-0.022,9.6-5.832,15.943-14.375,15.917c-8.373-0.026-14.173-5.949-14.297-15.355
		c-0.211-15.916-0.058-31.836-0.058-48.539c-2.884-0.161-5.242-0.404-7.6-0.407c-19.992-0.031-39.984,0.035-59.977-0.041
		c-12.561-0.047-17.401-4.946-17.443-17.655c-0.069-21.115-0.02-42.231-0.021-63.346c0-2.203,0-4.406,0-6.955
		c-6.647,4.759-6.467,8.82-4.229,15.283C41.48,139.499,40.774,146.563,40.774,154.797z"/>
	<path display="inline" fill-rule="evenodd" clip-rule="evenodd" d="M50.863,207.61c23.415,0,46.47,0,70.438,0
		c0,10.151,0.002,19.496,0,28.843c-0.002,9.661-0.094,19.32,0.021,28.98c0.06,5.106-2.076,7.218-7.295,7.172
		c-18.87-0.171-37.744-0.114-56.614-0.031c-4.218,0.019-7.024-1.096-7.01-5.941c0.053-19.32,0.054-38.64,0.112-57.961
		C50.516,208.054,50.926,207.434,50.863,207.61z"/>
	<path display="inline" fill-rule="evenodd" clip-rule="evenodd" d="M261.55,175.606c0.375,1.646,0.545,2.077,0.563,2.515
		c0.867,20.555-0.367,28.618-26.025,27.552c-17.757-0.739-17.781-0.143-17.783,17.702c0,10.104,0.1,20.21-0.037,30.312
		c-0.137,10.215-5.956,16.427-14.842,16.163c-8.454-0.251-13.816-6.554-13.833-16.422c-0.035-20.209-0.049-40.417,0.005-60.625
		c0.027-10.508,5.278-15.752,15.568-15.977c16.553-0.361,33.1-0.813,49.649-1.212C257.005,175.562,259.197,175.606,261.55,175.606z"
		/>
	<path display="inline" fill-rule="evenodd" clip-rule="evenodd" d="M221.669,207.839c9.076,0,17.197,0.587,25.18-0.226
		c4.604-0.468,9.357-2.733,13.478-4.838c2.949-1.506,6.666-2.349,9.674-1.765c1.516,0.295,3.18,4.526,3.213,6.999
		c0.263,19.076,0.085,38.158,0.182,57.237c0.024,4.975-1.727,7.402-7.081,7.355c-18.848-0.167-37.697-0.065-57.141-0.455
		c11.704-4.624,12.866-14.066,12.579-24.585C221.4,234.6,221.669,221.616,221.669,207.839z"/>
	<path display="inline" fill-rule="evenodd" clip-rule="evenodd" d="M247.627,71.797c0.073,14.613-11.501,26.371-25.878,26.283
		c-14.127-0.086-25.59-11.606-25.699-25.827c-0.111-14.573,11.416-26.214,25.91-26.169
		C236.151,46.128,247.557,57.553,247.627,71.797z"/>
	<path display="inline" fill-rule="evenodd" clip-rule="evenodd" d="M186.941,205.25c-3.483,0.222-6.133,0.39-9.752,0.62
		c0,7.354,0.003,14.446,0,21.538c-0.005,9.212,0.303,18.437-0.098,27.63c-0.529,12.135-10.395,18.53-22.56,12.371
		c5.316-7.268,4.652-12.274,4.783-18.535c0.364-17.516,0.347-35.049-0.002-52.565c-0.113-5.624,0.847-10.972-5.003-19.613
		c14.053-2.307,26.241,1.21,41.308-0.299C184.805,184.842,188.08,195.356,186.941,205.25z"/>
	<path display="inline" fill-rule="evenodd" clip-rule="evenodd" d="M108.263,162.084c58.623,0,116.71,0,175.248,0
		c0,3.383,0,6.407,0,9.992c-58.122,0-116.364,0-175.248,0C108.263,168.958,108.263,165.639,108.263,162.084z"/>
	<path display="inline" fill-rule="evenodd" clip-rule="evenodd" d="M83.127,87.908c-5.16,0-10.355-0.379-15.468,0.108
		c-5.026,0.479-7.227-1.889-8.882-6.118c-4.297-10.977-0.784-23.474,8.876-30.611c9.605-7.097,22.593-6.695,31.743,0.98
		c9.168,7.692,11.864,20.385,6.921,31.09c-1.638,3.548-3.712,5.022-7.72,4.712c-5.128-0.397-10.311-0.096-15.469-0.096
		C83.127,87.95,83.127,87.929,83.127,87.908z"/>
</g>
</svg>
