<?xml version="1.0" encoding="utf-8"?>
<!-- Generator: Adobe Illustrator 22.0.1, SVG Export Plug-In . SVG Version: 6.00 Build 0)  -->
<svg version="1.1" id="Layer_1" xmlns="http://www.w3.org/2000/svg" xmlns:xlink="http://www.w3.org/1999/xlink" x="0px" y="0px"
	 viewBox="0 0 87 87" style="enable-background:new 0 0 87 87;" xml:space="preserve">
<style type="text/css">
	.st0{fill:#FFFFFF;}
	.st1{fill:none;stroke:#000000;stroke-width:1.5;stroke-linecap:round;stroke-linejoin:round;stroke-miterlimit:10;}
	.st2{fill:none;stroke:#000000;stroke-miterlimit:10;}
</style>
<path class="st0" d="M0.9,19v49.3c0,0,2.8,18.7,19.2,18.3c16.4-0.3,47.6-0.4,47.6-0.4s9.8-0.7,13.8-7.2c0,0,4.7-4.5,4.6-12.4
	S86,19,86,19S83.7,1.1,67.3,0.9S19,0.9,19,0.9S3.3,2.6,0.9,19z"/>
<g>
	<path d="M67,2c9.9,0,18,8.1,18,18v47c0,9.9-8.1,18-18,18H20c-9.9,0-18-8.1-18-18V20c0-9.9,8.1-18,18-18H67 M67,0H20C9,0,0,9,0,20
		v47c0,11,9,20,20,20h47c11,0,20-9,20-20V20C87,9,78,0,67,0L67,0z"/>
</g>
<polyline class="st1" points="12,28 43,67 75,28 "/>
<path class="st1" d="M34.8,56.7c2.5-1.1,5.3-1.7,8.2-1.7c3,0,5.8,0.6,8.4,1.8"/>
<g>
	<path d="M37.2,46c-0.5-0.2-0.9-0.5-1.2-0.9s-0.4-0.9-0.4-1.4c0-0.5,0.2-1,0.5-1.5c0.4-0.5,0.8-0.8,1.4-1c-0.5-0.2-0.9-0.5-1.2-0.9
		c-0.3-0.4-0.4-0.9-0.4-1.4c0-0.5,0.1-0.9,0.4-1.3c0.2-0.4,0.6-0.7,1-0.9c0.4-0.2,1-0.3,1.6-0.3c0.6,0,1.1,0.1,1.6,0.3
		s0.8,0.5,1,0.9c0.2,0.4,0.4,0.8,0.4,1.3c0,0.5-0.1,1-0.4,1.4c-0.3,0.4-0.7,0.7-1.2,0.9c0.6,0.2,1.1,0.5,1.4,1
		c0.4,0.5,0.5,1,0.5,1.6c0,0.5-0.1,1-0.4,1.4c-0.3,0.4-0.7,0.7-1.2,1c-0.5,0.2-1.1,0.3-1.8,0.3S37.7,46.2,37.2,46z M40.2,44.6
		c0.3-0.3,0.5-0.6,0.5-1.1c0-0.4-0.2-0.7-0.5-1c-0.3-0.3-0.8-0.6-1.3-0.8c-0.5,0.2-0.9,0.4-1.2,0.8s-0.4,0.7-0.4,1.1
		c0,0.5,0.2,0.8,0.5,1.1c0.3,0.3,0.7,0.4,1.3,0.4C39.5,44.9,39.9,44.8,40.2,44.6z M40,39.9c0.2-0.3,0.4-0.6,0.4-0.9
		c0-0.4-0.1-0.7-0.4-1c-0.2-0.2-0.6-0.4-1-0.4c-0.4,0-0.8,0.1-1,0.3s-0.4,0.6-0.4,1c0,0.3,0.1,0.6,0.4,0.9c0.3,0.3,0.6,0.5,1.1,0.6
		C39.4,40.3,39.7,40.1,40,39.9z"/>
	<path d="M44.5,45.1c-0.6-0.8-0.8-2.1-0.8-3.8c0-1.7,0.3-3,0.8-3.8c0.6-0.8,1.4-1.2,2.5-1.2c1.1,0,2,0.4,2.5,1.2s0.8,2.1,0.8,3.8
		c0,1.7-0.3,3-0.8,3.8c-0.6,0.8-1.4,1.2-2.5,1.2S45.1,45.9,44.5,45.1z M48.4,44c0.3-0.6,0.4-1.5,0.4-2.7c0-1.2-0.1-2.2-0.4-2.7
		c-0.3-0.6-0.7-0.9-1.3-0.9c-0.6,0-1,0.3-1.3,0.9c-0.3,0.6-0.4,1.5-0.4,2.7c0,1.2,0.1,2.2,0.4,2.7c0.3,0.6,0.7,0.9,1.3,0.9
		S48.1,44.6,48.4,44z"/>
</g>
<circle class="st2" cx="54" cy="38.1" r="1.6"/>
</svg>
