<?xml version="1.0" encoding="utf-8"?>
<!-- Generator: Adobe Illustrator 23.0.3, SVG Export Plug-In . SVG Version: 6.00 Build 0)  -->
<svg version="1.1" id="Layer_1" xmlns="http://www.w3.org/2000/svg" xmlns:xlink="http://www.w3.org/1999/xlink" x="0px" y="0px"
	 viewBox="0 0 612 792" style="enable-background:new 0 0 612 792;" xml:space="preserve">
<style type="text/css">
	.st0{fill:#BB992E;}
	.st1{fill:#DBC27D;}
</style>
<g>
	<path class="st0" d="M415.99,550.51c-0.07,2.64-1.38,4.29-2.95,5.86c-30.4,30.39-60.78,60.81-91.2,91.19
		c-4.19,4.18-7.46,4.22-11.58,0.11c-30.42-30.37-60.81-60.78-91.19-91.2c-3.75-3.75-4.07-7.47-1.13-10.46
		c3.04-3.08,6.82-2.67,10.83,1.33c27.82,27.79,55.66,55.56,83.35,83.48c2.94,2.96,4.38,3.42,7.62,0.14
		c27.64-27.97,55.51-55.71,83.33-83.51c4.45-4.45,9.05-4.59,11.78-0.43C415.59,548.17,416.11,549.4,415.99,550.51z"/>
	<path class="st1" d="M316.14,557.18c-2.39,0.2-4.11-1.02-5.69-2.61c-30.51-30.52-61.03-61.03-91.52-91.57
		c-3.64-3.65-3.87-7.63-0.87-10.49c2.89-2.76,6.82-2.31,10.5,1.37c27.94,27.9,55.93,55.76,83.69,83.85
		c3.25,3.29,4.68,2.76,7.59-0.18c27.22-27.45,54.6-54.74,81.93-82.07c1.06-1.06,2.04-2.23,3.22-3.13c3.06-2.35,6.28-2.34,9.01,0.36
		c2.57,2.54,2.73,5.62,0.56,8.6c-0.78,1.07-1.78,1.98-2.73,2.92c-29.68,29.7-59.37,59.39-89.06,89.08
		C320.91,555.18,319.19,557.34,316.14,557.18z"/>
</g>
</svg>
