<?xml version="1.0" encoding="utf-8"?>
<!-- Generator: Adobe Illustrator 23.0.3, SVG Export Plug-In . SVG Version: 6.00 Build 0)  -->
<svg version="1.1" id="Layer_1" xmlns="http://www.w3.org/2000/svg" xmlns:xlink="http://www.w3.org/1999/xlink" x="0px" y="0px"
	 viewBox="0 0 612 792" style="enable-background:new 0 0 612 792;" xml:space="preserve">
<style type="text/css">
	.st0{fill:none;stroke:#BB992E;stroke-width:15;}
	.st1{fill:#BB992E;}
</style>
<g>
	<path class="st0" d="M402.74,342.8c0,27.32,0.12,54.65-0.03,81.97c-0.23,41.86-27.08,75.9-67.32,85.63
		c-50.18,12.13-101.13-24.51-105.53-75.94c-0.38-4.47-0.58-8.98-0.59-13.47c-0.04-53.32-0.26-106.63,0.06-159.95
		c0.21-35.33,15.9-62.29,47.23-78.73c57.42-30.14,125.43,11.85,126.13,77.51C402.98,287.48,402.73,315.14,402.74,342.8z"/>
	<path class="st1" d="M335.99,242.72L335.99,242.72c-0.01-0.04,0-0.09,0-0.13c-0.03-11.05-8.95-19.87-20.07-19.84
		c-11.14,0.03-19.95,8.86-19.92,19.97V289h0c0.04,10.95,9.14,20.03,20.05,19.98c10.88-0.05,19.88-9.09,19.94-19.98h0.01V242.72z"/>
</g>
</svg>
