<?xml version="1.0" encoding="utf-8"?>
<!-- Generator: Adobe Illustrator 17.0.0, SVG Export Plug-In . SVG Version: 6.00 Build 0)  -->
<!DOCTYPE svg PUBLIC "-//W3C//DTD SVG 1.1//EN" "http://www.w3.org/Graphics/SVG/1.1/DTD/svg11.dtd">
<svg version="1.1" id="Layer_1" xmlns="http://www.w3.org/2000/svg" xmlns:xlink="http://www.w3.org/1999/xlink" x="0px" y="0px"
	 width="595.28px" height="841.89px" viewBox="0 0 595.28 841.89" enable-background="new 0 0 595.28 841.89" xml:space="preserve">
<g id="Layer_2_1_">
</g>
<g>
	<path fill="#FFFFFF" d="M507.972,313.795l-113.103,60.52"/>
	<path d="M394.869,382.252c-2.976,0-4.961-0.992-6.945-3.969c-1.984-3.969-0.992-7.937,2.976-9.921l113.103-60.52
		c3.969-1.984,7.937-0.992,9.921,2.976c1.984,3.969,0.992,7.937-2.976,9.921l-112.111,60.52
		C397.845,382.252,396.853,382.252,394.869,382.252z"/>
</g>
<path d="M97.229,528.095c-2.976,0-4.961-0.992-6.945-3.969c-1.984-3.969-0.992-7.937,2.976-9.921l113.103-60.52
	c3.969-1.984,7.937-0.992,9.921,2.976c1.984,3.969,0.992,7.937-2.976,9.921l-112.111,60.52
	C100.205,528.095,99.213,528.095,97.229,528.095z"/>
<path d="M528.807,584.647H66.473c-18.851,0-34.725-15.874-34.725-34.725V292.96c0-18.851,15.874-34.725,34.725-34.725l0,0h463.326
	c18.851,0,34.725,15.874,34.725,34.725v255.97C564.524,568.773,548.65,583.655,528.807,584.647 M66.473,272.125
	c-10.913,0-19.843,8.929-19.843,19.843V548.93c0,10.913,8.929,19.843,19.843,19.843h463.326c10.913,0,19.843-8.929,19.843-19.843
	V292.96c0-10.913-8.929-19.843-19.843-19.843L66.473,272.125z"/>
<path fill="none" stroke="#000000" stroke-width="15" stroke-linecap="round" stroke-linejoin="round" d="M509.957,292.96
	L509.957,292.96H88.3c-10.913,0-18.851,8.929-18.851,18.851v39.685v13.89c0,8.929,0.992,13.89,7.937,18.851l4.961,3.969
	l11.906,9.921c11.906,9.921,11.906,28.772,0,38.693l-11.906,9.921l-4.961,3.969c-6.945,4.961-7.937,15.874-7.937,24.803v10.913
	v43.654c0,10.913,8.929,18.851,18.851,18.851l0,0h421.657c10.913,0,19.843-8.929,19.843-19.843V311.81
	C529.799,300.897,520.87,292.96,509.957,292.96z"/>
<g enable-background="new    ">
	<path d="M248.58,459.499c-3.762,0-7.227-0.624-10.4-1.863c-3.168-1.239-5.891-2.948-8.169-5.139
		c-2.278-2.18-4.059-4.75-5.344-7.719c-1.29-2.969-1.935-6.152-1.935-9.541c0-3.327,0.496-6.623,1.484-9.878
		c0.993-3.266,2.344-6.132,4.064-8.609l18.713-29.646h15.846l-15.846,23.667c1.387-0.389,2.805-0.594,4.258-0.594
		c3.168,0,6.142,0.614,8.911,1.832c2.774,1.228,5.2,2.928,7.278,5.098c2.083,2.18,3.716,4.77,4.903,7.78
		c1.187,2.999,1.781,6.316,1.781,9.95s-0.64,6.951-1.93,9.95c-1.285,3.01-3.071,5.599-5.349,7.78
		c-2.278,2.17-4.985,3.869-8.118,5.098C255.592,458.885,252.209,459.499,248.58,459.499z M248.283,447.317
		c1.715,0,3.332-0.328,4.852-0.993c1.515-0.655,2.856-1.566,4.008-2.723c1.157-1.157,2.063-2.508,2.723-4.064
		c0.66-1.546,0.993-3.214,0.993-4.996c0-1.72-0.333-3.347-0.993-4.903c-0.66-1.546-1.566-2.887-2.723-4.013
		c-1.152-1.116-2.493-2.006-4.008-2.672c-1.52-0.655-3.138-0.993-4.852-0.993c-1.72,0-3.317,0.338-4.806,0.993
		c-1.484,0.665-2.79,1.566-3.91,2.723c-1.121,1.157-2.012,2.498-2.672,4.013s-0.993,3.173-0.993,4.955
		c0,1.71,0.333,3.347,0.993,4.893c0.66,1.556,1.551,2.907,2.672,4.064s2.426,2.068,3.91,2.723
		C244.966,446.99,246.563,447.317,248.283,447.317z"/>
	<path d="M278.486,451.474c0-2.436,0.722-4.402,2.175-5.886c1.454-1.495,3.434-2.232,5.942-2.232s4.473,0.737,5.891,2.232
		c1.418,1.484,2.129,3.45,2.129,5.886c0,2.375-0.727,4.31-2.175,5.794c-1.454,1.484-3.434,2.232-5.942,2.232
		c-2.513,0-4.473-0.747-5.891-2.232C279.193,455.783,278.486,453.848,278.486,451.474z"/>
	<path d="M300.362,446.908c0-3.061,0.563-5.825,1.684-8.302c1.126-2.467,2.59-4.729,4.407-6.777c1.817-2.047,3.864-3.921,6.137-5.62
		c2.283-1.689,4.535-3.276,6.787-4.781c1.781-1.228,3.501-2.416,5.149-3.562c1.648-1.136,3.102-2.273,4.351-3.409
		c1.259-1.136,2.262-2.314,3.02-3.521c0.768-1.198,1.147-2.488,1.147-3.849c0-2.344-0.839-4.34-2.528-5.999
		c-1.679-1.658-4.146-2.498-7.381-2.498c-3.163,0-5.753,0.993-7.77,2.969c-2.017,1.965-3.644,4.514-4.903,7.647l-11.583-5.661
		c2.247-5.098,5.4-9.131,9.454-12.1c4.064-2.958,9.029-4.432,14.905-4.432c3.695,0,6.981,0.522,9.858,1.556
		c2.866,1.044,5.323,2.457,7.37,4.248s3.603,3.9,4.658,6.337c1.054,2.447,1.587,5.057,1.587,7.852c0,2.805-0.532,5.323-1.587,7.565
		c-1.054,2.242-2.447,4.299-4.156,6.152c-1.72,1.853-3.655,3.562-5.794,5.118c-2.15,1.566-4.31,3.061-6.49,4.484
		c-1.853,1.239-3.665,2.457-5.446,3.665c-1.781,1.198-3.368,2.457-4.75,3.757c-1.392,1.3-2.508,2.662-3.368,4.095
		c-0.86,1.433-1.29,2.989-1.29,4.678h32.583v12.878h-46.05L300.362,446.908L300.362,446.908z"/>
	<path d="M352.646,407.312l3.368-20.207h11.782l-6.93,20.207H352.646z M368.595,407.312l3.358-20.207h11.793l-6.941,20.207H368.595z
		"/>
</g>
</svg>
