<?xml version="1.0" encoding="utf-8"?>
<!-- Generator: Adobe Illustrator 17.0.0, SVG Export Plug-In . SVG Version: 6.00 Build 0)  -->
<!DOCTYPE svg PUBLIC "-//W3C//DTD SVG 1.1//EN" "http://www.w3.org/Graphics/SVG/1.1/DTD/svg11.dtd">
<svg version="1.1" id="레이어_1" xmlns="http://www.w3.org/2000/svg" xmlns:xlink="http://www.w3.org/1999/xlink" x="0px"
	 y="0px" width="595.28px" height="841.89px" viewBox="0 0 595.28 841.89" enable-background="new 0 0 595.28 841.89"
	 xml:space="preserve">
<g id="레이어_3">
	<g>
		<path d="M520.87,687.829h-14.882V224.503c0-12.898-9.921-22.819-22.819-22.819H112.111c-12.898,0-22.819,9.921-22.819,22.819
			v463.326H74.41V224.503c0-20.835,16.866-37.701,37.701-37.701h371.058c20.835,0,37.701,16.866,37.701,37.701V687.829z"/>
	</g>
	<g>
		<g>
			<path d="M216.285,403.811h-69.449c-9.921,0-17.858-7.937-17.858-17.858V259.228c0-9.921,7.937-17.858,17.858-17.858h69.449
				c9.921,0,17.858,7.937,17.858,17.858v126.725C234.143,395.874,226.206,403.811,216.285,403.811z M146.836,256.251
				c-1.946,0-2.976,1.984-2.976,3.969v126.725c0,0.992,0.992,2.976,2.976,2.976h69.449c0.992,0,2.976-0.992,2.976-2.976V259.227
				c0-0.992-0.992-2.976-2.976-2.976L146.836,256.251L146.836,256.251z"/>
		</g>
		<g>
			<g>
				<circle cx="181.56" cy="294.278" r="16.866"/>
			</g>
		</g>
		<g>
			<g>
				<g>
					<path stroke="#000000" stroke-width="3" stroke-miterlimit="10" d="M181.56,339.412c5.992,0,10.866,4.874,10.866,10.866
						s-4.874,10.866-10.866,10.866s-10.866-4.874-10.866-10.866S175.568,339.412,181.56,339.412 M181.56,333.412
						c-9.315,0-16.866,7.551-16.866,16.866s7.551,16.866,16.866,16.866s16.866-7.551,16.866-16.866S190.875,333.412,181.56,333.412
						L181.56,333.412z"/>
				</g>
			</g>
		</g>
	</g>
</g>
</svg>
