<?xml version="1.0" encoding="utf-8"?>
<!-- Generator: Adobe Illustrator 22.0.1, SVG Export Plug-In . SVG Version: 6.00 Build 0)  -->
<svg version="1.1" id="Layer_1" xmlns="http://www.w3.org/2000/svg" xmlns:xlink="http://www.w3.org/1999/xlink" x="0px" y="0px"
	 viewBox="0 0 87 87" style="enable-background:new 0 0 87 87;" xml:space="preserve">
<g>
	<path style="fill:#FFFFFF;" d="M67.628685,0.8897638c10.1907578,0,18.4815445,8.2907896,18.4815445,18.4815464v48.25737
		c0,10.1907578-8.2907867,18.4815445-18.4815445,18.4815445h-48.25737c-10.1907549,0-18.4815445-8.2907867-18.4815445-18.4815445
		v-48.25737c0-10.1907558,8.2907896-18.4815464,18.4815445-18.4815464H67.628685"/>
</g>
<g>
	<path d="M67,1.9999933c9.9252319,0,18,8.074769,18,18v47c0,9.9252319-8.0747681,18-18,18H20c-9.925231,0-18-8.0747681-18-18v-47
		c0-9.92523,8.074769-18,18-18H67 M67-0.0000067H20c-11,0-20,9-20,20v47c0,11,9,20,20,20h47c11,0,20-9,20-20v-47
		C87,8.9999933,78-0.0000067,67-0.0000067L67-0.0000067z"/>
</g>
<g>
	<path d="M36.5214844,33.4428635v9.6801758h-1.5913086v-8.0356445l-2.112793,0.7353516l-0.4545898-1.3105469l2.78125-1.0693359
		H36.5214844z"/>
	<path d="M44.5976563,41.7324142v1.390625h-6.0170898v-1.4042969l3.2358398-3.7436523
		c0.4179688-0.4897461,0.7089844-0.8754883,0.8691406-1.15625s0.2402344-0.5551758,0.2402344-0.8222656
		c0-0.3920898-0.1328125-0.7021484-0.4003906-0.9291992c-0.2675781-0.2275391-0.6328125-0.3413086-1.0976563-0.3413086
		c-0.3652344,0-0.7392578,0.0625-1.1225586,0.1875s-0.7485352,0.3032227-1.0961914,0.534668l-0.722168-1.2167969
		c0.3920898-0.2851563,0.8691406-0.5166016,1.4306641-0.6953125c0.5615234-0.1782227,1.1098633-0.2670898,1.6450195-0.2670898
		c0.5878906,0,1.1074219,0.1088867,1.5566406,0.3271484c0.4511719,0.21875,0.7988281,0.5239258,1.0429688,0.9160156
		c0.2460938,0.3925781,0.3691406,0.847168,0.3691406,1.3637695c0,0.4638672-0.1171875,0.9228516-0.3476563,1.3774414
		c-0.2324219,0.4545898-0.625,0.9941406-1.1777344,1.6176758l-2.5537109,2.8613281H44.5976563z"/>
	<path d="M46.9433594,42.0800705c-0.5576172-0.8105469-0.8359375-2.0766602-0.8359375-3.7973633
		c0-1.7290039,0.2763672-2.9970703,0.8291016-3.8037109s1.3945313-1.2099609,2.5273438-1.2099609
		c1.140625,0,1.9892578,0.4033203,2.546875,1.2099609c0.5566406,0.8066406,0.8359375,2.074707,0.8359375,3.8037109
		c0,1.7207031-0.2792969,2.9868164-0.8359375,3.7973633c-0.5576172,0.8115234-1.4013672,1.2167969-2.5341797,1.2167969
		C48.3447266,43.2968674,47.5,42.8915939,46.9433594,42.0800705z M50.8007813,41.0175705
		c0.2763672-0.5751953,0.4140625-1.4868164,0.4140625-2.7348633c0-1.2475586-0.1396484-2.1591797-0.4208984-2.734375
		c-0.2802734-0.574707-0.7246094-0.8623047-1.3300781-0.8623047c-0.5976563,0-1.0341797,0.2875977-1.3105469,0.8623047
		c-0.2763672,0.5751953-0.4140625,1.4868164-0.4140625,2.734375c0,1.2480469,0.1376953,2.159668,0.4140625,2.7348633
		c0.2763672,0.5742188,0.7177734,0.8623047,1.3232422,0.8623047C50.0830078,41.8798752,50.5244141,41.5917892,50.8007813,41.0175705
		z"/>
</g>
<circle style="fill:none;stroke:#000000;stroke-miterlimit:10;" cx="56.0440521" cy="35.1409607" r="1.6409683"/>
<polyline style="fill:none;stroke:#000000;stroke-width:1.5;stroke-linecap:round;stroke-linejoin:round;stroke-miterlimit:10;" points="
	9,40.9374924 43.5,61.0624924 78,40.9374924 "/>
<g>
	<path style="fill:none;stroke:#000000;stroke-width:1.5;stroke-linecap:round;stroke-linejoin:round;stroke-miterlimit:10;" d="
		M54.5232544,54.6322556C52.2269897,50.9546432,48.1550903,48.4999924,43.5,48.4999924s-8.7269897,2.4546509-11.0232544,6.1322632"
		/>
</g>
</svg>
