<?xml version="1.0" encoding="utf-8"?>
<!-- Generator: Adobe Illustrator 22.0.1, SVG Export Plug-In . SVG Version: 6.00 Build 0)  -->
<svg version="1.1" id="Layer_1" xmlns="http://www.w3.org/2000/svg" xmlns:xlink="http://www.w3.org/1999/xlink" x="0px" y="0px"
	 viewBox="0 0 87 87" style="enable-background:new 0 0 87 87;" xml:space="preserve">
<g>
	<path style="fill:#FFFFFF;" d="M67.628685,0.8897638c10.1907578,0,18.4815445,8.2907896,18.4815445,18.4815464v48.25737
		c0,10.1907578-8.2907867,18.4815445-18.4815445,18.4815445h-48.25737c-10.1907549,0-18.4815445-8.2907867-18.4815445-18.4815445
		v-48.25737c0-10.1907558,8.2907896-18.4815464,18.4815445-18.4815464H67.628685"/>
</g>
<g>
	<path d="M67,1.9999933c9.9252319,0,18,8.074769,18,18v47c0,9.9252319-8.0747681,18-18,18H20c-9.925231,0-18-8.0747681-18-18v-47
		c0-9.92523,8.074769-18,18-18H67 M67-0.0000067H20c-11,0-20,9-20,20v47c0,11,9,20,20,20h47c11,0,20-9,20-20v-47
		C87,8.9999933,78-0.0000067,67-0.0000067L67-0.0000067z"/>
</g>
<g>
	<path d="M41.2729492,36.4428635v1.3901367l-3.7441406,8.4238281l-1.4970703-0.6152344l3.5830078-7.8085938h-4.4521484v-1.3901367
		H41.2729492z"/>
	<path d="M48.2519531,36.4428635v1.3901367l-3.7441406,8.4238281l-1.496582-0.6152344l3.5834961-7.8085938h-4.4526367v-1.3901367
		H48.2519531z"/>
</g>
<circle style="fill:none;stroke:#000000;stroke-miterlimit:10;" cx="54.0440521" cy="38.1409607" r="1.6409683"/>
<path style="fill:none;stroke:#000000;stroke-width:1.5;stroke-linecap:round;stroke-linejoin:round;stroke-miterlimit:10;" d="
	M11.5,28.4999924"/>
<polyline style="fill:none;stroke:#000000;stroke-width:1.5;stroke-linecap:round;stroke-linejoin:round;stroke-miterlimit:10;" points="
	12,27.3770409 44.0163918,66.6229401 75,27.3770409 "/>
<path style="fill:none;stroke:#000000;stroke-width:1.5;stroke-linecap:round;stroke-linejoin:round;stroke-miterlimit:10;" d="
	M54.0443726,52.9208298C51.6856079,49.6419601,47.8476563,48.4999924,43.5,48.4999924
	c-4.1477661,0-7.8288574,1.9517822-10.2070923,4.9780273"/>
</svg>
