<?xml version="1.0" encoding="utf-8"?>
<!-- Generator: Adobe Illustrator 24.0.2, SVG Export Plug-In . SVG Version: 6.00 Build 0)  -->
<svg version="1.1" id="Layer_1" xmlns="http://www.w3.org/2000/svg" xmlns:xlink="http://www.w3.org/1999/xlink" x="0px" y="0px"
	 viewBox="0 0 60 60" style="enable-background:new 0 0 60 60;" xml:space="preserve">
<style type="text/css">
	.st0{display:none;}
	.st1{display:inline;}
	.st2{fill:none;stroke:#000000;stroke-width:1.5;stroke-linejoin:round;stroke-miterlimit:10;}
	.st3{fill:none;stroke:#000000;stroke-width:1.5;stroke-linecap:round;stroke-miterlimit:10;}
	.st4{fill:none;stroke:#000000;stroke-width:1.5;stroke-linecap:round;stroke-linejoin:round;stroke-miterlimit:10;}
	.st5{display:inline;fill:#C1C1C1;}
	.st6{fill:none;stroke:#000000;stroke-width:1.5;stroke-miterlimit:10;}
</style>
<g id="guide" class="st0">
	<g id="Layer_2_1_" class="st1">
		<path class="st2" d="M-28.9600525,50.5842171l-11.9999962-3c-0.5499992,0-1-0.4500008-1-1v-33c0-0.5500002,0.4500008-1,1-1
			l11.9999962-3.0000019c0.5500031,0,1,0.4499998,1,1v39.0000076
			C-27.9600525,50.1342163-28.4100494,50.5842171-28.9600525,50.5842171z"/>
		<path class="st3" d="M-70.9600525,50.5842171l12.0000038-3c0.5499992,0,1-0.4500008,1-1v-33c0-0.5500002-0.4500008-1-1-1
			l-12.0000038-3.0000029c-0.5499954,0-1,0.4499998-1,1v39.0000038
			C-71.9600525,50.1342163-71.5100479,50.5842171-70.9600525,50.5842171z"/>
		<path class="st4" d="M-71.3264694,9.6547375L-75,11.541667v37.3125l3.890625,1.7864571"/>
		<path class="st4" d="M-28.848959,50.640625l3.890625-1.7864571v-37.3125l-3.6735325-1.8869295"/>
		<path class="st2" d="M-42.9757347,47.5842171h-14c-0.5499992,0-1-0.4500008-1-1v-33c0-0.5500002,0.4500008-1,1-1h14
			c0.5499992,0,1,0.4499998,1,1v33C-41.9757347,47.1342163-42.4257355,47.5842171-42.9757347,47.5842171z"/>
		<line class="st4" x1="-55" y1="17.8125019" x2="-45" y2="17.8125019"/>
		<line class="st4" x1="-55" y1="22.25" x2="-45" y2="22.25"/>
		<line class="st4" x1="-55" y1="26.6875" x2="-45" y2="26.6875"/>
		<rect x="-55" y="32.21875" class="st2" width="10" height="12"/>
		<line class="st3" x1="-71.9600525" y1="29.3125" x2="-57.9757347" y2="30"/>
		<line class="st3" x1="-27.9678936" y1="29.3125" x2="-41.9522095" y2="30"/>
		<line class="st3" x1="-30.4791679" y1="25.6562481" x2="-39.4409409" y2="26.3437481"/>
		<line class="st3" x1="-69.2770386" y1="25.6562481" x2="-60.3152657" y2="26.3437481"/>
		<g>
			<path class="st3" d="M-52.1666679,51.1059151c-1.4020081,1.811985-5.9161644,2.8537903-11.6968498,2.5300865"/>
			<polyline class="st3" points="-62.875,55.8333321 -64.9678955,53.2647591 -62.0225334,51.8333321 			"/>
		</g>
		<g>
			<path class="st3" d="M-48.5833321,51.1059151c1.4020081,1.811985,5.9161644,2.8537903,11.6968498,2.5300865"/>
			<polyline class="st3" points="-37.875,55.8333321 -35.7821083,53.2647591 -38.7274666,51.8333321 			"/>
		</g>
	</g>
	<g id="Layer_1_1_" class="st1">
	</g>
	<g id="Layer_3" class="st1">
	</g>
	<g id="Layer_4" class="st1">
	</g>
	<g id="Layer_5" class="st1">
	</g>
	<rect x="3.75" y="3.75" class="st5" width="52.5" height="52.5"/>
</g>
<g id="Layer_2_2_">
	<g>
		<path class="st6" d="M28.4984779,31.0462971H15.0737467c-0.1656857,0-0.3000002-0.1343155-0.3000002-0.3000011V10.9374495
			c0-0.1656857,0.1343145-0.3000002,0.3000002-0.3000002h13.4247313c0.1656857,0,0.3000011,0.1343145,0.3000011,0.3000002
			v19.8088455C28.7984791,30.9119816,28.6641636,31.0462971,28.4984779,31.0462971z"/>
		<path class="st6" d="M8.2769833,56.25V4.8599534c0-0.18888,0.1458864-0.3419971,0.3258457-0.3419971h42.794342
			c0.1799583,0,0.3258438,0.1531172,0.3258438,0.3419971V56.25"/>
		<circle cx="19.111948" cy="15.7448063" r="1.8909208"/>
		<circle cx="19.111948" cy="20.9621048" r="1.8909206"/>
		<circle cx="19.111948" cy="26.1794052" r="1.8909206"/>
		<circle cx="24.2525234" cy="15.7448063" r="1.8909206"/>
	</g>
</g>
</svg>
