<?xml version="1.0" encoding="utf-8"?>
<!-- Generator: Adobe Illustrator 23.0.1, SVG Export Plug-In . SVG Version: 6.00 Build 0)  -->
<svg version="1.1" id="Layer_1" xmlns="http://www.w3.org/2000/svg" xmlns:xlink="http://www.w3.org/1999/xlink" x="0px" y="0px"
	 viewBox="0 0 60 60" style="enable-background:new 0 0 60 60;" xml:space="preserve">
<style type="text/css">
	.st0{fill:none;stroke:#12100B;stroke-width:1.5;stroke-miterlimit:10;}
	.st1{fill:none;stroke:#000000;stroke-width:1.5;stroke-miterlimit:10;}
</style>
<line class="st0" x1="25.5" y1="37.9" x2="15.3" y2="55.8"/>
<line class="st0" x1="44.7" y1="4.2" x2="35.5" y2="20.4"/>
<path class="st1" d="M44.7,55.8H15.4c-0.2,0-0.3-0.1-0.3-0.3v-51c0-0.2,0.1-0.3,0.3-0.3h29.3c0.2,0,0.3,0.1,0.3,0.3v51
	C45,55.7,44.9,55.8,44.7,55.8z"/>
<g>
	<path d="M24.8,28.5c0.4,0.2,0.7,0.5,0.9,1s0.3,0.9,0.3,1.4c0,0.6-0.1,1.1-0.4,1.5s-0.6,0.8-1,1s-0.9,0.4-1.5,0.4
		c-0.6,0-1.1-0.1-1.5-0.4s-0.8-0.6-1-1s-0.4-1-0.4-1.5c0-0.7,0.1-1.3,0.4-1.8s0.7-1.2,1.3-1.9l1.7-2.1l1.1,0.8l-1.7,2
		c-0.2,0.2-0.4,0.4-0.4,0.5c0.3-0.1,0.6-0.1,0.9-0.1C24,28.2,24.4,28.3,24.8,28.5z M24.2,32.1c0.3-0.3,0.4-0.7,0.4-1.2
		c0-0.5-0.1-0.9-0.4-1.2c-0.3-0.3-0.6-0.4-1.1-0.4c-0.4,0-0.8,0.1-1.1,0.2c-0.2,0.3-0.3,0.8-0.3,1.3c0,0.5,0.1,1,0.4,1.3
		s0.6,0.5,1.1,0.5C23.6,32.5,24,32.4,24.2,32.1z"/>
	<path d="M27.2,33.5c-0.2-0.2-0.2-0.4-0.2-0.6c0-0.3,0.1-0.5,0.2-0.6s0.4-0.2,0.7-0.2s0.5,0.1,0.7,0.2c0.2,0.2,0.2,0.4,0.2,0.6
		c0,0.3-0.1,0.5-0.2,0.6c-0.2,0.2-0.4,0.2-0.7,0.2S27.4,33.7,27.2,33.5z"/>
	<path d="M34.8,25.1v1.2l-3.3,7.4l-1.3-0.5l3.1-6.8h-3.9v-1.2H34.8z"/>
	<path d="M35.4,27.5c0.3-0.3,0.5-0.6,0.6-0.8s0.2-0.6,0.2-1c0-0.3,0-0.6-0.1-0.8h1.3c0,0.3,0.1,0.6,0.1,0.8c0,0.5-0.1,0.9-0.4,1.3
		s-0.6,0.8-1.1,1.2L35.4,27.5z M37.5,27.5c0.3-0.3,0.5-0.6,0.6-0.8s0.2-0.6,0.2-1c0-0.3,0-0.6-0.1-0.8h1.3c0,0.3,0.1,0.6,0.1,0.8
		c0,0.5-0.1,0.9-0.4,1.3s-0.6,0.8-1.1,1.2L37.5,27.5z"/>
</g>
</svg>
