<?xml version="1.0" encoding="utf-8"?>
<!-- Generator: Adobe Illustrator 22.0.1, SVG Export Plug-In . SVG Version: 6.00 Build 0)  -->
<svg version="1.1" id="Layer_1" xmlns="http://www.w3.org/2000/svg" xmlns:xlink="http://www.w3.org/1999/xlink" x="0px" y="0px"
	 viewBox="0 0 60 60" style="enable-background:new 0 0 60 60;" xml:space="preserve">
<path style="fill:none;stroke:#000000;stroke-width:1.5;stroke-miterlimit:10;" d="M22.8413315,40.2632637
	c1.5341759-2.5237007,4.4243431-4.1734352,7.5201874-4.0110779c2.7964516,0.1466522,5.3192024,1.6802902,6.7971497,4.0607605"/>
<circle style="fill:none;stroke:#000000;stroke-miterlimit:10;" cx="42.2998047" cy="16.9916763" r="1.1000977"/>
<g>
	<path d="M24.1225586,17.2325211v9.1914063h-1.5107422v-7.6298828l-2.0058594,0.6982422l-0.4316406-1.2441406l2.640625-1.015625
		H24.1225586z"/>
	<path d="M31.7910156,25.1036148v1.3203125h-5.7133789v-1.3330078l3.0722656-3.5546875
		c0.3979492-0.465332,0.6728516-0.831543,0.8251953-1.0981445s0.2285156-0.5268555,0.2285156-0.7807617
		c0-0.3725586-0.1269531-0.6665039-0.3808594-0.8823242s-0.6010742-0.3237305-1.0410156-0.3237305
		c-0.347168,0-0.7026367,0.059082-1.0664063,0.1777344s-0.7109375,0.2875977-1.0410156,0.5078125l-0.6855469-1.1552734
		c0.3725586-0.2709961,0.8251953-0.4907227,1.3583984-0.6601563s1.0537109-0.2539063,1.5615234-0.2539063
		c0.5585938,0,1.0517578,0.1035156,1.4790039,0.3110352s0.7568359,0.4970703,0.9902344,0.8696289
		s0.3486328,0.8041992,0.3486328,1.2949219c0,0.4399414-0.109375,0.8759766-0.3300781,1.3076172
		c-0.2197266,0.4316406-0.5917969,0.9438477-1.1166992,1.5361328l-2.4248047,2.7167969H31.7910156z"/>
	<path d="M34.0195313,25.4336929c-0.5292969-0.7700195-0.7939453-1.972168-0.7939453-3.6054688
		c0-1.6420898,0.2626953-2.8457031,0.7871094-3.6118164s1.3242188-1.1489258,2.3994141-1.1489258
		c1.0830078,0,1.8896484,0.3828125,2.4179688,1.1489258c0.5292969,0.7661133,0.7939453,1.9697266,0.7939453,3.6118164
		c0,1.6333008-0.2646484,2.8354492-0.7939453,3.6054688C38.3017578,26.2037125,37.5,26.5889664,36.4248047,26.5889664
		S34.5478516,26.2037125,34.0195313,25.4336929z M37.6816406,24.4244156
		c0.2626953-0.5458984,0.3935547-1.4111328,0.3935547-2.5961914s-0.1337891-2.050293-0.3994141-2.5961914
		c-0.2675781-0.5458984-0.6884766-0.8188477-1.2636719-0.8188477c-0.5673828,0-0.9814453,0.2729492-1.2441406,0.8188477
		s-0.3935547,1.4111328-0.3935547,2.5961914s0.1308594,2.050293,0.3935547,2.5961914s0.6816406,0.8188477,1.2568359,0.8188477
		S37.4189453,24.970314,37.6816406,24.4244156z"/>
</g>
<line style="fill:none;stroke:#000000;stroke-width:1.5;stroke-linejoin:round;stroke-miterlimit:10;" x1="29.8999023" y1="44.7909927" x2="3" y2="27.6913834"/>
<polyline style="fill:none;stroke:#000000;stroke-width:1.5;stroke-linejoin:round;stroke-miterlimit:10;" points="57,27.6913834 
	29.8999023,44.7909927 29.8712368,44.7727699 "/>
</svg>
