<?xml version="1.0" encoding="utf-8"?>
<!-- Generator: Adobe Illustrator 20.1.0, SVG Export Plug-In . SVG Version: 6.00 Build 0)  -->
<svg version="1.1" id="Layer_1" xmlns="http://www.w3.org/2000/svg" xmlns:xlink="http://www.w3.org/1999/xlink" x="0px" y="0px"
	 viewBox="0 0 60 60" style="enable-background:new 0 0 60 60;" xml:space="preserve">
<style type="text/css">
	.st0{fill:none;stroke:#12100B;stroke-width:1.5;stroke-miterlimit:10;}
	.st1{fill:none;stroke:#000000;stroke-miterlimit:10;}
	.st2{fill:none;stroke:#000000;stroke-width:0.75;stroke-linecap:round;stroke-miterlimit:10;}
</style>
<path class="st0" d="M51.8,10.4H12.2c-2.2,0-4,1.8-4,4v35.2"/>
<g>
	<g>
		<path class="st1" d="M20,16.7L20,16.7c-3.4,0-6.1,2.7-6.1,6.1l-0.1,11.9c0,3.4,2.7,6.1,6.1,6.1h0c3.4,0,6.1-2.7,6.1-6.1L26,22.7
			C26,19.4,23.3,16.7,20,16.7z"/>
		<g>
			<circle class="st1" cx="19.9" cy="23.5" r="4"/>
			<path class="st2" d="M19.9,25.5c1.1,0,1.9-0.9,1.9-1.9"/>
		</g>
	</g>
	<g>
		<circle class="st1" cx="19.9" cy="33.8" r="4"/>
		<path class="st2" d="M19.9,35.8c1.1,0,1.9-0.9,1.9-1.9"/>
	</g>
</g>
<path d="M21.7,46.4c0-1-0.8-1.7-1.7-1.7c-1,0-1.7,0.8-1.7,1.7s0.8,1.7,1.7,1.7C20.9,48.2,21.7,47.4,21.7,46.4"/>
</svg>
