<svg xmlns="http://www.w3.org/2000/svg" viewBox="0 0 45.5 50.75"><defs><style>.cls-1{fill:none;stroke:#000;stroke-miterlimit:10;stroke-width:1.5px;}</style></defs><title>자산 4</title><g id="레이어_2" data-name="레이어 2"><g id="레이어_1-2" data-name="레이어 1"><path class="cls-1" d="M.75,50.75v-46a4,4,0,0,1,4-4h36a4,4,0,0,1,4,4v46"/><path d="M15,30.75H8a1.71,1.71,0,0,1-1.74-1.67V7.42A1.71,1.71,0,0,1,8,5.75h7a1.71,1.71,0,0,1,1.74,1.67V29.08A1.71,1.71,0,0,1,15,30.75ZM8,7.09a.34.34,0,0,0-.35.33V29.08a.34.34,0,0,0,.35.33h7a.34.34,0,0,0,.35-.33V7.42A.34.34,0,0,0,15,7.09Z"/><circle cx="11.55" cy="11.56" r="1.8"/><circle cx="11.55" cy="18.15" r="1.8"/><circle cx="11.55" cy="24.75" r="1.8"/></g></g></svg>