<?xml version="1.0" encoding="utf-8"?>
<!-- Generator: Adobe Illustrator 23.0.1, SVG Export Plug-In . SVG Version: 6.00 Build 0)  -->
<svg version="1.1" id="Icons" xmlns="http://www.w3.org/2000/svg" xmlns:xlink="http://www.w3.org/1999/xlink" x="0px" y="0px"
	 viewBox="0 0 60 60" style="enable-background:new 0 0 60 60;" xml:space="preserve">
<title>31. Quad Core (Smartphone)</title>
<path style="fill:none;stroke:#12100B;stroke-width:1.5;stroke-miterlimit:10;" d="M11.8699999,11.5900002h36.25
	c0.1656837,0,0.2999992,0.1343145,0.2999992,0.3000002v36.25c0,0.1656837-0.1343155,0.2999992-0.2999992,0.2999992h-36.25
	c-0.1656857,0-0.3000002-0.1343155-0.3000002-0.2999992v-36.25C11.5699997,11.7243147,11.7043142,11.5900002,11.8699999,11.5900002z
	"/>
<line style="fill:none;stroke:#12100B;stroke-width:1.5;stroke-linejoin:round;" x1="42.0800018" y1="11.5600004" x2="42.0800018" y2="6.1399999"/>
<line style="fill:none;stroke:#12100B;stroke-width:1.5;stroke-linejoin:round;" x1="34.0499992" y1="11.5600004" x2="34.0499992" y2="6.1399999"/>
<line style="fill:none;stroke:#12100B;stroke-width:1.5;stroke-linejoin:round;" x1="26.0200005" y1="11.5600004" x2="26.0200005" y2="6.1399999"/>
<line style="fill:none;stroke:#12100B;stroke-width:1.5;stroke-linejoin:round;" x1="17.9899998" y1="11.5600004" x2="17.9899998" y2="6.1399999"/>
<line style="fill:none;stroke:#12100B;stroke-width:1.5;stroke-linejoin:round;" x1="34.0499992" y1="11.5600004" x2="34.0499992" y2="6.1399999"/>
<line style="fill:none;stroke:#12100B;stroke-width:1.5;stroke-linejoin:round;" x1="42.0800018" y1="53.8600006" x2="42.0800018" y2="48.4399986"/>
<line style="fill:none;stroke:#12100B;stroke-width:1.5;stroke-linejoin:round;" x1="34.0499992" y1="53.8600006" x2="34.0499992" y2="48.4399986"/>
<line style="fill:none;stroke:#12100B;stroke-width:1.5;stroke-linejoin:round;" x1="26.0200005" y1="53.8600006" x2="26.0200005" y2="48.4399986"/>
<line style="fill:none;stroke:#12100B;stroke-width:1.5;stroke-linejoin:round;" x1="17.9899998" y1="53.8600006" x2="17.9899998" y2="48.4399986"/>
<line style="fill:none;stroke:#12100B;stroke-width:1.5;stroke-linejoin:round;" x1="34.0499992" y1="53.8600006" x2="34.0499992" y2="48.4399986"/>
<line style="fill:none;stroke:#12100B;stroke-width:1.5;stroke-linejoin:round;" x1="48.4199982" y1="42.0600014" x2="53.8499985" y2="42.0600014"/>
<line style="fill:none;stroke:#12100B;stroke-width:1.5;stroke-linejoin:round;" x1="48.4199982" y1="34.0299988" x2="53.8499985" y2="34.0299988"/>
<line style="fill:none;stroke:#12100B;stroke-width:1.5;stroke-linejoin:round;" x1="48.4199982" y1="26" x2="53.8499985" y2="26"/>
<line style="fill:none;stroke:#12100B;stroke-width:1.5;stroke-linejoin:round;" x1="48.4199982" y1="17.9699993" x2="53.8499985" y2="17.9699993"/>
<line style="fill:none;stroke:#12100B;stroke-width:1.5;stroke-linejoin:round;" x1="48.4199982" y1="34.0299988" x2="53.8499985" y2="34.0299988"/>
<line style="fill:none;stroke:#12100B;stroke-width:1.5;stroke-linejoin:round;" x1="6.1500001" y1="42.0600014" x2="11.5699997" y2="42.0600014"/>
<line style="fill:none;stroke:#12100B;stroke-width:1.5;stroke-linejoin:round;" x1="6.1500001" y1="34.0299988" x2="11.5699997" y2="34.0299988"/>
<line style="fill:none;stroke:#12100B;stroke-width:1.5;stroke-linejoin:round;" x1="6.1500001" y1="26" x2="11.5699997" y2="26"/>
<line style="fill:none;stroke:#12100B;stroke-width:1.5;stroke-linejoin:round;" x1="6.1500001" y1="17.9699993" x2="11.5699997" y2="17.9699993"/>
<line style="fill:none;stroke:#12100B;stroke-width:1.5;stroke-linejoin:round;" x1="6.1500001" y1="34.0299988" x2="11.5699997" y2="34.0299988"/>
<g>
	<path d="M20.7885742,32.6992188c-0.5078125-0.6152344-0.7617188-1.5283203-0.7617188-2.7392578
		s0.2539063-2.1240234,0.7617188-2.7392578s1.2436523-0.9228516,2.2070313-0.9228516s1.7006836,0.3076172,2.2119141,0.9228516
		s0.7666016,1.5283203,0.7666016,2.7392578s-0.2553711,2.1240234-0.7666016,2.7392578s-1.2485352,0.9228516-2.2119141,0.9228516
		S21.2963867,33.3144531,20.7885742,32.6992188z M24.7631836,29.9599609c0-1.7446289-0.5893555-2.6171875-1.7675781-2.6171875
		c-1.171875,0-1.7578125,0.8725586-1.7578125,2.6171875c0,1.7441406,0.5859375,2.6171875,1.7578125,2.6171875
		C24.1738281,32.5771484,24.7631836,31.7041016,24.7631836,29.9599609z"/>
	<path d="M27.4389648,32.8994141c-0.4360352-0.4755859-0.6542969-1.1425781-0.6542969-2.0019531
		c0-0.5664063,0.1010742-1.0629883,0.3027344-1.4892578s0.4882813-0.7568359,0.859375-0.9912109
		s0.8007813-0.3515625,1.2890625-0.3515625c0.2866211,0,0.5678711,0.0405273,0.8452148,0.1220703
		c0.2763672,0.081543,0.5195313,0.1967773,0.7265625,0.3466797l-0.4199219,0.8984375
		c-0.4355469-0.2084961-0.8261719-0.3125-1.1713867-0.3125c-0.3969727,0-0.7045898,0.1499023-0.9228516,0.4492188
		s-0.3271484,0.71875-0.3271484,1.2597656c0,1.1523438,0.4589844,1.7285156,1.3769531,1.7285156
		c0.3647461,0,0.7387695-0.1015625,1.1225586-0.3027344l0.4003906,0.8886719c-0.421875,0.3125-0.9501953,0.46875-1.581543,0.46875
		C28.4902344,33.6123047,27.875,33.3740234,27.4389648,32.8994141z"/>
	<path d="M32.0771484,31.8447266v-2.65625h-0.8398438v-0.9960938h0.8398438v-1.4746094h1.1523438v1.4746094h1.484375v0.9960938
		h-1.484375v2.4609375c0,0.3125,0.0634766,0.5380859,0.1904297,0.6787109
		c0.1269531,0.1396484,0.3339844,0.2099609,0.6201172,0.2099609c0.1826172,0,0.3710938-0.0263672,0.5664063-0.078125
		l0.1757813,0.9765625c-0.2929688,0.0908203-0.6025391,0.1367188-0.9277344,0.1367188
		C32.6699219,33.5732422,32.0771484,32.9970703,32.0771484,31.8447266z"/>
	<path d="M38.9765625,28.5146484c0.3544922,0.2993164,0.5322266,0.7260742,0.5322266,1.2792969v3.7011719h-1.0351563v-0.7421875
		c-0.3320313,0.5664063-0.8564453,0.8496094-1.5722656,0.8496094c-0.5146484,0-0.9111328-0.140625-1.1914063-0.4199219
		c-0.2802734-0.2802734-0.4199219-0.6708984-0.4199219-1.171875c0-0.6318359,0.2460938-1.0957031,0.7373047-1.3916016
		c0.4912109-0.296875,1.2714844-0.4482422,2.3388672-0.4541016v-0.2441406c0-0.546875-0.3544922-0.8203125-1.0644531-0.8203125
		c-0.4169922,0-0.8300781,0.0913086-1.2402344,0.2734375l-0.2929688-0.8984375
		c0.5664063-0.2734375,1.1425781-0.4101563,1.7285156-0.4101563C38.1289063,28.0654297,38.6220703,28.215332,38.9765625,28.5146484z
		 M38.3662109,32.0693359v-1.1132813c-0.6835938,0.0126953-1.1816406,0.0957031-1.4941406,0.2490234
		c-0.3125,0.1523438-0.46875,0.3916016-0.46875,0.7177734c0,0.4619141,0.2607422,0.6933594,0.78125,0.6933594
		C37.6464844,32.6162109,38.0410156,32.4335938,38.3662109,32.0693359z"/>
</g>
</svg>
