<?xml version="1.0" encoding="utf-8"?>
<!-- Generator: Adobe Illustrator 22.0.1, SVG Export Plug-In . SVG Version: 6.00 Build 0)  -->
<svg version="1.1" id="Layer_1" xmlns="http://www.w3.org/2000/svg" xmlns:xlink="http://www.w3.org/1999/xlink" x="0px" y="0px"
	 viewBox="0 0 60 60" style="enable-background:new 0 0 60 60;" xml:space="preserve">
<path style="fill:none;stroke:#12100B;stroke-width:1.5;stroke-miterlimit:10;" d="M15,34.8999786v18.2000008
	c0,1.5,1.2000008,2.7999992,2.7999992,2.7999992h24.3999977c1.5,0,2.7999992-1.2000008,2.7999992-2.7000008l0,0V6.7999802
	C45,5.2999802,43.7999992,3.99998,42.2000008,3.99998H17.7999992C16.2999992,3.99998,15,5.1999798,15,6.6999798l0,0V34.8999786z"/>
<polygon points="33.2999992,4.0999799 30,7.3999801 26.7000008,4.0999799 "/>
<line style="fill:none;stroke:#12100B;stroke-miterlimit:10;" x1="34.9000015" y1="38.6999779" x2="43.9497261" y2="54.765789"/>
<line style="fill:none;stroke:#12100B;stroke-miterlimit:10;" x1="15.8999996" y1="4.7999802" x2="25.1000004" y2="21.2999763"/>
<g>
	<path d="M36.7000008,28.3999767l0.2999992-2h1.2000008l-0.7000008,2H36.7000008z M38.2999992,28.3999767l0.2999992-2h1.2000008
		l-0.7000008,2H38.2999992z"/>
</g>
<g>
	<path d="M26.1958008,33.6094742c-0.3798828,0-0.7304688-0.0625-1.0507813-0.1875
		c-0.3193359-0.125-0.5947266-0.2978516-0.8242188-0.5185547c-0.2304688-0.2207031-0.4101563-0.4804688-0.5400391-0.7802734
		s-0.1953125-0.6201172-0.1953125-0.9628906c0-0.3354492,0.0498047-0.6679688,0.1503906-0.9975586
		c0.0996094-0.3291016,0.2363281-0.6191406,0.4091797-0.8691406l1.890625-2.9931641h1.5996094l-1.5996094,2.3896484
		c0.1396484-0.0400391,0.2832031-0.0600586,0.4296875-0.0600586c0.3203125,0,0.6201172,0.0620117,0.9003906,0.1850586
		c0.2792969,0.1235352,0.5244141,0.2949219,0.734375,0.5151367s0.375,0.4819336,0.4951172,0.7851563
		s0.1806641,0.6381836,0.1806641,1.0048828c0,0.3662109-0.0654297,0.7011719-0.1953125,1.0048828
		s-0.3105469,0.5644531-0.5400391,0.7851563c-0.2304688,0.2197266-0.5039063,0.3916016-0.8203125,0.5146484
		S26.5620117,33.6094742,26.1958008,33.6094742z M26.1655273,32.379982c0.1728516,0,0.3369141-0.0332031,0.4902344-0.0996094
		c0.1533203-0.0673828,0.2880859-0.1591797,0.4042969-0.2753906c0.1171875-0.1162109,0.2089844-0.2529297,0.2753906-0.4101563
		c0.0664063-0.15625,0.0996094-0.3251953,0.0996094-0.5048828c0-0.1728516-0.0332031-0.3378906-0.0996094-0.4946289
		s-0.1582031-0.2915039-0.2753906-0.4052734c-0.1162109-0.1132813-0.2509766-0.203125-0.4042969-0.2700195
		c-0.1533203-0.0664063-0.3173828-0.0996094-0.4902344-0.0996094c-0.1738281,0-0.3349609,0.0332031-0.4853516,0.0996094
		c-0.1494141,0.0668945-0.28125,0.1586914-0.3945313,0.2753906s-0.203125,0.2514648-0.2705078,0.4047852
		c-0.0664063,0.1533203-0.0996094,0.3198242-0.0996094,0.4995117c0,0.1738281,0.0332031,0.3388672,0.0996094,0.4951172
		c0.0673828,0.1572266,0.1572266,0.2939453,0.2705078,0.4101563s0.2451172,0.2080078,0.3945313,0.2753906
		C25.8305664,32.3467789,25.9916992,32.379982,26.1655273,32.379982z"/>
	<path d="M29.215332,32.7999039c0-0.2460938,0.0732422-0.4453125,0.2207031-0.5947266
		c0.1464844-0.1503906,0.3457031-0.2255859,0.5996094-0.2255859c0.2529297,0,0.4511719,0.0751953,0.5947266,0.2255859
		c0.1435547,0.1494141,0.2148438,0.3486328,0.2148438,0.5947266c0,0.2402344-0.0732422,0.4345703-0.2197266,0.5849609
		s-0.3466797,0.2246094-0.5996094,0.2246094c-0.2539063,0-0.4521484-0.0742188-0.5957031-0.2246094
		C29.2875977,33.2344742,29.215332,33.0401382,29.215332,32.7999039z"/>
	<path d="M33.7646484,33.6094742c-0.3203125,0-0.6123047-0.0380859-0.875-0.1142578
		c-0.2636719-0.0771484-0.5-0.1806641-0.7099609-0.3105469s-0.390625-0.2792969-0.5400391-0.4501953
		c-0.1503906-0.1699219-0.2714844-0.3447266-0.3652344-0.5244141l1.2597656-0.7304688
		c0.1064453,0.2333984,0.2587891,0.4384766,0.4550781,0.6152344s0.4580078,0.2646484,0.7851563,0.2646484
		c0.1464844,0,0.2880859-0.0273438,0.4248047-0.0849609c0.1367188-0.0556641,0.2568359-0.1347656,0.3603516-0.234375
		c0.1035156-0.1005859,0.1845703-0.2216797,0.2451172-0.3652344c0.0595703-0.1435547,0.0898438-0.2978516,0.0898438-0.4648438
		c0-0.3398438-0.1015625-0.6264648-0.3046875-0.8598633c-0.2041016-0.2333984-0.4853516-0.3500977-0.8457031-0.3500977
		c-0.2861328,0-0.5214844,0.0703125-0.7050781,0.2099609c-0.1826172,0.1401367-0.3378906,0.3168945-0.4648438,0.5302734
		l-1.2099609-0.6201172l0.5205078-3.8198242h4.0595703v1.2700195h-2.9794922l-0.2099609,1.5297852
		c0.1396484-0.0932617,0.3056641-0.1733398,0.5-0.2402344c0.1923828-0.0664063,0.40625-0.0996094,0.6396484-0.0996094
		c0.3261719,0,0.6328125,0.0532227,0.9199219,0.159668c0.2861328,0.1069336,0.5380859,0.2636719,0.7548828,0.4702148
		s0.3867188,0.4619141,0.5097656,0.7651367c0.1240234,0.3032227,0.1855469,0.6547852,0.1855469,1.0546875
		c0,0.3535156-0.0615234,0.6787109-0.1855469,0.9746094c-0.1230469,0.296875-0.2958984,0.5498047-0.5195313,0.7607422
		c-0.2236328,0.2099609-0.4882813,0.3730469-0.7949219,0.4892578C34.4580078,33.551857,34.1240234,33.6094742,33.7646484,33.6094742
		z"/>
</g>
</svg>
