<?xml version="1.0" encoding="utf-8"?>
<!-- Generator: Adobe Illustrator 23.1.0, SVG Export Plug-In . SVG Version: 6.00 Build 0)  -->
<svg version="1.1" id="Layer_1" xmlns="http://www.w3.org/2000/svg" xmlns:xlink="http://www.w3.org/1999/xlink" x="0px" y="0px"
	 viewBox="0 0 595.28 841.89" style="enable-background:new 0 0 595.28 841.89;" xml:space="preserve">
<style type="text/css">
	.st0{fill:#12100B;}
	.st1{fill:none;}
	.st2{enable-background:new    ;}
</style>
<g>
	<g>
		<path class="st0" d="M405.78,631.28l-60.52-113.1"/>
	</g>
	<g>
		<path class="st0" d="M337.32,518.17c0-2.98,0.99-4.96,3.97-6.95c3.97-1.98,7.94-0.99,9.92,2.98l60.52,113.1
			c1.98,3.97,0.99,7.94-2.98,9.92s-7.94,0.99-9.92-2.98l-60.52-112.11C337.32,521.15,337.32,520.16,337.32,518.17z"/>
	</g>
</g>
<g>
	<path class="st0" d="M191.48,220.53c0-2.98,0.99-4.96,3.97-6.94c3.97-1.98,7.94-0.99,9.92,2.98l60.52,113.1
		c1.98,3.97,0.99,7.94-2.98,9.92s-7.94,0.99-9.92-2.98L192.48,224.5C191.48,223.51,191.48,222.52,191.48,220.53z"/>
</g>
<g>
	<path class="st0" d="M134.93,189.78c0-18.85,15.87-34.72,34.72-34.72h256.96c18.85,0,34.73,15.87,34.73,34.73l0,0v463.33
		c0,18.85-15.87,34.72-34.73,34.72H170.64c-19.84,0-34.73-15.87-35.72-35.72 M150.8,653.1c0,10.91,8.93,19.84,19.84,19.84h255.97
		c10.91,0,19.84-8.93,19.84-19.84l0.99-463.33c0-10.91-8.93-19.84-19.84-19.84H170.64c-10.91,0-19.84,8.93-19.84,19.84"/>
</g>
<g>
	<path class="st0" d="M163.15,211.6c0-14.53,11.82-26.35,26.35-26.35h54.57c9.81,0,23.64,1.13,30.77,10.89l3.81,4.76l9.87,11.85
		c3.3,3.96,8.25,6.23,13.58,6.23s10.29-2.27,13.58-6.23l9.87-11.85l3.8-4.75c7.28-10.06,15.9-10.9,24.83-10.9h53.58
		c14.53,0,26.35,11.82,26.35,26.35v421.66c0,15.33-11.57,27.34-26.35,27.34H190.48c-4.14,0-7.5-3.36-7.5-7.5s3.36-7.5,7.5-7.5
		h217.28c6.47,0,11.35-5.31,11.35-12.34V211.6c0-7.01-5.89-11.35-11.35-11.35h-53.58c-7.93,0-9.83,0.72-12.75,4.8
		c-0.08,0.11-0.16,0.22-0.25,0.33l-3.97,4.96c-0.03,0.04-0.06,0.08-0.09,0.12l-9.92,11.91c-6.16,7.39-15.31,11.63-25.11,11.63
		c-9.8,0-18.95-4.24-25.11-11.63l-9.92-11.91c-0.03-0.04-0.06-0.08-0.09-0.12l-3.97-4.96c-0.08-0.11-0.17-0.21-0.25-0.33
		c-2.27-3.18-8.57-4.8-18.7-4.8h-54.57c-7.01,0-11.35,5.89-11.35,11.35c0,4.14-3.36,7.5-7.5,7.5S163.15,215.75,163.15,211.6z"/>
</g>
<g>
	<line class="st1" x1="134.93" y1="652.11" x2="134.93" y2="189.78"/>
</g>
<g>
	<line class="st1" x1="150.8" y1="189.78" x2="150.8" y2="653.1"/>
</g>
<g>
	<path class="st0" d="M163.15,633.26V211.6c0-4.14,3.36-7.5,7.5-7.5s7.5,3.36,7.5,7.5v421.66c0,6.81,5.54,12.34,12.34,12.34
		c4.14,0,7.5,3.36,7.5,7.5s-3.36,7.5-7.5,7.5C175.41,660.6,163.15,648.34,163.15,633.26z"/>
</g>
<g>
	<g class="st2">
		<g>
			<path class="st0" d="M345.51,410.95l3.37-20.21h11.78l-6.93,20.21H345.51z M361.46,410.95l3.36-20.21h11.79l-6.94,20.21H361.46z"
				/>
		</g>
	</g>
	<g>
		<g>
			<path class="st0" d="M241.07,463.38c-3.2,0-6.12-0.38-8.75-1.15s-5-1.8-7.1-3.1c-2.1-1.3-3.9-2.8-5.4-4.5s-2.72-3.45-3.65-5.25
				l12.6-7.3c1.07,2.33,2.58,4.38,4.55,6.15s4.58,2.65,7.85,2.65c1.47,0,2.88-0.28,4.25-0.85s2.57-1.35,3.6-2.35
				s1.85-2.22,2.45-3.65c0.6-1.43,0.9-2.98,0.9-4.65c0-3.4-1.02-6.27-3.05-8.6c-2.03-2.33-4.85-3.5-8.45-3.5
				c-2.87,0-5.22,0.7-7.05,2.1s-3.38,3.17-4.65,5.3l-12.1-6.2l5.2-38.2h40.6v12.7h-29.8l-2.1,15.3c1.4-0.93,3.07-1.73,5-2.4
				c1.93-0.67,4.07-1,6.4-1c3.27,0,6.33,0.54,9.2,1.6c2.87,1.07,5.38,2.63,7.55,4.7c2.17,2.07,3.87,4.62,5.1,7.65
				s1.85,6.55,1.85,10.55c0,3.54-0.62,6.79-1.85,9.75c-1.23,2.97-2.97,5.5-5.2,7.6s-4.88,3.73-7.95,4.9
				C248,462.8,244.67,463.38,241.07,463.38z"/>
		</g>
		<g>
			<path class="st0" d="M270.37,455.28c0-2.47,0.73-4.45,2.2-5.95s3.47-2.25,6-2.25s4.52,0.75,5.95,2.25
				c1.43,1.5,2.15,3.48,2.15,5.95c0,2.4-0.73,4.35-2.2,5.85s-3.47,2.25-6,2.25s-4.52-0.75-5.95-2.25
				C271.08,459.63,270.37,457.68,270.37,455.28z"/>
		</g>
		<g>
			<path class="st0" d="M324.16,403.28h-31.8v-13h46v11.8l-25.3,61.2h-14.4L324.16,403.28z"/>
		</g>
	</g>
</g>
</svg>
