<svg xmlns="http://www.w3.org/2000/svg" viewBox="0 0 20.1 38.95"><defs><style>.cls-1{fill:none;stroke:#000;stroke-linecap:round;stroke-miterlimit:10;stroke-width:1.5px;}</style></defs><title>battery_black</title><g id="레이어_2" data-name="레이어 2"><g id="레이어_1-2" data-name="레이어 1"><path class="cls-1" d="M19.35,6V36.4a1.79,1.79,0,0,1-1.8,1.8h-15a1.79,1.79,0,0,1-1.8-1.8V6a1.79,1.79,0,0,1,1.8-1.8h15A1.68,1.68,0,0,1,19.35,6Z"/><path d="M4.75.9V2.4h10.6V.9a.9.9,0,0,0-.9-.9H5.55A.88.88,0,0,0,4.75.9Z"/><polygon points="10.95 20.7 14.55 20.7 4.75 27.7 9.35 21 6.85 21 11.15 15.2 15.45 15.2 10.95 20.7"/></g></g></svg>