<?xml version="1.0" encoding="utf-8"?>
<!-- Generator: Adobe Illustrator 19.0.0, SVG Export Plug-In . SVG Version: 6.00 Build 0)  -->
<svg version="1.1" id="Layer_1" xmlns="http://www.w3.org/2000/svg" xmlns:xlink="http://www.w3.org/1999/xlink" x="0px" y="0px"
	 viewBox="0 0 60 60" style="enable-background:new 0 0 60 60;" xml:space="preserve">
<g>
	<g>
		<path id="XMLID_38_" d="M19.8859119,21.5220337h0.0991516c0.0991821,0,0.2974854-0.0991516,0.2974854-0.1983337
			c0,0,1.5865173-4.362915,5.850296-5.0570374c3.8671417-0.6940918,5.9494495,1.6856995,6.0486012,1.7848511
			c0.0991669,0.1983032,0.396637,0.1983032,0.4957886,0c0.0991669-0.0991516,0.1983185-0.396637,0-0.4957886
			c-0.0991516-0.0991516-2.4789295-2.7764282-6.7427082-2.0823059c-4.6604004,0.7932434-6.3460999,5.3544922-6.4452515,5.5528259
			C19.5884571,21.3237,19.6876087,21.5220337,19.8859119,21.5220337"/>
		<path id="XMLID_36_" d="M29.5041981,25.8849487c-0.5949402,0.1983337-1.1898956,0.0991821-1.5865173-0.1983032
			c-0.2974701-0.2974854-0.4957886-0.6940918-0.396637-1.1898804c0-0.1983337-0.0991516-0.396637-0.2974701-0.396637
			s-0.3966217,0.0991516-0.3966217,0.2974548c-0.0991669,0.6941223,0.1983185,1.3882141,0.6940918,1.7848511
			c0.5949554,0.4957886,1.3882141,0.5949402,2.2806396,0.396637c1.3881989-0.4957886,1.7848358-2.3797913,1.3881989-3.9663086
			c-0.396637-1.6856995-1.8839874-3.47052-4.7595673-2.9747314c-2.5780945,0.4957886-3.7679749,3.47052-3.5696716,6.0486145
			c0.1983337,2.4789429,1.8840027,5.0570374,5.7511444,5.0570374c0.0991516,0,0.0991516,0,0.1983185,0h0.0991516
			c0.2974701,0,0.9915771,0,1.8840027-0.396637c0.1983185-0.0991516,0.2974701-0.2974548,0.1983185-0.4957886
			c-0.0991669-0.1983032-0.2974854-0.2974548-0.4957886-0.1983032c-0.9915771,0.3966064-1.7848358,0.2974548-1.7848358,0.2974548
			h-0.0991669c-3.3713531,0-4.8587189-2.2806091-5.0570221-4.362915c-0.1983337-2.2806396,0.7932434-4.8587341,2.9747162-5.2553711
			c2.379776-0.4957886,3.5696716,0.8924255,3.9663086,2.3797913C30.7932453,24.1992798,30.3966236,25.5874939,29.5041981,25.8849487
			"/>
		<path id="XMLID_35_" d="M26.6286335,34.1150513c-7.9326019-1.9831543-6.9410248-9.8166199-6.8418732-10.1140747
			c0-0.1983337-0.0991516-0.396637-0.2974854-0.396637c-0.1983032,0-0.3966064,0.0991516-0.3966064,0.2974548
			c0,0.0991821-1.1899109,8.8250427,7.4367981,11.0065002h0.0991669c0.1983185,0,0.2974701-0.0991516,0.3966217-0.2974548
			C27.0252552,34.3133545,26.826952,34.1150513,26.6286335,34.1150513"/>
		<path id="XMLID_33_" d="M32.7764015,23.9017944c-0.1983185,0-0.396637,0.0991821-0.396637,0.396637
			c-0.0991516,1.5865173-0.7932606,2.7764282-1.8839893,3.3713684c-1.090744,0.5949402-2.5780945,0.5949402-3.7679901-0.1983337
			c-1.2890472-0.7932434-1.4873505-2.1814575-1.2890472-3.1730347c0.1983185-0.9915771,0.8924103-1.6856689,1.6856842-1.7848206
			c0.4957886,0,0.8924103,0.0991516,1.1898804,0.2974548c0.4957886,0.4957886,0.4957886,1.3882141,0.4957886,1.3882141
			c0,0.1983032,0.0991669,0.396637,0.2974701,0.396637c0.1983185,0,0.396637-0.1983337,0.396637-0.396637
			c0,0,0-1.1898804-0.6941071-1.8840027c-0.3966217-0.396637-0.9915771-0.5949402-1.6856689-0.4957886
			c-1.090744,0.0991516-1.9831696,0.9915771-2.2806244,2.3797913c-0.2974854,1.1898804,0,2.9747314,1.5865173,3.9663086
			c0.6941071,0.4957886,1.5865173,0.6940918,2.4789429,0.6940918c0.6940918,0,1.3881989-0.1983032,2.0823059-0.4957886
			c1.3882008-0.6940918,2.1814594-2.1814575,2.2806263-4.0654602C33.1730385,24.1001282,32.97472,23.9017944,32.7764015,23.9017944"
			/>
		<path id="XMLID_32_" d="M29.1075611,17.8532104c-0.1983032-0.0991821-0.3966217,0-0.4957733,0.1983032
			c-0.0991669,0.1983032,0,0.396637,0.1983032,0.4957886c3.0738831,0.9915771,3.3713703,3.6688232,3.3713703,3.7679749
			c0,0.1983337,0.1983185,0.2974854,0.3966217,0.2974854l0,0c0.1983185,0,0.2974854-0.1983337,0.2974854-0.396637
			C32.97472,22.1169739,32.578083,18.9439392,29.1075611,17.8532104"/>
		<path id="XMLID_28_" d="M21.670763,13.8869019c0,0,2.1814575-1.8840027,6.1477509-1.8840027
			c3.5696716,0,6.544405,1.5865173,8.7258778,4.8587341c0.0991516,0.0991516,0.1983185,0.1983032,0.2974701,0.1983032
			s0.0991516,0,0.1983185-0.0991516c0.1983185-0.0991516,0.1983185-0.396637,0.0991516-0.4957886
			c-2.379776-3.47052-5.453661-5.156189-9.3208179-5.156189c-4.2637787,0-6.5443878,1.9831543-6.6435394,2.0823059
			c-0.0991821,0.0991516-0.1983337,0.396637,0,0.4957886C21.2741261,13.9860535,21.4724293,13.9860535,21.670763,13.8869019"/>
		<path id="XMLID_26_" d="M23.356432,10.8130188c0,0,2.5780945-1.2890625,6.1477661-0.7932739
			c3.4705219,0.396637,5.3545094,2.2806396,5.3545094,2.2806396c0.0991669,0.0991516,0.1983185,0.0991516,0.1983185,0.0991516
			c0.0991669,0,0.1983185,0,0.2974701-0.0991516c0.0991669-0.1983337,0.0991669-0.396637,0-0.4957886
			c-0.0991516-0.0991821-2.0823059-1.9831543-5.8502979-2.4789429s-6.4452515,0.7932434-6.5444031,0.892395
			c-0.1983032,0.0991821-0.2974548,0.2974854-0.1983032,0.4957886C22.959795,10.9121704,23.1581287,10.9121704,23.356432,10.8130188
			"/>
		<path d="M33.1730537,32.7072754c-1.6959858,1.494751-4.2637959,1.4077148-4.2637959,1.4077148
			c-0.1983032,0-0.3966064,0.1983643-0.3966064,0.3966675s0.1983032,0.3966064,0.2974243,0.3966064c0,0,0,0,0.0991821,0
			c0.4348145,0,2.5467529-0.0772705,4.2637959-1.2329102V32.7072754z"/>
		<path d="M33.1730537,30.4349976c-1.8962421,1.4580688-3.8192768,1.7866211-5.255373,1.6968994
			c-0.892395,0-2.4789429-0.3966675-3.7679443-1.3882446c-1.68573-1.2890625-2.578125-3.2721558-2.578125-5.9494629
			c0-3.7679443,2.0823364-5.4536133,3.7680054-6.1477661c0,0,0.4957886-0.1983032,1.2890015-0.3966064
			c0.1983643,0,0.2974854-0.1983032,0.2974854-0.3966064c0-0.1983643-0.1983032-0.2974854-0.3966064-0.2974854
			c-0.8924561,0.0991211-1.4873657,0.3966064-1.4873657,0.3966064c-1.5865479,0.6940918-4.1646118,2.4789429-4.1646118,6.8418579
			c0,6.1477661,4.5612183,7.9326172,7.0401611,8.0317993c0.0991821,0,0.1983032,0,0.2974854,0
			c1.4194336,0,3.1905518-0.2937622,4.9578876-1.5667725V30.4349976z"/>
		<g>
			<path d="M34.1646309,23.0093994c0.0045166,0.0333252,0.0021362,0.0599365,0.0062866,0.0928955
				c0.2264404-0.1675415,0.4832153-0.2923584,0.762207-0.3748779c-0.0557861-0.4741211-0.2231445-1.4780884-0.6693726-2.5936279
				c-0.0991211-0.1983032-0.2974243-0.2974854-0.4957886-0.1983032c-0.1983032,0.0991821-0.2974243,0.2974854-0.1983032,0.4957886
				C34.0654488,21.819458,34.1646309,23.0093994,34.1646309,23.0093994z"/>
			<path d="M32.9747505,28.9588013c0.0991211,0,0.1983032,0,0.1983032-0.0991211v-0.9935303
				c-0.204895,0.2594604-0.3688965,0.3985596-0.3966675,0.3985596c-0.1983032,0.0991821-0.1983032,0.3966675-0.0991211,0.4957886
				C32.7763863,28.9588013,32.8755684,28.9588013,32.9747505,28.9588013z"/>
		</g>
		<path d="M36.3781929,22.7296753c0.3004761,0.0899048,0.5734253,0.2315674,0.8117676,0.4193726
			c-0.5703125-5.7130127-4.5551147-9.8571167-9.8671894-9.8571167c-4.6604004,0-7.3377075,3.47052-7.4368286,3.5697021
			c-0.0991821,0.1983032-0.0991821,0.3966064,0.0991211,0.4957886c0.1983643,0.0991211,0.3966675,0.0991211,0.4957886-0.0991821
			c0,0,2.578125-3.2722168,6.94104-3.2722168C32.2087593,13.9860229,35.8355293,17.6310425,36.3781929,22.7296753z"/>
	</g>
	<g>
		<path style="fill:none;stroke:#000000;stroke-width:1.5;stroke-miterlimit:10;" d="M9.2760792,5.4584961v36.5891113
			c0,1.5865479,1.2890625,2.8756104,2.9747314,2.8756104h17.3533936"/>
		<path style="fill:none;stroke:#000000;stroke-width:1.5;stroke-miterlimit:10;" d="M46.4601631,31.6329346V5.4584961"/>
	</g>
	<g id="레이어_3_1_">
		<g>
			
				<path id="XMLID_20_" style="fill:none;stroke:#000000;stroke-width:1.5;stroke-linecap:round;stroke-linejoin:round;stroke-miterlimit:10;" d="
				M50.7239265,40.2628174v3.2721863c0,6.0486145-4.7595673,11.0065002-10.6098633,11.0065002l0,0
				c-5.850296,0-10.6098652-4.9578857-10.6098652-11.0065002v-3.2721863"/>
			
				<path id="XMLID_18_" style="fill:none;stroke:#000000;stroke-width:1.5;stroke-linecap:round;stroke-linejoin:round;stroke-miterlimit:10;" d="
				M38.130909,35.8998718V25.0917053c0-1.3882141-1.0907288-2.4789429-2.4789429-2.4789429l0,0
				c-1.3881989,0-2.4789276,1.0907288-2.4789276,2.4789429v15.1711121"/>
			
				<path id="XMLID_16_" style="fill:none;stroke:#000000;stroke-width:1.5;stroke-linecap:round;stroke-linejoin:round;stroke-miterlimit:10;" d="
				M38.130909,35.8998718v-5.9494629c0-1.1898804,0.8924255-2.0823059,2.0823059-2.0823059l0,0
				c1.1898956,0,2.0823059,0.8924255,2.0823059,2.0823059v7.5359802"/>
			
				<path id="XMLID_14_" style="fill:none;stroke:#000000;stroke-width:1.5;stroke-linecap:round;stroke-linejoin:round;stroke-miterlimit:10;" d="
				M42.2955208,37.5855408v-5.3544922c0-1.1899109,0.8924255-2.0823059,2.0823212-2.0823059l0,0
				c1.1898804,0,2.1814575,0.892395,2.1814575,2.0823059v8.1309204"/>
			
				<path id="XMLID_12_" style="fill:none;stroke:#000000;stroke-width:1.5;stroke-linecap:round;stroke-linejoin:round;stroke-miterlimit:10;" d="
				M50.7239265,43.6341553v-8.9241638c0-1.1899109-0.8924255-2.0823059-2.0823059-2.0823059l0,0
				c-1.1898956,0-2.0823212,0.892395-2.0823212,2.0823059v5.6519775"/>
			
				<path id="XMLID_10_" style="fill:none;stroke:#000000;stroke-width:1.5;stroke-linecap:round;stroke-linejoin:round;stroke-miterlimit:10;" d="
				M29.5041981,43.9316406v-5.0570374c0-1.3882141,0.8924255-3.2721863,3.1730518-3.2721863"/>
		</g>
	</g>
</g>
</svg>
