<?xml version="1.0" encoding="utf-8"?>
<!-- Generator: Adobe Illustrator 24.0.2, SVG Export Plug-In . SVG Version: 6.00 Build 0)  -->
<svg version="1.1" id="Layer_1" xmlns="http://www.w3.org/2000/svg" xmlns:xlink="http://www.w3.org/1999/xlink" x="0px" y="0px"
	 viewBox="0 0 60 60" style="enable-background:new 0 0 60 60;" xml:space="preserve">
<style type="text/css">
	.st0{fill:none;stroke:#12100B;stroke-width:1.5;stroke-miterlimit:10;}
	.st1{fill:none;stroke:#12100B;stroke-width:1.5;stroke-linecap:round;stroke-miterlimit:10;}
	.st2{fill:none;stroke:#12100B;stroke-width:1.5;stroke-linejoin:round;stroke-miterlimit:10;}
</style>
<g>
	<g>
		<g>
			<g>
				<path class="st0" d="M27.9447174,44.5448456v5.223011c0,1.5212784,1.2446804,2.7659569,2.765955,2.7659569h19.6561298
					c1.5212746,0,2.7659569-1.2446785,2.7659569-2.7659569V10.2321415c0-1.5212755-1.2446823-2.765955-2.7659569-2.765955
					H30.7106724c-1.5212746,0-2.765955,1.2446795-2.765955,2.765955v34.4334259"/>
			</g>
		</g>
	</g>
	<line class="st1" x1="37.4543152" y1="47.1703796" x2="43.6231575" y2="47.1703796"/>
</g>
<line class="st0" x1="6.6760097" y1="47.1703796" x2="23.762289" y2="47.1703796"/>
<line class="st0" x1="12.8713131" y1="41.9911766" x2="23.7622967" y2="41.9911766"/>
<line class="st0" x1="15.3442945" y1="36.8119774" x2="23.7622967" y2="36.8119774"/>
<line class="st0" x1="12.8713121" y1="31.6327858" x2="23.7622948" y2="31.6327858"/>
<g>
	<g>
		<g>
			<line class="st2" x1="45.8607368" y1="24.7887344" x2="45.8607368" y2="22.3929424"/>
		</g>
		<g>
			<line class="st2" x1="42.3127213" y1="24.7887344" x2="42.3127213" y2="22.3929424"/>
		</g>
		<g>
			<line class="st2" x1="38.7642746" y1="24.7887344" x2="38.7642746" y2="22.3929424"/>
		</g>
		<g>
			<line class="st2" x1="35.2167397" y1="24.7887344" x2="35.2167397" y2="22.3929424"/>
		</g>
		<g>
			<line class="st2" x1="42.3127213" y1="24.7887344" x2="42.3127213" y2="22.3929424"/>
		</g>
	</g>
	<g>
		<g>
			<line class="st2" x1="45.8607368" y1="37.6070595" x2="45.8607368" y2="35.2112656"/>
		</g>
		<g>
			<line class="st2" x1="42.3127213" y1="37.6070595" x2="42.3127213" y2="35.2112656"/>
		</g>
		<g>
			<line class="st2" x1="38.7642746" y1="37.6070595" x2="38.7642746" y2="35.2112656"/>
		</g>
		<g>
			<line class="st2" x1="35.2167397" y1="37.6070595" x2="35.2167397" y2="35.2112656"/>
		</g>
		<g>
			<line class="st2" x1="42.3127213" y1="37.6070595" x2="42.3127213" y2="35.2112656"/>
		</g>
	</g>
	<g>
		<path class="st0" d="M48.8219376,34.9112663c0,0.1649971-0.1350021,0.2999992-0.3000031,0.2999992H32.5555382
			c-0.1650009,0-0.2999992-0.1350021-0.2999992-0.2999992v-9.8225307c0-0.1650009,0.1349983-0.3000011,0.2999992-0.3000011
			h15.9663963c0.1650009,0,0.3000031,0.1350002,0.3000031,0.3000011V34.9112663z"/>
	</g>
</g>
</svg>
