<svg id="Layer_1" data-name="Layer 1" xmlns="http://www.w3.org/2000/svg" viewBox="0 0 200 200"><defs><style>.cls-1{fill:#fff;}</style></defs><title>icon_map</title><path class="cls-1" d="M161.4,165.22a2.47,2.47,0,0,1-1-.2l-36.95-15.55-38.89,10a2.49,2.49,0,0,1-1.48-.06L43.93,145.79a2.56,2.56,0,0,1-1.72-2.42V47.46a2.54,2.54,0,0,1,1.09-2.09,2.57,2.57,0,0,1,2.34-.32L84,59,123,48.39a2.52,2.52,0,0,1,1.69.13l3.29,1.7v6l-4.5-2.66L84.6,64.11a2.53,2.53,0,0,1-1.54-.06L47.32,51.1v90.45L84,154.33l39-10a2.5,2.5,0,0,1,1.62.12l34.21,14.39V69L145,63.22v-5L162.42,65A2.56,2.56,0,0,1,164,67.32v95.35a2.54,2.54,0,0,1-2.56,2.55Z"/><path class="cls-1" d="M136.69,46.11a10.86,10.86,0,1,1,10.86-10.86A10.88,10.88,0,0,1,136.69,46.11Zm0-16.61a5.75,5.75,0,1,0,5.75,5.75A5.76,5.76,0,0,0,136.69,29.5Z"/><rect class="cls-1" x="134.13" y="48.56" width="5.11" height="42.39"/><path class="cls-1" d="M74.92,114.72a7.7,7.7,0,0,0-7.69,7.69c0,3.28,4.92,10.87,7.69,14.75,2.76-3.88,7.68-11.47,7.68-14.75A7.69,7.69,0,0,0,74.92,114.72Zm0,10.78a3.43,3.43,0,1,1,3.42-3.43A3.44,3.44,0,0,1,74.92,125.5Z"/><path class="cls-1" d="M160,68.22l-15-7v31a2.94,2.94,0,0,1-3,3H131c-3-1-3-3-3-3V84.44h-2.64V82.17H128V54.22l-5-3-40,11-38-13,1,93,38,15,41-11,32,14,5-1Zm-85.19,14H81.4v2.27H74.77Zm-2.32,20.41v2.27H69.73a11.4,11.4,0,0,1-4.25-.82l.85-2.11a9,9,0,0,0,3.4.66ZM60,99.31a11.37,11.37,0,0,1-1.59-5.8c0-.43,0-.86.07-1.28l2.26.25a8.89,8.89,0,0,0-.06,1,9.09,9.09,0,0,0,1.27,4.64Zm1.56-13.64A11.35,11.35,0,0,1,68,82.31l.35,2.24a9.08,9.08,0,0,0-5.13,2.69Zm14.28,54.1a1.14,1.14,0,0,1-1.81,0c-.93-1.24-9.05-12.26-9.05-17.36a10,10,0,1,1,19.91,0C84.87,127.51,76.75,138.53,75.82,139.77Zm9.92-34.92H79.08v-2.27h6.66ZM88,82.17h6.64v2.27H88Zm6.66,43.09H88.06V123H94.7ZM99,104.85H92.36v-2.27H99Zm2.3-22.68H108v2.27h-6.63ZM108,125.26h-6.63V123H108Zm4.32-20.41h-6.66v-2.27h6.66Zm1-22.68H120v2.27h-6.63Zm4,43.09h-2.72V123h2.72a9,9,0,0,0,3.4-.66l.85,2.11A11.4,11.4,0,0,1,117.33,125.26Zm6.55-17.61a9.08,9.08,0,0,0-5.13-2.69l.35-2.24a11.35,11.35,0,0,1,6.42,3.36Zm3.19,12.07-1.94-1.16a9.09,9.09,0,0,0,1.27-4.64,8.89,8.89,0,0,0-.06-1l2.26-.25c0,.42.07.85.07,1.28A11.26,11.26,0,0,1,127.07,119.72Z"/><path class="cls-1" d="M74.92,120.92a1.16,1.16,0,1,0,1.16,1.15A1.16,1.16,0,0,0,74.92,120.92Z"/></svg>