<?xml version="1.0" encoding="utf-8"?>
<!-- Generator: Adobe Illustrator 19.0.0, SVG Export Plug-In . SVG Version: 6.00 Build 0)  -->
<svg version="1.1" id="Layer_1" xmlns="http://www.w3.org/2000/svg" xmlns:xlink="http://www.w3.org/1999/xlink" x="0px" y="0px"
	 viewBox="0 0 60 60" style="enable-background:new 0 0 60 60;" xml:space="preserve">
<g>
	<g>
		<path id="XMLID_12_" d="M39.6732941,26.0811157c-0.2975922,0-0.4960938-0.0992126-0.6944885-0.3969116
			c-0.19841-0.3969116-0.0992126-0.7937012,0.2975922-0.9920959l11.3103027-6.052002
			c0.3968964-0.1983948,0.7937012-0.0992126,0.9920959,0.2976074c0.19841,0.3968811,0.0992126,0.7937012-0.2975922,0.9920959
			l-11.2111053,6.052002C39.9709015,26.0811157,39.8717041,26.0811157,39.6732941,26.0811157z"/>
	</g>
	<path id="XMLID_11_" d="M9.9093018,40.6654053c-0.2976074,0-0.4960938-0.0992126-0.6944885-0.3969116
		c-0.1984253-0.3968811-0.0992126-0.7937012,0.2975769-0.9920959l11.3103027-6.052002
		c0.3969116-0.1983948,0.7937012-0.0991821,0.9920959,0.2976074c0.1984253,0.3969116,0.0992126,0.7937012-0.2975769,0.9920959
		l-11.2111206,6.052002C10.2069092,40.6654053,10.1076965,40.6654053,9.9093018,40.6654053z"/>
	<path id="XMLID_8_" style="fill:none;stroke:#000000;stroke-width:1.5;stroke-linecap:round;stroke-linejoin:round;" d="
		M51.1820984,17.1519165L51.1820984,17.1519165H9.0163879c-1.0912781,0-1.8851013,0.8928833-1.8851013,1.8851013v3.9684753
		v1.3890076c0,0.8929138,0.0992126,1.3890076,0.7937012,1.8851013l0.4961243,0.3969116l1.1905823,0.9920959
		c1.1906128,0.9920959,1.1906128,2.8771973,0,3.8692932l-1.1905823,0.9920959l-0.4961243,0.3969116
		c-0.6944885,0.4960938-0.7937012,1.5874023-0.7937012,2.4802856v1.0913086v4.365387
		c0,1.0913086,0.8929138,1.8851013,1.8851013,1.8851013l0,0h42.1657104c1.0913086,0,1.984314-0.8928833,1.984314-1.9842834
		V19.0368958C53.1663055,17.9456177,52.273407,17.1519165,51.1820984,17.1519165z"/>
	<g>
		<g>
			<path d="M25.1977081,33.7309265c-0.3623199,0-0.695816-0.0595703-1.0005035-0.1787109
				c-0.3051758-0.1191406-0.5673828-0.2841797-0.7866211-0.4941406c-0.2192383-0.2109375-0.390625-0.4580078-0.5146484-0.7441406
				c-0.1235352-0.2851563-0.1855469-0.5917969-0.1855469-0.9179688c0-0.3203125,0.0473633-0.6367188,0.1430664-0.9511719
				c0.0952148-0.3134766,0.2250977-0.5898438,0.390625-0.828125l1.8012695-2.8525391h1.5244293l-1.5244293,2.2773438
				c0.133316-0.0380859,0.2700348-0.0566406,0.4096832-0.0566406c0.3046875,0,0.5908203,0.0585938,0.8574219,0.1757813
				c0.2670898,0.1181641,0.5004883,0.28125,0.7006836,0.4912109s0.3574219,0.4589844,0.4716797,0.7480469
				s0.1713867,0.6083984,0.1713867,0.9580078s-0.0615234,0.6689453-0.1855469,0.9580078s-0.2954102,0.5380859-0.5146484,0.7480469
				c-0.2192383,0.2089844-0.4799805,0.3730469-0.7817383,0.4902344
				C25.8725128,33.6723328,25.5468292,33.7309265,25.1977081,33.7309265z M25.1688995,32.558075
				c0.1655273,0,0.3208008-0.03125,0.4672852-0.0947266c0.1459961-0.0634766,0.2744141-0.1513672,0.3857422-0.2626953
				c0.1113281-0.1103516,0.1987305-0.2412109,0.262207-0.390625c0.0634766-0.1484375,0.0952148-0.3095703,0.0952148-0.4804688
				c0-0.1660156-0.0317383-0.3232422-0.0952148-0.4716797c-0.0634766-0.1494141-0.1508789-0.2783203-0.262207-0.3867188
				c-0.1113281-0.1074219-0.2397461-0.1933594-0.3857422-0.2568359c-0.1464844-0.0634766-0.3017578-0.0957031-0.4672852-0.0957031
				c-0.1650543,0-0.3188629,0.0322266-0.4619293,0.0957031s-0.2685547,0.1503906-0.3764648,0.2617188
				c-0.1083984,0.1113281-0.1938477,0.2402344-0.2573242,0.3857422c-0.0634766,0.1464844-0.0952148,0.3056641-0.0952148,0.4765625
				c0,0.1660156,0.0317383,0.3232422,0.0952148,0.4716797c0.0634766,0.1494141,0.1489258,0.2802734,0.2573242,0.390625
				c0.1079102,0.1113281,0.2333984,0.1992188,0.3764648,0.2626953S25.0038452,32.558075,25.1688995,32.558075z"/>
			<path id="XMLID_5_" d="M28.0756378,32.9584656c0-0.234375,0.0698242-0.4238281,0.2099609-0.5664063
				c0.1396484-0.1435547,0.3300781-0.2148438,0.5717773-0.2148438c0.2412109,0,0.4301758,0.0712891,0.5668945,0.2148438
				c0.1367188,0.1425781,0.2050781,0.3320313,0.2050781,0.5664063c0,0.2294922-0.0703125,0.4150391-0.2099609,0.5576172
				c-0.1396484,0.1435547-0.3300781,0.2148438-0.5717773,0.2148438c-0.2412109,0-0.4301758-0.0712891-0.5668945-0.2148438
				C28.1439972,33.3735046,28.0756378,33.1879578,28.0756378,32.9584656z"/>
			<path d="M33.1552277,32.120575h-2.9829102v-1.1826172l2.9160156-4.1738281h1.324707v4.1738281h1.0200195v1.1826172h-1.0200195
				v1.6005859h-1.2578125V32.120575z M33.1552277,30.9379578V28.6987l-1.5820313,2.2392578H33.1552277z"/>
			<path d="M35.1424255,28.7084656l0.3242188-1.9443359h1.1342773l-0.6674805,1.9443359H35.1424255z M36.6770935,28.7084656
				l0.3237305-1.9443359h1.1342773l-0.6669922,1.9443359H36.6770935z"/>
		</g>
	</g>
	<path style="fill:none;stroke:#000000;stroke-width:1.5;stroke-linecap:round;stroke-linejoin:round;stroke-miterlimit:10;" d="
		M55.7444954,42.5680618c0,1.6500015-1.3499985,3-3,3H7.2555046c-1.6499996,0-3-1.3499985-3-3V17.4319382
		c0-1.6499996,1.3500004-3,3-3h45.4889908c1.6500015,0,3,1.3500004,3,3V42.5680618z"/>
</g>
</svg>
