<svg id="Icons" xmlns="http://www.w3.org/2000/svg" viewBox="0 0 60 60"><defs><style>.cls-1{fill:none;stroke:#12100b;stroke-miterlimit:10;stroke-width:1.5px;}.cls-2{fill:#12100b;}</style></defs><title>72. IP68 Water Resistant (Smartphone, Proof)</title><path class="cls-1" d="M42.66,28a12.8,12.8,0,1,1-24.18-5.87C20.61,17.94,29.36,4.75,29.36,4.75a.56.56,0,0,1,1,0s8.72,13.17,10.85,17.3A12.85,12.85,0,0,1,42.66,28Z"/><path class="cls-2" d="M16.47,45.42h1.45V56H16.47Z"/><path class="cls-2" d="M26.83,46.33a4.1,4.1,0,0,1,0,5.14,3.44,3.44,0,0,1-2.54.92H22V56H20.58V45.42h3.75A3.31,3.31,0,0,1,26.83,46.33Zm-1.1,4.2a3,3,0,0,0,0-3.26,1.86,1.86,0,0,0-1.46-.55H22v4.37h2.3A1.74,1.74,0,0,0,25.73,50.53Z"/><path class="cls-2" d="M34.19,49.77A2.81,2.81,0,0,1,35.3,51a3.66,3.66,0,0,1,.4,1.76,3.81,3.81,0,0,1-.43,1.83,3.07,3.07,0,0,1-1.22,1.23,3.54,3.54,0,0,1-1.81.44,3.64,3.64,0,0,1-1.84-.45,3.1,3.1,0,0,1-1.23-1.28,3.93,3.93,0,0,1-.43-1.89,5.61,5.61,0,0,1,.44-2.17A10.41,10.41,0,0,1,30.69,48l2.23-2.81,1.14.86L31.8,48.8l-.63.81a3.4,3.4,0,0,1,1.36-.25A3.32,3.32,0,0,1,34.19,49.77Zm-.49,4.6a2.77,2.77,0,0,0,0-3.27,2,2,0,0,0-1.53-.6,3.43,3.43,0,0,0-1.6.41,3.85,3.85,0,0,0-.35,1.66,2.59,2.59,0,0,0,.55,1.75,1.91,1.91,0,0,0,1.52.63A1.83,1.83,0,0,0,33.7,54.37Z"/><path class="cls-2" d="M38.72,55.85a2.74,2.74,0,0,1-1.25-1A2.65,2.65,0,0,1,37,53.33a2.62,2.62,0,0,1,.61-1.68,3.63,3.63,0,0,1,1.6-1.15,2.66,2.66,0,0,1-1.29-1,2.71,2.71,0,0,1-.49-1.58,2.48,2.48,0,0,1,1.48-2.36,3.92,3.92,0,0,1,1.65-.33,3.86,3.86,0,0,1,1.65.33,2.62,2.62,0,0,1,1.1.95,2.53,2.53,0,0,1,.39,1.41,2.69,2.69,0,0,1-1.81,2.54,3.11,3.11,0,0,1,1.63,1.06,2.7,2.7,0,0,1,.62,1.73,2.75,2.75,0,0,1-.45,1.56,3,3,0,0,1-1.25,1,4.6,4.6,0,0,1-1.88.36A4.52,4.52,0,0,1,38.72,55.85Zm3.42-1.35a1.6,1.6,0,0,0,.56-1.29A1.76,1.76,0,0,0,42.12,52a4.08,4.08,0,0,0-1.59-1,3.57,3.57,0,0,0-1.51.91,1.86,1.86,0,0,0-.54,1.29A1.62,1.62,0,0,0,39,54.5a2.79,2.79,0,0,0,3.1,0Zm-.28-5.31a1.71,1.71,0,0,0,.43-1.14,1.55,1.55,0,0,0-.45-1.17,1.78,1.78,0,0,0-1.25-.42,1.74,1.74,0,0,0-1.24.42A1.5,1.5,0,0,0,38.89,48a1.62,1.62,0,0,0,.48,1.14,3.06,3.06,0,0,0,1.29.78A2.71,2.71,0,0,0,41.86,49.19Z"/></svg>