<?xml version="1.0" encoding="utf-8"?>
<!-- Generator: Adobe Illustrator 23.0.1, SVG Export Plug-In . SVG Version: 6.00 Build 0)  -->
<svg version="1.1" xmlns="http://www.w3.org/2000/svg" xmlns:xlink="http://www.w3.org/1999/xlink" x="0px" y="0px"
	 viewBox="0 0 60 60" style="enable-background:new 0 0 60 60;" xml:space="preserve">
<g id="Layer_2" style="display:none;">
	<g style="display:inline;">
		<g>
			<rect style="fill:none;stroke:#D9D9D9;stroke-width:0.25;stroke-miterlimit:10;stroke-dasharray:1,1;" width="60" height="60"/>
			
				<line style="fill:none;stroke:#D9D9D9;stroke-width:0.25;stroke-miterlimit:10;stroke-dasharray:1,1;" x1="0" y1="0" x2="60" y2="60"/>
			
				<line style="fill:none;stroke:#D9D9D9;stroke-width:0.25;stroke-miterlimit:10;stroke-dasharray:1,1;" x1="60" y1="0" x2="0" y2="60"/>
			
				<circle style="fill:none;stroke:#D9D9D9;stroke-width:0.25;stroke-miterlimit:10;stroke-dasharray:1,1;" cx="30" cy="30" r="30"/>
			
				<line style="fill:none;stroke:#D9D9D9;stroke-width:0.25;stroke-miterlimit:10;stroke-dasharray:1,1;" x1="8.7867966" y1="0.0913647" x2="8.7867966" y2="60"/>
			
				<line style="fill:none;stroke:#D9D9D9;stroke-width:0.25;stroke-miterlimit:10;stroke-dasharray:1,1;" x1="51.2132034" y1="0" x2="51.2132034" y2="59.8705673"/>
			
				<line style="fill:none;stroke:#D9D9D9;stroke-width:0.25;stroke-miterlimit:10;stroke-dasharray:1,1;" x1="60" y1="8.91222" x2="0" y2="8.91222"/>
			
				<line style="fill:none;stroke:#D9D9D9;stroke-width:0.25;stroke-miterlimit:10;stroke-dasharray:1,1;" x1="60" y1="51.1295128" x2="0" y2="51.1295128"/>
			
				<circle style="fill:none;stroke:#D9D9D9;stroke-width:0.25;stroke-miterlimit:10;stroke-dasharray:1,1;" cx="30" cy="30" r="21.2132034"/>
		</g>
	</g>
</g>
<g id="Layer_3" style="display:none;">
</g>
<g id="Layer_1">
	<path d="M53.8679276,19.6226387c-0.28302-1.4150944-0.7547188-2.7358494-1.320755-3.962266
		c-2.07547-4.7169809-5.754715-8.0188675-11.320755-9.3396225c-3.4905663-0.8490562-6.9811363-1.2264142-10.4716969-1.3207545
		c-0.2830181,0-1.3207569,0-1.603775,0c-3.4905663,0-6.9811344,0.4716983-10.4716988,1.3207545
		C12.3584938,7.8301849,8.3962288,11.79245,6.6037741,17.6415062c-0.0943398,0.0943394-0.377358,1.3207531-0.4716978,1.7924519
		C5.377358,22.9245243,5,26.5094299,5,29.9999962s0.377358,7.0754738,1.1320763,10.56604
		c0.0943398,0.4716949,0.4716978,1.6981125,0.4716978,1.7924538c1.7924528,5.8490562,5.7547178,9.8113174,12.0754709,11.3207588
		c3.4905663,0.8490562,6.9811344,1.320755,10.4716969,1.320755c0.2830181,0,1.3207569,0,1.603775,0
		c3.4905643-0.0943375,6.9811344-0.4716988,10.4717007-1.320755c5.9433937-1.4150963,9.8113213-5,11.6981125-10.1886787
		c0.3773613-0.9433975,0.6603775-1.9811325,0.9433975-3.1132088C54.6226463,37.1698151,55,33.9622688,55,30.849062
		c0-0.2830181,0-1.4150944,0-1.6981125C54.9056625,25.9433937,54.5283012,22.7358456,53.8679276,19.6226387z M16.5094337,37.1698074
		l-0.1886787-1.9811325c3.6792469-1.1320763,5.1886787-3.6792469,4.3396206-6.6037731
		c-0.7547169-2.7358494-3.3962269-4.1509438-6.7924528-3.5849056c0,1.9811325,0,4.0566044,0,6.0377388
		c0,1.9811287,0,3.962265,0,6.1320763h-2.1698112c0-0.3773613,0-7.9245281,0-11.4150982
		c0-2.1698093,0.8490562-2.9245262,3.0188684-3.0188675c3.2075481-0.1886806,5.8490582,0.8490582,7.4528313,3.8679218
		C24.5283031,31.1320724,21.6037712,36.6037712,16.5094337,37.1698074z M28.7735863,32.7358475c0-0.5660362,0-1.2264156,0-1.9811306
		c1.320755,0,2.5471706,0,3.962265,0c-0.0943375-1.6981125-1.9811306-2.7358513-3.396225-2.64151
		c-1.7924557,0.2830181-2.9245281,1.5094337-3.1132069,3.0188694c-0.3773613,2.0754738,0.754715,3.679245,3.396225,4.0566025
		c0,0.3773613,0,1.6981125,0,1.9811325c-3.0188694,0.0943375-5.6603775-2.5471725-5.6603775-5.56604
		c0-3.20755,2.8301888-5.7547169,6.0377369-5.56604c3.396225,0.1886806,5.6603775,3.4905663,5,6.6981125
		C32.9245262,32.7358475,30.9433956,32.7358475,28.7735863,32.7358475z M40.9433937,32.07547
		c-1.320755,1.7924538-2.7358513,3.5849037-4.1509438,5.4716949c-0.5660362-0.4716949-1.037735-0.8490562-1.6981125-1.320755
		c1.2264137-1.603775,2.4528275-3.3018875,3.679245-4.8113194c0.6603813-0.7547169,0.6603813-1.3207569,0-2.0754719
		c-1.2264137-1.5094337-2.4528275-3.1132069-3.679245-4.7169819c0.6603775-0.5660362,1.1320763-0.8490582,1.6981125-1.2264137
		c1.4150925,1.7924538,2.9245262,3.5849056,4.2452812,5.4716969C41.6981163,29.9056587,41.6981163,31.1320724,40.9433937,32.07547z
		 M44.8113213,31.4150906c1.2264137,1.5094318,2.4528275,3.2075481,3.6792488,4.8113194
		c-0.6603813,0.4716988-1.1320763,0.8490601-1.6981125,1.320755c-1.4150963-1.8867912-2.8301888-3.679245-4.1509476-5.4716949
		c-0.754715-0.9433975-0.754715-2.1698112-0.0943375-3.20755c1.320755-1.8867912,2.8301888-3.6792469,4.245285-5.4716969
		c0.5660362,0.3773594,1.0377312,0.6603775,1.6981125,1.2264137c-1.2264175,1.603775-2.4528313,3.2075481-3.6792488,4.7169819
		C44.1509438,30.0943336,44.1509438,30.6603737,44.8113213,31.4150906z"/>
</g>
</svg>
