<?xml version="1.0" encoding="utf-8"?>
<!-- Generator: Adobe Illustrator 23.1.0, SVG Export Plug-In . SVG Version: 6.00 Build 0)  -->
<svg version="1.1" id="Layer_1" xmlns="http://www.w3.org/2000/svg" xmlns:xlink="http://www.w3.org/1999/xlink" x="0px" y="0px"
	 viewBox="0 0 591 94" style="enable-background:new 0 0 591 94;" xml:space="preserve">
<style type="text/css">
	.st0{fill:#666666;}
	.st1{fill:none;stroke:#FFFFFF;stroke-width:0.7706;stroke-linecap:round;stroke-linejoin:round;stroke-miterlimit:10;}
	.st2{fill:none;stroke:#FFFFFF;stroke-width:0.3986;stroke-miterlimit:10;}
	.st3{fill:none;stroke:#666666;stroke-width:3.8531;stroke-linecap:round;stroke-linejoin:round;stroke-miterlimit:10;}
	.st4{fill:#232020;}
	.st5{fill:#FFFFFF;}
	.st6{font-family:'Quicksand-SemiBold';}
	.st7{font-size:5.033px;}
	.st8{font-size:15.1465px;}
	.st9{fill:#E6E6E6;}
	.st10{font-family:'Poppins-Regular';}
	.st11{font-size:18.0882px;}
	.st12{fill:none;stroke:#FFFFFF;stroke-width:0.6689;stroke-linecap:round;stroke-linejoin:round;stroke-miterlimit:10;}
	.st13{fill:none;stroke:#FFFFFF;stroke-width:0.346;stroke-miterlimit:10;}
</style>
<g>
	<g>
		<g>
			<g>
				<path class="st0" d="M186.13,30.32c-2.17-1.01-4.59-1.88-7.19-2.6c0.02-3.71,0.02-9.42,0.02-9.42c0-0.26-0.23-0.47-0.51-0.47
					l-18.43-5.07l-18.46,5.07c-0.28,0-0.51,0.21-0.51,0.47v2.57l0,5.48c0,0.39,0,0.87,0.01,1.39c-2.73,0.75-5.24,1.65-7.46,2.71
					c-0.23,0.11-0.33,0.39-0.22,0.62c0.08,0.17,0.25,0.26,0.42,0.26c0.07,0,0.14-0.01,0.2-0.05c6.67-3.18,16.14-5.01,26-5.01
					c9.7,0,19.08,1.78,25.73,4.88c0.23,0.11,0.51,0.01,0.62-0.23C186.46,30.71,186.36,30.43,186.13,30.32z M177.74,20.48
					c0,1.89-0.01,4.93-0.01,6.93c-0.27-0.07-0.54-0.13-0.81-0.19c0.01-1.99,0.01-4.9,0.01-6.73l0-0.97l-16.91-4.66l-16.94,4.66
					l0,7.72c-0.27,0.06-0.54,0.12-0.81,0.19l0-8.53l17.75-4.88l17.72,4.88L177.74,20.48z"/>
				<path class="st0" d="M160.17,60.53l-0.14,0.05l-0.14-0.05c-2.13-0.82-9.92-5.41-16.95-14.74c-0.4,0.1-0.79,0.21-1.18,0.32
					c7.37,11.12,18.08,15.7,18.08,15.7c0.06,0.02,0.13,0.03,0.19,0.03c0.07,0,0.13-0.01,0.19-0.03c0,0,8.62-2.9,18.05-15.65
					c-0.38-0.11-0.78-0.21-1.18-0.32C167.16,57.64,162.29,59.73,160.17,60.53z M183.3,45.82c-5.61-3.26-13.26-4.85-23.4-4.85
					c-10.28,0-17.62,1.49-23.13,4.7c-0.2,0.12-0.28,0.4-0.18,0.63c0.01,0.02,0.02,0.03,0.03,0.04l-0.01,0c0,0,0.01,0.02,0.04,0.04
					c0.03,0.03,0.05,0.06,0.09,0.09c0.38,0.35,1.69,1.37,4.83,2.06c0,0-2.34-0.8-2.39-2.06c-0.01-0.37,0.11-1.08,1.27-1.58
					c4.95-2.02,11.25-2.98,19.44-2.98c8.26,0,14.82,1.06,19.95,3.23c1.06,0.49,1.17,0.98,1.15,1.34c-0.05,1.27-2.39,2.06-2.39,2.06
					c3.32-0.73,4.42-1.58,4.74-1.93c0.04-0.03,0.07-0.07,0.1-0.12c0.01-0.02,0.02-0.03,0.02-0.03
					C183.58,46.22,183.5,45.94,183.3,45.82z"/>
				<path class="st0" d="M153.11,54.92c0.23,0.18,0.45,0.35,0.67,0.51V43.81c-0.22,0.02-0.45,0.03-0.67,0.05V54.92z M154.61,56.02
					c0.23,0.16,0.45,0.31,0.67,0.45V43.72c-0.22,0.01-0.45,0.03-0.67,0.04L154.61,56.02z M157.6,57.85
					c0.24,0.13,0.46,0.24,0.67,0.35V43.63c-0.22,0-0.45,0.01-0.67,0.01V57.85z M156.1,56.99c0.23,0.14,0.46,0.28,0.67,0.4V43.67
					c-0.23,0.01-0.45,0.01-0.67,0.02V56.99z M151.61,53.67c0.23,0.2,0.45,0.39,0.67,0.58V43.93c-0.22,0.02-0.45,0.04-0.67,0.06
					V53.67z M144.8,45.38v-0.19c-0.03,0.01-0.06,0.02-0.09,0.02C144.74,45.27,144.77,45.32,144.8,45.38z M150.12,52.27
					c0.23,0.22,0.45,0.44,0.67,0.65v-8.85c-0.23,0.03-0.45,0.05-0.68,0.08L150.12,52.27z M145.62,46.72
					c0.22,0.34,0.45,0.68,0.67,1.01v-2.91c-0.22,0.05-0.45,0.1-0.67,0.15V46.72z M159.1,58.6c0.25,0.12,0.48,0.21,0.67,0.29V43.62
					c-0.22,0-0.45,0-0.67,0.01V58.6z M147.12,44.64v4.22c0.22,0.29,0.45,0.58,0.68,0.86l0-5.21
					C147.57,44.55,147.35,44.59,147.12,44.64z M148.62,50.68c0.22,0.26,0.45,0.5,0.67,0.74v-7.16c-0.22,0.03-0.45,0.07-0.67,0.1
					V50.68z M171.07,51.18c0.22-0.25,0.45-0.5,0.67-0.76v-5.99c-0.22-0.04-0.45-0.07-0.67-0.11V51.18z M172.57,49.42
					c0.23-0.29,0.45-0.58,0.67-0.88v-3.82c-0.22-0.05-0.45-0.09-0.67-0.14V49.42z M169.58,52.72c0.23-0.22,0.45-0.44,0.67-0.67V44.2
					c-0.22-0.03-0.45-0.06-0.67-0.08V52.72z M160.59,58.79c0.2-0.08,0.43-0.19,0.67-0.3l0-14.86c-0.22,0-0.45-0.01-0.67-0.01V58.79z
					 M174.07,44.89v2.48c0.23-0.34,0.45-0.68,0.67-1.04v-1.28C174.52,44.99,174.29,44.94,174.07,44.89z M163.59,43.68v13.59
					c0.22-0.13,0.44-0.26,0.67-0.41l0-13.16C164.04,43.69,163.81,43.69,163.59,43.68z M162.09,58.09c0.22-0.11,0.44-0.23,0.67-0.35
					V43.65c-0.22-0.01-0.45-0.01-0.67-0.01V58.09z M166.58,55.27c0.22-0.17,0.45-0.34,0.67-0.52V43.89
					c-0.22-0.02-0.45-0.03-0.67-0.05V55.27z M168.08,54.08c0.22-0.19,0.45-0.39,0.67-0.59v-9.46c-0.22-0.02-0.45-0.04-0.67-0.06
					V54.08z M165.08,43.74v12.59c0.22-0.15,0.45-0.3,0.67-0.46V43.78C165.53,43.77,165.31,43.75,165.08,43.74z"/>
			</g>
			<text transform="matrix(1 0 0 1 146.2073 24.0155)" class="st5 st6 st7">COMPLIANT</text>
			<g>
				<g>
					<path class="st0" d="M146.57,28.65l1.28-0.17l1.15,2.2c0.14,0.29,0.28,0.61,0.42,0.92l0.03,0c0.06-0.33,0.11-0.68,0.17-1
						l0.51-2.41l1.28-0.17l0.69,5.19l-1.07,0.14l-0.25-1.91c-0.07-0.51-0.07-1.27-0.08-1.78l-0.03,0l-0.26,1.28l-0.47,2.09
						l-0.65,0.09l-1-1.89l-0.58-1.17l-0.03,0c0.12,0.5,0.32,1.24,0.38,1.74l0.25,1.91l-1.05,0.14L146.57,28.65z"/>
					<path class="st0" d="M152.88,27.91l1.18-0.08l0.38,5.23l-1.18,0.09L152.88,27.91z"/>
					<path class="st0" d="M155.46,27.74l1.18-0.03l0.11,4.24l2.07-0.05l0.03,0.99l-3.25,0.08L155.46,27.74z"/>
					<path class="st0" d="M159.48,30.46l1.97,0.04l-0.02,0.84l-1.97-0.04L159.48,30.46z"/>
					<path class="st0" d="M162,32.29l0.74-0.76c0.35,0.35,0.81,0.61,1.24,0.64c0.49,0.04,0.75-0.14,0.77-0.45
						c0.02-0.33-0.26-0.46-0.71-0.68l-0.66-0.34c-0.53-0.26-1-0.74-0.95-1.5c0.06-0.87,0.89-1.5,1.97-1.42
						c0.6,0.04,1.21,0.33,1.63,0.81l-0.65,0.7c-0.32-0.29-0.64-0.46-1.05-0.49c-0.41-0.03-0.68,0.12-0.7,0.42
						c-0.02,0.32,0.31,0.46,0.75,0.68l0.65,0.32c0.62,0.3,0.99,0.76,0.93,1.5c-0.06,0.87-0.84,1.56-2.08,1.47
						C163.2,33.14,162.5,32.83,162,32.29z"/>
					<path class="st0" d="M168.23,29.27l-1.43-0.2l0.14-0.98l4.02,0.56l-0.14,0.98l-1.43-0.2l-0.58,4.2l-1.17-0.16L168.23,29.27z"/>
					<path class="st0" d="M172.05,28.83l1.45,0.31c1.57,0.33,2.41,1.32,2.04,3.08c-0.37,1.76-1.55,2.37-3.05,2.05l-1.51-0.32
						L172.05,28.83z M172.54,33.31c0.87,0.18,1.55-0.12,1.81-1.34c0.26-1.23-0.25-1.73-1.12-1.92L173.01,30l-0.69,3.26L172.54,33.31
						z"/>
				</g>
			</g>
			<g>
				<g>
					<path class="st0" d="M151.59,39.25c-0.05-0.61,0.31-1.02,0.77-1.32l0-0.03c-0.42-0.26-0.73-0.61-0.78-1.14
						c-0.07-0.87,0.57-1.46,1.52-1.53c0.93-0.07,1.59,0.43,1.65,1.27c0.04,0.48-0.25,0.9-0.58,1.16l0,0.03
						c0.51,0.23,0.93,0.59,0.98,1.26c0.06,0.8-0.61,1.46-1.69,1.55C152.46,40.59,151.66,40.08,151.59,39.25z M154.06,39
						c-0.04-0.45-0.48-0.59-1.14-0.8c-0.21,0.22-0.35,0.52-0.33,0.84c0.03,0.45,0.41,0.68,0.84,0.65
						C153.82,39.66,154.1,39.43,154.06,39z M153.81,36.66c-0.03-0.39-0.28-0.64-0.67-0.61c-0.31,0.02-0.55,0.24-0.52,0.63
						c0.03,0.41,0.4,0.58,0.93,0.75C153.74,37.18,153.83,36.92,153.81,36.66z"/>
					<path class="st0" d="M156.04,39.29l1.11-0.02l-0.05-2.95l-0.96,0.02l-0.01-0.73c0.54-0.11,0.9-0.26,1.25-0.49l0.87-0.02
						l0.08,4.15l0.96-0.02l0.02,0.95l-3.25,0.06L156.04,39.29z"/>
					<path class="st0" d="M160.07,37.61c0.07-1.73,0.83-2.59,1.93-2.55c1.09,0.04,1.79,0.97,1.72,2.69
						c-0.07,1.73-0.84,2.64-1.93,2.59C160.69,40.31,160,39.35,160.07,37.61z M162.6,37.72c0.06-1.39-0.24-1.72-0.64-1.74
						c-0.4-0.02-0.72,0.29-0.78,1.68c-0.06,1.39,0.24,1.77,0.63,1.78S162.54,39.11,162.6,37.72z"/>
					<path class="st0" d="M166.69,35.34l1.17,0.16l-0.27,2l1.79,0.24l0.27-2l1.17,0.16l-0.7,5.18l-1.17-0.16l0.29-2.16l-1.79-0.24
						l-0.29,2.16l-1.17-0.16L166.69,35.34z"/>
				</g>
			</g>
		</g>
		<g>
			<text transform="matrix(1 0 0 1 351.4885 87.222)" class="st0 st6 st8">1.8 M Drop</text>
		</g>
		<g>
			<text transform="matrix(1 0 0 1 450.0344 87.222)" class="st0 st6 st8">Google Android™ 10 </text>
		</g>
		<g>
			<text transform="matrix(1 0 0 1 8.9299 87.2206)" class="st0 st6 st8">4200 mAh</text>
		</g>
		<g>
			<g>
				<path class="st0" d="M36.74,22.4v5.4h-6.21c-0.34,0-0.62,0.28-0.62,0.62v34.04c0,0.34,0.28,0.62,0.62,0.62H54.8
					c0.34,0,0.62-0.28,0.62-0.62V28.42c0-0.34-0.28-0.62-0.62-0.62h-5.81v-5.4c0-0.34-0.28-0.62-0.62-0.62h-11
					C37.02,21.77,36.74,22.05,36.74,22.4z M54.17,29.04v32.79H31.16V29.04h6.21h11H54.17z M47.74,23.02v4.77h-9.75v-4.77H47.74z"/>
			</g>
			<rect x="30.72" y="28.5" class="st0" width="24.08" height="33.91"/>
			<rect x="37.61" y="22.38" class="st0" width="10.45" height="7.12"/>
		</g>
		<g>
			<text transform="matrix(1 0 0 1 240.7825 87.2206)" class="st0 st6 st8">IP69 / IP68</text>
		</g>
		<g>
			<path class="st0" d="M278.96,60.2c-7.6,0-13.76-6.16-13.76-13.76c0-7.6,13.76-29.05,13.76-29.05s13.76,21.45,13.76,29.05
				C292.72,54.04,286.56,60.2,278.96,60.2z"/>
			<text transform="matrix(1 0 0 1 272.886 51.1971)" class="st9 st10 st11">IP</text>
		</g>
		<g>
			<g>
				<path class="st0" d="M404.91,19.97V8.03c0-0.78-0.46-1.42-1.02-1.42c-0.56,0-1.02,0.64-1.02,1.42v11.94
					c0,0.78,0.46,1.42,1.02,1.42C404.45,21.39,404.91,20.75,404.91,19.97z"/>
				<path class="st0" d="M408.51,15.68c-0.56,0-1.02,0.46-1.02,1.02v3.67c0,0.56,0.46,1.02,1.02,1.02c0.56,0,1.02-0.46,1.02-1.02
					V16.7C409.53,16.14,409.07,15.68,408.51,15.68z"/>
			</g>
			<g>
				<path class="st0" d="M361,42.17V30.23c0-0.78-0.46-1.42-1.02-1.42c-0.56,0-1.02,0.64-1.02,1.42v11.94
					c0,0.78,0.46,1.42,1.02,1.42C360.54,43.59,361,42.95,361,42.17z"/>
				<path class="st0" d="M396.12,20.36v-8.87c0-0.78-0.46-1.42-1.02-1.42c-0.56,0-1.02,0.64-1.02,1.42v8.87
					c0,0.78,0.46,1.42,1.02,1.42C395.66,21.78,396.12,21.15,396.12,20.36z"/>
				<path class="st0" d="M370.5,26.96V11.99c0-0.78-0.46-1.42-1.02-1.42c-0.56,0-1.02,0.64-1.02,1.42v14.97
					c0,0.78,0.46,1.42,1.02,1.42C370.05,28.38,370.5,27.74,370.5,26.96z"/>
				<path class="st0" d="M366.67,22.15V7.18c0-0.78-0.46-1.42-1.02-1.42c-0.56,0-1.02,0.64-1.02,1.42v14.97
					c0,0.78,0.46,1.42,1.02,1.42C366.21,23.57,366.67,22.94,366.67,22.15z"/>
				<path class="st0" d="M362.1,21.37c-0.56,0-1.02,0.46-1.02,1.02v3.67c0,0.56,0.46,1.02,1.02,1.02c0.56,0,1.02-0.46,1.02-1.02
					v-3.67C363.11,21.83,362.66,21.37,362.1,21.37z"/>
			</g>
			<g>
				<path class="st0" d="M401.29,21.64l-0.42-0.86c-1.09-2.25-3.81-3.19-6.06-2.1l-25.87,12.55c-0.08,0.02-0.15,0.05-0.22,0.08
					c-0.07,0.04-0.14,0.08-0.2,0.13l-2.72,1.32c-2.25,1.09-3.19,3.81-2.1,6.06l6.88,14.15c1.09,2.25,3.81,3.19,6.06,2.1L405.65,41
					c2.25-1.09,3.19-3.81,2.1-6.06l-5.46-11.23L401.29,21.64z"/>
				<path class="st12" d="M371.29,50.04l-5.77-11.9c-0.74-1.53-0.1-3.38,1.43-4.12l28.44-13.8c1.53-0.74,3.38-0.1,4.12,1.43
					l5.77,11.9c0.74,1.53,0.1,3.38-1.43,4.12l-28.44,13.8C373.87,52.21,372.03,51.57,371.29,50.04z"/>
				<path class="st13" d="M392.35,46.22l-2.05,0.93c-0.19,0.09-0.42,0-0.51-0.19l-0.21-0.46c-0.09-0.19,0-0.42,0.19-0.51l2.05-0.93
					c0.19-0.09,0.42,0,0.51,0.19l0.21,0.46C392.63,45.9,392.54,46.13,392.35,46.22z"/>
				<rect x="356.53" y="58.08" class="st0" width="64.06" height="4.55"/>
			</g>
		</g>
		<g>
			<text transform="matrix(1 0 0 1 108.6531 87.6195)" class="st0 st6 st8">MIL-STD 810 H</text>
		</g>
	</g>
	<g>
		<g>
			<path class="st0" d="M502.47,32.81c-1.14,0-2.06,0.91-2.06,2.05v9.95c0,1.13,0.92,2.06,2.06,2.06c1.14,0,2.06-0.93,2.06-2.06
				v-9.95C504.53,33.72,503.61,32.81,502.47,32.81z"/>
			<path class="st0" d="M534.77,32.81c-1.13,0-2.06,0.91-2.06,2.05v9.95c0,1.13,0.92,2.06,2.06,2.06c1.14,0,2.07-0.93,2.07-2.06
				v-9.95C536.83,33.72,535.9,32.81,534.77,32.81z"/>
			<path class="st0" d="M506.38,32.81c0,0.03,0,0.05,0,0.08v18.36c0,1.7,1.38,3.09,3.09,3.09h3.3v5.23c0,1.13,0.92,2.06,2.06,2.06
				c1.14,0,2.06-0.93,2.06-2.06v-5.23h3.51v5.23c0,1.13,0.92,2.06,2.06,2.06c1.14,0,2.06-0.93,2.06-2.06v-5.23h3.3
				c1.71,0,3.09-1.38,3.09-3.09V32.89c0-0.03,0-0.05-0.01-0.08H506.38z"/>
			<path class="st0" d="M524.63,20.31l2.2-4.1l-0.45-0.24l-2.21,4.1c-1.66-0.85-3.54-1.33-5.54-1.33c-1.89,0-3.68,0.43-5.27,1.2
				l-2.14-3.98l-0.46,0.24l2.13,3.96c-3.81,2.05-6.4,6.05-6.43,10.67h24.36C530.79,26.32,528.3,22.39,524.63,20.31z M512.37,26.14
				c-0.64,0-1.16-0.53-1.16-1.16c0-0.64,0.53-1.17,1.16-1.17c0.64,0,1.16,0.53,1.16,1.17C513.53,25.62,513.01,26.14,512.37,26.14z
				 M524.71,26.14c-0.64,0-1.15-0.53-1.15-1.16c0-0.64,0.51-1.17,1.15-1.17c0.64,0,1.16,0.53,1.16,1.17
				C525.87,25.62,525.36,26.14,524.71,26.14z"/>
		</g>
	</g>
</g>
</svg>
