<?xml version="1.0" encoding="utf-8"?>
<!-- Generator: Adobe Illustrator 23.1.0, SVG Export Plug-In . SVG Version: 6.00 Build 0)  -->
<svg version="1.1" id="Layer_1" xmlns="http://www.w3.org/2000/svg" xmlns:xlink="http://www.w3.org/1999/xlink" x="0px" y="0px"
	 viewBox="0 0 393 110" style="enable-background:new 0 0 393 110;" xml:space="preserve">
<style type="text/css">
	.st0{fill:#666666;}
	.st1{fill:none;stroke:#FFFFFF;stroke-width:0.7706;stroke-linecap:round;stroke-linejoin:round;stroke-miterlimit:10;}
	.st2{fill:none;stroke:#FFFFFF;stroke-width:0.3986;stroke-miterlimit:10;}
	.st3{fill:none;stroke:#666666;stroke-width:3.8531;stroke-linecap:round;stroke-linejoin:round;stroke-miterlimit:10;}
	.st4{fill:#232020;}
	.st5{fill:#FFFFFF;}
	.st6{font-family:'Quicksand-SemiBold';}
	.st7{font-size:5.7986px;}
	.st8{font-size:17.4503px;}
	.st9{fill:#E6E6E6;}
	.st10{font-family:'Poppins-Regular';}
	.st11{font-size:20.8394px;}
	.st12{fill:none;stroke:#FFFFFF;stroke-width:0.6689;stroke-linecap:round;stroke-linejoin:round;stroke-miterlimit:10;}
	.st13{fill:none;stroke:#FFFFFF;stroke-width:0.346;stroke-miterlimit:10;}
</style>
<g>
	<g>
		<g>
			<path class="st0" d="M101.35,35.05c-2.5-1.17-5.29-2.17-8.29-3c0.02-4.27,0.03-10.85,0.03-10.85c0-0.3-0.26-0.54-0.58-0.54
				l-21.23-5.85l-21.27,5.85c-0.32,0-0.58,0.24-0.58,0.54v2.96l0,6.31c0,0.45,0,1.01,0.01,1.6c-3.14,0.86-6.04,1.9-8.59,3.12
				c-0.27,0.13-0.38,0.45-0.25,0.71c0.09,0.19,0.28,0.3,0.48,0.3c0.08,0,0.16-0.02,0.23-0.05c7.68-3.67,18.6-5.77,29.95-5.77
				c11.18,0,21.98,2.05,29.64,5.63c0.27,0.12,0.59,0.01,0.71-0.26C101.73,35.5,101.62,35.18,101.35,35.05z M91.69,23.71
				c0,2.18-0.01,5.68-0.02,7.98c-0.31-0.08-0.62-0.15-0.93-0.22c0.01-2.3,0.01-5.64,0.01-7.76l0-1.12l-19.49-5.36L51.75,22.6l0,8.9
				c-0.31,0.07-0.62,0.14-0.93,0.22l0-9.83l20.45-5.62l20.42,5.62L91.69,23.71z"/>
			<path class="st0" d="M71.44,69.85l-0.17,0.06l-0.17-0.06c-2.45-0.94-11.42-6.23-19.53-16.99c-0.46,0.12-0.91,0.24-1.35,0.37
				c8.5,12.81,20.82,18.09,20.82,18.09c0.07,0.03,0.15,0.04,0.22,0.04c0.08,0,0.15-0.01,0.22-0.04c0,0,9.93-3.34,20.8-18.03
				c-0.44-0.13-0.9-0.25-1.35-0.36C79.5,66.52,73.89,68.93,71.44,69.85z M98.09,52.9c-6.46-3.76-15.28-5.59-26.96-5.59
				c-11.84,0-20.31,1.72-26.65,5.41c-0.24,0.14-0.33,0.46-0.2,0.72c0.01,0.02,0.02,0.03,0.03,0.05l-0.01,0c0,0,0.02,0.02,0.04,0.05
				c0.03,0.04,0.06,0.07,0.1,0.1c0.44,0.41,1.95,1.58,5.57,2.38c0,0-2.7-0.92-2.75-2.38c-0.02-0.42,0.13-1.24,1.46-1.83
				c5.71-2.33,12.96-3.43,22.4-3.43c9.51,0,17.08,1.22,22.98,3.72c1.22,0.56,1.34,1.13,1.33,1.54c-0.05,1.46-2.75,2.38-2.75,2.38
				c3.83-0.84,5.09-1.83,5.46-2.22c0.04-0.04,0.08-0.08,0.12-0.14c0.02-0.02,0.02-0.04,0.02-0.04
				C98.41,53.36,98.32,53.04,98.09,52.9z"/>
			<path class="st0" d="M63.31,63.38c0.26,0.2,0.52,0.4,0.78,0.59V50.59c-0.26,0.02-0.52,0.03-0.78,0.05V63.38z M65.03,64.65
				c0.26,0.18,0.52,0.36,0.78,0.52V50.49c-0.26,0.01-0.52,0.03-0.78,0.04L65.03,64.65z M68.48,66.77c0.27,0.14,0.53,0.28,0.78,0.4
				V50.38c-0.26,0-0.52,0.01-0.78,0.01V66.77z M66.75,65.78c0.27,0.16,0.53,0.32,0.78,0.46V50.43c-0.26,0.01-0.52,0.01-0.78,0.02
				V65.78z M61.58,61.95c0.26,0.23,0.52,0.45,0.78,0.66V50.72c-0.26,0.02-0.52,0.04-0.78,0.07V61.95z M53.73,52.4v-0.22
				c-0.03,0.01-0.07,0.02-0.11,0.03C53.66,52.27,53.7,52.33,53.73,52.4z M59.86,60.34c0.26,0.26,0.52,0.51,0.78,0.75v-10.2
				c-0.26,0.03-0.52,0.06-0.78,0.09L59.86,60.34z M54.68,53.94c0.26,0.4,0.52,0.78,0.78,1.16v-3.35c-0.26,0.06-0.52,0.11-0.78,0.18
				V53.94z M70.2,67.63c0.29,0.13,0.55,0.25,0.78,0.34v-17.6c-0.26,0-0.52,0-0.78,0.01V67.63z M56.41,51.54v4.86
				c0.26,0.34,0.52,0.67,0.78,0.99l0-6C56.92,51.44,56.67,51.49,56.41,51.54z M58.13,58.5c0.26,0.29,0.52,0.58,0.78,0.86v-8.25
				c-0.26,0.04-0.52,0.08-0.78,0.12V58.5z M84,59.08c0.26-0.29,0.52-0.58,0.78-0.88v-6.9c-0.26-0.04-0.52-0.08-0.78-0.12V59.08z
				 M85.73,57.05c0.26-0.33,0.52-0.67,0.78-1.02v-4.41c-0.26-0.05-0.52-0.11-0.78-0.16V57.05z M82.28,60.86
				c0.26-0.25,0.52-0.51,0.78-0.77v-9.05c-0.26-0.03-0.52-0.07-0.78-0.1V60.86z M71.93,67.84c0.23-0.1,0.49-0.21,0.78-0.35l0-17.12
				c-0.26,0-0.52-0.01-0.78-0.01V67.84z M87.45,51.83v2.86c0.26-0.39,0.52-0.79,0.78-1.2v-1.47C87.97,51.94,87.71,51.89,87.45,51.83
				z M75.38,50.44v15.65c0.25-0.15,0.51-0.3,0.78-0.47l0-15.16C75.9,50.45,75.64,50.45,75.38,50.44z M73.65,67.04
				c0.25-0.12,0.51-0.26,0.78-0.41V50.41c-0.26-0.01-0.52-0.01-0.78-0.02V67.04z M78.83,63.79c0.26-0.19,0.52-0.39,0.78-0.6V50.68
				c-0.26-0.02-0.52-0.04-0.78-0.06V63.79z M80.55,62.42c0.26-0.22,0.52-0.45,0.78-0.68v-10.9c-0.26-0.03-0.52-0.05-0.78-0.07V62.42
				z M77.1,50.51v14.51c0.26-0.17,0.51-0.35,0.78-0.53V50.56C77.62,50.54,77.36,50.52,77.1,50.51z"/>
		</g>
		<text transform="matrix(1 0 0 1 55.3533 27.7821)" class="st5 st6 st7">COMPLIANT</text>
		<g>
			<g>
				<path class="st0" d="M55.78,33.12l1.47-0.19l1.32,2.53c0.17,0.34,0.32,0.71,0.49,1.06l0.04,0c0.07-0.38,0.12-0.78,0.19-1.15
					l0.59-2.78l1.48-0.19l0.79,5.98l-1.23,0.16l-0.29-2.2c-0.08-0.58-0.08-1.47-0.09-2.06l-0.04,0l-0.3,1.48l-0.54,2.4l-0.75,0.1
					l-1.15-2.18l-0.66-1.35l-0.04,0c0.14,0.57,0.36,1.43,0.44,2.01l0.29,2.2l-1.21,0.16L55.78,33.12z"/>
				<path class="st0" d="M63.03,32.28l1.36-0.1l0.44,6.02l-1.36,0.1L63.03,32.28z"/>
				<path class="st0" d="M66.02,32.08l1.36-0.04l0.13,4.89l2.38-0.06l0.03,1.14l-3.75,0.1L66.02,32.08z"/>
				<path class="st0" d="M70.64,35.21l2.27,0.05l-0.02,0.96l-2.27-0.05L70.64,35.21z"/>
				<path class="st0" d="M73.55,37.32l0.85-0.88c0.4,0.4,0.94,0.7,1.43,0.73c0.57,0.04,0.86-0.16,0.89-0.52
					c0.03-0.38-0.31-0.52-0.82-0.78l-0.76-0.39c-0.6-0.3-1.16-0.85-1.1-1.73c0.07-1,1.02-1.73,2.27-1.64
					c0.69,0.05,1.4,0.38,1.88,0.93l-0.75,0.81c-0.37-0.33-0.74-0.53-1.21-0.56c-0.47-0.03-0.78,0.14-0.81,0.48
					c-0.03,0.37,0.36,0.53,0.87,0.78l0.74,0.37c0.71,0.35,1.14,0.87,1.08,1.72c-0.07,1-0.97,1.8-2.4,1.7
					C74.93,38.29,74.12,37.94,73.55,37.32z"/>
				<path class="st0" d="M80.73,33.83l-1.64-0.23l0.16-1.13l4.64,0.64l-0.16,1.13l-1.64-0.23l-0.67,4.84l-1.35-0.19L80.73,33.83z"/>
				<path class="st0" d="M85.13,33.33l1.67,0.35c1.8,0.38,2.78,1.52,2.35,3.55s-1.79,2.73-3.52,2.37l-1.74-0.37L85.13,33.33z
					 M85.7,38.49c1,0.21,1.78-0.14,2.08-1.55c0.3-1.41-0.29-2-1.29-2.21l-0.25-0.05l-0.79,3.75L85.7,38.49z"/>
			</g>
		</g>
		<g>
			<g>
				<path class="st0" d="M61.72,45.32c-0.05-0.71,0.36-1.18,0.89-1.52l0-0.04c-0.48-0.3-0.85-0.71-0.89-1.32
					c-0.08-1,0.66-1.68,1.75-1.76c1.07-0.08,1.83,0.5,1.9,1.47c0.04,0.56-0.29,1.04-0.67,1.34l0,0.04c0.58,0.26,1.07,0.68,1.13,1.46
					c0.07,0.93-0.71,1.69-1.95,1.78C62.71,46.86,61.79,46.27,61.72,45.32z M64.57,45.04c-0.04-0.52-0.56-0.68-1.31-0.93
					c-0.24,0.25-0.41,0.6-0.38,0.96c0.04,0.51,0.47,0.79,0.97,0.75C64.29,45.79,64.61,45.53,64.57,45.04z M64.28,42.33
					c-0.04-0.46-0.32-0.74-0.77-0.7c-0.36,0.03-0.63,0.27-0.6,0.73c0.04,0.48,0.46,0.67,1.08,0.87
					C64.19,42.93,64.3,42.64,64.28,42.33z"/>
				<path class="st0" d="M66.85,45.37l1.28-0.02l-0.05-3.4l-1.1,0.02l-0.01-0.84c0.63-0.13,1.04-0.3,1.45-0.56l1-0.02l0.08,4.78
					l1.1-0.02l0.02,1.1l-3.74,0.06L66.85,45.37z"/>
				<path class="st0" d="M71.49,43.45c0.08-2,0.97-2.98,2.23-2.93c1.26,0.05,2.05,1.12,1.97,3.11c-0.09,2-0.97,3.03-2.23,2.98
					C72.2,46.56,71.4,45.45,71.49,43.45z M74.4,43.58c0.07-1.6-0.27-1.98-0.73-2s-0.83,0.33-0.9,1.93c-0.07,1.6,0.27,2.04,0.73,2.06
					C73.96,45.58,74.33,45.18,74.4,43.58z"/>
				<path class="st0" d="M78.43,43.84c0.27-1.98,1.74-2.95,3.33-2.74c0.87,0.12,1.43,0.57,1.78,1.03l-0.83,0.77
					c-0.26-0.31-0.55-0.56-1.06-0.63c-0.92-0.12-1.67,0.51-1.83,1.71c-0.17,1.23,0.29,2.02,1.42,2.17c0.24,0.03,0.5,0,0.66-0.09
					l0.14-1.03l-0.99-0.13l0.15-1.1l2.19,0.29l-0.37,2.75c-0.47,0.35-1.24,0.57-2.07,0.46C79.29,47.07,78.16,45.85,78.43,43.84z"/>
			</g>
		</g>
	</g>
	<g>
		<text transform="matrix(1 0 0 1 311.576 100.6025)" class="st0 st6 st8"> Drop</text>
	</g>
	<g>
		<text transform="matrix(1 0 0 1 188.683 100.6014)" class="st0 st6 st8"> IP68</text>
	</g>
	<g>
		<path class="st0" d="M208.3,69.47c-8.76,0-15.85-7.1-15.85-15.85c0-8.76,15.85-33.47,15.85-33.47s15.85,24.72,15.85,33.47
			C224.15,62.37,217.06,69.47,208.3,69.47z"/>
		<text transform="matrix(1 0 0 1 201.299 59.0983)" class="st9 st10 st11">IP</text>
	</g>
	<g>
		<g>
			<path class="st0" d="M353.4,23.12V9.37c0-0.9-0.53-1.64-1.17-1.64c-0.65,0-1.17,0.73-1.17,1.64v13.75c0,0.9,0.53,1.64,1.17,1.64
				C352.88,24.75,353.4,24.02,353.4,23.12z"/>
			<path class="st0" d="M357.55,18.18c-0.65,0-1.17,0.53-1.17,1.17v4.23c0,0.65,0.53,1.17,1.17,1.17c0.65,0,1.17-0.53,1.17-1.17
				v-4.23C358.73,18.7,358.2,18.18,357.55,18.18z"/>
		</g>
		<g>
			<path class="st0" d="M302.81,48.7V34.94c0-0.9-0.53-1.64-1.17-1.64c-0.65,0-1.17,0.73-1.17,1.64V48.7c0,0.9,0.53,1.64,1.17,1.64
				C302.29,50.33,302.81,49.6,302.81,48.7z"/>
			<path class="st0" d="M343.28,23.57V13.35c0-0.9-0.53-1.64-1.17-1.64c-0.65,0-1.17,0.73-1.17,1.64v10.22
				c0,0.9,0.53,1.64,1.17,1.64C342.75,25.21,343.28,24.48,343.28,23.57z"/>
			<path class="st0" d="M313.77,31.17V13.93c0-0.9-0.53-1.64-1.17-1.64c-0.65,0-1.17,0.73-1.17,1.64v17.25
				c0,0.9,0.53,1.64,1.17,1.64C313.24,32.81,313.77,32.08,313.77,31.17z"/>
			<path class="st0" d="M309.35,25.63V8.39c0-0.9-0.53-1.64-1.17-1.64c-0.65,0-1.17,0.73-1.17,1.64v17.25c0,0.9,0.53,1.64,1.17,1.64
				C308.82,27.27,309.35,26.54,309.35,25.63z"/>
			<path class="st0" d="M304.08,24.74c-0.65,0-1.17,0.53-1.17,1.17v4.23c0,0.65,0.53,1.17,1.17,1.17c0.65,0,1.17-0.53,1.17-1.17
				v-4.23C305.25,25.26,304.73,24.74,304.08,24.74z"/>
		</g>
		<g>
			<path class="st0" d="M349.23,25.04l-0.48-0.99c-1.26-2.59-4.39-3.68-6.99-2.42l-29.8,14.46c-0.09,0.02-0.17,0.05-0.26,0.09
				c-0.08,0.04-0.16,0.09-0.23,0.15l-3.14,1.52c-2.59,1.26-3.68,4.39-2.42,6.99l7.93,16.31c1.26,2.59,4.39,3.68,6.99,2.42
				l33.43-16.22c2.59-1.26,3.68-4.39,2.42-6.99l-6.29-12.94L349.23,25.04z"/>
			<path class="st1" d="M314.67,57.77l-6.65-13.7c-0.86-1.76-0.12-3.89,1.64-4.75l32.76-15.9c1.76-0.86,3.89-0.12,4.75,1.64
				l6.65,13.7c0.86,1.76,0.12,3.89-1.64,4.75l-32.76,15.9C317.65,60.27,315.52,59.53,314.67,57.77z"/>
			<path class="st2" d="M338.93,53.36l-2.36,1.07c-0.22,0.1-0.48,0-0.58-0.22l-0.24-0.53c-0.1-0.22,0-0.48,0.22-0.58l2.36-1.07
				c0.22-0.1,0.48,0,0.58,0.22l0.24,0.53C339.25,53,339.15,53.26,338.93,53.36z"/>
			<rect x="297.67" y="67.03" class="st0" width="73.81" height="5.24"/>
		</g>
	</g>
	<g>
		<text transform="matrix(1 0 0 1 12.2873 101.0601)" class="st0 st6 st8">MIL-STD 810 G</text>
	</g>
</g>
</svg>
