<?xml version="1.0" encoding="utf-8"?>
<!-- Generator: Adobe Illustrator 23.1.0, SVG Export Plug-In . SVG Version: 6.00 Build 0)  -->
<svg version="1.1" id="Layer_1" xmlns="http://www.w3.org/2000/svg" xmlns:xlink="http://www.w3.org/1999/xlink" x="0px" y="0px"
	 viewBox="0 0 53 52" style="enable-background:new 0 0 53 52;" xml:space="preserve">
<style type="text/css">
	.st0{fill:#666666;}
	.st1{fill:none;stroke:#FFFFFF;stroke-width:0.7706;stroke-linecap:round;stroke-linejoin:round;stroke-miterlimit:10;}
	.st2{fill:none;stroke:#FFFFFF;stroke-width:0.3986;stroke-miterlimit:10;}
	.st3{fill:none;stroke:#666666;stroke-width:3.8531;stroke-linecap:round;stroke-linejoin:round;stroke-miterlimit:10;}
	.st4{fill:#232020;}
	.st5{fill:none;stroke:#FFFFFF;stroke-width:0.6689;stroke-linecap:round;stroke-linejoin:round;stroke-miterlimit:10;}
	.st6{fill:none;stroke:#FFFFFF;stroke-width:0.346;stroke-miterlimit:10;}
</style>
<g>
	<path class="st4" d="M46.05,44.84H7.35c-0.31,0-0.55-0.25-0.55-0.55V24.87c0-0.31,0.25-0.55,0.55-0.55c0.31,0,0.55,0.25,0.55,0.55
		v18.87h37.59V24.87c0-0.31,0.25-0.55,0.55-0.55c0.31,0,0.55,0.25,0.55,0.55v19.42C46.6,44.6,46.35,44.84,46.05,44.84z"/>
	<g>
		<path class="st4" d="M26.7,35.45c-0.31,0-0.55-0.25-0.55-0.55V5.08c0-0.31,0.25-0.55,0.55-0.55c0.31,0,0.55,0.25,0.55,0.55V34.9
			C27.25,35.21,27,35.45,26.7,35.45z"/>
		<path class="st4" d="M26.7,36.3L26.7,36.3c-0.18,0-0.35-0.09-0.45-0.23l-4.1-5.75c-0.18-0.25-0.12-0.59,0.13-0.77
			c0.25-0.18,0.59-0.12,0.77,0.13l3.65,5.12l3.65-5.12c0.18-0.25,0.52-0.31,0.77-0.13c0.25,0.18,0.31,0.52,0.13,0.77l-4.1,5.75
			C27.04,36.21,26.88,36.3,26.7,36.3z"/>
	</g>
</g>
</svg>
