<?xml version="1.0" encoding="utf-8"?>
<!-- Generator: Adobe Illustrator 23.1.0, SVG Export Plug-In . SVG Version: 6.00 Build 0)  -->
<svg version="1.1" id="Layer_1" xmlns="http://www.w3.org/2000/svg" xmlns:xlink="http://www.w3.org/1999/xlink" x="0px" y="0px"
	 viewBox="0 0 634 187" style="enable-background:new 0 0 634 187;" xml:space="preserve">
<style type="text/css">
	.st0{fill:#666666;}
	.st1{fill:none;stroke:#FFFFFF;stroke-width:0.7706;stroke-linecap:round;stroke-linejoin:round;stroke-miterlimit:10;}
	.st2{fill:none;stroke:#FFFFFF;stroke-width:0.3986;stroke-miterlimit:10;}
	.st3{fill:none;stroke:#666666;stroke-width:3.8531;stroke-linecap:round;stroke-linejoin:round;stroke-miterlimit:10;}
	.st4{font-family:'Quicksand-SemiBold';}
	.st5{font-size:17.4503px;}
	.st6{fill:#232020;}
	.st7{fill:none;stroke:#FFFFFF;stroke-width:0.6689;stroke-linecap:round;stroke-linejoin:round;stroke-miterlimit:10;}
	.st8{fill:none;stroke:#FFFFFF;stroke-width:0.346;stroke-miterlimit:10;}
</style>
<g>
	<line class="st3" x1="142.82" y1="120.97" x2="232.35" y2="120.97"/>
	<path class="st0" d="M168.85,106.46h16.63c0.2,0,0.38-0.09,0.5-0.25l30.77-39.77c0,0,0.16-1.63-1.61-1.06l-27.3,20
		c0,0-1.64,1.15-2.87-0.82l2.21-20.41c0,0,0.25-1.89-1.89-0.9l-11.48,13.77c0,0-0.74,0.98-1.97,0.16l-16.89-47.71
		c0,0-1.07-1.15-1.48,0.49l8.12,48.2c0,0,0.74,1.97-1.15,2.13c0,0-0.49,0.16-2.95-0.66s-20.33-7.71-20.33-7.71s-2.05-0.41-1.56,1.48
		l32.9,32.9C168.6,106.41,168.72,106.46,168.85,106.46z"/>
	<path class="st0" d="M201.69,108.2h36.15c0,0,1.41-0.31,0-1.35l-13.4-5.6c0,0-0.8-0.55-0.43-2.27s7.5-28.22,7.5-28.22
		s-0.25-1.54-1.66-0.43l-29.21,36.13C200.64,106.46,199.78,108.2,201.69,108.2z"/>
</g>
<path class="st0" d="M561.01,26.6l-9.28-9.28c-0.27-0.27-0.64-0.42-1.02-0.42l-36.84-0.03c-0.42,0-0.82,0.17-1.11,0.46l-9.09,9.09
	c-0.26,0.26-0.41,0.62-0.41,1v81.13c0,0.36,0.14,0.7,0.4,0.95l8.74,8.74c0.25,0.25,0.6,0.4,0.95,0.4h37.07
	c0.33,0,0.65-0.13,0.88-0.37l9.77-9.77c0.23-0.23,0.37-0.55,0.37-0.88V27.62C561.43,27.24,561.28,26.87,561.01,26.6z M523.06,28.09
	c0-1.49,1.21-2.71,2.71-2.71h14.02c1.49,0,2.71,1.21,2.71,2.71v0c0,1.49-1.21,2.71-2.71,2.71h-14.02
	C524.27,30.79,523.06,29.58,523.06,28.09L523.06,28.09z M553.29,99.66c0,0.05-0.01,0.1-0.02,0.15c0,0.05,0.02,0.1,0.02,0.15
	c0,1.32-1.07,2.4-2.4,2.4h-36.71c-1.32,0-2.4-1.07-2.4-2.4c0-1.32,1.07-2.4,2.4-2.4h33.69V40.45c0-1.49,1.21-2.71,2.71-2.71
	c1.49,0,2.71,1.21,2.71,2.71V99.66z"/>
<path class="st0" d="M96.08,47.35c0,0-1.72-1.48-5.41-1.23c0,0-0.33-0.41,0.25-1.48c0,0,3.44-7.21-4.02-11.31
	c0,0-2.21-1.48-5.74-1.07c0,0-0.66,0-0.57-1.97c0,0,0.25-7.13-6.89-9.18c0,0-4.92-1.15-6.97,0.98c0,0-0.57-0.21-0.74-1.29
	c0,0-3.2-6.58-11.31-4.94c0,0-4.92,1.64-6.8,5.74c-1.89,4.1-2.95,6.8-2.95,6.8s-0.98,2.05-2.21,1.89c0,0-1.07-0.49-2.79,0.41
	c-1.72,0.9-18.04,11.07-18.04,11.07s-4.26,3.12-2.95,7.62c1.31,4.51,4.02,9.76,4.02,9.76s9.84,19.43,10.41,20.99
	c0.57,1.56,4.02,6.72,2.79,15.25l-4.43,21.81c0,0-0.57,2.54,1.48,3.12c0,0,2.62,0.57,2.95-2.79l3.94-20.82c0,0,1.56-6.31,0-11.23
	c-1.56-4.92-16.4-34.76-16.4-34.76s-1.2-2.95,0.83-4.34c2.04-1.39,17.37-11.56,17.37-11.56s2.62-1.39,6.15,0l11.48,6.89
	c0,0,1.72,0.57,0.66,1.56c0,0-3.85,4.67-8.61,3.36c0,0-2.13-0.9-3.2-1.56c0,0-1.72-0.82-3.28,0.41c-1.56,1.23-8.28,7.3-8.28,7.3
	s-0.74,0.74,0.98,1.31c0,0,23.53,9.35,21.81,26.15l-0.16,2.3c0,0-0.08,1.64,1.97,1.89c0,0,2.71,0.25,2.46-2.71
	c0,0,1.97-9.67-4.84-15.82c0,0,0.08-0.98,2.87-1.89c0,0,1.56-0.33,1.89,0.82c0,0,1.97,5.33,8.12,5.33c0,0,3.36,0,4.59-0.9
	c0,0,1.15,0,1.15,0.74c0,0,0.9,3.85,8.2,4.75c0,0,0.74,0.08,0.57,1.97c0,0,0.25,12.05-10.9,18.28c0,0-3.61,0.41-4.84,6.39
	c-1.23,5.98-2.05,14.84-1.97,18.2c0,0,0.08,1.39,2.3,1.39c0,0,2.3,0.16,2.38-1.8c0,0,0.33-12.05,0.9-13.85
	c0.57-1.8,1.23-5.74,4.43-7.38c0,0,9.1-3.94,11.97-21.31c0,0-0.49-1.23,0.66-3.85c1.15-2.62,7.46-14.99,7.46-14.99
	S101.99,51.29,96.08,47.35z M49.99,51c-0.31,0.55-1.02,2.99-1.02,2.99c-0.16,1.57-0.86,0.79-0.86,0.79
	c-0.63-0.55-3.77-2.28-3.77-2.28c-0.16-0.71,2.28-3.3,2.28-3.3C48.34,49.12,50.3,50.45,49.99,51z M57.53,35.37l-8.94-5.32l4.31-8.59
	c2.44-3.46,7.23-1.41,7.23-1.41c3.86,2.51,2.51,5.97,2.51,5.97L57.53,35.37z M63.21,58.15c-2.71,4.12-7.87,1.54-7.87,1.54
	c-3.38-2.09-1.84-6.15-1.84-6.15c0.61-2.27,2.64-3.32,2.64-3.32c4.73-0.55,7.75-4.8,7.75-4.8c2.21-2.46,1.84-4.49,1.84-4.49
	c-0.12-0.8-3.69-2.89-3.69-2.89c-0.61-0.26-0.43-0.8-0.43-0.8l5.04-9.84c2.52-3.57,6.76-2.03,6.76-2.03
	c3.75,1.48,2.83,6.52,2.83,6.52L63.21,58.15z M77.03,62.71c-1.35,2.58-4.54,3.59-7.13,2.24c-2.58-1.35-3.59-4.54-2.24-7.13
	l9.61-18.4c1.35-2.58,4.54-3.59,7.13-2.24h0C87,38.53,88,41.72,86.65,44.3L77.03,62.71z M95.05,57.06l-5.72,10.95
	c-1.15,2.2-3.86,3.05-6.06,1.9c-2.2-1.15-3.05-3.86-1.9-6.06l5.72-10.95c1.15-2.2,3.86-3.05,6.06-1.9
	C95.34,52.15,96.2,54.86,95.05,57.06z"/>
<g>
	<text transform="matrix(1 0 0 1 16.2612 157.3633)" class="st0 st4 st5">RUGGED</text>
</g>
<g>
	<text transform="matrix(1 0 0 1 131.71 157.3634)"><tspan x="0" y="0" class="st0 st4 st5">DROP PROOF</tspan><tspan x="7.84" y="17" class="st0 st4 st5">UP TO 1.8 M</tspan></text>
</g>
<g>
	<text transform="matrix(1 0 0 1 443.7958 157.3633)" class="st0 st4 st5">FREE SCREEN REPAIR</text>
</g>
<g>
	<text transform="matrix(1 0 0 1 281.9967 157.3633)"><tspan x="0" y="0" class="st0 st4 st5">WITH WINDOWS</tspan><tspan x="39.39" y="17" class="st0 st4 st5">10 PRO</tspan></text>
</g>
<g>
	<path class="st0" d="M299.59,49.74c-5.92-11.46-2.59-23.97,5.83-31.14c8.4-7.15,20.7-7.86,30.01-1.82
		c7.95,5.15,15.14,17.51,8.79,32.04c0.5,0,0.93,0,1.36,0c17,0,34,0,51,0c4.35,0,6.95,2.61,6.96,6.99c0,17.65,0,35.3,0,52.95
		c0,4.36-2.62,7.01-6.96,7.01c-31.03,0-62.06,0-93.09,0c-4.33,0-6.94-2.65-6.94-7.02c0-17.27,0.03-34.54-0.03-51.8
		C296.52,54.05,296.94,51.47,299.59,49.74z M350.04,107.14c12.92,0,25.84,0,38.76,0c4.06,0,6.23-2.15,6.23-6.19
		c0-12.58,0-25.15,0-37.73c0-4.03-2.18-6.17-6.24-6.18c-12.65,0-25.31,0-37.96,0c-0.34,0-0.69-0.02-1.03,0.01
		c-1.35,0.09-2.38,1.14-2.41,2.44c-0.04,1.28,0.96,2.41,2.3,2.56c0.38,0.04,0.76,0.02,1.14,0.02c12.62,0,25.23,0.01,37.85-0.02
		c1.04,0,1.37,0.27,1.37,1.35c-0.04,12.46-0.04,24.93,0,37.39c0,1.09-0.36,1.33-1.38,1.33c-25.73-0.02-51.45-0.03-77.18,0
		c-1.08,0-1.44-0.28-1.43-1.4c0.05-7.28,0.02-14.56,0.02-21.84c0-0.38,0.02-0.76-0.02-1.14c-0.13-1.25-1.12-2.18-2.35-2.23
		c-1.29-0.06-2.37,0.81-2.57,2.11c-0.06,0.41-0.05,0.84-0.06,1.25c0,7.36,0,14.71,0,22.07c0,4.05,2.15,6.2,6.21,6.2
		C324.2,107.14,337.12,107.14,350.04,107.14z M321.65,17.08c-11.27-0.04-20.58,9.16-20.64,20.42c-0.06,11.52,9.09,20.81,20.54,20.85
		c11.35,0.04,20.67-9.17,20.72-20.46C342.32,26.42,333.11,17.12,321.65,17.08z"/>
	<path class="st0" d="M331.76,32.24c0,1.11-0.01,2.21,0,3.32c0.01,1.02-0.45,1.58-1.5,1.58c-2.21,0-4.42,0-6.63,0
		c-0.97,0-1.48-0.5-1.48-1.48c0-2.25,0-4.5,0-6.75c0-0.94,0.49-1.45,1.39-1.46c2.29-0.03,4.57-0.03,6.86,0
		c0.92,0.01,1.37,0.55,1.36,1.48C331.75,30.02,331.76,31.13,331.76,32.24z"/>
	<path class="st0" d="M310.85,32.31c0-1.14,0-2.29,0-3.43c0-0.93,0.49-1.43,1.4-1.44c2.25-0.02,4.5-0.02,6.74,0
		c0.98,0.01,1.48,0.55,1.48,1.51c0.02,2.21,0.03,4.42,0,6.63c-0.02,1.12-0.5,1.55-1.66,1.56c-2.1,0.01-4.19,0.01-6.29,0
		c-1.26-0.01-1.65-0.38-1.68-1.62C310.83,34.44,310.85,33.37,310.85,32.31z"/>
	<path class="st0" d="M315.69,38.7c1.07,0,2.13,0.01,3.2,0c1.04-0.01,1.57,0.5,1.58,1.52c0.02,2.21,0.02,4.42,0,6.63
		c-0.01,1-0.5,1.54-1.56,1.53c-2.17-0.02-4.34-0.02-6.52,0c-1.04,0.01-1.56-0.47-1.55-1.51c0-2.21,0.01-4.42,0-6.63
		c0-1.04,0.49-1.54,1.54-1.53C313.48,38.7,314.59,38.7,315.69,38.7z"/>
	<path class="st0" d="M331.76,43.67c0,1.07,0,2.13,0,3.2c0,0.97-0.45,1.5-1.45,1.5c-2.25,0-4.5,0.01-6.74,0
		c-0.93,0-1.41-0.49-1.41-1.42c-0.01-2.25,0-4.5-0.01-6.74c0-0.99,0.48-1.5,1.46-1.5c2.25-0.01,4.5-0.01,6.74,0
		c0.92,0,1.41,0.49,1.41,1.42C331.76,41.3,331.76,42.49,331.76,43.67z"/>
</g>
</svg>
