<?xml version="1.0" encoding="utf-8"?>
<!-- Generator: Adobe Illustrator 23.1.0, SVG Export Plug-In . SVG Version: 6.00 Build 0)  -->
<svg version="1.1" id="Layer_1" xmlns="http://www.w3.org/2000/svg" xmlns:xlink="http://www.w3.org/1999/xlink" x="0px" y="0px"
	 viewBox="0 0 641 152" style="enable-background:new 0 0 641 152;" xml:space="preserve">
<style type="text/css">
	.st0{fill:#666666;}
	.st1{fill:#FFFFFF;}
	.st2{font-family:'Quicksand-SemiBold';}
	.st3{font-size:5.7986px;}
	.st4{font-size:17.4503px;}
	.st5{fill:#E6E6E6;}
	.st6{font-family:'Poppins-Regular';}
	.st7{font-size:20.8394px;}
	.st8{fill:none;stroke:#FFFFFF;stroke-width:0.7706;stroke-linecap:round;stroke-linejoin:round;stroke-miterlimit:10;}
	.st9{fill:none;stroke:#FFFFFF;stroke-width:0.3986;stroke-miterlimit:10;}
	.st10{fill:none;stroke:#666666;stroke-width:3.8531;stroke-linecap:round;stroke-linejoin:round;stroke-miterlimit:10;}
	.st11{fill:#232020;}
	.st12{fill:none;stroke:#FFFFFF;stroke-width:0.6689;stroke-linecap:round;stroke-linejoin:round;stroke-miterlimit:10;}
	.st13{fill:none;stroke:#FFFFFF;stroke-width:0.346;stroke-miterlimit:10;}
</style>
<g>
	<g>
		<g>
			<path class="st0" d="M224.47,47.2c-2.5-1.17-5.29-2.17-8.29-3c0.02-4.27,0.03-10.85,0.03-10.85c0-0.3-0.26-0.54-0.58-0.54
				l-21.23-5.85l-21.27,5.85c-0.32,0-0.58,0.24-0.58,0.54v2.96l0,6.31c0,0.45,0,1.01,0.01,1.6c-3.14,0.86-6.04,1.9-8.59,3.12
				c-0.27,0.13-0.38,0.45-0.25,0.71c0.09,0.19,0.28,0.3,0.48,0.3c0.08,0,0.16-0.02,0.23-0.05c7.68-3.67,18.6-5.77,29.95-5.77
				c11.18,0,21.98,2.05,29.64,5.63c0.27,0.12,0.59,0.01,0.71-0.26C224.85,47.64,224.73,47.33,224.47,47.2z M214.8,35.86
				c0,2.18-0.01,5.68-0.02,7.98c-0.31-0.08-0.62-0.15-0.93-0.22c0.01-2.3,0.01-5.64,0.01-7.76l0-1.12l-19.49-5.36l-19.52,5.36l0,8.9
				c-0.31,0.07-0.62,0.14-0.93,0.22l0-9.83l20.45-5.62l20.42,5.62L214.8,35.86z"/>
			<path class="st0" d="M194.56,82l-0.17,0.06L194.23,82c-2.45-0.94-11.42-6.23-19.53-16.99c-0.46,0.12-0.91,0.24-1.35,0.37
				c8.5,12.81,20.82,18.09,20.82,18.09c0.07,0.03,0.15,0.04,0.22,0.04c0.08,0,0.15-0.01,0.22-0.04c0,0,9.93-3.34,20.8-18.03
				c-0.44-0.13-0.9-0.25-1.35-0.36C202.61,78.67,197,81.08,194.56,82z M221.2,65.05c-6.46-3.76-15.28-5.59-26.96-5.59
				c-11.84,0-20.31,1.72-26.65,5.41c-0.24,0.14-0.33,0.46-0.2,0.72c0.01,0.02,0.02,0.03,0.03,0.05l-0.01,0c0,0,0.02,0.02,0.04,0.05
				c0.03,0.04,0.06,0.07,0.1,0.1c0.44,0.41,1.95,1.58,5.57,2.38c0,0-2.7-0.92-2.75-2.38c-0.02-0.42,0.13-1.24,1.46-1.83
				c5.71-2.33,12.96-3.43,22.4-3.43c9.51,0,17.08,1.22,22.98,3.72c1.22,0.56,1.34,1.13,1.33,1.54c-0.05,1.46-2.75,2.38-2.75,2.38
				c3.83-0.84,5.09-1.83,5.46-2.22c0.04-0.04,0.08-0.08,0.12-0.14c0.02-0.02,0.02-0.04,0.02-0.04
				C221.53,65.51,221.44,65.19,221.2,65.05z"/>
			<path class="st0" d="M186.42,75.53c0.26,0.2,0.52,0.4,0.78,0.59V62.73c-0.26,0.02-0.52,0.03-0.78,0.05V75.53z M188.15,76.8
				c0.26,0.18,0.52,0.36,0.78,0.52V62.64c-0.26,0.01-0.52,0.03-0.78,0.04L188.15,76.8z M191.6,78.92c0.27,0.14,0.53,0.28,0.78,0.4
				V62.53c-0.26,0-0.52,0.01-0.78,0.01V78.92z M189.87,77.93c0.27,0.16,0.53,0.32,0.78,0.46V62.58c-0.26,0.01-0.52,0.01-0.78,0.02
				V77.93z M184.7,74.1c0.26,0.23,0.52,0.45,0.78,0.66V62.87c-0.26,0.02-0.52,0.04-0.78,0.07V74.1z M176.85,64.54v-0.22
				c-0.03,0.01-0.07,0.02-0.11,0.03C176.78,64.41,176.81,64.48,176.85,64.54z M182.97,72.49c0.26,0.26,0.52,0.51,0.78,0.75v-10.2
				c-0.26,0.03-0.52,0.06-0.78,0.09L182.97,72.49z M177.8,66.09c0.26,0.4,0.52,0.78,0.78,1.16v-3.35c-0.26,0.06-0.52,0.11-0.78,0.18
				V66.09z M193.32,79.78c0.29,0.13,0.55,0.25,0.78,0.34v-17.6c-0.26,0-0.52,0-0.78,0.01V79.78z M179.52,63.69v4.86
				c0.26,0.34,0.52,0.67,0.78,0.99l0-6C180.04,63.58,179.78,63.64,179.52,63.69z M181.25,70.65c0.26,0.29,0.52,0.58,0.78,0.86v-8.25
				c-0.26,0.04-0.52,0.08-0.78,0.12V70.65z M207.12,71.23c0.26-0.29,0.52-0.58,0.78-0.88v-6.9c-0.26-0.04-0.52-0.08-0.78-0.12V71.23
				z M208.84,69.19c0.26-0.33,0.52-0.67,0.78-1.02v-4.41c-0.26-0.05-0.52-0.11-0.78-0.16V69.19z M205.39,73.01
				c0.26-0.25,0.52-0.51,0.78-0.77v-9.05c-0.26-0.03-0.52-0.07-0.78-0.1V73.01z M195.04,79.99c0.23-0.1,0.49-0.21,0.78-0.35l0-17.12
				c-0.26,0-0.52-0.01-0.78-0.01V79.99z M210.57,63.98v2.86c0.26-0.39,0.52-0.79,0.78-1.2v-1.47
				C211.09,64.09,210.83,64.03,210.57,63.98z M198.49,62.59v15.65c0.25-0.15,0.51-0.3,0.78-0.47l0-15.16
				C199.01,62.6,198.75,62.6,198.49,62.59z M196.77,79.18c0.25-0.12,0.51-0.26,0.78-0.41V62.56c-0.26-0.01-0.52-0.01-0.78-0.02
				V79.18z M201.94,75.94c0.26-0.19,0.52-0.39,0.78-0.6V62.83c-0.26-0.02-0.52-0.04-0.78-0.06V75.94z M203.67,74.57
				c0.26-0.22,0.52-0.45,0.78-0.68v-10.9c-0.26-0.03-0.52-0.05-0.78-0.07V74.57z M200.22,62.66v14.51c0.26-0.17,0.51-0.35,0.78-0.53
				V62.71C200.74,62.69,200.48,62.67,200.22,62.66z"/>
		</g>
		<text transform="matrix(1 0 0 1 178.4697 39.9308)" class="st1 st2 st3">COMPLIANT</text>
		<g>
			<g>
				<path class="st0" d="M178.89,45.27l1.47-0.19l1.32,2.53c0.17,0.34,0.32,0.71,0.49,1.06l0.04,0c0.07-0.38,0.12-0.78,0.19-1.15
					l0.59-2.78l1.48-0.19l0.79,5.98l-1.23,0.16l-0.29-2.2c-0.08-0.58-0.08-1.47-0.09-2.06l-0.04,0l-0.3,1.48l-0.54,2.4l-0.75,0.1
					l-1.15-2.18l-0.66-1.35l-0.04,0c0.14,0.57,0.36,1.43,0.44,2.01l0.29,2.2l-1.21,0.16L178.89,45.27z"/>
				<path class="st0" d="M186.15,44.43l1.36-0.1l0.44,6.02l-1.36,0.1L186.15,44.43z"/>
				<path class="st0" d="M189.13,44.22l1.36-0.04l0.13,4.89l2.38-0.06l0.03,1.14l-3.75,0.1L189.13,44.22z"/>
				<path class="st0" d="M193.76,47.35l2.27,0.05l-0.02,0.96l-2.27-0.05L193.76,47.35z"/>
				<path class="st0" d="M196.67,49.47l0.85-0.88c0.4,0.4,0.94,0.7,1.43,0.73c0.57,0.04,0.86-0.16,0.89-0.52
					c0.03-0.38-0.31-0.52-0.82-0.78l-0.76-0.39c-0.6-0.3-1.16-0.85-1.1-1.73c0.07-1,1.02-1.73,2.27-1.64
					c0.69,0.05,1.4,0.38,1.88,0.93l-0.75,0.81c-0.37-0.33-0.74-0.53-1.21-0.56c-0.47-0.03-0.78,0.14-0.81,0.48
					c-0.03,0.37,0.36,0.53,0.87,0.78l0.74,0.37c0.71,0.35,1.14,0.87,1.08,1.72c-0.07,1-0.97,1.8-2.4,1.7
					C198.05,50.44,197.24,50.08,196.67,49.47z"/>
				<path class="st0" d="M203.85,45.98l-1.64-0.23l0.16-1.13l4.64,0.64l-0.16,1.13l-1.64-0.23l-0.67,4.84l-1.35-0.19L203.85,45.98z"
					/>
				<path class="st0" d="M208.25,45.48l1.67,0.35c1.8,0.38,2.78,1.52,2.35,3.55s-1.79,2.73-3.52,2.37L207,51.38L208.25,45.48z
					 M208.82,50.64c1,0.21,1.78-0.14,2.08-1.55c0.3-1.41-0.29-2-1.29-2.21l-0.25-0.05l-0.79,3.75L208.82,50.64z"/>
			</g>
		</g>
		<g>
			<g>
				<path class="st0" d="M184.67,57.48c-0.05-0.71,0.36-1.18,0.89-1.52l0-0.04c-0.48-0.3-0.85-0.7-0.89-1.32
					c-0.08-1,0.66-1.68,1.75-1.76c1.07-0.08,1.83,0.5,1.91,1.47c0.04,0.56-0.29,1.04-0.67,1.34l0,0.04
					c0.58,0.26,1.07,0.68,1.13,1.46c0.07,0.92-0.71,1.69-1.95,1.78C185.67,59.02,184.75,58.43,184.67,57.48z M187.52,57.2
					c-0.04-0.52-0.56-0.68-1.32-0.93c-0.24,0.25-0.41,0.6-0.38,0.97c0.04,0.51,0.47,0.79,0.97,0.75
					C187.24,57.95,187.56,57.69,187.52,57.2z M187.23,54.49c-0.04-0.46-0.32-0.74-0.77-0.7c-0.36,0.03-0.63,0.27-0.6,0.73
					c0.04,0.48,0.46,0.67,1.08,0.86C187.14,55.09,187.25,54.8,187.23,54.49z"/>
				<path class="st0" d="M189.79,57.53l1.29-0.02l-0.07-3.4l-1.1,0.02l-0.02-0.84c0.63-0.13,1.04-0.3,1.45-0.56l1-0.02l0.09,4.78
					l1.1-0.02l0.02,1.1l-3.75,0.07L189.79,57.53z"/>
				<path class="st0" d="M194.45,55.6c0.08-2,0.96-2.98,2.22-2.93c1.26,0.05,2.06,1.12,1.97,3.11c-0.08,2-0.97,3.04-2.23,2.98
					C195.16,58.7,194.36,57.59,194.45,55.6z M197.36,55.72c0.07-1.6-0.27-1.98-0.73-2s-0.83,0.33-0.9,1.93
					c-0.07,1.6,0.27,2.04,0.73,2.05C196.92,57.72,197.29,57.32,197.36,55.72z"/>
				<path class="st0" d="M202.07,52.98l1.35,0.18l-0.31,2.3l2.06,0.28l0.31-2.3l1.35,0.18l-0.8,5.97l-1.35-0.18l0.34-2.5l-2.06-0.28
					l-0.34,2.49l-1.35-0.18L202.07,52.98z"/>
			</g>
		</g>
	</g>
	<g>
		<text transform="matrix(1 0 0 1 414.9736 112.751)" class="st0 st2 st4">1.8 M Drop</text>
	</g>
	<g>
		<text transform="matrix(1 0 0 1 19.2303 112.7498)" class="st0 st2 st4">4000 mAh</text>
	</g>
	<g>
		<g>
			<path class="st0" d="M52.35,38.07v6.22H45.2c-0.4,0-0.72,0.32-0.72,0.72v39.21c0,0.4,0.32,0.72,0.72,0.72h27.95
				c0.4,0,0.72-0.32,0.72-0.72V45c0-0.4-0.32-0.72-0.72-0.72h-6.69v-6.22c0-0.4-0.32-0.72-0.72-0.72H53.07
				C52.68,37.35,52.35,37.67,52.35,38.07z M72.44,45.72V83.5H45.92V45.72h7.15h12.67H72.44z M65.03,38.78v5.5H53.79v-5.5H65.03z"/>
		</g>
		<rect x="45.42" y="45.09" class="st0" width="27.74" height="39.07"/>
		<rect x="53.36" y="38.05" class="st0" width="12.04" height="8.21"/>
	</g>
	<g>
		<text transform="matrix(1 0 0 1 287.4303 112.7501)" class="st0 st2 st4">IP69 / IP68</text>
	</g>
	<g>
		<text transform="matrix(1 0 0 1 548.6239 113.2074)"><tspan x="0" y="0" class="st0 st2 st4">SD card </tspan><tspan x="-15.13" y="17" class="st0 st2 st4">up to 256GB</tspan></text>
	</g>
	<g>
		<path class="st0" d="M331.42,81.62c-8.76,0-15.85-7.1-15.85-15.85c0-8.76,15.85-33.47,15.85-33.47s15.85,24.72,15.85,33.47
			C347.27,74.52,340.17,81.62,331.42,81.62z"/>
		<text transform="matrix(1 0 0 1 324.4154 71.247)" class="st5 st6 st7">IP</text>
	</g>
	<path class="st0" d="M600,39.28h-18.64c-0.45,0-0.87,0.18-1.19,0.5l-11.59,11.8c-0.31,0.31-0.48,0.73-0.48,1.17V78.7
		c0,0.92,0.74,1.66,1.66,1.66H600c0.92,0,1.66-0.74,1.66-1.66V40.94C601.66,40.02,600.92,39.28,600,39.28z M585.85,50.65h-4.28
		v-8.47h4.28V50.65z M592.24,50.65h-4.28v-8.47h4.28V50.65z M598.63,50.65h-4.28v-8.47h4.28V50.65z"/>
	<g>
		<g>
			<path class="st0" d="M476.52,35.27V21.51c0-0.9-0.53-1.64-1.17-1.64c-0.65,0-1.17,0.73-1.17,1.64v13.75
				c0,0.9,0.53,1.64,1.17,1.64C475.99,36.9,476.52,36.17,476.52,35.27z"/>
			<path class="st0" d="M480.67,30.33c-0.65,0-1.17,0.53-1.17,1.17v4.23c0,0.65,0.53,1.17,1.17,1.17c0.65,0,1.17-0.53,1.17-1.17
				V31.5C481.84,30.85,481.32,30.33,480.67,30.33z"/>
		</g>
		<g>
			<path class="st0" d="M425.93,60.85V47.09c0-0.9-0.53-1.64-1.17-1.64c-0.65,0-1.17,0.73-1.17,1.64v13.75
				c0,0.9,0.53,1.64,1.17,1.64C425.41,62.48,425.93,61.75,425.93,60.85z"/>
			<path class="st0" d="M466.39,35.72V25.5c0-0.9-0.53-1.64-1.17-1.64c-0.65,0-1.17,0.73-1.17,1.64v10.22c0,0.9,0.53,1.64,1.17,1.64
				C465.87,37.36,466.39,36.63,466.39,35.72z"/>
			<path class="st0" d="M436.88,43.32V26.08c0-0.9-0.53-1.64-1.17-1.64c-0.65,0-1.17,0.73-1.17,1.64v17.25
				c0,0.9,0.53,1.64,1.17,1.64C436.36,44.96,436.88,44.23,436.88,43.32z"/>
			<path class="st0" d="M432.46,37.78V20.54c0-0.9-0.53-1.64-1.17-1.64c-0.65,0-1.17,0.73-1.17,1.64v17.25
				c0,0.9,0.53,1.64,1.17,1.64C431.94,39.42,432.46,38.69,432.46,37.78z"/>
			<path class="st0" d="M427.19,36.89c-0.65,0-1.17,0.53-1.17,1.17v4.23c0,0.65,0.53,1.17,1.17,1.17c0.65,0,1.17-0.53,1.17-1.17
				v-4.23C428.37,37.41,427.84,36.89,427.19,36.89z"/>
		</g>
		<g>
			<path class="st0" d="M472.35,37.19l-0.48-0.99c-1.26-2.59-4.39-3.68-6.99-2.42l-29.8,14.46c-0.09,0.02-0.17,0.05-0.26,0.09
				c-0.08,0.04-0.16,0.09-0.23,0.15l-3.14,1.52c-2.59,1.26-3.68,4.39-2.42,6.99l7.93,16.31c1.26,2.59,4.39,3.68,6.99,2.42
				l33.43-16.22c2.59-1.26,3.68-4.39,2.42-6.99l-6.29-12.94L472.35,37.19z"/>
			<path class="st8" d="M437.78,69.92l-6.65-13.7c-0.86-1.76-0.12-3.89,1.64-4.75l32.76-15.9c1.76-0.86,3.89-0.12,4.75,1.64
				l6.65,13.7c0.86,1.76,0.12,3.89-1.64,4.75l-32.76,15.9C440.77,72.42,438.64,71.68,437.78,69.92z"/>
			<path class="st9" d="M462.05,65.51l-2.36,1.07c-0.22,0.1-0.48,0-0.58-0.22l-0.24-0.53c-0.1-0.22,0-0.48,0.22-0.58l2.36-1.07
				c0.22-0.1,0.48,0,0.58,0.22l0.24,0.53C462.37,65.15,462.27,65.41,462.05,65.51z"/>
			<rect x="420.79" y="79.17" class="st0" width="73.81" height="5.24"/>
		</g>
	</g>
	<g>
		<text transform="matrix(1 0 0 1 135.2029 113.2085)" class="st0 st2 st4">MIL-STD 810 H</text>
	</g>
</g>
</svg>
