<?xml version="1.0" encoding="utf-8"?>
<!-- Generator: Adobe Illustrator 22.0.1, SVG Export Plug-In . SVG Version: 6.00 Build 0)  -->
<svg version="1.1" id="Layer_1" xmlns="http://www.w3.org/2000/svg" xmlns:xlink="http://www.w3.org/1999/xlink" x="0px" y="0px"
	 viewBox="0 0 87 87" style="enable-background:new 0 0 87 87;" xml:space="preserve">
<style type="text/css">
	.st0{fill:#FFFFFF;}
	.st1{fill:none;stroke:#000000;stroke-miterlimit:10;}
	.st2{fill:none;stroke:#000000;stroke-width:1.5;stroke-linecap:round;stroke-linejoin:round;stroke-miterlimit:10;}
	.st3{enable-background:new    ;}
</style>
<path class="st0" d="M0.9,19v49.3c0,0,2.8,18.7,19.2,18.3c16.4-0.3,47.6-0.4,47.6-0.4s9.8-0.7,13.8-7.2c0,0,4.7-4.5,4.6-12.4
	S86,19,86,19S83.7,1.1,67.3,0.9S19,0.9,19,0.9S3.3,2.6,0.9,19z"/>
<g>
	<path d="M67,2c9.9,0,18,8.1,18,18v47c0,9.9-8.1,18-18,18H20c-9.9,0-18-8.1-18-18V20c0-9.9,8.1-18,18-18H67 M67,0H20C9,0,0,9,0,20
		v47c0,11,9,20,20,20h47c11,0,20-9,20-20V20C87,9,78,0,67,0L67,0z"/>
</g>
<circle class="st1" cx="56" cy="35.1" r="1.6"/>
<polyline class="st2" points="9,41 44,60 77,41 "/>
<path class="st2" d="M33,54c3.1-3.8,6.4-6,11-6c4.3,0,8.3,2.1,11.3,5.5"/>
<g class="st3">
	<path d="M36.6,33.4v9.9h-1.6v-8.2l-2.2,0.8l-0.5-1.3l2.8-1.1H36.6z"/>
	<path d="M42.8,33.4v9.9h-1.6v-8.2L39,35.8l-0.5-1.3l2.8-1.1H42.8z"/>
	<path d="M49.8,37.3c0.5,0.3,0.8,0.6,1.1,1.1s0.4,1,0.4,1.7c0,0.7-0.1,1.3-0.4,1.8c-0.3,0.5-0.7,0.9-1.2,1.2
		c-0.5,0.3-1.1,0.4-1.8,0.4c-0.5,0-1.1-0.1-1.6-0.2c-0.5-0.2-0.9-0.3-1.3-0.6l0.6-1.3c0.4,0.2,0.8,0.4,1.1,0.5
		c0.4,0.1,0.8,0.2,1.1,0.2c0.6,0,1-0.2,1.4-0.5c0.3-0.3,0.5-0.8,0.5-1.4c0-0.6-0.1-1-0.4-1.3c-0.3-0.3-0.7-0.5-1.3-0.5
		c-0.3,0-0.5,0-0.8,0.1s-0.5,0.2-0.8,0.3l-1-0.5l0.3-4.9h5.2v1.4h-3.8l-0.2,2.3c0.4-0.1,0.8-0.2,1.3-0.2
		C48.8,36.9,49.4,37,49.8,37.3z"/>
</g>
</svg>
