<?xml version="1.0" encoding="utf-8"?>
<!-- Generator: Adobe Illustrator 22.0.1, SVG Export Plug-In . SVG Version: 6.00 Build 0)  -->
<svg version="1.1" id="Layer_1" xmlns="http://www.w3.org/2000/svg" xmlns:xlink="http://www.w3.org/1999/xlink" x="0px" y="0px"
	 viewBox="0 0 87 87" style="enable-background:new 0 0 87 87;" xml:space="preserve">
<style type="text/css">
	.st0{fill:none;stroke:#FFFFFF;stroke-miterlimit:10;}
	.st1{fill:none;stroke:#FFFFFF;stroke-width:1.5;stroke-linecap:round;stroke-linejoin:round;stroke-miterlimit:10;}
	.st2{enable-background:new    ;}
	.st3{fill:#FFFFFF;}
</style>
<g>
	<path d="M67,87H20C9,87,0,78,0,67V20C0,9,9,0,20,0h47c11,0,20,9,20,20v47C87,78,78,87,67,87z"/>
</g>
<circle class="st0" cx="56" cy="35.1" r="1.6"/>
<polyline class="st1" points="9,41 44,60 77,41 "/>
<path class="st1" d="M33,54c3.1-3.8,6.4-6,11-6c4.3,0,8.3,2.1,11.3,5.5"/>
<g class="st2">
	<path class="st3" d="M36.6,33.4v9.9h-1.6v-8.2l-2.2,0.8l-0.5-1.3l2.8-1.1H36.6z"/>
	<path class="st3" d="M42.8,33.4v9.9h-1.6v-8.2L39,35.8l-0.5-1.3l2.8-1.1H42.8z"/>
	<path class="st3" d="M49.8,37.3c0.5,0.3,0.8,0.6,1.1,1.1s0.4,1,0.4,1.7c0,0.7-0.1,1.3-0.4,1.8c-0.3,0.5-0.7,0.9-1.2,1.2
		c-0.5,0.3-1.1,0.4-1.8,0.4c-0.5,0-1.1-0.1-1.6-0.2c-0.5-0.2-0.9-0.3-1.3-0.6l0.6-1.3c0.4,0.2,0.8,0.4,1.1,0.5
		c0.4,0.1,0.8,0.2,1.1,0.2c0.6,0,1-0.2,1.4-0.5c0.3-0.3,0.5-0.8,0.5-1.4c0-0.6-0.1-1-0.4-1.3c-0.3-0.3-0.7-0.5-1.3-0.5
		c-0.3,0-0.5,0-0.8,0.1s-0.5,0.2-0.8,0.3l-1-0.5l0.3-4.9h5.2v1.4h-3.8l-0.2,2.3c0.4-0.1,0.8-0.2,1.3-0.2
		C48.8,36.9,49.4,37,49.8,37.3z"/>
</g>
</svg>
