<?xml version="1.0" encoding="utf-8"?>
<!-- Generator: Adobe Illustrator 22.0.1, SVG Export Plug-In . SVG Version: 6.00 Build 0)  -->
<svg version="1.1" id="Layer_1" xmlns="http://www.w3.org/2000/svg" xmlns:xlink="http://www.w3.org/1999/xlink" x="0px" y="0px"
	 viewBox="0 0 87 87" style="enable-background:new 0 0 87 87;" xml:space="preserve">
<style type="text/css">
	.st0{fill:none;stroke:#FFFFFF;stroke-width:1.5;stroke-linecap:round;stroke-linejoin:round;stroke-miterlimit:10;}
	.st1{fill:none;stroke:#FFFFFF;stroke-miterlimit:10;}
	.st2{enable-background:new    ;}
	.st3{fill:#FFFFFF;}
</style>
<g>
	<path d="M67,87H20C9,87,0,78,0,67V20C0,9,9,0,20,0h47c11,0,20,9,20,20v47C87,78,78,87,67,87z"/>
</g>
<polyline class="st0" points="12,28 43,67 75,28 "/>
<path class="st0" d="M34.8,56.7c2.5-1.1,5.3-1.7,8.2-1.7c3,0,5.8,0.6,8.4,1.8"/>
<circle class="st1" cx="54" cy="38.1" r="1.6"/>
<g class="st2">
	<path class="st3" d="M41.4,36.4v1.4l-3.8,8.6L36,45.8l3.7-8h-4.6v-1.4H41.4z"/>
	<path class="st3" d="M48.5,36.4v1.4l-3.8,8.6l-1.5-0.6l3.7-8h-4.6v-1.4H48.5z"/>
</g>
</svg>
