<?xml version="1.0" encoding="utf-8"?>
<!-- Generator: Adobe Illustrator 22.0.1, SVG Export Plug-In . SVG Version: 6.00 Build 0)  -->
<svg version="1.1" id="Layer_1" xmlns="http://www.w3.org/2000/svg" xmlns:xlink="http://www.w3.org/1999/xlink" x="0px" y="0px"
	 viewBox="0 0 87 87" style="enable-background:new 0 0 87 87;" xml:space="preserve">
<style type="text/css">
	.st0{fill:#FFFFFF;}
	.st1{fill:none;stroke:#000000;stroke-width:1.5;stroke-linecap:round;stroke-linejoin:round;stroke-miterlimit:10;}
	.st2{fill:none;stroke:#000000;stroke-miterlimit:10;}
	.st3{enable-background:new    ;}
</style>
<path class="st0" d="M0.9,19v49.3c0,0,2.8,18.7,19.2,18.3c16.4-0.3,47.6-0.4,47.6-0.4s9.8-0.7,13.8-7.2c0,0,4.7-4.5,4.6-12.4
	S86,19,86,19S83.7,1.1,67.3,0.9S19,0.9,19,0.9S3.3,2.6,0.9,19z"/>
<g>
	<path d="M67,2c9.9,0,18,8.1,18,18v47c0,9.9-8.1,18-18,18H20c-9.9,0-18-8.1-18-18V20c0-9.9,8.1-18,18-18H67 M67,0H20C9,0,0,9,0,20
		v47c0,11,9,20,20,20h47c11,0,20-9,20-20V20C87,9,78,0,67,0L67,0z"/>
</g>
<polyline class="st1" points="12,28 43,67 75,28 "/>
<path class="st1" d="M34.8,56.7c2.5-1.1,5.3-1.7,8.2-1.7c3,0,5.8,0.6,8.4,1.8"/>
<circle class="st2" cx="54" cy="38.1" r="1.6"/>
<g class="st3">
	<path d="M41.4,36.4v1.4l-3.8,8.6L36,45.8l3.7-8h-4.6v-1.4H41.4z"/>
	<path d="M48.5,36.4v1.4l-3.8,8.6l-1.5-0.6l3.7-8h-4.6v-1.4H48.5z"/>
</g>
</svg>
