<?xml version="1.0" encoding="utf-8"?>
<!-- Generator: Adobe Illustrator 22.0.1, SVG Export Plug-In . SVG Version: 6.00 Build 0)  -->
<svg version="1.1" id="Layer_1" xmlns="http://www.w3.org/2000/svg" xmlns:xlink="http://www.w3.org/1999/xlink" x="0px" y="0px"
	 viewBox="0 0 87 87" style="enable-background:new 0 0 87 87;" xml:space="preserve">
<g>
	<path d="M67,87H20C9,87,0,78,0,67V20C0,9,9,0,20,0h47c11,0,20,9,20,20v47C87,78,78,87,67,87z"/>
</g>
<g>
	<path style="fill:#FFFFFF;" d="M41.2729492,36.4428711v1.3901367l-3.7441406,8.4238281l-1.4970703-0.6152344l3.5830078-7.8085938
		h-4.4521484v-1.3901367H41.2729492z"/>
	<path style="fill:#FFFFFF;" d="M48.2519531,36.4428711v1.3901367l-3.7441406,8.4238281l-1.496582-0.6152344l3.5834961-7.8085938
		h-4.4526367v-1.3901367H48.2519531z"/>
</g>
<circle style="fill:none;stroke:#FFFFFF;stroke-miterlimit:10;" cx="54.0440521" cy="38.1409683" r="1.6409692"/>
<path style="fill:#FFFFFF;stroke:#000000;stroke-miterlimit:10;" d="M11.5,28.5"/>
<polyline style="fill:none;stroke:#FFFFFF;stroke-width:1.5;stroke-linecap:round;stroke-linejoin:round;stroke-miterlimit:10;" points="
	12,27.3770485 44.0163918,66.6229477 75,27.3770485 "/>
<path style="fill:none;stroke:#FFFFFF;stroke-width:1.5;stroke-linecap:round;stroke-linejoin:round;stroke-miterlimit:10;" d="
	M54.0443726,52.9208374C51.6856079,49.6419678,47.8476563,48.5,43.5,48.5c-4.1477661,0-7.8288574,1.9517822-10.2070923,4.9780273"/>
</svg>
