<svg id="Icons" xmlns="http://www.w3.org/2000/svg" viewBox="0 0 60 60"><defs><style>.cls-1,.cls-2,.cls-4{fill:none;stroke:#12100b;stroke-width:1.5px;}.cls-1,.cls-4{stroke-miterlimit:10;}.cls-2,.cls-4{stroke-linecap:round;}.cls-2{stroke-linejoin:round;}.cls-3{fill:#12100b;}</style></defs><title>92. Kids Mode (Tablet, Kids Friendly)</title><path class="cls-1" d="M34.45,47.18A20.75,20.75,0,1,1,47.32,31.74"/><path class="cls-2" d="M32.07,36.87a7,7,0,0,1-10.17,0"/><path class="cls-3" d="M19.56,27.53a2.14,2.14,0,1,1-2.14-2.14A2.13,2.13,0,0,1,19.56,27.53Z"/><path class="cls-3" d="M38.69,27.53a2.14,2.14,0,1,1-2.14-2.14A2.13,2.13,0,0,1,38.69,27.53Z"/><path class="cls-2" d="M12.86,12.74a3.88,3.88,0,0,0-.07.87c0,3.23,2.49,4.93,5.56,4.93,1.56,0,3-1.6,4-2.69,1.15,1.09,2.67,2.68,4.34,2.68s3.19-1.59,4.34-2.68c1,1.09,2.42,2.69,4,2.69,3.07,0,5.56-1.7,5.56-4.93a7.13,7.13,0,0,0-.2-1.55"/><line class="cls-4" x1="26.99" y1="30.97" x2="26.99" y2="32.08"/><path class="cls-1" d="M46.71,52.83s7-1.95,7-7.78V36.87a11.58,11.58,0,0,1-7-1.17,11.63,11.63,0,0,1-7,1.17v8.18C39.7,50.88,46.71,52.83,46.71,52.83Z"/><line class="cls-1" x1="46.71" y1="35.7" x2="46.71" y2="52.83"/></svg>