<svg id="Icons" xmlns="http://www.w3.org/2000/svg" viewBox="0 0 60 60"><defs><style>.cls-1{fill:#12100b;}.cls-2{fill:none;stroke:#12100b;stroke-miterlimit:10;stroke-width:1.5px;}</style></defs><title>95. 배터리용량 (Tablet, Battery Life)</title><polygon class="cls-1" points="39.16 48.78 39.16 16.54 33.64 16.54 26.36 16.54 20.84 16.54 20.84 48.78 39.16 48.78"/><path class="cls-2" d="M24.59,12.14H17.36a1,1,0,0,0-1,1v39a1,1,0,0,0,1,1H42.64a4.85,4.85,0,0,0,1,0v-40a1,1,0,0,0-1-1H35.41"/><path class="cls-2" d="M35.41,12.89V7.12a.29.29,0,0,0-.3-.3H24.89a.29.29,0,0,0-.3.3v5.77"/></svg>